<svg width="188" height="84" viewBox="0 0 188 84" fill="none" xmlns="http://www.w3.org/2000/svg">
<path d="M159.973 27.0068L160.001 27.0451C159.713 27.9273 159.541 28.8408 159.321 29.7404C158.983 31.1002 158.657 32.4624 158.341 33.8269C158.287 34.0593 158.182 34.1023 157.974 34.1023C155.205 34.0954 152.438 34.1023 149.67 34.0907C149.42 34.0907 149.33 34.1651 149.271 34.408C147.505 41.8286 145.736 49.2492 143.965 56.6697C143.905 56.9219 143.811 57.0021 143.552 57.001C140.854 56.9894 138.157 56.994 135.459 56.994H135.127C136.95 49.3557 138.767 41.7418 140.592 34.0977H140.237C137.689 34.0977 135.139 34.0977 132.595 34.1047C132.307 34.1047 132.274 34.0407 132.338 33.7641C132.833 31.6116 133.316 29.456 133.788 27.2974C133.841 27.0521 133.934 27.001 134.163 27.001C142.765 27.0049 151.369 27.0068 159.973 27.0068Z" fill="#007ACB"/>
<path d="M37.4909 55.3497C37.5981 55.3163 37.6919 55.2482 37.7582 55.1556C45.6379 47.5533 53.5766 40.0161 61.5016 32.4696C63.2778 30.7774 64.9963 29.0259 66.7555 27.3162C66.8022 27.2583 66.8604 27.2112 66.9263 27.1782C66.9921 27.1451 67.064 27.1268 67.1372 27.1244C71.2236 27.1298 75.31 27.1298 79.3963 27.1244H79.6002L79.052 27.6358C74.7927 31.5797 70.5322 35.5221 66.2707 39.4629C66.0736 39.6453 66.0441 39.7592 66.1834 40.0056C69.3881 45.5461 72.4976 51.1423 75.6332 56.7223C75.6762 56.8002 75.7182 56.878 75.7805 56.9943H75.512C73.004 56.9943 70.496 57.0082 67.9891 56.9873C66.2582 56.9722 64.5386 56.8269 62.8791 56.2609C61.4178 55.7623 60.294 54.8546 59.5339 53.4633C58.7115 51.9594 57.8495 50.4775 57.0021 48.9875C56.9604 48.8777 56.8922 48.7805 56.8039 48.7051L53.8722 51.4143C51.9299 53.2096 49.9901 55.0053 48.0531 56.8013C47.9945 56.8636 47.924 56.9128 47.846 56.9458C47.7681 56.9788 47.6843 56.9949 47.5999 56.9931C41.2654 56.9877 34.9308 56.9877 28.5962 56.9931H28.3288C28.5112 56.2237 28.6857 55.4822 28.8635 54.7395C29.9367 50.2625 31.009 45.7859 32.0807 41.3097C32.2574 40.5763 32.5848 39.8929 32.826 39.1804C32.86 39.0782 32.9393 38.984 32.8974 38.8167C31.2605 40.4031 29.7256 42.05 28.168 43.6795C28.0672 43.6295 28.1068 43.547 28.1057 43.4854C28.0694 40.9924 28.0377 38.4982 27.9924 36.004C27.9902 35.9292 28.0052 35.855 28.0363 35.7873C28.0675 35.7196 28.1137 35.6605 28.1714 35.6147C31.1008 32.833 34.0276 30.0486 36.9517 27.2616C37.0013 27.2132 37.0601 27.1758 37.1244 27.1516C37.1887 27.1274 37.2571 27.117 37.3255 27.1209C39.5337 27.1209 41.7419 27.1209 43.9501 27.1209C44.1846 27.1209 44.197 27.1814 44.1461 27.3964C41.956 36.5999 39.7659 45.8049 37.5758 55.0115C37.5622 55.1137 37.5294 55.2172 37.4909 55.3497Z" fill="#002F5E"/>
<path d="M102.373 56.9168C102.774 55.2338 103.166 53.5869 103.559 51.9388C105.517 43.721 107.473 35.5015 109.426 27.2805C109.482 27.0481 109.576 27.0028 109.786 27.0039C117.072 27.0086 124.358 27.0086 131.642 27.0039H131.956C131.565 28.7473 131.182 30.4593 130.799 32.1713C130.678 32.7094 130.546 33.2452 130.443 33.7857C130.397 34.0181 130.301 34.0855 130.068 34.0844C126.665 34.0766 123.262 34.0747 119.86 34.0785C118.899 34.0785 117.934 34.089 116.978 34.0716C116.736 34.0716 116.654 34.1599 116.6 34.3784C116.305 35.5674 116.008 36.7552 115.694 37.9361C115.615 38.2266 115.694 38.2626 115.953 38.2615C120.286 38.2545 124.62 38.2545 128.953 38.2615C129.43 38.2615 129.433 38.2615 129.328 38.7264C128.859 40.8289 128.383 42.9291 127.922 45.0328C127.869 45.2768 127.782 45.3535 127.529 45.3535C123.126 45.3442 118.723 45.3535 114.319 45.3396C113.98 45.3396 113.88 45.4453 113.821 45.8707C113.642 47.0747 113.37 48.2623 113.009 49.4226C112.888 49.827 112.96 49.8538 113.235 49.8538C118.522 49.8483 123.806 49.8483 129.087 49.8538C129.483 49.8538 129.484 49.8538 129.394 50.2373C128.888 52.3828 128.384 54.5283 127.88 56.6739C127.837 56.861 127.767 56.9342 127.569 56.9342C119.243 56.9272 110.917 56.9253 102.591 56.9284C102.525 56.9261 102.466 56.9202 102.373 56.9168Z" fill="#0079CB"/>
<path d="M44.584 27.0067H44.8581C47.9405 27.0067 51.0228 26.995 54.104 27.0195C56.2892 27.0357 58.2591 27.675 59.8541 29.2835C60.1619 29.6051 60.447 29.9488 60.707 30.3121C60.8203 30.4679 60.7852 30.5446 60.6617 30.6608C58.0095 33.1836 55.3595 35.7096 52.7118 38.2387L51.5722 39.3265L44.584 27.0067Z" fill="#002F5E"/>
<path d="M100.988 41.0771C102.118 40.3075 103.022 39.2357 103.602 37.9774C104.409 36.2572 104.794 34.4558 104.419 32.5578C103.99 30.3774 102.659 28.9362 100.728 28.0367C99.1418 27.2998 97.4551 27.0592 95.731 27.0511C93.3204 27.0394 90.9087 27.0511 88.4969 27.0511V27.065C85.8915 27.065 83.2736 27.065 80.6625 27.058C80.3725 27.058 80.257 27.1336 80.1856 27.4323C78.3392 35.2263 76.4844 43.0181 74.6213 50.8075C74.5488 51.112 74.7346 51.2538 74.9782 51.671C75.9422 53.3179 76.6774 54.7835 77.6119 56.3932C77.8702 56.8372 77.8793 56.9744 78.1557 56.9744C81.7051 56.9689 85.2571 56.9689 88.8119 56.9744C90.533 56.985 92.2476 56.7575 93.9094 56.2979C96.5432 55.5518 98.8597 54.2605 100.61 52.0638C102.196 50.0752 103.094 47.8007 103.045 45.2066C103.015 43.5864 102.382 42.2521 100.994 41.3711C100.814 41.2479 100.818 41.1933 100.988 41.0771ZM95.015 47.1464C94.7148 48.6224 93.9072 49.4023 92.3575 49.7161C91.7482 49.8351 91.129 49.8934 90.5088 49.8904C88.2874 49.8904 86.0671 49.8904 83.8457 49.8974C83.5942 49.8974 83.5534 49.8451 83.6191 49.5917C83.9929 48.0568 84.3551 46.5176 84.7055 44.9741C84.7485 44.7835 84.8289 44.7417 85.0079 44.7417C86.2291 44.7486 87.4491 44.7417 88.6703 44.7417C89.7204 44.7417 90.7716 44.7417 91.8217 44.7417C92.5127 44.7417 93.2003 44.8021 93.8607 45.0392C94.853 45.3995 95.2314 46.0887 95.015 47.1464V47.1464ZM96.4276 35.9888C96.2135 37.1859 95.4387 37.8065 94.3512 38.0982C93.7482 38.2483 93.1285 38.3167 92.5082 38.3016C91.6189 38.3016 90.7285 38.3016 89.8393 38.3016C88.7496 38.3016 87.6598 38.3016 86.5701 38.3016C86.356 38.3016 86.2959 38.2656 86.356 38.0297C86.6663 36.824 86.9643 35.6165 87.2497 34.4069C87.3007 34.1919 87.3777 34.1129 87.6054 34.1141C89.615 34.1245 91.6246 34.1141 93.6342 34.1234C94.2538 34.1234 94.8802 34.1629 95.4715 34.3558C96.3019 34.6278 96.584 35.1159 96.4231 35.9888H96.4276Z" fill="#0079CB"/>
</svg>
