<svg width="188" height="84" viewBox="0 0 188 84" fill="none" xmlns="http://www.w3.org/2000/svg">
<path fill-rule="evenodd" clip-rule="evenodd" d="M70.6317 28.4092C76.9006 28.4092 82.2633 33.4992 82.2633 40.1327C82.2633 46.7662 76.9006 51.8562 70.6317 51.8562C64.3628 51.8562 59 46.8015 59 40.1327C59 33.4638 64.3628 28.4092 70.6317 28.4092V28.4092ZM70.69 35.459C73.2022 35.459 75.3528 37.4856 75.3528 40.1327C75.3528 42.7798 73.2022 44.8103 70.69 44.8103C68.1778 44.8103 66.0311 42.7955 66.0311 40.1327C66.0311 37.4699 68.1817 35.459 70.69 35.459V35.459Z" fill="#FF761F"/>
<path fill-rule="evenodd" clip-rule="evenodd" d="M94.0037 28.4092C100.273 28.4092 105.635 33.4992 105.635 40.1327C105.635 46.7662 100.273 51.8562 94.0037 51.8562C87.7348 51.8562 82.3721 46.8055 82.3721 40.1327C82.3721 33.4599 87.7348 28.4092 94.0037 28.4092V28.4092ZM94.0621 35.459C96.5743 35.459 98.721 37.4856 98.721 40.1327C98.721 42.7798 96.5704 44.8103 94.0621 44.8103C91.5537 44.8103 89.4032 42.7955 89.4032 40.1327C89.4032 37.4699 91.5537 35.459 94.0621 35.459V35.459Z" fill="#FF761F"/>
<path fill-rule="evenodd" clip-rule="evenodd" d="M117.368 28.4092C123.637 28.4092 129 33.4992 129 40.1327C129 46.7662 123.637 51.8562 117.368 51.8562C111.099 51.8562 105.736 46.8055 105.736 40.1327C105.736 33.4599 111.099 28.4092 117.368 28.4092V28.4092ZM117.426 35.459C119.939 35.459 122.089 37.4856 122.089 40.1327C122.089 42.7798 119.939 44.8103 117.426 44.8103C114.914 44.8103 112.767 42.7955 112.767 40.1327C112.767 37.4699 114.918 35.459 117.426 35.459V35.459Z" fill="#FF761F"/>
<path fill-rule="evenodd" clip-rule="evenodd" d="M70.6317 12C76.9006 12 82.2633 17.0939 82.2633 23.7274C82.2633 30.3609 76.9006 35.4549 70.6317 35.4549C64.3628 35.4549 59 30.4041 59 23.7274C59 17.0507 64.3628 12 70.6317 12ZM70.69 19.0498C73.2022 19.0498 75.3528 21.0842 75.3528 23.7314C75.3528 26.3785 73.2022 28.4129 70.69 28.4129C68.1778 28.4129 66.0311 26.3942 66.0311 23.7314C66.0311 21.0685 68.1817 19.0498 70.69 19.0498V19.0498Z" fill="#FF761F"/>
<path fill-rule="evenodd" clip-rule="evenodd" d="M94.0037 12C100.273 12 105.635 17.0939 105.635 23.7274C105.635 30.3609 100.273 35.4549 94.0037 35.4549C87.7348 35.4549 82.3721 30.4002 82.3721 23.7274C82.3721 17.0547 87.7348 12 94.0037 12ZM94.0621 19.0498C96.5743 19.0498 98.721 21.0842 98.721 23.7314C98.721 26.3785 96.5704 28.4129 94.0621 28.4129C91.5537 28.4129 89.4032 26.3942 89.4032 23.7314C89.4032 21.0685 91.5537 19.0498 94.0621 19.0498V19.0498Z" fill="#FF761F"/>
<path fill-rule="evenodd" clip-rule="evenodd" d="M117.368 12C123.637 12 129 17.0939 129 23.7274C129 30.3609 123.637 35.4549 117.368 35.4549C111.099 35.4549 105.736 30.4002 105.736 23.7274C105.736 17.0547 111.099 12 117.368 12ZM117.426 19.0498C119.939 19.0498 122.089 21.0842 122.089 23.7314C122.089 26.3785 119.939 28.4129 117.426 28.4129C114.914 28.4129 112.767 26.3942 112.767 23.7314C112.767 21.0685 114.918 19.0498 117.426 19.0498V19.0498Z" fill="#FF761F"/>
<path fill-rule="evenodd" clip-rule="evenodd" d="M78.9462 31.9321C76.8112 34.1237 73.8401 35.459 70.6318 35.459C67.4234 35.459 64.4406 34.1276 62.3018 31.9321C64.4406 29.7367 67.4156 28.4092 70.6318 28.4092C73.8479 28.4092 76.8112 29.7445 78.9462 31.9321Z" fill="#FF6404"/>
<path fill-rule="evenodd" clip-rule="evenodd" d="M102.318 31.9321C100.183 34.1237 97.2122 35.459 94.0038 35.459C90.7955 35.459 87.8127 34.1276 85.6738 31.9321C87.8127 29.7367 90.7877 28.4092 94.0038 28.4092C97.2199 28.4092 100.183 29.7445 102.318 31.9321Z" fill="#FF6404"/>
<path fill-rule="evenodd" clip-rule="evenodd" d="M125.683 31.9321C123.548 34.1237 120.576 35.459 117.368 35.459C114.16 35.459 111.177 34.1276 109.038 31.9321C111.177 29.7367 114.152 28.4092 117.368 28.4092C120.584 28.4092 123.548 29.7445 125.683 31.9321V31.9321Z" fill="#FF6404"/>
<path fill-rule="evenodd" clip-rule="evenodd" d="M114.133 57.2568H116.085V59.574L116.101 59.5582C116.769 58.1679 118.006 57.0918 119.776 57.0918V58.9848C117.664 58.9299 116.112 60.5283 116.085 62.5078V67.5192H114.133V57.2568V57.2568Z" fill="#FF6404"/>
<path fill-rule="evenodd" clip-rule="evenodd" d="M89.1855 57.2568H91.1378V59.1812C91.8183 57.9127 93.0005 57.0879 94.7894 57.0879C97.8617 57.0879 99.9344 59.3815 99.9344 62.3939C99.9344 65.4063 97.9005 67.7588 94.8089 67.7588C93.1405 67.7588 91.8728 66.9458 91.1378 65.638V72.0044H89.1855V57.2568V57.2568ZM94.6572 58.9534C96.6017 58.9534 97.9394 60.4734 97.9394 62.4096C97.9394 64.3459 96.5705 65.8501 94.6572 65.8501C92.7439 65.8501 91.3555 64.3144 91.3555 62.39C91.3555 60.4655 92.7128 58.9495 94.6572 58.9495V58.9534Z" fill="#FF6404"/>
<path fill-rule="evenodd" clip-rule="evenodd" d="M121.296 57.2565H122.665V54.2559H124.617V57.2565H127.573V59.122H124.617V64.3652C124.617 66.376 126.46 65.889 127.573 65.6612V67.299C126.814 67.5778 126.281 67.6957 125.445 67.6957C124.135 67.6957 122.665 67.1065 122.665 64.7383V59.122H121.296V57.2565Z" fill="#FF6404"/>
<path fill-rule="evenodd" clip-rule="evenodd" d="M106.721 57.0439C109.832 57.0439 112.002 59.3769 112.002 62.3892C112.002 65.4016 109.812 67.7345 106.721 67.7345C103.629 67.7345 101.439 65.382 101.439 62.3892C101.439 59.3965 103.609 57.0439 106.721 57.0439V57.0439ZM106.721 58.9488C108.665 58.9488 110.022 60.4491 110.022 62.3892C110.022 64.3294 108.653 65.8297 106.721 65.8297C104.788 65.8297 103.419 64.3137 103.419 62.3892C103.419 60.4648 104.776 58.9488 106.721 58.9488V58.9488Z" fill="#FF6404"/>
<path fill-rule="evenodd" clip-rule="evenodd" d="M79.8253 59.8247C79.8253 58.3047 81.307 57.0322 83.4653 57.0322C84.8303 57.0322 85.9698 57.586 86.732 58.2105L86.1914 59.7893C85.3164 59.1884 84.2353 58.7485 83.4498 58.7485C82.2481 58.7485 81.8203 59.3534 81.8203 59.7932C81.8203 60.6023 82.5592 60.8969 83.2203 61.2189C84.0253 61.6077 84.8187 61.8787 85.5887 62.3265C86.6542 62.947 87.2026 63.5793 87.2026 64.9068C87.2026 65.7159 86.6659 66.6545 85.8609 67.169C85.2153 67.5814 84.3248 67.8446 83.477 67.8446C81.4081 67.8446 79.8759 67.0355 78.9814 66.1322L79.7981 64.6633C80.6226 65.4292 81.8553 66.1479 83.232 66.1479C84.2898 66.1479 85.2776 65.7748 85.2776 64.7968C85.2776 64.0977 84.4842 63.6657 83.8037 63.3947C83.0376 63.0805 82.3764 62.8606 81.6337 62.4561C80.3814 61.7727 79.8214 61.1089 79.8214 59.8286L79.8253 59.8247Z" fill="#FF6404"/>
</svg>
