<svg width="188" height="84" viewBox="0 0 188 84" fill="none" xmlns="http://www.w3.org/2000/svg">
<path d="M77.4844 29.8839C80.7398 28.8045 83.9484 27.5862 87.2038 26.5068C87.1778 29.4297 87.1934 32.3525 87.1934 35.2753C88.6707 35.2753 90.1533 35.2753 91.6358 35.2753C91.615 37.4875 91.6358 39.6997 91.6202 41.9065C90.1377 41.9332 88.6552 41.8637 87.1778 41.9439C87.2245 44.2416 87.1519 46.5339 87.2141 48.8315C87.24 49.8521 87.6651 51.0063 88.65 51.4124C89.6453 51.6315 90.6768 51.4284 91.641 51.1292C91.6202 53.3467 91.6306 55.5642 91.6306 57.7817C88.9144 58.6527 86.0271 59.2672 83.1813 58.845C81.4603 58.5832 79.8119 57.6374 78.8685 56.1039C77.811 54.4528 77.5259 52.4223 77.4533 50.4826C77.4481 47.6239 77.4533 44.7599 77.4533 41.9011C76.3181 41.9011 75.1881 41.8851 74.0528 41.9225C74.0114 39.705 74.0373 37.4822 74.0373 35.2593C75.1725 35.2647 76.3129 35.2593 77.4533 35.2593C77.4741 33.4639 77.4067 31.6579 77.4896 29.8678L77.4844 29.8839Z" fill="#027B5B"/>
<path d="M93.954 28.1049C97.1161 26.9026 100.553 26.8492 103.881 26.8866C106.903 27.0202 110.029 27.9232 112.325 30.0285C115.363 32.7697 115.492 38.4016 112.294 41.0626C111.475 41.7733 110.505 42.2649 109.495 42.6069C110.962 43.1359 112.423 43.8626 113.434 45.1236C115.057 47.0579 115.316 49.8472 114.73 52.2517C114.201 54.4532 112.594 56.2432 110.661 57.2585C107.152 59.2195 103 59.1821 99.1325 58.792C97.3182 58.6157 95.5299 58.2416 93.7726 57.75C93.7 55.3402 93.7726 52.9303 93.7363 50.5204C96.7532 51.5517 100.06 52.2357 103.207 51.4555C105.317 50.9105 105.425 47.5281 103.539 46.6037C101.548 45.5831 99.2154 45.9786 97.1005 46.2671C97.1109 43.9908 97.1005 41.7145 97.1005 39.4382C98.7437 39.5184 100.403 39.6146 102.03 39.3367C103.015 39.155 104.13 38.6474 104.399 37.5574C104.549 36.6864 104.456 35.6925 103.87 35.0032C103.207 34.2017 102.149 33.8865 101.159 33.8223C98.723 33.6941 96.2763 34.1269 93.9955 35.0032C93.9178 32.7056 94.0059 30.4026 93.9437 28.1049H93.954Z" fill="#F9DC1C"/>
<path d="M143.659 27.4096C150.024 27.4096 156.385 27.4096 162.75 27.4096C162.745 29.7981 162.75 32.1813 162.75 34.5698C159.344 34.5965 155.934 34.5217 152.533 34.6125C152.564 36.1942 152.575 37.7812 152.533 39.3628C154.467 39.3254 156.467 39.0262 158.328 39.7155C160.993 40.6345 163.061 43.0925 163.683 45.9031C164.274 48.6122 164.119 51.6259 162.745 54.0625C161.454 56.3494 159.075 57.7494 156.649 58.396C152.264 59.5234 147.66 58.9143 143.358 57.6906C143.296 55.3182 143.348 52.9511 143.327 50.5786C146.085 51.2946 149.06 51.9946 151.854 51.0702C154.181 50.3274 154.524 46.742 152.694 45.2833C151.595 44.4283 150.169 44.2199 148.827 44.1612C147.324 44.1398 145.82 44.3428 144.364 44.7009C144.053 44.7596 143.783 44.9466 143.534 45.139C143.607 44.8825 143.654 44.6207 143.674 44.3535C143.669 38.7056 143.674 33.0523 143.674 27.4043L143.659 27.4096Z" fill="#F9DC1C"/>
<path d="M73.1361 44.5942C72.7733 41.8744 71.8454 39.0798 69.8445 37.1776C67.9162 35.3448 65.2 34.6769 62.6341 34.7517C59.2388 34.7357 55.5584 35.4891 53.0806 38.0539C50.6858 40.56 50.1156 44.295 50.3281 47.6774C50.468 50.8246 51.5307 54.1055 53.9255 56.1894C56.4966 58.4657 60.0319 59.0641 63.3235 59C66.2263 58.9466 69.1603 58.658 71.918 57.6588C71.9335 55.655 71.918 53.6513 71.9335 51.6528C69.7357 52.8872 67.1801 53.165 64.7127 53.1223C63.3079 53.0261 61.7373 52.8818 60.6643 51.8345C60.0578 51.2467 59.8971 50.3811 59.8245 49.5582H73.3539C73.3539 47.9018 73.3901 46.2346 73.1413 44.5942H73.1361ZM59.8401 44.6744C59.8867 43.408 59.9541 42.0508 60.6902 40.9767C61.4677 39.8172 63.3857 39.7424 64.1632 40.95C64.8579 42.0401 64.9045 43.408 64.9252 44.6744C63.2302 44.6744 61.5351 44.6744 59.8401 44.6744Z" fill="#027B5B"/>
<path d="M48.5031 45.8018C48.4202 42.7401 47.7256 39.518 45.6936 37.1829C43.6719 34.8479 40.2559 34.212 37.4308 35.1257C35.855 35.628 34.6524 36.857 33.7245 38.2142C33.7504 33.8059 33.7142 29.403 33.7453 25C30.4951 25 27.2501 25 24 25C24 36.157 24 47.3193 24 58.4764H33.0403C33.0662 57.055 33.144 55.6337 33.1025 54.207C33.7349 55.5589 34.4243 56.9855 35.6632 57.8458C37.4723 59.1282 39.8464 59.1977 41.9302 58.7168C44.0141 58.2412 45.7765 56.7237 46.7821 54.8054C48.2595 52.0803 48.5446 48.8636 48.4979 45.7965L48.5031 45.8018ZM37.519 50.659C36.8036 51.7971 34.9219 51.8025 34.2325 50.6323C33.5742 49.5422 33.512 48.2064 33.5016 46.9613C33.5016 45.7591 33.5016 44.5248 33.8438 43.3652C34.0666 42.6118 34.5902 41.8958 35.3626 41.7034C36.2749 41.3989 37.3583 41.8637 37.773 42.7668C38.3691 43.9851 38.3483 45.3957 38.3691 46.7316C38.3224 48.0674 38.2602 49.5101 37.519 50.659V50.659Z" fill="#027B5B"/>
<path d="M140.487 43.1192C139.066 40.2818 136.143 38.3582 133.059 38.1498C130.622 37.9949 127.999 38.3689 126.024 39.9612C126.112 38.791 126.242 37.5781 126.833 36.5415C127.678 35.0026 129.331 34.1209 130.99 33.8858C133.727 33.5705 136.464 34.1049 139.087 34.8636C139.113 32.4858 139.066 30.108 139.113 27.7355C135.889 26.8272 132.514 26.7791 129.202 26.918C125.636 27.1638 122.126 28.8256 119.861 31.711C117.062 35.1361 116.217 39.7849 116.305 44.1558C116.372 47.7572 117.378 51.4335 119.628 54.2388C121.551 56.7662 124.454 58.4654 127.548 58.8501C131.099 59.3257 134.94 58.6471 137.812 56.3334C139.766 54.8426 141.052 52.5075 141.399 50.0335C141.726 47.7038 141.539 45.2191 140.482 43.1085L140.487 43.1192ZM131.877 50.9259C130.897 52.6144 128.253 52.8121 127.04 51.3052C125.993 50.0763 125.895 48.2916 126.221 46.7527C126.418 45.6733 127.061 44.5833 128.108 44.1985C129.482 43.6802 131.234 44.113 132.001 45.4596C132.939 47.1053 132.872 49.3282 131.882 50.9259H131.877Z" fill="#F9DC1C"/>
</svg>
