<svg width="188" height="84" viewBox="0 0 188 84" fill="none" xmlns="http://www.w3.org/2000/svg">
<path d="M62.005 30C62.005 30.4564 62.005 30.9161 62.005 31.3758V38.4027C62.0657 38.3524 62.0994 38.3356 62.123 38.3087C62.7199 37.5777 63.5386 37.0585 64.4566 36.8289C65.2293 36.6091 66.0306 36.505 66.8341 36.5201C67.9671 36.5201 69.1036 36.5201 70.2333 36.5638C71.3332 36.5931 72.4229 36.783 73.4673 37.1275C74.3195 37.3853 75.086 37.867 75.686 38.522C76.286 39.177 76.6974 39.9809 76.8767 40.849C77.0751 41.6812 77.1736 42.5339 77.1701 43.3893C77.1701 44.8591 77.1701 46.3322 77.1465 47.802C77.1281 48.6302 76.9649 49.449 76.6642 50.2215C76.3933 50.9404 75.9644 51.59 75.409 52.1229C74.8536 52.6559 74.1856 53.0587 73.4538 53.302C72.4864 53.6576 71.4693 53.8614 70.439 53.906C69.3127 53.9597 68.183 53.9832 67.0667 53.9698C65.878 53.9775 64.7041 53.7062 63.6405 53.1779C63.0682 52.8949 62.5625 52.4946 62.1567 52.0034C62.1273 51.9556 62.1057 51.9035 62.0926 51.849L62.0083 51.9128V53.4262H58.2988V30.2181C58.2988 30.1443 58.2988 30.0738 58.2988 30H62.005ZM73.4201 45.2416H73.4538C73.4538 44.698 73.4774 44.151 73.4538 43.6107C73.4337 43.1028 73.3763 42.5969 73.2818 42.0973C73.2008 41.5545 72.9614 41.0473 72.5934 40.6387C72.2253 40.23 71.7447 39.938 71.2113 39.7987C70.7721 39.6678 70.3197 39.5857 69.8624 39.5537C68.8338 39.5034 67.8019 39.4966 66.7734 39.4966C65.9787 39.4802 65.1853 39.5659 64.4128 39.7517C63.9186 39.849 63.4593 40.0752 63.0818 40.4071C62.7044 40.7391 62.4224 41.1649 62.2646 41.6409C62.0968 42.1477 62.0114 42.6779 62.0117 43.2114C62.0117 44.4631 61.9948 45.7114 62.0117 46.9631C62.0194 47.4136 62.0656 47.8627 62.15 48.3054C62.2183 48.8233 62.434 49.3111 62.7715 49.7112C63.1091 50.1113 63.5545 50.4071 64.0553 50.5638C64.5689 50.7273 65.0976 50.8397 65.6335 50.8993C66.7955 51.0157 67.965 51.0381 69.1306 50.9664C69.8028 50.9527 70.4705 50.8523 71.1168 50.6678C71.5746 50.5645 71.9993 50.3493 72.3526 50.0417C72.7058 49.7341 72.9765 49.3438 73.1402 48.906C73.3129 48.4366 73.4086 47.9426 73.4235 47.443C73.437 46.7248 73.4201 45.9832 73.4201 45.2416V45.2416Z" fill="black"/>
<path d="M104.456 30C104.456 31.198 104.456 32.3993 104.456 33.6007V36.9262H109.437V39.8826H104.466C104.466 39.9497 104.466 39.9933 104.466 40.0336C104.466 42.9217 104.466 45.8098 104.466 48.698C104.469 48.9242 104.497 49.1493 104.55 49.3691C104.759 50.2718 105.4 50.8154 106.398 50.943C106.67 50.9765 106.944 50.9934 107.218 50.9933C108.337 50.9933 109.46 50.9933 110.59 50.9933H110.823V53.9564H106.27C105.27 53.9816 104.278 53.7772 103.37 53.3591C102.761 53.0683 102.226 52.6445 101.805 52.1192C101.384 51.5939 101.088 50.9807 100.939 50.3255C100.793 49.7145 100.723 49.0877 100.733 48.4597C100.733 45.6924 100.733 42.9239 100.733 40.1544V39.9161H98.75V36.9362H100.716C100.724 36.8885 100.73 36.8403 100.733 36.7919V30.1007C100.733 30.0671 100.733 30.0336 100.733 30H104.456Z" fill="black"/>
<path d="M123.906 30V32.8154H120.237C119.74 32.7994 119.245 32.8816 118.78 33.057C118.344 33.2097 117.964 33.4894 117.69 33.8599C117.416 34.2304 117.26 34.6744 117.243 35.1342C117.199 35.7215 117.243 36.3188 117.243 36.9295H122.183V39.8926H117.222V53.9665H113.513V39.8926H111.51V36.9362H113.506V36.7215C113.506 36.0101 113.506 35.2919 113.557 34.5839C113.584 33.9219 113.751 33.273 114.047 32.6793C114.343 32.0857 114.761 31.5604 115.273 31.1376C115.985 30.5839 116.83 30.2273 117.725 30.104C117.985 30.0604 118.244 30.0336 118.5 30H123.906Z" fill="black"/>
<path d="M164 39.0701C163.764 39.2245 163.525 39.3755 163.289 39.5332C162.797 39.8687 162.308 40.2043 161.815 40.5198L161.667 40.6104C161.543 40.3943 161.374 40.2068 161.172 40.0605C160.969 39.9141 160.738 39.8122 160.493 39.7614C159.372 39.4153 158.178 39.3759 157.037 39.6473C155.539 40.0265 154.676 41.013 154.366 42.503C154.298 42.8648 154.265 43.2322 154.268 43.6003C154.268 46.9784 154.268 50.3576 154.268 53.7379V53.9694H150.559V36.5198H154.052V38.7916C154.184 38.8721 154.224 38.7916 154.271 38.7043C154.771 37.9182 155.499 37.3016 156.359 36.9359C156.983 36.6701 157.653 36.5266 158.332 36.513C159.385 36.4616 160.44 36.5748 161.458 36.8486C162.341 37.0621 163.115 37.5911 163.633 38.3352C163.764 38.5432 163.869 38.7681 163.97 38.9828L164 39.0701Z" fill="black"/>
<path d="M147.251 30V33.7315H143.541V30.1913C143.541 30.1309 143.541 30.0671 143.541 30.0067L147.251 30Z" fill="black"/>
<path d="M136.519 44.2579C136.519 43.9223 136.519 43.6136 136.519 43.2948C136.519 42.7377 136.519 42.1807 136.452 41.6169C136.32 40.3988 135.757 39.8351 134.536 39.6304C133.469 39.4862 132.392 39.4323 131.316 39.4693C130.409 39.4475 129.503 39.5354 128.618 39.731C128.217 39.8182 127.834 39.975 127.488 40.1941C127.272 40.3268 127.088 40.5054 126.949 40.7171C126.81 40.9289 126.72 41.1685 126.685 41.419C126.682 41.4479 126.674 41.4762 126.662 41.5028L126.129 41.3283C125.192 41.0196 124.254 40.7075 123.31 40.4089C123.155 40.3585 123.131 40.2814 123.151 40.1404C123.213 39.629 123.393 39.1389 123.679 38.7094C123.965 38.2799 124.348 37.923 124.797 37.6673C125.665 37.1653 126.624 36.8402 127.62 36.7109C129.431 36.4156 131.255 36.4861 133.076 36.533C134.153 36.5508 135.223 36.7133 136.256 37.0163C137.35 37.3006 138.328 37.9162 139.055 38.778C139.652 39.5413 140.022 40.4565 140.121 41.419C140.186 41.9534 140.217 42.4913 140.215 43.0297C140.215 46.589 140.215 50.1505 140.215 53.7143V53.9458H136.506V52.3753L136.425 52.3149C136.411 52.3623 136.393 52.4083 136.371 52.4525C135.811 53.4324 134.89 53.7948 133.831 53.8585C133.067 53.9145 132.299 53.948 131.528 53.9592C130.328 53.9592 129.124 53.9592 127.923 53.9592C126.942 53.9687 125.966 53.8249 125.03 53.533C124.3 53.3294 123.646 52.92 123.145 52.3544C122.644 51.7887 122.318 51.0909 122.207 50.3451C121.97 49.0618 121.955 47.7475 122.163 46.4592C122.399 45.0196 123.273 44.0498 124.605 43.476C125.452 43.1234 126.35 42.9059 127.266 42.8317C129.117 42.6846 130.976 42.6633 132.83 42.7679C133.492 42.7905 134.148 42.9034 134.779 43.1035C135.397 43.2953 135.942 43.6699 136.34 44.1773C136.376 44.2157 136.414 44.2515 136.455 44.2847L136.519 44.2579ZM130.786 45.6606C129.872 45.6975 129.1 45.7143 128.304 45.7646C127.773 45.7862 127.252 45.9116 126.77 46.1337C126.524 46.2296 126.308 46.3895 126.146 46.5967C125.983 46.804 125.88 47.0509 125.846 47.3116C125.788 47.9755 125.772 48.6423 125.799 49.3082C125.798 49.6212 125.905 49.925 126.102 50.1692C126.299 50.4133 126.574 50.5831 126.881 50.6505C127.376 50.8025 127.886 50.9004 128.402 50.9424C130.255 51.075 132.116 51.0447 133.963 50.8518C134.551 50.8053 135.123 50.6446 135.649 50.3787C135.842 50.2857 136.012 50.152 136.148 49.9868C136.284 49.8217 136.382 49.629 136.435 49.4223C136.575 48.8247 136.581 48.204 136.455 47.6035C136.382 47.3102 136.238 47.0389 136.037 46.8128C135.836 46.5867 135.582 46.4124 135.298 46.3049C134.679 46.0123 134.01 45.8392 133.325 45.7948C132.442 45.731 131.555 45.7008 130.793 45.6606H130.786Z" fill="black"/>
<path d="M97.4746 46.6782H82.7513C82.7513 46.9601 82.7311 47.2252 82.7513 47.4869C82.7918 47.9433 82.8322 48.3997 82.9165 48.8493C82.9876 49.3097 83.2002 49.7368 83.525 50.0721C83.8499 50.4074 84.2711 50.6344 84.7308 50.7218C85.4955 50.9079 86.2806 50.9981 87.0678 50.9903C88.2515 50.9903 89.4284 50.9903 90.6222 50.9567C91.1962 50.9452 91.7649 50.8456 92.3083 50.6614C92.6678 50.5556 92.9974 50.3675 93.2709 50.1123C93.5443 49.8571 93.754 49.5418 93.8832 49.1916L93.9338 49.0876L97.2251 50.0775C97.1212 50.62 96.9153 51.138 96.6181 51.6044C96.0443 52.454 95.1997 53.0864 94.2204 53.3997C93.405 53.6891 92.5522 53.8609 91.6878 53.9097C89.7016 54.0339 87.7119 54.0071 85.7256 53.9399C84.6238 53.9163 83.537 53.6804 82.5253 53.2453C81.7488 52.9173 81.0636 52.4072 80.5281 51.7586C79.9925 51.11 79.6226 50.3421 79.4498 49.5205C79.2901 48.8827 79.2086 48.2281 79.207 47.5708C79.207 45.9332 79.207 44.2957 79.207 42.6614C79.2121 41.7183 79.419 40.7871 79.814 39.9299C80.3896 38.697 81.4305 37.7396 82.7108 37.2654C83.6935 36.8837 84.73 36.6573 85.783 36.5943C87.5616 36.4848 89.345 36.4759 91.1246 36.5675C92.0016 36.6012 92.8707 36.7455 93.7112 36.997C94.5495 37.221 95.3111 37.667 95.915 38.2874C96.5189 38.9079 96.9425 39.6796 97.1408 40.5205C97.3553 41.3084 97.4686 42.1203 97.478 42.9366C97.4982 44.148 97.478 45.3594 97.478 46.5708C97.479 46.6066 97.4778 46.6425 97.4746 46.6782ZM82.7479 43.7017H93.8056C93.7685 43.0305 93.7651 42.3594 93.691 41.6883C93.654 41.2813 93.4965 40.8943 93.2384 40.5765C92.9802 40.2587 92.633 40.0243 92.2409 39.903C91.6657 39.702 91.0654 39.5812 90.4569 39.544C89.1492 39.4534 87.8369 39.4467 86.5282 39.5238C85.9493 39.5533 85.3739 39.6319 84.8084 39.7587C84.4102 39.8272 84.0368 39.9979 83.7251 40.2539C83.4134 40.5099 83.1743 40.8424 83.0312 41.2185C82.7771 42.0204 82.6809 42.8635 82.7479 43.7017Z" fill="black"/>
<path d="M43.8998 49.0704H38.7604V53.8624H29.1461V49.0704H24L33.9516 37.5234L43.8998 49.0704Z" fill="black"/>
<path d="M46.6446 46.4098L36.7031 34.8662H41.8222V30.0742H51.4332V34.8527H56.5861L46.6446 46.4098Z" fill="black"/>
<path d="M147.237 53.9731H143.527V36.5234H147.237V53.9731Z" fill="black"/>
</svg>
