<svg width="188" height="84" viewBox="0 0 188 84" fill="none" xmlns="http://www.w3.org/2000/svg">
<path fill-rule="evenodd" clip-rule="evenodd" d="M41.6816 45.7508C41.6816 48.808 39.2995 51.904 34.7484 51.904C32.1339 51.904 29.3645 50.2206 27.7571 48.5178C27.7184 47.9373 27.7184 42.9257 27.7571 42.2872C29.1902 40.8166 31.2818 39.1718 34.8065 39.1718C38.1375 39.1718 41.6816 40.894 41.6816 45.7508ZM34.9808 36.1146C31.5723 36.1146 29.655 37.1981 27.7765 38.572V31.2384C27.7765 30.5611 27.2148 30 26.537 30H24.3292V50.8204L24 54.4389H25.5299H26.0335C26.9437 54.4389 27.1567 53.8197 27.2729 53.2585L27.5634 52.1556C29.6356 53.8197 31.4948 54.9613 35.31 54.9613C42.5337 54.9613 45.1482 49.4079 45.1482 45.6927C45.1288 42.113 42.9985 36.1146 34.9808 36.1146Z" fill="#FF6600"/>
<path fill-rule="evenodd" clip-rule="evenodd" d="M50.4745 43.3709C51.3267 40.5845 53.4957 39.1139 56.7299 39.1139C61.436 39.1139 62.7916 42.0938 63.1596 43.3709H50.4745ZM56.4975 36.0566C50.8812 36.0566 46.7949 39.9847 46.7949 45.4026C46.7949 50.9173 51.0168 54.9034 56.8267 54.9034C62.443 54.9034 64.3603 52.8523 66.0452 51.0528L66.6843 50.3755L63.9149 48.3825L63.5856 48.8082C62.5592 50.0853 61.1455 51.8461 57.0785 51.8461C52.9535 51.8461 50.7263 49.1565 50.3002 46.4282H66.936L66.9554 45.7509C66.9554 42.9258 66.1226 40.6426 64.4571 38.9591C62.6173 37.0822 59.7898 36.0566 56.4975 36.0566Z" fill="#FF6600"/>
<path fill-rule="evenodd" clip-rule="evenodd" d="M77.3941 51.9426C74.8184 51.9426 74.3148 51.0718 74.3148 49.5819V39.7135H81.0737V37.8946C81.0737 37.2173 80.5121 36.6562 79.8343 36.6562H74.2955V32.2444C74.2955 31.5672 73.7339 31.0254 73.056 31.0254H70.8483V36.6755H67.2461V39.7328H70.8676V49.8528C70.8676 51.2653 70.8676 54.9998 76.8325 54.9998C77.9364 54.9998 79.2727 54.8064 81.1899 54.5161L81.5385 54.4581V51.3427L80.822 51.4782C79.505 51.7491 78.5561 51.9426 77.3941 51.9426Z" fill="#FF6600"/>
<path fill-rule="evenodd" clip-rule="evenodd" d="M92.8678 43.7C89.9822 43.3517 87.4839 43.0615 87.4839 41.4941C87.4839 39.443 90.292 39.1334 91.9576 39.1334C94.8432 39.1334 97.0509 40.1009 98.5615 42.0359L98.8326 42.3842L101.215 40.217L101.002 39.9268C100.324 38.9786 98.271 36.0762 91.9963 36.0762C88.1617 36.0762 84.056 37.5468 84.056 41.6489C84.056 45.8478 88.5297 46.3896 92.4805 46.8734C95.5403 47.241 98.1936 47.57 98.1936 49.3889C98.1936 51.2271 95.5403 51.8656 93.2745 51.8656C90.1758 51.8656 87.6969 50.724 85.8959 48.4407L85.6247 48.0924L83.0684 50.4338L83.3201 50.7434C85.7603 53.5878 88.8589 54.9229 93.0614 54.9229C98.5228 54.9229 101.66 52.8331 101.66 49.1954C101.641 44.7449 96.9735 44.1838 92.8678 43.7Z" fill="#FF6600"/>
<path fill-rule="evenodd" clip-rule="evenodd" d="M113.087 43.7C110.201 43.3517 107.703 43.0615 107.703 41.4941C107.703 39.443 110.511 39.1334 112.176 39.1334C115.062 39.1334 117.27 40.1009 118.78 42.0359L119.051 42.3842L121.433 40.217L121.22 39.9268C120.543 38.9786 118.49 36.0762 112.215 36.0762C108.38 36.0762 104.275 37.5468 104.275 41.6489C104.275 45.8478 108.748 46.3896 112.699 46.8734C115.759 47.241 118.412 47.57 118.412 49.3889C118.412 51.2271 115.759 51.8656 113.493 51.8656C110.395 51.8656 107.916 50.724 106.115 48.4407L105.843 48.0924L103.287 50.4338L103.539 50.7434C105.979 53.5878 109.078 54.9229 113.28 54.9229C118.742 54.9229 121.879 52.8331 121.879 49.1954C121.84 44.7449 117.192 44.1838 113.087 43.7Z" fill="#FF6600"/>
<path fill-rule="evenodd" clip-rule="evenodd" d="M140.488 45.5374C140.488 49.4461 137.913 51.8842 133.749 51.8842C129.624 51.8842 126.971 49.3881 126.971 45.5374C126.971 42.4608 129.101 39.152 133.749 39.152C138.397 39.152 140.488 42.3447 140.488 45.5374ZM133.749 36.0947C127.823 36.0947 123.523 39.926 123.523 45.2085C123.523 51.207 127.435 54.9415 133.749 54.9415C140.043 54.9415 143.936 51.207 143.936 45.2085C143.936 39.926 139.656 36.0947 133.749 36.0947Z" fill="#FF6600"/>
<path fill-rule="evenodd" clip-rule="evenodd" d="M156.564 36.0947C154.201 36.0947 151.993 36.9268 149.824 38.6296V37.8362C149.824 37.159 149.263 36.5978 148.585 36.5978H146.377V54.3997H149.824V42.306C150.986 41.087 153.33 39.1327 156.254 39.1327C157.745 39.1327 158.849 39.5003 159.565 40.2356C160.243 40.9322 160.573 41.9577 160.553 43.3122V54.419H164V42.8091C163.981 36.9655 159.333 36.0947 156.564 36.0947Z" fill="#FF6600"/>
</svg>
