<svg width="188" height="84" viewBox="0 0 188 84" fill="none" xmlns="http://www.w3.org/2000/svg">
<path d="M38.1531 31.4868C38.7222 31.3162 39.3024 31.1857 39.8893 31.0963C40.5879 30.9924 41.2934 30.9435 41.9994 30.9498C43.3343 30.9274 44.6584 31.1959 45.8819 31.7369C46.9845 32.2282 47.968 32.957 48.7636 33.8725C49.5608 34.8257 50.1641 35.9289 50.539 37.1186C50.9496 38.3992 51.1532 39.7385 51.1419 41.0847C51.1777 42.7515 50.8931 44.4093 50.3039 45.9661C49.7957 47.2742 48.9903 48.4427 47.9527 49.3769C46.9127 50.2916 45.6949 50.9754 44.3777 51.3844C42.9129 51.8382 41.3879 52.0614 39.8562 52.0464C38.2224 52.0631 36.5913 51.9035 34.991 51.5705C33.6339 51.2776 32.3 50.884 31 50.3929V24H38.1531V31.4868ZM38.1531 46.4634C38.765 46.6376 39.3984 46.7218 40.034 46.7136C41.1709 46.7511 42.265 46.2735 43.0182 45.4108C43.7819 44.5403 44.1627 43.2091 44.1607 41.4173C44.1607 39.6783 43.7859 38.3959 43.0363 37.5702C42.3157 36.7546 41.2775 36.3006 40.1968 36.3285C39.8395 36.3255 39.4829 36.3603 39.1327 36.4322C38.8011 36.5017 38.474 36.5914 38.1531 36.7007V46.4634Z" fill="black"/>
<path d="M58.9581 42.8635C59.0124 44.0838 59.4012 45.0286 60.1247 45.6977C60.8778 46.3877 61.8677 46.7524 62.8828 46.7137C63.6805 46.7349 64.4718 46.5645 65.1918 46.2164C65.8843 45.8405 66.4904 45.3207 66.9703 44.691L71.3441 48.1659C70.8986 48.7288 70.3932 49.2404 69.8369 49.6913C68.552 50.7288 67.036 51.4326 65.4209 51.7415C64.3766 51.9414 63.3155 52.0374 62.2528 52.0282C60.8969 52.039 59.5492 51.8151 58.2678 51.3662C55.7795 50.5156 53.7852 48.603 52.8119 46.134C52.2396 44.6793 51.9618 43.1231 51.995 41.5577C51.9682 40.0252 52.2322 38.5017 52.7727 37.0699C53.2421 35.8243 53.9604 34.6902 54.8827 33.7384C55.8 32.8102 56.9085 32.0987 58.1292 31.6547C59.4186 31.176 60.783 30.9373 62.1564 30.9499C65.1265 30.9499 67.4896 31.9222 69.2461 33.8666C71.0026 35.8109 71.8947 38.8098 71.9229 42.8635H58.9581ZM65.2129 39.0164C65.1857 38.0836 64.8467 37.1876 64.2513 36.475C63.7462 35.8771 63.006 35.5354 62.2287 35.5415C61.4107 35.5441 60.6317 35.8952 60.0825 36.5086C59.4461 37.1991 59.063 38.0897 58.9973 39.0316L65.2129 39.0164Z" fill="black"/>
<path d="M71.752 36.4534V31.4073H74.5734V26.3154H81.7264V31.4073H84.7589L86.5253 36.4534H81.7264V44.5595C81.7053 45.1066 81.7808 45.6532 81.9495 46.1734C82.1002 46.5609 82.4348 46.7531 82.9533 46.7531C83.4392 46.7523 83.9185 46.6396 84.355 46.4236C84.7807 46.2174 85.1847 45.968 85.5607 45.6792L87.3995 50.0632C86.5052 50.6953 85.52 51.1841 84.4786 51.5124C83.2901 51.8616 82.0565 52.0282 80.8191 52.0066C79.8109 52.0338 78.8064 51.8724 77.856 51.5307C77.1094 51.2521 76.4425 50.791 75.9148 50.1883C75.4085 49.577 75.0512 48.8539 74.8718 48.0771C74.6613 47.1694 74.5601 46.2393 74.5704 45.307V36.4595L71.752 36.4534Z" fill="black"/>
<path d="M92.9416 51.5951L84.1035 26.3066H91.0184L96.1428 42.1222L99.2084 31.4077H103.857L106.922 42.1222L109.864 31.4077H117.18L110.108 51.5951H104.631L101.484 41.0026L98.3795 51.5951H92.9416Z" fill="black"/>
<path d="M128.4 51.5954L127.828 50.0212C127.183 50.6072 126.434 51.0638 125.621 51.3666C124.59 51.7575 123.494 51.947 122.393 51.9249C121.517 51.9332 120.646 51.794 119.815 51.513C119.053 51.2533 118.351 50.838 117.754 50.2927C117.168 49.757 116.7 49.102 116.382 48.3706C116.043 47.5595 115.877 46.6853 115.894 45.8049C115.835 44.0558 116.6 42.3824 117.956 41.2957C118.629 40.7539 119.381 40.3216 120.186 40.0144C121.055 39.6754 121.959 39.4389 122.881 39.3096C123.755 39.1723 124.563 39.0686 125.314 39.0045C126.064 38.9405 126.751 38.8856 127.378 38.8581V38.3578C127.378 37.5279 127.119 36.9239 126.601 36.5273C126.067 36.1357 125.421 35.9321 124.762 35.9476C123.997 35.9432 123.238 36.0979 122.534 36.4022C121.814 36.7292 121.14 37.1497 120.527 37.653L117.323 34.0683C118.407 33.107 119.645 32.3376 120.982 31.7923C122.53 31.2068 124.174 30.9261 125.826 30.9656C128.439 30.9656 130.522 31.6072 132.078 32.8906C133.633 34.174 134.41 36.1663 134.408 38.8673V51.5954H128.4ZM127.378 42.4429C126.969 42.4703 126.562 42.5039 126.152 42.5466C125.742 42.5893 125.32 42.6503 124.886 42.7327C124.042 42.87 123.439 43.1659 123.077 43.6205C122.729 44.0506 122.542 44.5903 122.546 45.1459C122.531 45.6882 122.752 46.2099 123.149 46.5737C123.609 46.9696 124.202 47.1698 124.804 47.132C125.284 47.1383 125.762 47.0545 126.212 46.8849C126.63 46.7214 127.023 46.4985 127.378 46.2228V42.4429Z" fill="black"/>
<path d="M136.237 53.8281C136.666 54.0676 137.119 54.2619 137.588 54.4078C138.049 54.5631 138.53 54.6464 139.016 54.6549C139.452 54.6703 139.884 54.5648 140.264 54.3498C140.628 54.0953 140.905 53.7344 141.06 53.3156L142.206 50.7102L133.744 31.4075H141.509L145.545 43.1959L149.552 31.4075H156.907L146.935 55.317C146.228 56.997 145.267 58.1827 144.053 58.8742C142.742 59.5879 141.27 59.9443 139.782 59.9085C138.819 59.9171 137.858 59.8064 136.921 59.579C136.067 59.3629 135.233 59.0719 134.429 58.7095L136.237 53.8281Z" fill="black"/>
</svg>
