<svg width="188" height="84" viewBox="0 0 188 84" fill="none" xmlns="http://www.w3.org/2000/svg">
<path d="M113.399 35.4282L107.023 61.3229H117.368L123.997 34.3433L113.399 35.4282Z" fill="black"/>
<path d="M147.495 34.2894C144.413 33.9874 139.602 34.9375 137.221 36.7472C137.165 35.878 137.015 35.0175 136.774 34.1807L127.618 35.3019C127.983 37.8563 127.618 40.6906 126.726 44.5051L122.622 61.3214H132.966L137.197 44.1649C138.234 42.6754 139.882 41.6809 141.274 41.6809C142.997 41.6809 143.418 42.9431 142.886 45.0124L138.911 61.3174H149.253L153.685 43.6033C154.755 38.8064 153.196 34.849 147.495 34.2894Z" fill="black"/>
<path d="M125.694 27.0322C125.694 24.2544 123.267 22 120.162 22C117.002 22 114.405 24.2625 114.405 27.0322C114.405 29.8018 116.945 32.0643 119.993 32.0643C123.154 32.0643 125.694 29.7998 125.694 27.0322Z" fill="#FFD300"/>
<path fill-rule="evenodd" clip-rule="evenodd" d="M100.881 34.6191L97.6118 42.1737C96.4031 45.014 95.3415 47.6852 94.4108 50.3081L94.2899 34.6191H84.9669L77.2253 50.441L78.0613 34.2588L67.7773 35.541L69.8583 61.321H78.9537C78.9537 61.321 85.8533 47.4115 86.4697 45.8011L86.5624 61.321H95.8954L111.292 34.6191H100.881Z" fill="black"/>
<path fill-rule="evenodd" clip-rule="evenodd" d="M56.6427 33.9494C53.9574 33.9494 51.945 34.6519 50.7625 35.3122C51.8005 32.0336 52.4932 28.6556 52.8293 25.2333C52.8971 24.4562 52.92 23.6759 52.8978 22.8962L42.0579 24.2167C42.1808 25.9539 41.925 28.7016 40.533 34.5694L35.2953 56.2006C35.0636 57.2353 34.4694 59.202 34 59.9266C37.2635 61.0136 41.0084 61.996 47.1888 61.996C50.5792 61.996 53.2544 61.374 55.988 59.7696C60.6838 57.028 63.5826 52.0902 64.7833 47.2993C67.0375 38.3437 63.359 33.9494 56.6427 33.9494ZM53.9071 47.7663C52.7185 52.7363 51.1734 54.9506 48.5566 54.9506C47.4869 54.9506 46.5965 54.6909 46.1211 54.3286L48.9736 42.4803C49.5095 42.0133 50.4603 41.186 51.9953 41.186C54.3241 41.194 55.152 42.4864 53.9071 47.7663Z" fill="black"/>
</svg>
