<svg width="188" height="84" viewBox="0 0 188 84" fill="none" xmlns="http://www.w3.org/2000/svg">
<path d="M137.858 30.7012C143.477 30.7146 147.935 35.1674 147.928 40.756C147.928 46.4562 143.488 50.8792 137.8 50.8628C132.058 50.8449 127.671 46.4637 127.693 40.7604C127.716 35.0572 132.132 30.6804 137.858 30.7012ZM137.768 45.9426C139.882 45.959 141.389 44.9482 142.167 42.9786C142.762 41.4899 142.664 39.9863 142.12 38.5125C141.796 37.6109 141.188 36.8384 140.388 36.3104C139.588 35.7823 138.639 35.5271 137.682 35.5827C135.485 35.6825 133.793 36.9508 133.318 38.9844C133.127 39.8136 133.058 40.6662 133.115 41.5152C133.298 44.1993 135.15 45.9158 137.768 45.9352V45.9426Z" fill="black"/>
<path d="M119.041 39.675V39.1436C119.041 36.7289 119.039 34.3137 119.034 31.898C119.034 31.1671 119.108 31.0926 119.822 31.0941C120.939 31.0941 122.056 31.1239 123.17 31.0837C123.749 31.0643 123.915 31.2951 123.915 31.8281C123.93 35.136 123.989 38.4424 123.988 41.7488C123.988 44.6101 123.925 47.4714 123.882 50.3312C123.858 50.5048 123.813 50.6749 123.748 50.8373C123.58 50.7826 123.42 50.7065 123.271 50.6111C119.994 47.8401 116.718 45.0646 113.441 42.2847C113.214 42.0927 112.994 41.8992 112.76 41.7101C112.739 41.6922 112.692 41.7101 112.592 41.7101C112.58 41.8843 112.56 42.0599 112.56 42.2371C112.56 44.6706 112.56 47.1022 112.56 49.5317C112.56 50.3208 112.516 50.3624 111.75 50.3595C110.708 50.3595 109.665 50.3595 108.622 50.3595C107.718 50.3595 107.648 50.3148 107.648 49.4394C107.648 43.5839 107.648 37.7318 107.648 31.8831C107.644 31.7341 107.648 31.585 107.662 31.4365C107.691 31.1715 107.736 30.908 107.775 30.6445C108.049 30.7696 108.371 30.841 108.587 31.0286C111.882 33.8075 115.171 36.5949 118.451 39.3907C118.587 39.5053 118.716 39.6259 118.849 39.7435L119.041 39.675Z" fill="black"/>
<path d="M48.3044 30.6758C51.9909 30.8127 54.9713 32.2776 56.7512 35.7538C57.1296 36.4981 57.0849 36.5845 56.3044 36.8867C55.162 37.3333 54.0166 37.771 52.8786 38.2265C52.5807 38.3456 52.3737 38.3754 52.2009 38.0211C51.3072 36.1959 49.7582 35.5007 47.804 35.6391C45.8498 35.7776 44.6076 36.848 43.9403 38.6165C43.3485 40.1045 43.3689 41.7659 43.9969 43.239C44.7416 45.0135 46.1834 45.8829 48.0572 45.9737C49.7984 46.0586 51.2313 45.4274 52.0922 43.8196C52.3067 43.4191 52.5748 43.3804 52.965 43.4935C54.1432 43.8315 55.3273 44.1501 56.5099 44.4761C57.1847 44.6622 57.2353 44.7738 56.933 45.4065C54.7553 49.9947 49.3203 52.0864 44.4437 50.2121C39.9753 48.4971 37.4432 43.9967 38.2073 39.1465C38.952 34.3827 42.6325 31.0241 47.4301 30.7279C47.6967 30.7011 47.9559 30.7011 48.3044 30.6758Z" fill="black"/>
<path d="M86.3945 50.8836C84.4403 50.8285 83.0045 50.6737 81.6684 50.0186C80.2117 49.3055 79.2287 48.1711 78.6433 46.669C78.4765 46.2373 78.5539 45.9768 79.0082 45.8026C79.9793 45.4289 80.9445 45.0344 81.9008 44.628C82.2895 44.4628 82.4966 44.5595 82.7051 44.9258C83.6971 46.7435 85.7794 47.4491 87.741 46.6675C88.3904 46.4085 88.7836 45.9574 88.8372 45.2577C88.8909 44.558 88.6496 43.9402 88.021 43.6693C87.2162 43.3482 86.3856 43.0962 85.5381 42.916C84.8544 42.7522 84.1379 42.7269 83.4528 42.5736C80.8686 41.9975 79.2123 40.2825 78.9486 37.9586C78.609 34.941 79.6934 32.6737 82.2106 31.5497C84.8395 30.3766 87.5608 30.3588 90.2344 31.4589C90.9191 31.7358 91.5387 32.1523 92.0534 32.6819C92.5681 33.2114 92.9667 33.8424 93.2237 34.5346C93.468 35.1554 93.4055 35.3013 92.7933 35.5484C91.9309 35.8938 91.0551 36.2109 90.2061 36.5905C89.7384 36.7959 89.4881 36.7304 89.2305 36.26C88.833 35.5028 88.1752 34.9145 87.3783 34.6035C86.5813 34.2925 85.6988 34.2796 84.8931 34.5673C84.2184 34.7921 83.7701 35.2015 83.7015 35.9489C83.633 36.6962 83.8996 37.3334 84.5952 37.5864C85.5798 37.9467 86.6149 38.1819 87.6367 38.4335C88.2132 38.5824 88.8104 38.6375 89.3883 38.7744C92.5088 39.5113 94.1413 41.7102 93.9595 44.9064C93.7972 47.7543 92.129 49.706 89.1083 50.4593C88.0612 50.7138 86.9769 50.7987 86.3945 50.8836Z" fill="black"/>
<path d="M57.0117 50.2374C57.0691 50.0476 57.1373 49.8612 57.2158 49.6791C60.3069 43.4415 63.404 37.2077 66.5071 30.978C66.6203 30.7487 66.9108 30.4599 67.1163 30.4629C67.3218 30.4659 67.6183 30.7487 67.7344 30.9795C70.8564 37.2013 73.9654 43.4286 77.0615 49.6613C77.3668 50.2761 77.3088 50.361 76.6325 50.361C75.1252 50.361 73.6193 50.3505 72.1135 50.3699C71.6309 50.3773 71.3583 50.1987 71.1989 49.7432C71.0023 49.1834 70.7417 48.646 70.5257 48.0937C70.4826 47.9413 70.3882 47.8085 70.2585 47.7177C70.1288 47.6268 69.9717 47.5835 69.8137 47.5949C67.8784 47.6039 65.9446 47.6039 64.0122 47.5949C63.8539 47.5842 63.6968 47.6287 63.5675 47.7207C63.4383 47.8127 63.3449 47.9466 63.3032 48.0996C63.0983 48.696 62.8555 49.2788 62.5764 49.8444C62.4528 50.0751 62.1295 50.3312 61.8808 50.3386C60.4122 50.3818 58.9436 50.361 57.4735 50.352C57.316 50.3296 57.1613 50.2912 57.0117 50.2374ZM68.786 43.836C68.147 42.4798 67.5319 41.1727 66.9152 39.8656L66.7544 39.8775L64.9744 43.836H68.786Z" fill="black"/>
<path d="M33.9744 61.9092C34.0223 61.957 34.0752 61.9994 34.1323 62.0357C36.1282 62.9111 36.9415 64.4504 36.5155 66.5599C36.1714 68.2838 34.9083 69.4078 33.0346 69.5477C31.9622 69.6296 30.8793 69.5819 29.8009 69.5879C28.1283 69.5968 26.4541 69.6013 24.7814 69.6102C24.0709 69.6102 24.0039 69.5551 24.0039 68.8659C24.0039 64.4072 24.0114 59.95 24.0039 55.4928C24.0039 55.006 24.1275 54.7842 24.6608 54.7902C27.2629 54.8214 29.8739 54.7902 32.4701 54.8467C35.5235 54.9167 36.4663 57.3448 36.155 59.4037C36.0061 60.3802 35.4401 61.0993 34.5792 61.5831C34.384 61.6948 34.1889 61.7945 33.9744 61.9092ZM29.9529 63.3383C29.3303 63.3383 28.8655 63.3383 28.4008 63.3383C28.0836 63.3383 27.9138 63.4559 27.9168 63.7939C27.9242 64.5382 27.8944 65.2826 27.9376 66.0269C27.9465 66.1892 28.1893 66.4735 28.3308 66.4735C29.3139 66.5063 30.3014 66.5197 31.283 66.4616C32.0992 66.414 32.5207 65.8453 32.5088 64.964C32.4969 64.0827 32.0322 63.4842 31.2413 63.4113C30.7587 63.3562 30.2746 63.3532 29.9499 63.3383H29.9529ZM29.6267 60.6482V60.6318C30.0914 60.6318 30.5576 60.6661 31.0178 60.6244C31.3559 60.6018 31.6718 60.4482 31.8983 60.1962C32.1247 59.9443 32.2438 59.614 32.2303 59.2756C32.2303 58.497 31.7521 57.9715 30.9642 57.9358C30.1107 57.903 29.2573 57.9254 28.4038 57.9179C28.0955 57.9179 27.9108 58.0192 27.9168 58.3645C27.9257 58.9749 27.9242 59.5868 27.9168 60.1986C27.9168 60.5381 28.0851 60.6542 28.4038 60.6452C28.8015 60.6393 29.2156 60.6482 29.6237 60.6482H29.6267Z" fill="black"/>
<path d="M130.439 62.2274C130.439 66.6131 127.082 69.9687 122.704 69.9687C118.373 69.9687 114.959 66.5863 114.946 62.278C114.937 61.2579 115.131 60.2462 115.516 59.3014C115.901 58.3567 116.47 57.4978 117.19 56.7743C117.91 56.0509 118.766 55.4773 119.709 55.0868C120.652 54.6964 121.663 54.4967 122.683 54.4995C127.065 54.504 130.436 57.864 130.439 62.2274ZM126.345 62.0607C126.345 61.9803 126.325 61.7957 126.307 61.6141C126.112 59.7175 124.763 58.3985 122.925 58.3062C120.988 58.2079 119.55 59.314 119.192 61.2449C119.091 61.8492 119.079 62.4653 119.158 63.073C119.216 63.582 119.384 64.0724 119.65 64.5107C119.915 64.9489 120.272 65.3247 120.697 65.6124C121.121 65.9 121.602 66.0927 122.108 66.1773C122.613 66.2619 123.131 66.2364 123.626 66.1025C125.364 65.6366 126.362 64.197 126.345 62.0607Z" fill="black"/>
<path d="M56.3574 62.2498C56.3574 60.0198 56.3574 57.7897 56.3574 55.5596C56.3574 54.8733 56.4349 54.7989 57.1305 54.8018C59.2321 54.8108 61.3337 54.8018 63.4354 54.8346C68.3358 54.8971 69.2682 59.5657 67.8964 62.4151C67.6729 62.8781 67.2455 63.2651 66.8537 63.6165C66.5856 63.8532 66.5558 64.005 66.7316 64.3043C67.6372 65.793 68.5309 67.2946 69.4126 68.8091C69.5044 69.0188 69.5709 69.2387 69.6108 69.4641C69.4046 69.5257 69.1932 69.568 68.9792 69.5906C67.9932 69.604 67.0072 69.5787 66.0211 69.6055C65.8195 69.627 65.6162 69.5842 65.4402 69.4835C65.2642 69.3827 65.1245 69.229 65.041 69.0443C64.417 67.9263 63.7392 66.8365 63.1047 65.726C63.0236 65.5585 62.8908 65.4215 62.7259 65.3352C62.561 65.2489 62.3726 65.2178 62.1887 65.2466C61.7993 65.2823 61.4074 65.2823 61.018 65.2466C60.5339 65.2019 60.3388 65.3731 60.3507 65.8674C60.376 66.8514 60.3641 67.837 60.3701 68.821C60.3701 69.5266 60.2822 69.607 59.5628 69.5981C58.7257 69.5877 57.8886 69.5773 57.0515 69.6055C56.5511 69.6234 56.3574 69.4567 56.3619 68.9356C56.3753 66.71 56.3574 64.4799 56.3574 62.2498ZM60.3447 60.1537C60.3447 60.712 60.3552 61.2688 60.3447 61.8256C60.3358 62.1814 60.4639 62.3317 60.8378 62.3019C61.4335 62.2543 62.0293 62.2409 62.6251 62.2141C62.9058 62.2079 63.1796 62.1257 63.4172 61.9762C63.6548 61.8268 63.8475 61.6158 63.9746 61.3655C64.3842 60.6539 64.3812 59.9155 64.1086 59.1623C63.9016 58.5861 63.4965 58.2244 62.8843 58.1708C62.2006 58.1097 61.511 58.1097 60.8243 58.074C60.4892 58.0576 60.3507 58.2154 60.3522 58.5385C60.3552 59.0774 60.3522 59.6148 60.3507 60.1537H60.3447Z" fill="black"/>
<path d="M137.516 62.8574C137.503 63.1551 137.488 63.3323 137.488 63.5109C137.488 65.2765 137.492 67.0421 137.5 68.8077C137.5 69.5789 137.463 69.6057 136.672 69.5938C135.881 69.5819 135.109 69.5938 134.329 69.5938C133.94 69.5938 133.747 69.4538 133.748 69.0385C133.754 64.2637 133.757 59.4894 133.757 54.7156C133.777 54.5856 133.806 54.4573 133.845 54.3315C136.88 56.4678 139.505 58.9584 142.311 61.4178C142.344 61.1558 142.375 61.0218 142.375 60.8893C142.375 59.1237 142.375 57.3581 142.375 55.594C142.375 54.8496 142.42 54.8079 143.166 54.8035C143.966 54.8035 144.766 54.8109 145.566 54.7945C145.948 54.7856 146.161 54.8987 146.161 55.323C146.155 60.0988 146.152 64.8736 146.152 69.6474C146.133 69.7643 146.104 69.8794 146.065 69.9912C144.483 68.967 143.135 67.7463 141.755 66.5672C140.376 65.3882 138.997 64.1585 137.516 62.8574Z" fill="black"/>
<path d="M71.4375 62.2082C71.6147 59.0447 72.8853 56.5675 75.8121 55.2575C78.7091 53.9593 81.5659 54.1528 84.0831 56.2296C84.7891 56.8132 85.2598 57.6885 85.8124 58.4507C86.088 58.8304 85.9301 59.0924 85.5041 59.2502C84.6327 59.5717 83.7763 59.935 82.896 60.2283C82.7815 60.249 82.6637 60.2417 82.5527 60.2069C82.4417 60.1722 82.3407 60.1111 82.2585 60.0288C81.0818 58.4522 79.792 57.9446 78.1312 58.4329C76.746 58.8438 75.8195 60.197 75.6899 61.9596C75.5678 63.624 76.11 64.9743 77.592 65.8213C78.3404 66.2364 79.2176 66.355 80.0495 66.1537C80.8814 65.9524 81.6072 65.4458 82.0828 64.7346C82.3643 64.3177 82.6443 64.2299 83.1075 64.3728C83.9059 64.6214 84.7206 64.8105 85.5279 65.0278C86.0954 65.1767 86.155 65.3256 85.8899 65.8571C84.4004 68.8583 81.2397 70.4229 77.8467 69.8512C74.4537 69.2796 72.0378 66.8351 71.5775 63.4945C71.5105 63.0538 71.4792 62.6087 71.4375 62.2082Z" fill="black"/>
<path d="M89.1902 62.2499V55.6177C89.1902 54.8912 89.2915 54.7944 90.0333 54.7944C92.9129 54.7944 95.7955 54.7944 98.6811 54.7944C99.4631 54.7944 99.548 54.8852 99.5272 55.6519C99.5123 56.2474 99.5108 56.8429 99.5272 57.4384C99.5465 57.9148 99.3588 58.1068 98.8733 58.0964C97.22 58.0651 95.5637 58.0607 93.9089 58.0443C93.0777 58.0353 93.0479 58.0666 93.0807 58.872C93.0926 59.131 93.0807 59.3916 93.0807 59.6521C93.0524 60.3801 93.1031 60.4337 93.8582 60.4322C95.4381 60.4322 97.0189 60.4322 98.6007 60.4322C99.3678 60.4322 99.3916 60.4575 99.3946 61.2078C99.3946 61.8211 99.3737 62.4345 99.405 63.0463C99.4318 63.5778 99.2278 63.7773 98.693 63.7698C97.0546 63.749 95.4162 63.7579 93.7778 63.7594C93.106 63.7594 93.0628 63.81 93.0643 64.4934C93.086 64.8455 93.083 65.1986 93.0554 65.5503C92.9839 66.0818 93.2043 66.2545 93.7078 66.2426C95.3983 66.2039 97.0904 66.183 98.7824 66.1518C99.6761 66.1369 99.6895 66.1518 99.6895 67.0331C99.6895 67.6643 99.6657 68.297 99.6895 68.9282C99.7163 69.4374 99.5212 69.6234 99.0133 69.6145C97.5625 69.5922 96.1118 69.5966 94.661 69.5981C93.0807 69.5981 91.5004 69.613 89.9186 69.6175C89.2543 69.6175 89.1738 69.546 89.1738 68.8895C89.1738 66.6783 89.1738 64.468 89.1738 62.2588L89.1902 62.2499Z" fill="black"/>
<path d="M38.002 69.5313C38.0752 69.2897 38.1612 69.0522 38.2596 68.8197C40.5802 64.1293 42.9068 59.4414 45.2393 54.7559C45.3331 54.5668 45.5625 54.3257 45.7279 54.3272C45.8932 54.3286 46.1255 54.5668 46.2209 54.7559C48.5871 59.4662 50.9445 64.1804 53.2929 68.8986C53.3808 69.0743 53.4418 69.2619 53.5506 69.5239C53.2765 69.5492 53.0844 69.5819 52.8907 69.5834C51.8123 69.5834 50.734 69.5834 49.6571 69.5983C49.2505 69.6058 49.024 69.4658 48.8468 69.0817C48.0693 67.3906 48.5147 67.4918 46.4175 67.5037C45.5238 67.5037 44.6301 67.5037 43.7364 67.4962C42.9664 67.4962 42.874 67.5588 42.6491 68.318C42.6014 68.4788 42.5627 68.6411 42.5002 68.7974C42.2604 69.4613 41.9446 69.6713 41.2416 69.6534C40.3479 69.6325 39.4542 69.6162 38.5605 69.5923C38.4145 69.5909 38.2552 69.5566 38.002 69.5313ZM44.0924 64.562C45.004 64.562 45.7427 64.5695 46.4756 64.562C46.7869 64.562 46.8628 64.3402 46.7556 64.0975C46.3743 63.2356 45.9706 62.384 45.5134 61.3926L44.0924 64.562Z" fill="black"/>
<path d="M148.406 69.5889C148.534 69.2525 148.591 69.0619 148.679 68.8848C150.996 64.2082 153.319 59.5342 155.645 54.8626C155.757 54.6393 156.003 54.4815 156.184 54.2939C156.369 54.48 156.616 54.6334 156.728 54.8552C159.068 59.5198 161.399 64.1904 163.72 68.8669C163.816 69.0604 163.885 69.2659 164 69.5457C163.742 69.5636 163.565 69.5859 163.387 69.5874C162.29 69.5874 161.192 69.5874 160.094 69.6023C159.689 69.6023 159.467 69.4534 159.294 69.0649C158.509 67.3112 159.065 67.4854 156.957 67.5107C156.009 67.5226 155.058 67.5196 154.111 67.4913C153.613 67.4749 153.347 67.6506 153.158 68.1344C152.492 69.836 152.818 69.5889 151.04 69.5889H148.406ZM154.564 64.5273H157.435C156.942 63.4778 156.497 62.528 156.05 61.5782L155.888 61.5975L154.564 64.5273Z" fill="black"/>
<path d="M102.9 40.7322C102.9 43.7245 102.892 46.7153 102.9 49.7061C102.9 50.1765 102.758 50.379 102.261 50.3701C100.884 50.3492 99.5081 50.3537 98.1318 50.3701C97.7342 50.3701 97.5688 50.2569 97.5703 49.8297C97.5793 43.7915 97.5793 37.7533 97.5703 31.7151C97.5703 31.261 97.7357 31.0824 98.1944 31.0883C99.5349 31.1062 100.875 31.1181 102.216 31.0883C102.767 31.0764 102.915 31.2983 102.912 31.8133C102.892 34.7878 102.9 37.7607 102.9 40.7322Z" fill="black"/>
<path d="M104.169 62.1948C104.169 59.9618 104.182 57.7391 104.158 55.5105C104.158 54.985 104.307 54.7796 104.852 54.8019C105.686 54.8377 106.523 54.8109 107.361 54.8019C108.05 54.793 108.175 54.9017 108.175 55.6014C108.175 58.7773 108.171 61.9532 108.162 65.1291C108.162 66.0714 108.21 66.1072 109.139 66.0774C110.457 66.0372 111.777 66.0327 113.095 65.9732C113.646 65.9494 113.81 66.1578 113.786 66.6848C113.75 67.4812 113.765 68.2807 113.786 69.0786C113.795 69.4657 113.637 69.6146 113.26 69.6146C110.415 69.6146 107.572 69.6146 104.729 69.6146C104.292 69.6146 104.158 69.4121 104.16 68.9923C104.173 66.728 104.16 64.4621 104.16 62.1978L104.169 62.1948Z" fill="black"/>
<path d="M95.0527 21.3717C97.7487 20.3728 99.6105 18.6503 100.491 15.8516C101.384 18.631 103.224 20.3981 105.974 21.3598C103.276 22.3557 101.34 24.0454 100.506 26.8978C99.6433 24.0588 97.7353 22.3647 95.0527 21.3717Z" fill="#D30A0B"/>
<path d="M108.208 17.5216C107.777 16.2071 106.867 15.3407 105.406 14.7839C106.693 14.0797 107.697 13.2952 108.281 12C108.699 13.3979 109.77 14.105 110.962 14.7169C110.392 15.1278 109.8 15.4478 109.347 15.9079C108.895 16.3679 108.606 16.9425 108.208 17.5216Z" fill="#D30A0B"/>
</svg>
