<svg width="188" height="84" viewBox="0 0 188 84" fill="none" xmlns="http://www.w3.org/2000/svg">
<path d="M46.7341 54.3306C45.8936 55.0579 44.968 55.6829 43.9773 56.1924C42.2264 57.082 40.3245 57.6439 38.3673 57.8497C36.6256 58.0563 34.8631 58.0196 33.1317 57.7406C28.6589 57.004 25.5506 54.1532 24.4686 49.7838C23.8067 47.0126 23.8525 44.1218 24.6018 41.3724C25.6885 37.1963 27.6343 33.4634 30.5932 30.2785C32.6608 28.0551 35.089 26.3478 38.0686 25.5294C40.7289 24.7997 43.3915 24.7747 45.9806 25.8204C48.2779 26.748 49.8079 28.3984 50.2765 30.8559C50.736 33.2429 50.0468 35.3685 48.4088 37.1395C46.5411 39.1446 44.1749 39.747 41.5169 39.2582C41.1152 39.1701 40.736 39.0015 40.4027 38.7626C39.895 38.4171 39.8491 37.8806 40.2511 37.4214C40.5359 37.1137 40.8373 36.8216 41.1539 36.5461C41.9327 35.83 42.5208 35.0071 42.6954 33.9431C42.7967 33.4056 42.7802 32.8529 42.6472 32.3222C42.2589 30.8741 40.9839 30.1739 39.4631 30.5854C38.3604 30.8809 37.4599 31.522 36.6512 32.2881C34.5101 34.3114 33.0835 36.7848 32.0819 39.5128C31.339 41.4437 31.0051 43.5051 31.1009 45.5691C31.1426 46.5585 31.3212 47.5375 31.6316 48.4789C32.4471 50.8364 34.115 52.2072 36.5938 52.5482C39.9019 53.0029 42.5966 51.8026 44.7929 49.3974C45.2775 48.8249 45.6387 48.1603 45.8542 47.4446C46.6537 45.1417 47.692 42.9592 49.1899 41.0087C51.5469 37.9351 54.6299 36.0551 58.5146 35.5322C60.364 35.2821 62.2156 35.2526 64.0282 35.8436C65.2228 36.2347 66.2566 36.8621 66.9963 37.901C67.2898 38.2981 67.4835 38.7587 67.5614 39.2446C67.5954 39.4035 67.5877 39.5683 67.5391 39.7235C67.4905 39.8786 67.4027 40.0189 67.2839 40.1309C67.1651 40.243 67.0194 40.3232 66.8605 40.3638C66.7016 40.4044 66.5348 40.4042 66.376 40.3631C65.7879 40.2267 65.2274 39.9812 64.637 39.8538C62.0548 39.2923 59.5324 39.431 57.1776 40.7018C54.5127 42.1386 53.0241 44.4415 52.436 47.3423C52.1934 48.4187 52.2123 49.5367 52.4911 50.6045C52.7208 51.4298 53.1596 52.1186 54.0763 52.2686C55.2249 52.4573 56.2265 52.1618 56.98 51.2297C57.4612 50.5871 57.8215 49.864 58.0437 49.095C58.3929 48.0447 58.6915 46.9763 59.0476 45.9305C59.5071 44.5801 60.2974 43.4844 61.6643 42.9001C62.6104 42.5115 63.6587 42.438 64.6507 42.691C64.8101 42.729 64.9643 42.7854 65.1102 42.8592C65.2295 42.9039 65.3386 42.9718 65.4311 43.0587C65.5236 43.1456 65.5976 43.2499 65.649 43.3654C65.7003 43.481 65.7278 43.6055 65.73 43.7317C65.7322 43.8579 65.7089 43.9833 65.6616 44.1005C65.5916 44.3346 65.5024 44.5627 65.3951 44.7825C64.6342 46.3468 64.2057 48.0491 64.1362 49.7838C64.1273 50.1643 64.1848 50.5435 64.3062 50.9046C64.4014 51.2317 64.5816 51.5283 64.8288 51.765C65.076 52.0018 65.3816 52.1702 65.7151 52.2537C66.0486 52.3372 66.3983 52.3327 66.7295 52.2408C67.0607 52.1489 67.3618 51.9727 67.6028 51.7298C67.9451 51.3645 68.2665 50.9805 68.5654 50.5795C68.9559 50.1112 69.3189 49.6156 69.7531 49.1882C70.3076 48.6592 71.0504 48.3676 71.8206 48.3766C72.6178 48.3607 73.0819 48.9904 72.8039 49.7407C72.6258 50.2011 72.5742 50.7 72.6546 51.1865C72.7011 51.5456 72.8406 51.8866 73.0596 52.1766C73.2786 52.4665 73.5695 52.6956 73.9043 52.8415C74.4934 53.1248 75.1384 53.2757 75.7933 53.2836C76.4482 53.2915 77.0967 53.156 77.6925 52.887C78.9262 52.33 79.2547 50.9296 78.4598 49.8361C78.1139 49.3862 77.6724 49.0168 77.1665 48.754C76.4015 48.3244 75.6181 47.9265 74.8531 47.4946C73.7044 46.8512 72.712 46.0533 72.0963 44.8734C71.1406 43.0547 70.9982 40.0698 72.6706 38.1466C73.6443 37.0453 74.9309 36.2601 76.3624 35.8937C78.623 35.2662 80.9042 35.1525 83.1785 35.805C83.7466 36.0084 84.2993 36.2515 84.8326 36.5325C84.9291 36.5779 85.0186 36.637 85.1266 36.6984C85.5681 35.775 86.2276 34.9704 87.0495 34.3523C88.326 33.3821 89.8769 32.8305 91.4856 32.7746C92.9857 32.7087 94.4376 32.9178 95.7677 33.6476C97.3322 34.5046 98.3109 35.7914 98.5658 37.5623C98.6788 38.5051 98.5614 39.4609 98.2236 40.3494C97.6354 42.0158 96.9922 43.664 96.3512 45.3122C95.8435 46.6239 95.2807 47.9174 94.9912 49.3019C94.9207 49.6391 94.8754 49.9811 94.8557 50.3249C94.8075 51.1501 95.4094 51.6753 96.2341 51.5571C96.9991 51.4479 97.5941 51.0342 98.1317 50.525C99.0596 49.6023 99.8217 48.5298 100.385 47.3536C101.961 44.2791 102.939 40.9394 103.271 37.5077C103.305 37.1645 103.312 36.8257 103.33 36.4756C103.331 36.2642 103.399 36.0584 103.525 35.888C103.652 35.7176 103.83 35.5914 104.033 35.5276C105.318 35.1753 107.316 35.3412 108.424 36.6325C108.966 37.2821 109.258 38.1017 109.246 38.9445C109.283 40.8473 108.803 42.6478 108.097 44.4006C107.523 45.8328 106.873 47.2331 106.285 48.6608C106.074 49.182 105.907 49.7196 105.786 50.2681C105.557 51.3047 106.154 52.0299 107.234 52.0708C107.893 52.0811 108.534 51.8559 109.039 51.4366C109.746 50.868 110.333 50.1684 110.769 49.3769C111.73 47.682 112.434 45.8567 112.86 43.9595C113.41 41.8039 113.692 39.59 113.7 37.3668C113.687 37.1289 113.754 36.8933 113.889 36.6962C114.024 36.4991 114.221 36.3513 114.449 36.2756C115.128 36.0128 115.865 35.9298 116.586 36.0346C118.346 36.2392 119.363 37.269 119.586 39.0513C119.644 39.506 119.657 39.9607 119.694 40.4586C119.752 40.379 119.807 40.304 119.857 40.2312C120.923 38.6399 122.18 37.2327 123.875 36.2665C125.18 35.475 126.741 35.2051 128.24 35.5117C129.848 35.8505 130.859 36.9849 131.05 38.6012C131.077 38.8286 131.098 39.0559 131.126 39.3151C131.188 39.2196 131.236 39.1491 131.279 39.0764C132.736 36.7848 134.801 35.514 137.56 35.3981C138.462 35.3254 139.367 35.4901 140.184 35.8755C141.468 36.5279 142.058 37.6396 142.238 39.0013C142.449 40.6245 142.107 42.184 141.475 43.6503C140.772 45.294 139.954 46.8876 139.178 48.5017C138.812 49.2723 138.419 50.0339 138.293 50.8932C138.185 51.623 138.562 52.0731 139.309 52.0868C139.843 52.0868 140.37 51.9614 140.845 51.7207C141.524 51.4171 142.135 50.982 142.641 50.4413C143.147 49.9005 143.539 49.265 143.793 48.5722C144.326 47.1468 144.974 45.7782 145.955 44.5892C146.766 43.6094 147.73 42.8433 149.031 42.6251C149.473 42.5553 149.924 42.5492 150.368 42.6069C151.167 42.7024 151.496 43.2616 151.255 44.0232C151.209 44.1702 151.149 44.3126 151.075 44.4483C150.432 45.6282 150.216 46.9081 150.189 48.2266C150.168 49.1814 150.177 50.1362 150.467 51.0592C150.552 51.3368 150.667 51.6043 150.811 51.8571C150.929 52.0796 151.092 52.2756 151.29 52.4331C151.488 52.5907 151.717 52.7064 151.961 52.7731C152.206 52.8398 152.462 52.8561 152.714 52.8209C152.965 52.7858 153.207 52.6999 153.423 52.5687C154.342 52.0822 154.972 51.3229 155.514 50.484C156.724 48.5867 157.407 46.4064 157.492 44.1641C157.542 43.5118 157.487 42.8556 157.329 42.2204C157.134 41.4614 156.707 40.7804 156.106 40.2709C155.505 39.7613 154.76 39.4481 153.972 39.3742C152.646 39.2087 151.3 39.3648 150.048 39.8288C149.782 39.9276 149.504 39.9911 149.221 40.0175C148.401 40.0766 147.875 39.3355 148.252 38.6194C148.458 38.2366 148.736 37.8957 149.07 37.6146C150.2 36.653 151.553 36.1233 152.975 35.7664C154.574 35.3289 156.251 35.2512 157.885 35.539C160.288 35.9937 161.962 37.4009 163.01 39.5538C163.949 41.4861 164.158 43.5299 163.878 45.635C163.451 48.8864 161.939 51.9036 159.582 54.2078C157.802 55.9924 155.716 57.295 153.193 57.802C151.602 58.1359 149.948 58.0249 148.417 57.4814C146.957 56.9665 145.741 55.9337 145.006 54.5829L144.868 54.3419C144.503 54.667 144.165 54.9989 143.795 55.2922C141.61 57.0199 139.148 58.0202 136.317 57.9611C135.618 57.9491 134.922 57.8459 134.25 57.6542C132.541 57.1586 131.574 55.856 131.493 54.0919C131.469 52.9649 131.65 51.8429 132.028 50.7796C132.596 49.0132 133.407 47.3445 134.165 45.6532C134.537 44.8166 134.875 43.9641 135.194 43.107C135.29 42.8238 135.331 42.5254 135.316 42.2272C135.316 41.8453 135.162 41.7453 134.767 41.7566C134.289 41.7851 133.828 41.9423 133.434 42.2113C132.618 42.7566 131.91 43.4464 131.346 44.246C129.782 46.3238 128.686 48.6449 127.813 51.066C127.187 52.7555 126.755 54.5095 126.526 56.2947C126.484 56.7341 126.283 57.1437 125.96 57.4481C125.637 57.7526 125.214 57.9315 124.769 57.952C123.181 58.1089 121.661 57.3609 120.96 56.0629C120.478 55.1694 120.422 54.2078 120.558 53.228C120.799 51.4843 121.463 49.8702 122.155 48.2675C122.825 46.7194 123.533 45.1826 124.183 43.6276C124.347 43.2184 124.453 42.7883 124.496 42.35C124.544 41.9431 124.316 41.7589 123.894 41.7635C123.432 41.7839 122.987 41.9345 122.609 42.1977C121.836 42.7247 121.173 43.3938 120.654 44.1687C119.292 46.0624 118.343 48.1607 117.56 50.3385C116.847 52.2831 116.347 54.2973 116.067 56.347C115.94 57.3246 115.162 57.9611 114.105 57.9793C112.398 58.0066 111.118 57.3177 110.333 55.781C110.3 55.7216 110.265 55.6639 110.227 55.6082C109.699 55.9901 109.195 56.3857 108.66 56.7449C107.468 57.5269 106.184 58.0429 104.716 57.9907C103.776 57.9909 102.846 57.803 101.982 57.4382C101.438 57.2131 100.961 56.8527 100.599 56.3919C100.237 55.9311 100.001 55.3855 99.9144 54.808C99.8983 54.7125 99.8776 54.617 99.8638 54.5511C99.448 55.0057 99.0575 55.4968 98.5957 55.9151C97.7928 56.6614 96.8372 57.2283 95.7936 57.5774C94.75 57.9265 93.6428 58.0496 92.5469 57.9384C91.0674 57.8111 90.0199 56.9631 89.287 55.7059C88.7388 54.6937 88.4471 53.5648 88.437 52.4164C88.352 50.3567 88.8528 48.4062 89.6018 46.5057C90.1922 45.0121 90.8239 43.5344 91.4052 42.0363C91.6349 41.4202 91.8049 40.7745 92.0024 40.1426C92.3907 38.9013 91.6165 38.0533 90.5643 37.8351C89.2778 37.5691 87.927 37.992 87.5778 39.6833C87.5177 39.9945 87.4839 40.3101 87.4768 40.6268C87.4841 41.1996 87.3828 41.7687 87.1781 42.3045C86.6773 43.4889 85.7147 44.0505 84.4788 44.2187C84.2146 44.2539 83.9482 44.2698 83.6816 44.2664C83.5549 44.268 83.4292 44.2442 83.3121 44.1962C83.195 44.1483 83.089 44.0773 83.0005 43.9876C82.9119 43.8979 82.8428 43.7913 82.7972 43.6743C82.7516 43.5573 82.7304 43.4324 82.7351 43.3071C82.7351 42.8638 82.8132 42.4205 82.7949 41.9772C82.7489 40.9087 82.1585 40.2085 81.1867 39.822C80.5155 39.5588 79.7793 39.5033 79.0755 39.6629C77.9269 39.9084 77.3778 40.9019 77.6971 42.0931C77.842 42.675 78.2093 43.1787 78.7217 43.498C79.4959 43.9777 80.3069 44.4074 81.1224 44.8166C82.0413 45.2849 82.9809 45.7259 83.7735 46.4079C84.2999 46.8505 84.7201 47.4035 85.0038 48.0267C85.2875 48.6499 85.4275 49.3278 85.4138 50.0112C85.4459 53.1939 83.7666 55.6696 80.7135 56.9813C78.8443 57.7579 76.8188 58.0956 74.7956 57.9679C74.1262 57.9427 73.4592 57.8728 72.7993 57.7588C71.2808 57.486 70.5617 57.1063 69.4268 56.0947C68.8766 56.4882 68.3061 56.8531 67.7177 57.1882C66.2175 58.0002 64.4607 58.2148 62.806 57.7883C61.3357 57.4019 60.4972 56.3857 60.1756 54.933C60.1526 54.8307 60.1342 54.7261 60.1182 54.6511C59.7207 55.0603 59.3463 55.5082 58.9098 55.8855C57.6141 57.0063 56.0703 57.5996 54.3841 57.8474C53.1068 58.0361 51.8272 58.093 50.5614 57.7565C49.7136 57.5564 48.9281 57.1544 48.2731 56.5855C47.618 56.0165 47.1134 55.2979 46.803 54.492C46.7869 54.4442 46.7685 54.4056 46.7341 54.3306Z" fill="#3BB8B4"/>
</svg>
