<svg width="188" height="84" viewBox="0 0 188 84" fill="none" xmlns="http://www.w3.org/2000/svg">
<path d="M42.3051 49.4052C41.1483 51.2449 39.6734 52.1648 37.9093 52.1648C34.4679 52.1648 31.8941 49.4914 31.8941 45.927C31.8941 42.8225 33.8895 39.6892 37.678 39.6892C40.6278 39.6892 41.6978 41.5576 42.3051 42.5925L42.3919 42.765H48.7542L48.6096 42.3338C46.6431 36.4984 41.4954 34.4287 37.678 34.4287C34.7571 34.4287 31.8362 35.6073 29.6672 37.677C27.4115 39.8329 26.168 42.765 26.168 45.8982C26.168 53.0559 32.1543 57.4827 37.7069 57.4827C42.7389 57.4827 46.8166 54.5794 48.5807 49.7502L48.7542 49.2902H42.3919L42.3051 49.4052ZM61.9416 34.4C55.5214 34.4 50.4026 39.5455 50.4026 45.927C50.4026 52.251 55.5214 57.454 61.8837 57.454C68.3039 57.454 73.4805 52.2798 73.4805 45.927C73.4805 39.5167 68.3039 34.4 61.9416 34.4ZM61.9994 51.9636C58.7315 51.9636 56.1287 49.3765 56.1287 46.1282C56.1287 42.8799 58.7315 40.2928 61.9994 40.2928C65.2095 40.2928 67.8701 42.8799 67.8701 46.1282C67.8701 49.3765 65.2095 51.9636 61.9994 51.9636ZM92.741 36.7284C91.4396 35.636 89.2417 34.4 86.5233 34.4C80.2477 34.4 75.3892 39.5455 75.3892 45.927C75.3892 52.251 80.5658 57.454 86.9281 57.454C93.3483 57.454 98.5249 52.2798 98.5249 45.927V25.5176H92.741V36.7284ZM86.8992 51.9636C83.6313 51.9636 81.0285 49.3765 81.0285 46.1282C81.0285 42.8799 83.6313 40.2928 86.8992 40.2928C90.1671 40.2928 92.7699 42.8799 92.7699 46.1282C92.7699 49.3765 90.1671 51.9636 86.8992 51.9636ZM115.935 51.9061C113.071 53.1134 109.688 52.3085 107.808 49.9514L124.061 43.1099L123.425 41.6151C120.909 35.6935 114.778 32.8477 108.415 35.5211C102.053 38.1944 99.3347 44.7484 101.851 50.67C104.367 56.5916 111.452 59.035 117.843 56.3329C120.793 55.0968 123.193 52.8834 124.495 50.3251L119.781 47.9392C118.971 49.9801 117.699 51.1874 115.935 51.9061ZM110.324 39.9766C112.724 38.9705 115.096 39.6604 116.658 41.1552L106.449 45.4383C106.565 43.0812 107.953 40.9827 110.324 39.9766ZM157.058 47.9679C156.277 49.9801 154.976 51.1587 153.241 51.9061C150.378 53.1134 146.994 52.3085 145.114 49.9514L161.367 43.1099L160.731 41.6151C158.215 35.6935 152.084 32.8477 145.722 35.5211C139.359 38.1944 136.641 44.7484 139.157 50.67C141.673 56.5916 148.758 59.035 155.15 56.3329C158.099 55.0968 160.5 52.8834 161.801 50.3251L157.058 47.9679ZM147.602 39.9766C150.002 38.9705 152.373 39.6604 153.935 41.1552L143.726 45.4383C143.871 43.0812 145.259 40.9827 147.602 39.9766ZM126.895 44.8059V57.1378H132.621V45.4958C132.621 42.0176 134.617 40.3216 137.422 40.3216V35.1761C130.915 35.1761 126.895 39.5742 126.895 44.8059Z" fill="#344049"/>
</svg>
