<svg width="188" height="84" viewBox="0 0 188 84" fill="none" xmlns="http://www.w3.org/2000/svg"><path d="M57.3 36.46c-2.2-5.09-8.87-10.67-17.88-9.69-4.5.63-8.11 2.07-11.07 5.09-1.51 1.61-2.66 3.42-3.38 5.55-1.61 5.76-.86 10.45 2.73 14.86 3.35 4.04 8.44 6.51 13.67 6.41 5.06.53 17.87-3.25 16.85-16.23-.36 8.48-5.26 11.76-7.75 12.81 4.01-2.6 8.44-8.08 6.93-15.34-.23 6.93-4.4 12.22-9.66 14.59-3.32 1.54-6.54 1.61-9.79.72-5.06-1.38-9.07-4.7-10.28-9.2-.85-3.45-.13-7.56 1.31-10.35 1.71-3.12 4.67-5.85 9.1-7.1 3.38-.99 7.26-.62 10.32.56 3.45 1.35 6.28 3.84 8.9 7.33v-.01z" fill="url(#paint0_linear_6315_587606)" stroke="url(#paint1_linear_6315_587606)" stroke-width=".33" stroke-linejoin="round"/><path d="M42.84 35.54l-4.3 1.54c-4.47 4.7-6.18 10.32-6.44 13.01-.23 1.15 1.02 1.64 1.81 1.84 1.58.39 3.78.39 5.55.23 3.58-.33 8.71-2.07 12.16-5.95 1.25-1.35 2.07-3.09 2.46-4.67.82-3.35.36-7.69-5.03-8.9-2.14-.49-4.37-.26-6.34.26-7.33 1.97-12.19 8.21-13.54 10.02 2.56-2.2 7.1-6.9 13.9-8.31 1.64-.43 3.45-.3 4.9.2 2.14.76 4.11 2.37 3.61 5.29-1.08 4.76-6.14 7.92-9.73 8.97-1.81.53-3.71.36-5.59.3-.49 0-.66-.1-.56-.46.43-2.07 2.4-8.44 7.13-13.37h.01z" fill="url(#paint2_linear_6315_587606)"/><path d="M59.79 41.03c-1.25-5.06-3.81-9.1-7.85-11.99-1.35-1.02-3.02-1.74-4.5-2.17-4.24-1.28-10.12-1.54-15.93 2 3.65-1.84 9.27-3.65 15.84-1.58.85.26 1.74.59 2.63 1.02.66.36 1.25.72 1.81 1.12 4.93 3.45 6.6 7.85 8.02 11.6h-.02z" fill="url(#paint3_linear_6315_587606)"/><path d="M62 44.81c.33 4.63 3.78 7 8.15 7.23 2.2 0 4.63-.2 6.18-1.02.76-.43 1.41-1.02 1.41-2V30.94c-1.31-.16-3.84.59-5.13 2 .3 1.22.49 2.1.49 3.22v2.33c-1.25-.43-2.63-.95-4.47-.89-3.12.13-6.41 2.79-6.64 7.2l.01.01zm11.1-1.68v4.44c-1.41.43-2.83.69-4.01.07-.89-.46-1.81-1.35-1.84-2.73-.1-.92.56-2.23 1.91-2.76 1.12-.39 2.27-.26 3.38.16.53.13.56.23.56.82zM79.57 47.37c.39 3.12 2.4 4.5 5.26 4.67 1.81.16 3.81-.76 4.44-1.22.13.39.56 1.15 1.35 1.22.85.1 2.79-.16 3.84-.95.43-.26.16-.53 0-.82-.16-.29-.3-.72-.33-1.35v-7.69c-.13-1.35-.72-2.04-1.41-2.56s-1.41-.85-2.17-1.05c-1.77-.39-3.52-.23-5.22-.07-1.91.23-3.09.56-4.01.85-.36.1-.56.33-.59.66-.1 1.12.2 1.91.62 2.37.23.3.56.23.95.13 1.35-.49 2.66-.92 3.71-1.05 2-.26 3.15.39 3.25 1.51v1.38c-1.08-.43-2.04-1.02-3.84-1.02-2.89-.03-5.82 1.64-5.85 4.99zm7.46-2.14c1.05.1 1.71.49 2.2.82v2.23c-.39.23-1.08.53-2.07.62-1.08.07-1.84-.23-2.27-.72-.49-.66-.53-1.38-.1-2.04.43-.69 1.28-.95 2.23-.92l.01.01zM126.95 31.93v6.64c1.25-.43 2.63-.95 4.47-.89 3.12.1 6.44 2.76 6.64 7.16-.33 4.63-3.78 7-8.15 7.23-2.2 0-4.63-.2-6.18-1.02-.76-.43-1.41-1.02-1.41-2V35.68c-.07-1.08-.23-1.64-.43-2.4-.33-1.15 2.43-1.87 3.29-2.17.43-.16 1.02-.33 1.41-.13.36.26.36.49.36.95zm0 11.2v4.44c1.41.43 2.83.69 4.01.07.89-.46 1.81-1.35 1.84-2.73.1-.92-.56-2.23-1.91-2.76-1.12-.39-2.27-.26-3.38.16-.53.13-.56.23-.56.82zM105.23 47.37c.39 3.12 2.4 4.5 5.26 4.67 1.81.16 3.81-.76 4.44-1.22.13.39.56 1.15 1.35 1.22.85.1 2.79-.16 3.84-.95.43-.26.16-.53 0-.82-.16-.29-.3-.72-.33-1.35v-7.69c-.13-1.35-.72-2.04-1.41-2.56-.69-.53-1.41-.85-2.17-1.05-1.77-.39-3.52-.23-5.22-.07-1.91.23-3.09.56-4.01.85-.36.1-.56.33-.59.66-.1 1.12.2 1.91.62 2.37.23.3.56.23.95.13 1.35-.49 2.66-.92 3.71-1.05 2-.26 3.15.39 3.25 1.51v1.38c-1.08-.43-2.04-1.02-3.84-1.02-2.89-.03-5.85 1.64-5.85 4.99zm7.46-2.14c1.05.1 1.71.49 2.2.82v2.23c-.39.23-1.08.53-2.07.62-1.08.07-1.84-.23-2.27-.72-.49-.66-.53-1.38-.1-2.04.43-.69 1.28-.95 2.23-.92l.01.01zM96.69 56.11V41.16h-.82c-.26 0-.49-.03-.69-.1-.33-.13-.62-.46-.33-.89l1.84-2.3v-1.94c.13-2.23 1.58-4.11 3.98-4.76 1.08-.33 2.17-.2 3.32-.2.33.03.43.16.56.3.33.39.69.92 1.05 1.48.46.62.1 1.61-.56 1.58-1.05 0-2.04-.1-2.76.43-.76.62-.82 1.15-.82 2.07v1.12h2.17c.46-.03.62.2.72.39.49.82.33 1.71.07 2.4-.16.33-.26.49-.53.53h-2.43v13.7l-3.42 1.41c-.53.1-1.35.39-1.35-.26v-.01zM146.63 37.61c-4.83.2-7.46 3.94-7.46 7.36.07 4.96 4.6 7.23 7.92 7.06.2.03 3.98.03 5.68-2.14.3-.43.3-1.08.26-1.68-.03-.53-.13-.85-.39-1.05-.3-.2-.56-.1-.89.1-2.04 1.25-4.11 1.35-4.34 1.31-2.63-.3-3.61-2.5-3.25-2.79h8.77c.69-.07 1.08-.53 1.15-1.41 0-2.1-1.81-6.74-7.46-6.77l.01.01zm-2.23 5.45c.3-.82.99-1.81 2.4-1.87 1.58.03 2.27 1.15 2.46 1.91l-4.86-.03v-.01zM156.19 49.11v-7.95h-.82c-.26 0-.49-.03-.69-.1-.33-.13-.62-.46-.33-.89l1.84-2.3v-2.69c.13-.82 4.8-2.3 4.76-1.25v3.98h2.17c.46-.03.62.2.72.39.49.82.33 1.71.07 2.4-.16.33-.26.49-.53.53h-2.46v6.05c.03.23.1.69.36.95.3.3.62.23.99.13.16-.07.3-.16.46-.3.23-.23.33-.23.53-.2.26.03.49.2.53.36.07.66.03 1.94 0 2.23-.23 1.71-3.52 1.58-4.27 1.61-1.28-.07-2.5-.62-3.06-1.48-.26-.53-.26-.92-.26-1.48l-.01.01z" fill="#640000" stroke="#640000" stroke-width=".33" stroke-linejoin="round"/><defs><linearGradient id="paint0_linear_6315_587606" x1="22.957" y1="40.002" x2="57.116" y2="40.002" gradientUnits="userSpaceOnUse"><stop stop-color="#E7CF2D"/><stop offset=".06" stop-color="#E4C420" stop-opacity=".91"/><stop offset=".11" stop-color="#E0BE27"/><stop offset=".17" stop-color="#DDBE25"/><stop offset=".29" stop-color="#DBB025"/><stop offset=".5" stop-color="#CB7B22"/><stop offset="1" stop-color="#C05E2D"/></linearGradient><linearGradient id="paint1_linear_6315_587606" x1="22.957" y1="-423.63" x2="57.116" y2="-423.63" gradientUnits="userSpaceOnUse"><stop stop-color="#E7CF2D"/><stop offset=".06" stop-color="#E4C420" stop-opacity=".91"/><stop offset=".11" stop-color="#E0BE27"/><stop offset=".17" stop-color="#DDBE25"/><stop offset=".29" stop-color="#DBB025"/><stop offset=".5" stop-color="#CB7B22"/><stop offset="1" stop-color="#C05E2D"/></linearGradient><linearGradient id="paint2_linear_6315_587606" x1="27.968" y1="39.64" x2="53.268" y2="39.64" gradientUnits="userSpaceOnUse"><stop stop-color="#DCC01E"/><stop offset=".03" stop-color="#E4C420" stop-opacity=".91"/><stop offset=".06" stop-color="#E3BF20" stop-opacity=".89"/><stop offset=".12" stop-color="#E0BC25"/><stop offset=".25" stop-color="#E1AA26"/><stop offset=".5" stop-color="#CD8323"/><stop offset="1" stop-color="#BC5630"/></linearGradient><linearGradient id="paint3_linear_6315_587606" x1="30.262" y1="30.878" x2="58.633" y2="30.878" gradientUnits="userSpaceOnUse"><stop stop-color="#E5C921" stop-opacity=".94"/><stop offset=".03" stop-color="#E4C420" stop-opacity=".91"/><stop offset=".06" stop-color="#E3BF20" stop-opacity=".89"/><stop offset=".12" stop-color="#E2B520" stop-opacity=".84"/><stop offset=".25" stop-color="#DFA120" stop-opacity=".75"/><stop offset=".5" stop-color="#CC8F1A"/><stop offset="1" stop-color="#D54B14"/></linearGradient></defs></svg>