<svg width="188" height="84" xmlns="http://www.w3.org/2000/svg"><defs><clipPath id="clip0_3176_515"><path fill="#fff" id="svg_1" d="M0 0h188v84H0z"/></clipPath></defs><g class="layer"><g clip-path="url(#clip0_3176_515)" id="svg_2"><path d="M149 17H95.31v49H149V17z" fill="#000" id="svg_3"/><path d="M62.87 54.71h-6.06l6.39-8.2c.07-.1.14-.2.19-.32.03-.09.04-.18.04-.27v-1.58c0-.31-.07-.5-.19-.6-.11-.1-.37-.15-.74-.15h-9.23c-.33 0-.54.05-.65.16-.1.11-.15.34-.15.7v1.19c0 .36.06.59.15.7.1.11.32.17.65.17h5.69l-6.28 8.2c-.15.16-.23.36-.25.55v1.62c0 .31.07.5.19.6.11.1.37.16.74.16h9.5c.34 0 .56-.06.66-.17.1-.11.15-.34.15-.7v-1.19c0-.34-.06-.59-.15-.7-.11-.11-.33-.17-.66-.17zm.26-26.59c-.44-.86-1.16-1.58-2.06-2.07-.87-.44-1.97-.66-3.29-.66h-4.43c-.37 0-.62.05-.74.15-.12.11-.18.31-.18.6v12.53c0 .31.06.5.18.6.12.11.37.16.74.16h4.96c2.35 0 3.95-.92 4.81-2.74.19-.4.34-.83.43-1.26.08-.54.12-1.09.11-1.63v-2.67c.01-.6-.03-1.19-.11-1.78a4.4 4.4 0 00-.43-1.23zm-3.08 5.7c0 .45-.04.91-.12 1.35-.06.32-.19.61-.39.88-.18.22-.43.39-.72.48-.36.1-.72.13-1.09.13h-1.77v-8.51h1.77c.81 0 1.4.22 1.76.66.36.44.55 1.16.55 2.18v2.83zm20.61 4.75l-4.54-12.52c-.06-.21-.18-.39-.34-.54-.19-.1-.41-.13-.62-.12h-2.5c-.23-.01-.45.02-.65.13a.91.91 0 00-.33.53L67.1 38.57c-.07.12-.1.26-.08.39 0 .31.21.45.61.45h1.87c.15.01.29 0 .43-.01.1-.01.18-.05.26-.1.07-.07.12-.15.17-.23.07-.15.12-.28.17-.42l.72-2.19h5.16l.73 2.16c.04.15.1.29.17.43.06.1.11.17.19.25.08.06.17.1.26.11.14.01.26.02.39.02h2.01c.41 0 .61-.16.61-.47v-.18c-.03-.07-.04-.15-.07-.21zm-8.61-4.63l1.72-5.3 1.77 5.3h-3.49zm-33.06 4.74l3.11 2.83-3.11 2.83v21.67h53.69V44.34l-3.11-2.83 3.11-2.83V17.01H38.99v21.67zm3.37 7.13l3.71-3.39c.14-.12.23-.26.3-.42.08-.16.11-.32.11-.49 0-.17-.03-.33-.11-.49-.07-.16-.17-.29-.3-.42l-3.71-3.39V20.08h46.96v17.11l-3.73 3.41c-.26.23-.41.56-.41.91 0 .34.15.67.41.91l3.73 3.41v17.11H42.36V45.81zm36.07-2.21h-1.44c-.39 0-.63.05-.74.16-.12.1-.19.29-.19.6v7.42l-4.26-7.45c-.18-.32-.34-.51-.51-.6-.28-.1-.58-.15-.88-.12h-1.35c-.37 0-.62.05-.74.15-.11.11-.17.28-.17.59v12.53c0 .31.06.5.17.6.11.1.36.16.73.16h1.47c.37 0 .62-.05.74-.16.12-.1.18-.29.18-.6v-7.45l4.28 7.47c.17.32.33.51.5.6.18.09.47.12.88.12h1.35c.37 0 .62-.05.74-.15.12-.11.18-.31.18-.6V44.34c0-.31-.06-.5-.18-.6-.12-.1-.37-.15-.74-.15z" fill="#000" id="svg_4"/><path d="M115.24 37.25c-.17-.74-.59-1.41-1.22-1.89-.89-.69-2.13-1.03-3.73-1.03h-4.04a.81.81 0 00-.41.11c-.11.07-.21.18-.26.31-.01.04-.03.07-.04.12l-.65 2.9c-.03.1-.01.2 0 .29.03.1.08.2.15.27.07.09.17.15.26.2.1.04.21.06.32.06h2.08c.18 0 .34-.05.47-.15.14-.1.23-.25.26-.39l.21-.92h1.28c1.28 0 1.98.45 1.93 1.35-.11 1.6-2.42 1.62-2.42 1.62h-4.48a.76.76 0 00-.45.15.69.69 0 00-.25.38l-1.71 7.24c-.01.1-.01.2.01.29.01.1.07.18.14.26.07.09.15.15.25.18.1.05.21.06.32.06h5.29c1.76 0 2.98-.4 4.06-1.16 2.16-1.51 2.09-3.87 1.98-4.37a2.74 2.74 0 00-1.16-1.7c1.99-1.46 1.94-3.7 1.83-4.18zm-4.11 6.92c-.12 1.81-2.63 1.7-2.63 1.7h-1.93l.73-3.22h1.64c1.46 0 2.24.49 2.19 1.52zm14.2-4.08h-7.49c-.19 0-.39.06-.54.17-.15.12-.26.27-.3.45l-1.64 7.13c-.03.1-.03.2 0 .29.03.1.07.2.14.27.07.09.17.15.26.18.1.05.21.07.33.07h8.46c.17 0 .34-.06.47-.16.14-.1.23-.23.26-.38l.32-1.45c.03-.1.03-.2 0-.29-.03-.1-.08-.2-.15-.27a.65.65 0 00-.26-.2.866.866 0 00-.32-.06h-5.46l.69-2.98h4.92c.17 0 .33-.05.47-.15.12-.1.22-.23.26-.39l.32-1.43c.01-.1.01-.21-.01-.31a.659.659 0 00-.14-.26.56.56 0 00-.26-.18.711.711 0 00-.32-.07zm15.72-5.76h-10.41c-.18 0-.34.05-.47.15a.61.61 0 00-.26.39l-.32 1.43c-.03.1-.03.21 0 .31s.08.18.15.27c.07.07.15.13.26.18.1.05.21.06.32.06h10.41c.17 0 .33-.05.47-.15.14-.1.22-.23.26-.39l.32-1.43c.03-.1.03-.21 0-.31a.805.805 0 00-.15-.27.855.855 0 00-.26-.18.866.866 0 00-.32-.06zm-13.67 0h-8.29c-.18 0-.34.05-.47.15a.61.61 0 00-.26.39l-.63 2.9c-.03.1-.03.2 0 .29.03.1.07.2.14.27.08.09.17.15.26.2.11.04.22.06.33.06h2.08c.17 0 .33-.05.47-.15.12-.1.22-.25.26-.39l.21-.92h5.61c.17 0 .33-.06.47-.16.14-.1.22-.23.26-.39l.32-1.43c.03-.1.01-.21 0-.31a.805.805 0 00-.15-.27c-.07-.07-.17-.13-.26-.18a.745.745 0 00-.33-.06zm8.55 4.26h-2.08c-.18 0-.34.06-.47.16-.14.1-.23.23-.26.38l-2.02 8.71c-.03.1-.03.21 0 .31s.08.18.15.27c.07.07.15.13.26.18.1.04.21.06.32.06h2.08c.17 0 .33-.05.47-.15.14-.1.22-.23.26-.39l2.02-8.71c.03-.1.03-.2 0-.29-.03-.1-.08-.2-.15-.27-.07-.07-.15-.15-.25-.18a.784.784 0 00-.33-.07z" fill="#F5FF00" id="svg_5"/></g></g></svg>