<svg width="188" height="84" viewBox="0 0 188 84" fill="none" xmlns="http://www.w3.org/2000/svg"><path d="M85.92 53.54a6.79 6.79 0 01-2.05-.26c-.47-.14-.9-.4-1.25-.75a2.63 2.63 0 01-.65-1.19c-.13-.54-.19-1.09-.18-1.64 0-.4.02-.98.06-1.73.04-.75.11-1.77.22-3.08s.24-2.97.39-4.97c.15-2 .33-4.5.55-7.48.03-.59.09-.95.2-1.05.11-.1.3-.12.65-.12h1.58c.69-.02 1.38.06 2.05.24.47.13.91.38 1.25.73.31.33.54.73.65 1.18.13.5.19 1.02.18 1.54 0 .41-.03 1.01-.08 1.82s-.13 1.91-.22 3.3c-.1 1.39-.22 3.12-.39 5.19-.16 2.07-.36 4.56-.61 7.48 0 .23-.07.46-.2.65-.11.11-.34.16-.69.16h-1.46v-.02zM106.95 49.97c0-.59.05-1.37.14-2.33.09-.96.19-1.97.28-3.04.09-1.07.19-2.1.28-3.1.09-1 .14-1.84.14-2.51.01-.66-.16-1.32-.51-1.88-.34-.55-.99-.83-1.97-.83-.84-.03-1.66.21-2.35.69-.62.46-1.14 1.3-1.56 2.51-.42 1.21-.76 2.89-1.03 5.02-.27 2.14-.53 4.88-.77 8.22 0 .23-.07.46-.2.65-.11.11-.34.16-.69.16h-1.46a6.79 6.79 0 01-2.05-.26c-.47-.14-.9-.4-1.25-.75a2.63 2.63 0 01-.65-1.19c-.13-.54-.19-1.09-.18-1.64 0-.4.02-.98.06-1.73.04-.75.11-1.77.22-3.08s.24-2.97.39-4.97c.15-2 .33-4.5.55-7.48.03-.59.09-.95.2-1.05.11-.1.3-.12.65-.12h1.58c.68-.02 1.36.08 2.01.28.47.16.91.41 1.28.75.32.3.55.68.69 1.09.13.41.22.84.24 1.28.84-1.43 1.8-2.42 2.88-2.98 1.08-.56 2.43-.83 4.05-.83 1-.02 1.99.11 2.96.37.79.22 1.51.64 2.09 1.24.59.65 1.01 1.42 1.24 2.27.29 1.13.43 2.29.4 3.46 0 .43-.03 1.05-.08 1.86s-.12 1.7-.2 2.65c-.08.95-.17 1.96-.26 3s-.18 2.01-.26 2.9c-.08.89-.15 1.68-.2 2.35-.05.67-.08 1.12-.08 1.34 0 .59-.07.95-.2 1.08-.13.13-.43.18-.89.18h-1.3c-.71.02-1.42-.06-2.11-.24-.47-.12-.9-.36-1.26-.69-.3-.31-.52-.69-.63-1.11-.13-.5-.19-1.01-.18-1.52l-.01-.02zM131.46 48.76c-.67 1.22-1.5 2.11-2.47 2.7-.97.59-2.19.87-3.64.87a8.5 8.5 0 01-3.04-.53 5.72 5.72 0 01-2.35-1.65 7.955 7.955 0 01-1.51-2.86 13.59 13.59 0 01-.55-4.11c0-1.38.14-2.76.4-4.11.26-1.41.76-2.76 1.48-3.99a8.878 8.878 0 012.94-3.03c1.24-.8 2.84-1.19 4.78-1.2.7-.01 1.41.08 2.09.26.53.16 1.04.39 1.5.71.4.28.75.64 1.01 1.05.26.4.45.84.59 1.3 0 .03 0-.08.02-.3.02-.22.03-.49.06-.79.03-.3.05-.59.06-.87.01-.28.02-.47.02-.55.03-.27.2-.4.53-.4h1.86c1.4 0 2.42.29 3.06.87.64.58.95 1.68.95 3.3 0 .22-.02.71-.04 1.48s-.08 1.7-.14 2.78c-.06 1.08-.16 2.28-.26 3.59s-.23 2.63-.37 3.95c-.14 1.32-.28 2.6-.45 3.81a52.04 52.04 0 01-.53 3.2c-.2.93-.52 1.83-.97 2.67-.48.89-1.15 1.68-1.95 2.31-.96.74-2.05 1.29-3.22 1.62-1.31.41-2.91.61-4.8.61-1.26.02-2.52-.12-3.75-.4-.94-.22-1.83-.58-2.65-1.08-.64-.38-1.18-.9-1.6-1.51-.34-.5-.53-1.09-.55-1.7-.01-.47.1-.93.32-1.34.21-.37.51-.69.86-.93.35-.24.74-.43 1.16-.55.39-.12.79-.18 1.2-.18.38-.03.76.12 1.01.41l.73.91c.32.37.7.68 1.14.91.49.27 1.24.4 2.27.4 1.78 0 3.03-.66 3.75-1.97.72-1.31 1.07-3.19 1.06-5.65l-.01-.01zm-3.4-1.82c.97 0 1.73-.23 2.29-.69.55-.45.98-1.02 1.28-1.66.3-.64.49-1.33.57-2.03.08-.6.12-1.21.12-1.82 0-1.62-.25-2.77-.75-3.46s-1.25-1.03-2.25-1.03-1.78.27-2.35.81c-.57.54-1 1.19-1.28 1.92-.28.72-.46 1.47-.55 2.23-.07.57-.11 1.15-.12 1.73 0 1.35.23 2.36.69 3.02.46.66 1.24.99 2.35.98zM151.88 53.94c-1.86 0-3.41-.26-4.64-.79a7.481 7.481 0 01-2.94-2.16 8.255 8.255 0 01-1.54-3.23c-.3-1.29-.45-2.62-.45-3.95 0-1.6.2-3.2.59-4.76.37-1.51 1.05-2.92 2.01-4.15 1-1.26 2.29-2.26 3.75-2.93 1.55-.74 3.49-1.12 5.81-1.12 3.4 0 5.84.83 7.31 2.49 1.47 1.66 2.21 3.99 2.21 6.99 0 .93-.07 1.85-.18 2.78-.13 1.03-.36 2.05-.69 3.03-.35 1.02-.81 2-1.38 2.92-.59.96-1.34 1.81-2.21 2.51-.96.77-2.05 1.36-3.22 1.74-1.43.45-2.93.67-4.44.63h.01zm1.9-17.71c-1.03 0-1.84.26-2.45.79-.6.52-1.07 1.17-1.38 1.91-.31.75-.52 1.54-.61 2.34-.09.69-.13 1.39-.14 2.09 0 1.78.28 3.09.85 3.93.53.82 1.46 1.3 2.43 1.26.87.03 1.71-.29 2.33-.89.62-.61 1.1-1.34 1.42-2.15.34-.85.57-1.73.69-2.63.11-.77.17-1.54.18-2.31 0-1.35-.25-2.41-.75-3.18s-1.36-1.15-2.57-1.15v-.01z" fill="#000"/><path d="M83.05 26.48c-.04-.99.39-1.94 1.17-2.55.78-.62 1.84-.93 3.16-.93 1.16 0 2.01.24 2.53.71.53.48.82 1.17.79 1.88.02.95-.39 1.86-1.11 2.49-.74.66-1.83.99-3.26.99-2.19 0-3.28-.86-3.28-2.59z" fill="#F1940A"/><path d="M60.32 55.93c-1.05-.51-2-1.19-2.84-2-3.89-.64-9.36-1.15-11.9-1.15-5.5 0-10.17-2.02-10.7-6.75 9.69 2.28 15.79 1.11 19.47-1.17v-.04c0-.27.01-.8.11-2.28.07-1.03.16-2.24.27-3.61.11-1.37.22-2.79.32-4.28.11-1.53.22-3 .33-4.36.06-.82.12-1.58.17-2.28-2.78-2.58-7.05-4.04-12.76-4.04C29.61 23.97 24 33.92 24 42.92c0 11.1 9.43 17.82 19.87 18.07 4.47.12 8.92-.55 13.15-1.97 1.33-.46 1.95-.78 4.36-1.76.31-.12.56-.35.71-.65-.61-.17-1.2-.39-1.77-.67v-.01zM48.75 37.81c-2.18 2.55-11.61 2.42-13.95 0 4.19-9.61 15.74-2.09 13.95 0z" fill="url(#paint0_linear_6315_587607)"/><path d="M34.8 37.81c2.23-11.07 19.9-6.41 13.91.05.54-3.56-11.12-6.88-13.91-.05z" fill="url(#paint1_linear_6315_587607)"/><path d="M60.32 55.93c-1.6-.76-2.97-1.92-3.99-3.37-.25-.38-.48-.77-.69-1.17-.12.03-.24.05-.35.08-3.2.86-6.49 1.29-9.8 1.27-3.91 0-7.46-1.1-9.33-3.37 5.94 8.68 19.72 9.95 24.87 8.02.51-.19 1.01-.4 1.5-.65-.76-.19-1.51-.46-2.21-.81z" fill="url(#paint2_linear_6315_587607)"/><path d="M66.72 53.94c-2.08 0-3.73-.3-4.94-.91a6.95 6.95 0 01-2.75-2.29 7.156 7.156 0 01-1.18-2.98c-.15-.97-.24-1.95-.24-2.94 0-.35.03-1.04.1-2.07.07-1.03.15-2.21.26-3.57.11-1.36.22-2.79.32-4.32.1-1.53.22-2.97.32-4.33.1-1.36.19-2.57.26-3.63s.1-1.78.1-2.19c0-.59.04-.94.12-1.03.08-.09.32-.14.73-.14h1.57c.69-.02 1.37.08 2.02.28.49.16.93.42 1.3.77.31.31.55.69.69 1.11.14.44.21.9.2 1.36 0 .46-.05 1.35-.14 2.68-.1 1.32-.21 2.88-.34 4.66.7-1.22 1.5-2.11 2.38-2.7.88-.59 2.06-.87 3.53-.87 2.45 0 4.34.81 5.65 2.43 1.32 1.62 1.97 4.04 1.97 7.25 0 .92-.05 1.83-.16 2.74-.12 1.01-.34 2.01-.65 2.98-.32 1.01-.76 1.97-1.3 2.88-.56.94-1.3 1.77-2.16 2.45-.97.75-2.06 1.32-3.22 1.7-1.43.46-2.94.68-4.44.65v.03zm1.82-17.71c-.97 0-1.74.26-2.29.77-.56.52-.99 1.16-1.28 1.86-.3.74-.49 1.53-.57 2.33-.08.82-.12 1.55-.12 2.16 0 1.86.26 3.19.77 3.99.51.8 1.28 1.2 2.31 1.2.97 0 1.74-.3 2.29-.91.56-.63.99-1.36 1.25-2.16.28-.83.47-1.68.55-2.55.08-.87.12-1.54.12-2.03 0-1.51-.23-2.67-.69-3.46-.46-.8-1.24-1.2-2.35-1.2h.01z" fill="#000"/><defs><linearGradient id="paint0_linear_6315_587607" x1="24" y1="42.49" x2="62.09" y2="42.49" gradientUnits="userSpaceOnUse"><stop stop-color="#FFC700"/><stop offset="1" stop-color="#AB3800"/></linearGradient><linearGradient id="paint1_linear_6315_587607" x1="34.8" y1="34.51" x2="49.94" y2="34.51" gradientUnits="userSpaceOnUse"><stop offset=".18" stop-color="#AB3800"/><stop offset="1" stop-color="#FFC700"/></linearGradient><linearGradient id="paint2_linear_6315_587607" x1="36.16" y1="53.77" x2="62.53" y2="53.77" gradientUnits="userSpaceOnUse"><stop offset=".18" stop-color="#AB3800"/><stop offset="1" stop-color="#FFC700"/></linearGradient></defs></svg>