<svg width="188" height="84" viewBox="0 0 188 84" fill="none" xmlns="http://www.w3.org/2000/svg"><path d="M136.19 38.94c-3.87-1.94-7.97-2.31-12.19-1.62-3.13.51-5.97 1.66-8.24 3.97-2.92 2.96-3.18 7.23-.61 10.5 1.72 2.18 4.02 3.47 6.63 4.22 4.21 1.21 8.48 1.13 12.76.48 2.02-.3 4-.74 5.83-1.71.38-.2.57-.45.54-.91-.04-.73-.02-1.45-.02-2.18 0-1.02 0-.99-.96-.65-3.96 1.42-8 2.18-12.2 1.29-2.04-.43-3.73-1.46-4.86-3.28-.27-.44-.33-.64.33-.63 2.93.03 5.87.01 8.8.01h8.8c.25 0 .62.17.64-.34.04-1.73.05-3.43-.82-5.02-1.04-1.88-2.58-3.2-4.46-4.14l.03.01zm-2.33 5.65c-.18.35-.71.13-1.08.14-1.5.02-3.01 0-4.51 0h-4.87c-.8 0-.86-.06-.51-.81.65-1.41 1.83-2.22 3.24-2.73 2.59-.93 5.83-.06 7.23 1.95.06.08.12.15.17.24.19.39.54.83.34 1.21h-.01zM163.24 51.2c-1.67.52-3.38.89-5.14.83-2.52-.08-4.11-1.18-3.99-4.04.08-1.77.04-3.54 0-5.31-.01-.6.18-.72.73-.72 2.84.02 5.68 0 8.51.01.45 0 .66-.07.65-.58a56.9 56.9 0 010-3.2c.01-.45-.13-.58-.58-.57-1.45.03-2.91 0-4.37.01-1.43 0-2.86-.02-4.29.01-.52.01-.65-.16-.64-.66.03-1.38.01-2.76.01-4.15 0-.89-.58-1.21-1.37-.74-.25.15-.48.33-.71.51-3.12 2.33-6.23 4.7-9.39 6.99-.67.49-.94.97-.89 1.79.03.5.18.61.63.59.87-.02 1.75.03 2.62-.01.56-.03.68.16.68.7-.03 2.62.02 5.24-.02 7.86-.03 1.82.66 3.23 2.12 4.31.75.55 1.57.97 2.45 1.25 4.41 1.42 8.8 1.03 13.18-.18.38-.1.48-.3.48-.67-.02-1.19-.04-2.38 0-3.56.02-.6-.18-.6-.66-.46l-.01-.01zM48.13 37.24l-.29-.03c-.33-.1-.68-.13-1.02-.11a12.88 12.88 0 00-3.04 0c-.93-.02-1.82.25-2.73.41-2.84.5-5.41 1.57-7.5 3.64-1.82 1.81-2.75 3.95-2.44 6.55-.03.21-.03.41.09.59 0 .02-.01.03 0 .05 0 .03.02.06.03.09.08.94.47 1.78.98 2.55 1.86 2.84 4.61 4.38 7.8 5.2 4.3 1.1 8.65.95 12.99.2 1.7-.29 3.37-.7 4.91-1.52.33-.18.7-.32.68-.83-.03-.97-.02-1.94-.01-2.91 0-.41-.11-.42-.46-.27-2.14.89-4.37 1.44-6.67 1.71-2.5.3-4.99.31-7.39-.62-1.68-.65-2.99-1.74-3.79-3.4.26-.16.51-.1.75-.1h5.97c3.98 0 7.95-.01 11.93-.02l.16-.14V48c.29-2.55-.25-4.86-2.09-6.74-2.42-2.48-5.49-3.59-8.85-4.02h-.01zm-7.69 6.73c.64-1.36 1.71-2.23 3.13-2.7 2.62-.87 4.99-.5 7.06 1.4.42.39.66.88.86 1.42.18.48.12.68-.47.67-1.69-.03-3.39-.01-5.09-.01h-5.01c-.74 0-.8-.07-.47-.78h-.01zM80.96 32.22c-2.58-.17-5.13-.32-7.73.13-1.98.35-3.89.78-5.6 1.8-2.07 1.23-3.31 3.06-3.51 5.5-.05.64-.25.86-.9.82-.84-.06-1.7 0-2.54 0-.18 0-.2.1-.15.24v3.92c-.04.1 0 .17.11.18.87.01 1.75.07 2.61.02.63-.04.81.13.8.79-.04 3.37-.02 6.74 0 10.11 0 .22-.26.62.24.68 2.67.05 5.34.07 8.01-.01.56.15.62-.12.48-.57.08-.54.08-1.07 0-1.6.02-.24.05-.48.05-.72 0-2.67.01-5.33-.01-8 0-.55.14-.71.69-.69.94.05 1.89-.01 2.83.03.52.02.73-.1.71-.67-.05-1.04-.04-2.09 0-3.13.02-.48-.12-.64-.61-.63-.99.03-1.99.01-2.98 0-.26 0-.52.03-.55-.39-.06-1.08.24-1.96 1.22-2.53.49-.28 1-.48 1.55-.6 1.8-.4 3.62-.32 5.43-.2.52.04.62-.11.61-.58-.03-1.04-.05-2.09 0-3.13.03-.62-.2-.77-.77-.81l.01.04zM41.54 33.67c-.21.68-.34 1.39-.55 2.28.71-.61 1.3-1.07 1.83-1.58.37-.36.65-.44 1.1-.11.6.44 1.27.78 2.1 1.28-.4-.95-.68-1.69-1.02-2.41-.16-.35-.12-.56.18-.8.63-.5 1.22-1.04 1.98-1.7-.95.08-1.7.1-2.44.2-.49.07-.75-.04-.92-.54-.24-.72-.58-1.4-.95-2.29-.22.95-.43 1.69-.56 2.44-.08.46-.29.65-.76.67-.76.02-1.51.11-2.49.19.8.5 1.39.93 2.03 1.23.56.27.63.6.46 1.15l.01-.01zM29.81 39.18c-.6-.19-.71-.52-.63-1.08.1-.71.13-1.42.21-2.34-.68.77-1.23 1.38-1.75 2-.23.27-.43.31-.75.16-.74-.34-1.49-.65-2.43-1.06.47.8.8 1.44 1.22 2.02.38.52.29.87-.14 1.29-.5.49-.93 1.04-1.55 1.74.97-.22 1.73-.36 2.47-.58.47-.14.7.01.92.41.36.67.78 1.32 1.27 2.16.09-.99.18-1.78.21-2.56.02-.45.21-.63.63-.7.77-.14 1.54-.34 2.47-.55-.83-.36-1.48-.71-2.17-.92l.02.01zM33.48 36.01c.08.79.2 1.58.31 2.37l.14.06c.37-.67.76-1.33 1.09-2.02.21-.43.45-.54.91-.42.74.18 1.5.28 2.43.45-.63-.67-1.08-1.24-1.62-1.71-.47-.41-.46-.73-.15-1.22.39-.6.69-1.25 1.12-2.06-.91.43-1.65.76-2.37 1.13-.32.17-.5.1-.75-.13-.59-.56-1.22-1.08-1.77-1.57.08.63.15 1.41.29 2.19.07.41-.04.62-.42.78-.72.31-1.42.67-2.31 1.1 1 .2 1.79.37 2.59.5.36.06.49.21.52.55h-.01zM111.33 46.1c0-2.47-1.21-4.37-3.03-5.83-2.33-1.86-5.15-2.58-8.08-2.83-2.52-.21-4.96.18-7.32 1.1-.22.09-.5.33-.56-.16.04-.04.04-.09 0-.13v-5.4c.04-.09.01-.14-.09-.14l-.03-.04-.04.02c-.11-.08-.21-.08-.31 0-2.27-.11-4.55-.1-6.82 0-.11-.08-.21-.08-.32 0-.31-.09-.62-.08-.94 0-.29.15-.12.38-.11.59-.01.12-.04.24-.04.36v22.19c0 .15 0 .29.02.43.03.2.19.17.34.15 2.67.01 5.35.03 8.02.04.13 0 .24-.01.29-.15.07-.44.07-.88 0-1.33.21-.38.43-.06.6.02.82.36 1.65.71 2.52.92 4.17.99 8.2.8 11.9-1.57 2.49-1.6 4.06-3.84 4.13-6.93.02-.38-.11-1.24-.15-1.31h.02zm-16.74 6.02c-.77-.28-1.5-.65-2.21-1.06 0-2.69-.01-5.37-.02-8.06 0-.25 0-.47.27-.6 2.5-1.2 5.08-1.62 7.68-.44 2.58 1.17 3.18 3.1 2.94 5.92-.02.19-.05.38-.07.57-1.43 3.64-4.78 5.07-8.6 3.68l.01-.01z" fill="#FDD500"/><path d="M59.06 48.28l-.16.14c.11.02.17-.02.16-.14z" fill="#FDD500"/></svg>