<svg width="188" height="84" viewBox="0 0 188 84" fill="none" xmlns="http://www.w3.org/2000/svg">
<path d="M35.1903 37.2501C35.1903 38.0101 35.1603 38.7701 35.1903 39.5301C35.2203 40.1501 34.9803 40.6101 34.4603 40.9201C33.0803 41.7201 31.6903 42.5101 30.3003 43.3001C29.8403 43.5601 29.3803 43.5801 28.9203 43.3001C27.5303 42.5101 26.1403 41.7301 24.7603 40.9301C24.2503 40.6301 23.9903 40.2001 24.0003 39.5601C24.0303 38.0401 24.0303 36.5101 24.0003 34.9901C23.9903 34.3201 24.2603 33.8801 24.8303 33.5601C26.1603 32.8101 27.4903 32.0601 28.8103 31.2901C29.3403 30.9801 29.8403 30.9601 30.3803 31.2701C31.7303 32.0601 33.0803 32.8401 34.4503 33.6001C35.0103 33.9101 35.2203 34.3501 35.2003 34.9601C35.1803 35.7201 35.2003 36.4801 35.2003 37.2401L35.1903 37.2501Z" fill="#FB017F"/>
<path d="M100.64 52.8501C100.62 52.6101 100.59 52.3701 100.59 52.1301C100.59 45.4601 100.59 38.7901 100.59 32.1201C100.59 31.8801 100.62 31.6401 100.63 31.4001L103.41 31.3801C104.56 34.2401 105.48 37.1701 106.53 40.0601C107.04 41.4601 107.52 42.8701 108.01 44.2701C108.08 44.4601 108.12 44.6601 108.39 44.8401V31.0801H111.03C111.24 31.3401 111.15 31.6301 111.15 31.8901C111.15 38.6601 111.15 45.4301 111.15 52.1901C111.15 52.5601 111.23 52.9501 110.92 53.2601H108.4C107.64 51.1201 106.86 48.9901 106.14 46.8401C105.49 44.8901 104.69 42.9801 104.16 40.9901C104.33 40.9201 104.43 40.8001 104.39 40.6101C104.34 40.3401 104.12 40.3701 103.92 40.3701C103.65 40.0601 103.73 39.5801 103.37 39.3201C102.88 38.9501 102.71 39.2501 102.83 39.6601C102.93 40.0101 102.94 40.3401 102.94 40.6801C102.94 44.1501 102.94 47.6201 102.94 51.0901C102.94 51.6901 102.84 52.2501 102.5 52.7601C101.87 52.9201 101.24 52.8101 100.62 52.8401L100.64 52.8501Z" fill="#1C191D"/>
<path d="M74.8296 53.2699C74.8296 48.3499 74.8096 43.4299 74.8096 38.4999C74.8096 36.1099 74.8096 33.7199 74.8096 31.3499C75.0696 31.0899 75.3596 31.1999 75.6296 31.1999C77.6896 31.1399 79.7396 31.2399 81.7996 31.1399C82.8996 31.0899 83.7896 31.7499 84.4596 32.5899C85.0596 33.3399 85.3696 34.1999 85.3696 35.1799C85.3496 39.7599 85.3596 44.3299 85.3596 48.9099C85.3596 51.0499 84.2896 52.4499 82.1696 53.0799C82.0596 53.1099 81.9896 53.1699 81.9696 53.2799H74.8296V53.2699ZM77.6496 33.7499V50.4399C78.8796 50.4399 80.0296 50.4599 81.1796 50.4399C82.0996 50.4199 82.5896 49.9199 82.5896 48.9999C82.5996 44.4299 82.5996 39.8499 82.5896 35.2799C82.5896 34.3899 82.0896 33.8099 81.2096 33.7699C80.0296 33.7099 78.8496 33.7599 77.6496 33.7599V33.7499Z" fill="#1B181D"/>
<path d="M126.67 53.27C126.66 52.54 126.63 51.82 126.63 51.09C126.63 45.85 126.63 40.62 126.63 35.38C126.63 33.54 127.44 32.2 129.12 31.39C129.44 31.24 129.76 31.17 130.12 31.17C131.27 31.19 132.42 31.26 133.57 31.12C133.88 31.08 134.19 31.18 134.48 31.3C136.07 31.9 137.17 33.35 137.18 35.03C137.2 40.82 137.18 46.61 137.19 52.41C137.19 52.72 137.19 53.03 136.95 53.27H134.43V43.57H129.38C129.38 46.49 129.38 49.34 129.38 52.18C129.38 52.55 129.45 52.94 129.18 53.27H126.66H126.67ZM134.42 40.73C134.42 38.83 134.44 37.03 134.42 35.23C134.41 34.37 133.86 33.83 132.97 33.77C132.27 33.72 131.57 33.72 130.87 33.77C129.94 33.83 129.42 34.39 129.4 35.33C129.37 36.54 129.4 37.76 129.4 38.97C129.4 39.55 129.4 40.13 129.4 40.73H134.44H134.42Z" fill="#1B181C"/>
<path d="M54.47 53.27C54.36 52.94 54.03 52.98 53.79 52.86C52.23 52.06 51.34 50.8 51.33 49.05C51.3 44.43 51.3 39.82 51.33 35.2C51.34 32.88 53.09 31.13 55.41 31.02C56.21 30.98 57.02 30.99 57.82 31.02C60.06 31.11 61.68 32.65 61.86 34.88C61.93 35.78 61.92 36.68 61.92 37.58C61.92 41.15 61.92 44.73 61.92 48.3C61.92 48.96 61.94 49.63 61.73 50.26C61.24 51.7 60.29 52.69 58.76 53.05C58.62 53.08 58.49 53.09 58.45 53.26H54.46L54.47 53.27ZM59.15 42.19C59.15 39.97 59.16 37.75 59.15 35.53C59.14 34.27 58.63 33.79 57.35 33.76C56.93 33.75 56.51 33.79 56.09 33.76C54.9 33.64 54.04 34.3 54.06 35.76C54.12 40.03 54.08 44.3 54.08 48.56C54.08 48.73 54.07 48.91 54.08 49.08C54.17 49.91 54.67 50.39 55.52 50.43C56.04 50.45 56.57 50.4 57.09 50.44C58.78 50.58 59.2 49.8 59.16 48.35C59.11 46.3 59.15 44.26 59.15 42.21V42.19Z" fill="#1E1B20"/>
<path d="M140.12 52.8499C140.1 52.6399 140.08 52.4399 140.08 52.2299C140.08 45.4899 140.08 38.7499 140.08 32.0099C140.08 31.7999 140.11 31.5999 140.12 31.3899C140.27 31.3299 140.32 31.2199 140.34 31.0699C142.47 31.0499 144.59 30.9699 146.72 31.0399C148.89 31.1199 150.55 32.8699 150.62 35.0299C150.66 36.3799 150.62 37.7299 150.63 39.0799C150.63 41.0499 149.74 42.4399 147.91 43.2199C147.79 43.2699 147.65 43.3099 147.48 43.3799C147.58 44.1199 147.94 44.7599 148.19 45.4199C149.05 47.6799 149.95 49.9199 150.81 52.1799C150.94 52.5199 151.22 52.8499 151.03 53.2599H148.51C147.75 51.3399 146.98 49.4199 146.22 47.4999C145.69 46.1599 145.18 44.8199 144.67 43.5199H142.91C142.75 43.8899 142.82 44.2299 142.82 44.5699C142.8 47.3299 142.79 50.0999 142.78 52.8599L140.12 52.8399V52.8499ZM142.9 33.7499V40.7499C144.09 40.7499 145.2 40.7799 146.31 40.7499C147.31 40.7199 147.84 40.1699 147.85 39.1699C147.87 37.8899 147.87 36.6099 147.85 35.3199C147.83 34.3799 147.32 33.8099 146.38 33.7699C145.24 33.7199 144.09 33.7599 142.9 33.7599V33.7499Z" fill="#1C191E"/>
<path d="M41.2404 53.2698C41.1304 52.8998 40.7504 52.9198 40.4904 52.7798C39.1704 52.0598 38.3704 50.9998 38.2404 49.4898C38.2104 49.1498 38.1904 48.7998 38.1904 48.4498C38.1904 44.2198 38.1904 39.9798 38.1904 35.7498C38.1904 35.1198 38.2104 34.4998 38.4004 33.8998C38.9104 32.2498 40.4404 31.1098 42.2504 31.0298C43.0504 30.9898 43.8604 30.9998 44.6604 31.0298C46.9004 31.1098 48.6204 32.7498 48.7804 34.9698C48.8304 35.6198 48.7804 36.2798 48.7804 37.0798C48.0304 37.0798 47.3104 37.0798 46.6004 37.0798C46.2204 37.0798 46.0404 36.8498 46.0304 36.4798C46.0304 36.1298 46.0304 35.7898 46.0304 35.4398C45.9904 34.3398 45.4504 33.8098 44.3304 33.7698C43.8104 33.7498 43.2804 33.7598 42.7604 33.7698C41.5004 33.7898 40.9804 34.2898 40.9704 35.5498C40.9604 39.3698 40.9704 43.1898 40.9704 46.9998C40.9704 47.6198 40.9504 48.2498 40.9704 48.8698C41.0104 49.9798 41.4704 50.4198 42.5904 50.4298C43.2504 50.4298 43.9204 50.4498 44.5804 50.4298C45.4404 50.3998 45.9904 49.9298 46.0104 49.0898C46.0604 47.2598 46.0204 45.4298 46.0204 43.5198H44.2304V40.8298H48.7904V42.0498C48.7904 44.2698 48.7904 46.4898 48.7904 48.7098C48.7904 51.0998 47.6604 52.5198 45.3404 53.1198C45.2904 53.1298 45.2704 53.2198 45.2304 53.2798H41.2404V53.2698Z" fill="#1E1B20"/>
<path d="M156.17 31.4298C156.19 33.4398 156.21 35.4498 156.22 37.4498C156.22 37.7798 156.22 38.1198 156.39 38.4898C157.05 37.4398 157.7 36.3998 158.36 35.3498C159.07 34.1998 159.79 33.0598 160.49 31.8998C160.78 31.4198 161.15 31.1498 161.75 31.1798C162.34 31.2198 162.93 31.1798 163.47 31.1798C163.87 31.6698 163.54 31.9998 163.33 32.3398C162.03 34.4298 160.72 36.5098 159.42 38.5998C159.22 38.9198 159.03 39.2498 158.81 39.5998C160.24 43.2398 161.67 46.8698 163.09 50.4998C163.37 51.2098 163.61 51.9298 163.93 52.6198C164.06 52.8998 163.97 53.0698 163.82 53.2598H161.3C161.32 52.8598 161.12 52.5298 160.98 52.1698C160.1 49.9098 159.22 47.6598 158.33 45.4098C157.94 44.4198 157.54 43.4398 157.13 42.4198C156.32 43.2598 155.99 44.1298 156.03 45.2498C156.11 47.7798 156.03 50.3098 156.03 52.8398H153.52C153.5 52.5998 153.47 52.3598 153.47 52.1198C153.47 45.4498 153.47 38.7798 153.47 32.1198C153.47 31.8798 153.5 31.6398 153.52 31.3998C153.68 31.3498 153.75 31.2298 153.77 31.0698C154.45 30.9898 155.13 30.9898 155.81 31.0698C155.86 31.2598 155.98 31.3798 156.17 31.4198V31.4298Z" fill="#1D1A1E"/>
<path d="M114.08 53.2699C114.07 51.8499 114.05 50.4299 114.05 49.0099C114.05 43.4199 114.05 37.8399 114.05 32.2499V31.0199C114.61 31.0199 115.09 31.0199 115.57 31.0199C117.18 31.0199 118.79 30.9899 120.4 31.0199C122.86 31.0699 124.58 32.8299 124.6 35.2699C124.6 36.6199 124.62 37.9799 124.6 39.3299C124.57 41.6499 122.83 43.3999 120.51 43.4699C119.57 43.4999 118.62 43.4699 117.68 43.4699C117.37 43.4699 117.05 43.3799 116.62 43.7499V53.2499H114.1L114.08 53.2699ZM116.83 40.7599C118.06 40.7599 119.17 40.7899 120.29 40.7599C121.3 40.7299 121.82 40.1799 121.83 39.1799C121.85 37.8999 121.85 36.6099 121.83 35.3299C121.82 34.4799 121.45 33.9399 120.67 33.8299C119.4 33.6599 118.12 33.7599 116.83 33.7699V40.7699V40.7599Z" fill="#1A171B"/>
<path d="M91.8295 53.27C91.7895 53.16 91.7095 53.12 91.5995 53.09C89.4895 52.63 88.2395 51.19 88.2295 49.07C88.1995 44.42 88.1995 39.77 88.2295 35.12C88.2395 33.02 89.6795 31.41 91.7395 31.08C92.0495 31.03 92.3695 31.02 92.6795 31.02C94.3495 31.02 96.0195 31.02 97.7195 31.02C97.8795 31.94 97.7595 32.76 97.7995 33.56C97.5695 33.85 97.2695 33.74 96.9995 33.74C95.5995 33.75 94.1995 33.74 92.7995 33.74C91.4595 33.75 90.9895 34.24 90.9895 35.57C90.9895 37.26 90.9895 38.95 90.9895 40.73H96.6195V43.46H90.9895C90.9895 45.41 90.9695 47.28 90.9995 49.14C91.0195 49.94 91.5895 50.39 92.4895 50.4C93.8495 50.42 95.2195 50.4 96.5795 50.4C96.9195 50.4 97.2695 50.4 97.7295 50.4C97.7195 51.42 98.1895 52.41 97.2895 53.25H91.8295V53.27Z" fill="#1D1A1F"/>
<path d="M67.1805 31.44C67.2005 31.85 67.2305 32.27 67.2305 32.68C67.2305 37.84 67.2305 43 67.2305 48.17C67.2305 48.48 67.2205 48.8 67.2505 49.1C67.3405 49.96 67.8005 50.39 68.6905 50.41C69.8805 50.43 71.0605 50.41 72.2505 50.41C72.3805 50.41 72.5205 50.44 72.7205 50.46V53.26H67.4705C67.3605 52.84 66.9305 52.87 66.6405 52.71C65.3005 51.93 64.5005 50.8 64.4905 49.26C64.4605 43.37 64.4805 37.49 64.4905 31.6C64.4905 31.53 64.5205 31.46 64.5305 31.4C64.6905 31.35 64.7505 31.23 64.7705 31.08C65.4505 31 66.1205 31 66.8005 31.08C66.8505 31.27 66.9805 31.39 67.1705 31.43L67.1805 31.44Z" fill="#1F1C20"/>
<path d="M129.19 53.2698C129.46 52.9398 129.39 52.5498 129.39 52.1798C129.39 49.3398 129.39 46.4898 129.39 43.5698H134.44V53.2698H129.19Z" fill="#FCFCFC"/>
<path d="M142.77 52.87C142.78 50.11 142.79 47.34 142.81 44.58C142.81 44.24 142.74 43.89 142.9 43.53H144.66C145.17 44.83 145.68 46.17 146.21 47.51C146.97 49.43 147.74 51.35 148.5 53.27H142.62L142.77 52.88V52.87Z" fill="#FCFCFC"/>
<path d="M104.17 41.0001C104.7 43.0001 105.5 44.9001 106.15 46.8501C106.87 49.0001 107.66 51.1301 108.41 53.2701H103.16C103.43 52.9101 103.35 52.4901 103.36 52.0801C103.36 47.8301 103.37 43.5801 103.38 39.3301C103.74 39.5901 103.67 40.0701 103.93 40.3801C103.98 40.6001 103.96 40.8401 104.17 41.0001Z" fill="#FAFAFA"/>
<path d="M156.03 52.8502C156.04 50.3202 156.12 47.7802 156.03 45.2602C155.99 44.1402 156.32 43.2802 157.13 42.4302C157.54 43.4502 157.94 44.4302 158.33 45.4202C159.22 47.6702 160.1 49.9302 160.98 52.1802C161.12 52.5302 161.32 52.8702 161.3 53.2702H156.05L156.02 52.8602L156.03 52.8502Z" fill="#FBFBFB"/>
<path d="M103.38 39.3298C103.38 43.5798 103.37 47.8298 103.36 52.0798C103.36 52.4898 103.43 52.8998 103.16 53.2698H100.64V52.8498C101.25 52.8198 101.88 52.9298 102.51 52.7698C102.85 52.2498 102.95 51.6998 102.95 51.0998C102.94 47.6298 102.95 44.1598 102.95 40.6898C102.95 40.3498 102.93 40.0198 102.84 39.6698C102.73 39.2598 102.9 38.9698 103.38 39.3298Z" fill="#171519"/>
<path d="M142.77 52.8698L142.62 53.2598H140.1V52.8398L142.76 52.8598L142.77 52.8698Z" fill="#120F13"/>
<path d="M156.03 52.8498L156.06 53.2598H153.54L153.52 52.8398H156.03V52.8498Z" fill="#110E13"/>
<path d="M103.42 31.3799L100.64 31.3999C100.62 31.2599 100.61 31.0699 100.76 31.0699C101.58 31.0499 102.41 31.0499 103.23 31.0699C103.38 31.0699 103.39 31.2599 103.42 31.3899V31.3799Z" fill="#171519"/>
<path d="M153.77 31.0801C153.75 31.2301 153.68 31.3601 153.52 31.4101C153.49 31.2101 153.55 31.0901 153.77 31.0801Z" fill="#110E13"/>
<path d="M156.17 31.4298C155.98 31.3898 155.86 31.2698 155.81 31.0798C156.06 31.0598 156.18 31.1798 156.17 31.4298Z" fill="#110E13"/>
<path d="M140.34 31.0801C140.32 31.2201 140.27 31.3401 140.12 31.4001C140.09 31.2201 140.12 31.0901 140.34 31.0801Z" fill="#120F13"/>
<path d="M67.1796 31.44C66.9896 31.39 66.8596 31.27 66.8096 31.09C67.0696 31.07 67.1896 31.19 67.1796 31.44Z" fill="#0F0C10"/>
<path d="M64.78 31.0801C64.75 31.2301 64.69 31.3501 64.54 31.4001C64.51 31.2101 64.56 31.0801 64.78 31.0801Z" fill="#0F0C10"/>
<path d="M104.17 40.9999C103.96 40.8399 103.99 40.5999 103.93 40.3799C104.13 40.3799 104.34 40.3499 104.4 40.6199C104.44 40.8099 104.34 40.9299 104.17 40.9999Z" fill="#171519"/>
</svg>
