<svg width="188" height="84" viewBox="0 0 188 84" fill="none" xmlns="http://www.w3.org/2000/svg">
<path d="M32.0636 24.7773L32.0941 21.6074C33.2319 21.5972 38.2302 21.7087 41.4303 24.7368C42.9948 26.2255 43.9193 28.1801 44.1834 30.5904C43.9193 30.1347 43.6246 29.6992 43.2894 29.2941C42.2328 27.8864 41.2169 27.2788 41.1255 27.2281C41.1865 27.2788 41.2271 27.3497 41.2271 27.4205C41.2271 27.5623 41.1153 27.6737 40.9731 27.6737C40.9325 27.6737 40.8817 27.6535 40.8512 27.6332C41.4912 28.1295 42.0805 28.6865 42.6087 29.2941C43.391 30.2664 44.2545 31.7146 44.7523 33.7401H44.9047C45.0266 33.7401 45.1587 33.7401 45.2806 33.7401C45.1383 33.1426 44.9656 32.5653 44.7523 31.9982C44.7421 28.7979 43.7262 26.2356 41.7655 24.3823C37.9965 20.8174 32.0738 21.101 31.8198 21.1213L31.5861 21.1415L31.5557 24.8178C31.6369 24.8178 31.7081 24.8178 31.7893 24.8178C31.8198 24.8178 31.9214 24.8077 32.0535 24.7975L32.0636 24.7773Z" fill="black"/>
<path d="M45.412 33.8313H45.1581C45.0463 33.8313 44.9447 33.8313 44.833 33.8313H44.6907L44.6704 33.7604C44.2945 32.1501 43.5631 30.6411 42.537 29.3448C41.9986 28.7473 41.4094 28.2004 40.7795 27.7143L40.7185 27.6636L40.81 27.5219L40.8912 27.5624C40.9624 27.613 41.0639 27.5927 41.1147 27.5219C41.1655 27.451 41.1452 27.3497 41.0741 27.299L41.003 27.2484L41.1046 27.1066L41.1757 27.1471C41.1757 27.1471 42.283 27.7852 43.3599 29.2435C43.6037 29.5372 43.8374 29.8512 44.0406 30.1752C43.7256 27.9877 42.8215 26.185 41.3687 24.8077C38.26 21.8808 33.4548 21.6884 32.1748 21.6986L32.1443 24.8583H32.063L31.7989 24.8786C31.7278 24.8786 31.677 24.8786 31.616 24.8786H31.4636L31.4941 21.0301L31.809 21.0099C31.809 21.0099 32.0224 20.9998 32.317 20.9998C33.7291 20.9998 38.5851 21.2428 41.8259 24.2912C43.8171 26.1648 44.8228 28.7371 44.8431 31.9577C45.0565 32.5248 45.2393 33.1021 45.3714 33.6996L45.4019 33.8211L45.412 33.8313ZM44.9142 33.6388H45.1784C45.0463 33.092 44.8838 32.5552 44.6806 32.0286V31.9982C44.6603 28.8182 43.6647 26.2863 41.7141 24.4431C38.514 21.4352 33.7189 21.2023 32.3271 21.2023C32.0325 21.2023 31.8497 21.2023 31.8293 21.2124H31.677L31.6465 24.7165H31.9614L31.9919 21.5365H32.0935C33.2415 21.5163 38.26 21.6378 41.4906 24.676C43.0754 26.1648 44.0101 28.1599 44.2742 30.5905L44.325 31.0361L44.1015 30.6512C43.8475 30.1955 43.5428 29.7701 43.2177 29.3651C42.6894 28.6359 42.0494 27.9978 41.3179 27.4712C41.3078 27.5927 41.2265 27.694 41.1147 27.7447C41.6735 28.2004 42.2018 28.6966 42.6894 29.2334C43.7155 30.5297 44.4469 32.0387 44.8431 33.649H44.9244L44.9142 33.6388Z" fill="black"/>
<path d="M26.4553 35.0157C26.4553 35.0157 26.5061 35.0055 26.5264 35.0055H26.6382C26.5874 34.9752 26.4959 34.9245 26.374 34.8435C26.374 34.8435 26.3842 34.8536 26.3943 34.8638C26.435 34.9043 26.4553 34.965 26.4553 35.0258V35.0157Z" fill="black"/>
<path d="M28.5688 37.72C28.3859 38.0542 28.1828 38.3681 27.9491 38.6618C27.2786 37.9326 26.3135 36.9503 26.0798 36.6971C26.0392 36.2515 26.4557 35.735 26.6792 35.502H26.5268C26.3948 35.502 26.283 35.4008 26.2729 35.2691C26.2525 35.2691 26.2221 35.2792 26.2017 35.2792C26.1306 35.2792 26.0595 35.2488 26.0189 35.1982C25.7344 34.9045 25.5414 34.5298 25.45 34.1348C25.0436 33.7601 24.6779 33.3044 24.5966 32.8385C24.4849 32.1903 25.5719 31.1371 26.5268 30.2054C27.2278 29.5268 27.8983 28.8787 28.2031 28.3115C28.3047 28.1292 28.3961 27.9368 28.4977 27.7545C29.1479 26.4987 29.7574 25.3037 31.7994 25.3037H31.8197C31.8197 25.3037 33.9836 25.1112 36.0053 25.5467C36.1373 25.5771 36.2694 25.486 36.2999 25.3543C36.3303 25.2226 36.2389 25.091 36.1068 25.0606C34.4204 24.696 32.7036 24.7467 32.0432 24.7872C31.9111 24.7872 31.8096 24.8074 31.7791 24.8074C31.6978 24.8074 31.6165 24.8074 31.5454 24.8074C29.4019 24.9087 28.6806 26.286 28.0507 27.5216C27.9491 27.714 27.8577 27.8862 27.7662 28.0583C27.4818 28.5647 26.8215 29.2129 26.1713 29.8306C25.0335 30.9548 23.9464 32.0081 24.109 32.9195C24.302 34.0133 25.6024 34.945 26.1814 35.3096C25.897 35.6337 25.4703 36.2515 25.6024 36.8692V36.9401L25.6633 36.9908C25.6633 36.9908 26.9942 38.358 27.7459 39.1783C27.9999 38.6922 28.2945 38.1858 28.6196 37.6794C28.6094 37.6896 28.5891 37.6997 28.579 37.72H28.5688Z" fill="black"/>
<path d="M27.7564 39.3304L27.665 39.2291C26.9234 38.4189 25.623 37.0821 25.5925 37.0517L25.5214 36.9808L25.5011 36.8795C25.3792 36.2719 25.7551 35.6743 26.0395 35.33C25.3284 34.8641 24.2007 33.983 24.0179 32.9399C23.8452 31.9778 24.9525 30.9144 26.1208 29.7801C26.7303 29.1928 27.4212 28.5142 27.7056 28.018C27.797 27.8458 27.8885 27.6736 27.9799 27.4913C28.6301 26.2355 29.3615 24.8278 31.5559 24.7164H31.6169C31.6778 24.7164 31.7388 24.7164 31.7997 24.7164C31.8302 24.7164 31.9216 24.7164 32.0639 24.6962C32.2772 24.686 32.6328 24.6658 33.0594 24.6658C34.0957 24.6658 35.1319 24.7569 36.1478 24.9696C36.3307 25 36.4627 25.1823 36.4221 25.3646C36.3815 25.5469 36.2088 25.6785 36.0259 25.638H35.9954C35.0201 25.4355 34.0347 25.3443 33.0493 25.3544C32.3381 25.3544 31.8607 25.3949 31.8404 25.3949H31.8099C29.8187 25.3949 29.2193 26.5596 28.5895 27.7952L28.5183 27.9369C28.4472 28.0787 28.3761 28.2205 28.2948 28.3522C27.9697 28.9396 27.2992 29.5877 26.5983 30.2663C25.7043 31.1372 24.5868 32.2209 24.6884 32.8184C24.7595 33.2032 25.0338 33.6286 25.5214 34.0641L25.5417 34.0843V34.1147C25.6332 34.4995 25.816 34.854 26.0903 35.1376C26.131 35.1882 26.2021 35.1983 26.2529 35.1781L26.3646 35.1477V35.2692C26.3748 35.3503 26.4459 35.4212 26.5272 35.4212H26.8929L26.7405 35.5731C26.4662 35.8566 26.1513 36.3022 26.1614 36.6668C26.9132 37.4365 27.5024 38.0644 27.9393 38.5303C28.1425 38.2568 28.3253 37.9733 28.4879 37.6796C28.4879 37.6593 28.5082 37.6492 28.5285 37.6391L29.0974 37.0821L28.6809 37.7403C28.3558 38.2568 28.0612 38.7531 27.8174 39.2291L27.7564 39.3405V39.3304ZM25.6941 36.8998L25.7246 36.9301C25.7246 36.9301 26.964 38.1961 27.7158 39.0265L27.8783 38.7328C27.4415 38.2568 26.8116 37.5986 26.009 36.7782L25.9887 36.758V36.7175C25.9379 36.2921 26.263 35.8364 26.4662 35.6034C26.3545 35.5832 26.263 35.5123 26.2122 35.411C25.9481 35.725 25.5519 36.2921 25.6738 36.8593V36.9099L25.6941 36.8998ZM33.0493 24.8379C32.6226 24.8379 32.2772 24.8582 32.0639 24.8683L31.7997 24.8886C31.7286 24.8886 31.6778 24.8886 31.6169 24.8886H31.5559C29.453 24.9899 28.752 26.3469 28.1323 27.5521C28.0307 27.7445 27.9393 27.9268 27.8478 28.099C27.5532 28.6256 26.8523 29.3042 26.2427 29.9017C25.115 31.0056 24.0483 32.0386 24.1906 32.8994C24.3226 33.659 25.0236 34.3476 25.6128 34.8034C25.5011 34.611 25.4097 34.3983 25.3589 34.1755C24.8611 33.7096 24.5665 33.264 24.4953 32.8488C24.3734 32.15 25.43 31.1271 26.456 30.1346C27.157 29.4561 27.8072 28.8282 28.1221 28.261C28.1932 28.1294 28.2745 27.9876 28.3456 27.8458L28.4167 27.7141C29.0771 26.428 29.7069 25.2127 31.7997 25.2127H31.82C31.82 25.2127 32.3178 25.1721 33.0391 25.1721C34.0449 25.1721 35.0405 25.2633 36.0259 25.4557C36.1072 25.476 36.1986 25.4253 36.2189 25.3443C36.2392 25.2633 36.1884 25.1721 36.1072 25.1519H36.0868C35.0811 24.9392 34.0652 24.8481 33.0391 24.8481L33.0493 24.8379Z" fill="black"/>
<path d="M28.8941 35.2588C28.8941 35.117 28.7823 35.0056 28.6401 35.0056H26.527C26.527 35.0056 26.4762 35.0056 26.4559 35.0157C26.4559 35.0866 26.4356 35.1575 26.3746 35.2082C26.3442 35.2284 26.3137 35.2487 26.2832 35.2588C26.2832 35.3905 26.395 35.4917 26.5372 35.4917H28.6503C28.7925 35.4917 28.9042 35.3803 28.9042 35.2385L28.8941 35.2588Z" fill="black"/>
<path d="M28.651 35.5933H26.5278C26.3449 35.5933 26.2027 35.4516 26.1925 35.2693V35.1984L26.2636 35.1781C26.2636 35.1781 26.3043 35.1579 26.3246 35.1477C26.355 35.1173 26.3754 35.0667 26.3754 35.0262V34.9553L26.4465 34.9351C26.4465 34.9351 26.5176 34.9148 26.5481 34.9148H28.6612C28.8542 34.9148 29.0066 35.0667 29.0066 35.2591C29.0066 35.4516 28.8542 35.6035 28.6612 35.6035L28.651 35.5933ZM26.3957 35.3199C26.4262 35.3705 26.477 35.411 26.5379 35.411H28.651C28.7424 35.411 28.8135 35.3401 28.8135 35.249C28.8135 35.1579 28.7424 35.087 28.6612 35.087H26.5481C26.5379 35.1579 26.4973 35.2287 26.4465 35.2794C26.4262 35.2895 26.416 35.3098 26.3957 35.3199Z" fill="black"/>
<path d="M26.4558 35.0161C26.4558 34.9554 26.4354 34.9047 26.3948 34.8541C26.3948 34.8541 26.3846 34.844 26.3745 34.8339C25.9681 34.3781 25.8259 33.892 25.9376 33.335C26.1307 32.3627 27.0856 31.35 28.1625 30.479C28.0203 30.479 27.9187 30.3676 27.9187 30.2259C27.9187 30.0841 28.0304 29.9828 28.1726 29.9828H28.8228C29.5644 29.446 30.3467 28.9498 31.1594 28.5143V29.9828H31.4134C31.5353 29.9828 31.6369 30.0739 31.6572 30.1853C31.6572 30.1752 31.6572 30.155 31.6572 30.1448V27.7244L31.3016 27.8864C31.2508 27.9067 25.9986 30.5297 25.45 33.2337C25.3891 33.5274 25.3891 33.8312 25.45 34.1249C25.5414 34.53 25.7345 34.8946 26.0189 35.1883C26.0697 35.239 26.1307 35.2693 26.2018 35.2693C26.2221 35.2693 26.2526 35.2693 26.2729 35.2592C26.3034 35.2592 26.344 35.2288 26.3643 35.2086C26.4151 35.1579 26.4456 35.087 26.4456 35.0161H26.4558Z" fill="black"/>
<path d="M26.2126 35.3703C26.1211 35.3703 26.0297 35.3298 25.9586 35.2589C25.664 34.9449 25.4608 34.5702 25.3592 34.1449C25.2982 33.8411 25.2982 33.5271 25.3592 33.2132C25.9179 30.4585 31.2108 27.8253 31.2616 27.8051L31.7492 27.5823V30.1445C31.7492 30.1445 31.7492 30.185 31.7492 30.1952L31.6477 30.3876L31.5664 30.1952C31.5562 30.1243 31.4851 30.0736 31.414 30.0736H31.0686V28.6659C30.3067 29.0811 29.5752 29.547 28.8742 30.0534L28.8539 30.0736H28.1733C28.0818 30.0736 28.0107 30.1445 28.0107 30.2357C28.0107 30.3167 28.0818 30.3876 28.1631 30.3876H28.4171L28.2241 30.5395C26.9338 31.5725 26.1922 32.5144 26.0297 33.3347C25.9179 33.8613 26.0602 34.3272 26.4462 34.7525L26.3954 34.8335L26.4665 34.7728C26.5884 34.9146 26.5783 35.1272 26.4462 35.2589C26.4056 35.2893 26.3649 35.3197 26.3243 35.3298C26.2938 35.3298 26.2532 35.35 26.2227 35.35L26.2126 35.3703ZM27.8278 30.2458C26.7307 31.137 25.7554 32.2004 25.5421 33.2537C25.4811 33.5372 25.4811 33.8208 25.5421 34.1044C25.6335 34.4892 25.8164 34.8437 26.0906 35.1272C26.1313 35.1779 26.2024 35.188 26.2532 35.1678C26.2735 35.1678 26.2938 35.1475 26.3141 35.1374C26.3446 35.107 26.3649 35.0564 26.3649 35.0158C26.3649 34.9753 26.3548 34.9449 26.3243 34.9146V34.8943C25.8773 34.4082 25.7351 33.8917 25.8468 33.3043C26.0195 32.4637 26.7307 31.5219 27.9701 30.499C27.8786 30.4382 27.8177 30.3369 27.8177 30.2255L27.8278 30.2458ZM31.2515 29.9015H31.414C31.4648 29.9015 31.5257 29.9116 31.5664 29.942V27.876L31.3429 27.9772C30.266 28.5343 29.24 29.1824 28.2748 29.9015H28.7828C29.5244 29.3647 30.3067 28.8786 31.1092 28.4431L31.2413 28.3722V29.9015H31.2515Z" fill="black"/>
<path d="M31.4137 29.9928H28.1729C28.0307 29.9928 27.9189 30.1042 27.9189 30.2359C27.9189 30.3675 28.0307 30.489 28.1628 30.489H31.4035C31.5457 30.489 31.6575 30.3776 31.6575 30.2359C31.6575 30.2156 31.6575 30.2055 31.6575 30.1852C31.6372 30.0738 31.5356 29.9827 31.4137 29.9827V29.9928Z" fill="black"/>
<path d="M31.4137 30.5803H28.1526C27.9596 30.5803 27.8174 30.4182 27.8174 30.2258C27.8174 30.0334 27.9799 29.8916 28.173 29.8916H31.4137C31.5762 29.8916 31.7185 30.0131 31.7489 30.1752C31.7489 30.1954 31.7591 30.2157 31.7591 30.2359C31.7591 30.4284 31.6067 30.5701 31.4137 30.5701V30.5803ZM28.1831 30.398H31.4137C31.5051 30.398 31.5762 30.3271 31.5762 30.2359V30.2056C31.5661 30.1347 31.5051 30.0739 31.4239 30.0739H28.1831C28.0917 30.0739 28.0206 30.1448 28.0206 30.2359C28.0206 30.317 28.0917 30.3878 28.173 30.3878L28.1831 30.398Z" fill="black"/>
<path d="M32.3175 33.4968C32.409 33.3854 32.3887 33.2335 32.2769 33.1424C32.1652 33.0512 32.0128 33.0715 31.9213 33.1829C30.6108 34.7931 29.4832 36.2819 28.5993 37.6795C28.2742 38.1858 27.9898 38.6821 27.7256 39.1783C26.7707 41.0013 26.2627 42.7331 26.3339 44.4851C26.4558 47.7158 28.4774 51.0477 32.2566 56.4659C32.2566 56.4659 32.2667 56.4659 32.2769 56.4862C31.6775 55.5443 31.1899 54.5316 30.8242 53.4783C25.3687 45.2143 25.3281 42.0647 32.3175 33.4968Z" fill="black"/>
<path d="M32.226 56.5472L32.1955 56.5168C28.2741 50.886 26.3845 47.6452 26.2524 44.4854C26.1915 42.8042 26.6486 41.0522 27.6544 39.128C27.9084 38.652 28.203 38.1456 28.5281 37.6291C29.3306 36.353 30.3973 34.9251 31.8603 33.1224C31.9822 32.9806 32.1955 32.9603 32.3377 33.0717C32.48 33.1933 32.5104 33.4059 32.3885 33.5578C25.5921 41.8826 25.3686 45.0424 30.9155 53.428V53.4482C31.2913 54.4913 31.779 55.5041 32.3682 56.4358L32.2768 56.5067L32.2361 56.5573L32.226 56.5472ZM32.1244 33.173C32.1244 33.173 32.033 33.1933 32.0025 33.2338C30.5396 35.0365 29.483 36.4644 28.6805 37.7304C28.3554 38.2469 28.0608 38.7431 27.8169 39.2191C26.8112 41.1433 26.3744 42.8144 26.4353 44.4854C26.5471 47.3211 28.1217 50.2479 31.3523 54.9876C31.1288 54.5116 30.9256 54.0153 30.7428 53.5191C25.1451 45.0424 25.3889 41.8523 32.2463 33.4363C32.2971 33.3654 32.2971 33.2743 32.226 33.2135C32.226 33.2135 32.165 33.173 32.1244 33.173Z" fill="black"/>
<path d="M60.9354 38.6921C60.9456 38.5605 61.0574 38.4693 61.1894 38.4794H61.2199C60.1735 36.5046 58.6497 34.4386 56.7601 32.1194C56.6382 32.2308 56.5061 32.3321 56.374 32.4333C59.9399 36.8185 62.185 40.272 62.3476 43.9078C62.4695 46.5713 61.5145 49.3462 59.056 53.3061C58.6801 54.4201 58.1823 55.4733 57.5525 56.4658C57.5525 56.4658 57.5728 56.4557 57.5728 56.4456C61.5247 50.7843 62.9977 47.26 62.8454 43.8875C62.7742 42.2367 62.2866 40.6265 61.4637 38.9656L61.1488 38.9453C61.0167 38.9453 60.9151 38.8238 60.9253 38.6921H60.9354Z" fill="black"/>
<path d="M57.6146 56.5367L57.4724 56.4253C58.0921 55.4429 58.5899 54.3896 58.9658 53.2858V53.2655C61.3938 49.3765 62.3792 46.5814 62.2573 43.9178C62.0948 40.3023 59.8598 36.8691 56.3041 32.494L56.2432 32.4333L56.3143 32.3725C56.4463 32.2712 56.5683 32.1598 56.7003 32.0586L56.7714 31.9978L56.8324 32.0687C58.976 34.7018 60.3576 36.6666 61.3024 38.4389L61.3837 38.5908H61.211V38.4996H61.2008V38.5705C61.1195 38.5705 61.0484 38.6212 61.0382 38.7022C61.0382 38.7022 61.0382 38.7832 61.0687 38.8136C61.089 38.844 61.1297 38.8642 61.1703 38.8642C61.2719 38.8642 61.3735 38.8744 61.4649 38.8845H61.5157L61.5564 38.9351C62.4199 40.677 62.877 42.2974 62.9482 43.8976C63.1005 47.3004 61.6173 50.8349 57.6553 56.5164L57.6146 56.5468V56.5367ZM59.1385 53.3465C58.9556 53.8833 58.7423 54.4099 58.4985 54.9264C61.6884 50.126 62.8974 46.946 62.7551 43.8875C62.684 42.3278 62.2472 40.7479 61.4141 39.0465C61.3227 39.0465 61.2313 39.0465 61.15 39.0263C61.1094 39.0263 61.0789 39.0161 61.0382 38.9959C61.8814 40.6568 62.3691 42.2468 62.4402 43.8875C62.5519 46.5915 61.5665 49.4171 59.1283 53.3364L59.1385 53.3465ZM56.4971 32.4434C58.3359 34.7018 59.8192 36.7172 60.8452 38.6516C60.8655 38.53 60.957 38.4389 61.0687 38.3984C60.1442 36.6868 58.8032 34.7829 56.741 32.251C56.6597 32.3118 56.5784 32.3826 56.4971 32.4434Z" fill="black"/>
<path d="M65.5374 33.8612C65.4967 33.608 65.3037 33.0915 64.938 32.1496C64.8161 31.8357 64.6739 31.4711 64.5215 31.066C64.4707 30.9242 64.5418 30.8128 64.7145 30.6001C64.8669 30.4178 65.0498 30.195 64.9685 29.9115C64.1253 26.8732 63.15 25.7693 62.9671 25.5769C63.0179 25.6984 62.9671 25.8503 62.8351 25.901C62.8148 25.901 62.7944 25.9212 62.764 25.9212L62.703 25.9921C62.9671 26.3061 63.79 27.41 64.5113 30.033C64.5215 30.0836 64.43 30.2052 64.3488 30.2963C64.1761 30.4989 63.9221 30.8128 64.0846 31.228C64.2472 31.6433 64.3793 31.9876 64.5012 32.3117C64.8161 33.132 65.0497 33.7194 65.0802 33.9219C65.0904 33.9827 65.0802 34.0536 65.0294 34.1042C64.8669 34.2865 64.3589 34.3878 63.7799 34.3676C63.9119 34.3676 64.0237 34.4587 64.0338 34.5904C64.0338 34.722 63.9424 34.8334 63.8103 34.8435H64.1354C64.1354 34.7828 64.1354 34.7321 64.1354 34.722C64.1354 34.5904 64.2269 34.479 64.3488 34.479C64.4808 34.479 64.5926 34.5701 64.6028 34.7018V34.7929C64.8872 34.7524 65.1615 34.6309 65.3748 34.4283C65.5171 34.2764 65.5882 34.0739 65.5577 33.8713L65.5374 33.8612Z" fill="black"/>
<path d="M63.9433 34.935H63.8011V34.7527C63.8722 34.7527 63.9331 34.6818 63.9331 34.6007C63.9331 34.5197 63.862 34.4691 63.7909 34.4691H63.7604V34.2868H63.9636C64.5122 34.2868 64.8678 34.1653 64.9694 34.0539C64.9999 34.0235 65.01 33.983 64.9998 33.9526C64.9694 33.75 64.7052 33.0715 64.4309 32.3626L64.3395 32.1296C64.2379 31.8663 64.1262 31.5828 64.0144 31.2789C63.8417 30.8131 64.1262 30.4687 64.2989 30.2561C64.3497 30.1953 64.4005 30.1244 64.4411 30.0636C63.7096 27.4508 62.8868 26.3367 62.6531 26.0633L62.6023 26.0025L62.7344 25.8405H62.775C62.836 25.8405 62.8868 25.8 62.9071 25.7392C62.9172 25.6987 62.9172 25.6582 62.9071 25.6278L62.5515 25.3442L63.0595 25.5265C63.2525 25.719 64.2379 26.833 65.0811 29.9016C65.1726 30.2358 64.9592 30.489 64.8068 30.6713C64.6341 30.884 64.5935 30.9549 64.6341 31.046C64.7865 31.4511 64.9287 31.8056 65.0506 32.1296C65.4265 33.0816 65.6196 33.5981 65.6602 33.8716C65.7008 34.1045 65.6297 34.3374 65.4672 34.5096C65.2945 34.702 65.0202 34.8337 64.6443 34.8944L64.5427 34.9147V34.7122C64.5224 34.6311 64.4513 34.5704 64.37 34.5805C64.3294 34.5805 64.2989 34.6007 64.2786 34.6311C64.2582 34.6615 64.2379 34.6919 64.2481 34.7324C64.2481 34.7425 64.2481 34.7932 64.2481 34.8539V34.9451H63.9636L63.9433 34.935ZM64.5021 34.4083C64.6036 34.459 64.6646 34.5501 64.6849 34.6615C64.9186 34.621 65.1319 34.5096 65.3046 34.3476C65.4265 34.2159 65.4875 34.0336 65.457 33.8614C65.4265 33.6083 65.2234 33.1019 64.8576 32.1702C64.7357 31.8562 64.5935 31.4916 64.4411 31.0865C64.37 30.8941 64.4716 30.7523 64.6443 30.5295C64.7865 30.3573 64.9491 30.1649 64.8779 29.9219C64.177 27.4001 63.3947 26.2253 63.0493 25.8C63.0087 25.8911 62.9274 25.962 62.8258 25.9924C63.1712 26.4178 63.923 27.5622 64.5935 30.0029C64.6138 30.094 64.5427 30.1953 64.4106 30.3472C64.2481 30.5498 64.0246 30.8232 64.1566 31.1878C64.2786 31.5017 64.3801 31.7853 64.4817 32.0385L64.5732 32.2714C64.9186 33.1424 65.1218 33.6893 65.1522 33.902C65.1726 33.9931 65.1421 34.0842 65.071 34.1551C64.9084 34.2969 64.6951 34.3881 64.4817 34.4083H64.5021ZM64.0754 34.459C64.0754 34.459 64.0855 34.4893 64.0957 34.4995H64.1059C64.1059 34.4995 64.1262 34.459 64.1363 34.4488H64.0754V34.459Z" fill="black"/>
<path d="M64.3389 34.4687C64.2068 34.4687 64.1154 34.5801 64.1154 34.7117C64.1154 34.7117 64.1154 34.7725 64.1154 34.8434C64.1154 35.0054 64.1458 35.2991 64.1763 35.4612C64.1966 35.5726 64.2474 35.684 64.3389 35.765C64.3186 35.8257 64.2881 35.8865 64.2576 35.9473L62.9268 35.9878C63.1096 35.9878 63.2518 36.0992 63.2518 36.2207C63.2518 36.3422 63.1096 36.4536 62.9268 36.4536C63.3839 36.4536 63.8309 36.4739 64.2779 36.5144C64.2576 36.6765 64.1966 36.8284 64.1052 36.96H63.9833L63.9223 37.0815C63.7598 37.3854 63.8106 37.5272 63.8716 37.598C63.9325 37.7905 63.9223 37.993 63.8411 38.1753C63.7903 38.2867 63.6887 38.3677 63.5668 38.3779C63.6988 38.3677 63.8106 38.4589 63.8309 38.5905C63.8411 38.7121 63.7598 38.8235 63.6481 38.8437C63.9528 38.7931 64.2068 38.5804 64.3084 38.2867C64.41 37.993 64.41 37.6791 64.3084 37.3854C64.7148 37.2132 64.7859 36.4233 64.7859 36.3828C64.7859 36.3119 64.7656 36.241 64.7148 36.1802C64.7148 36.1701 64.6944 36.1599 64.6843 36.1498C64.7351 36.0587 64.7655 35.9675 64.8062 35.8663C64.8671 35.7042 64.8062 35.5219 64.6843 35.4105C64.6741 35.4004 64.664 35.3903 64.6538 35.37C64.6335 35.208 64.6132 34.9041 64.603 34.7522V34.6611C64.5827 34.5396 64.4811 34.4484 64.349 34.4585L64.3389 34.4687Z" fill="black"/>
<path d="M63.6582 38.9558L63.6277 38.7735C63.709 38.7532 63.7598 38.6824 63.7395 38.6013C63.7293 38.5304 63.6582 38.4798 63.5769 38.4899L63.5566 38.3988L63.516 38.3178H63.5465C63.6379 38.2975 63.7192 38.2367 63.7598 38.1557C63.8208 37.9937 63.8309 37.8215 63.7903 37.6595C63.6785 37.5177 63.6988 37.3151 63.8411 37.0518L63.9325 36.8797H64.0747C64.1255 36.7986 64.156 36.7075 64.1763 36.6062C63.8817 36.5758 63.3534 36.5556 62.9268 36.5556V36.3733C63.069 36.3733 63.1706 36.2923 63.1706 36.2315C63.1706 36.1707 63.0791 36.0897 62.9268 36.0897V35.9074L64.2068 35.8669C64.2068 35.8669 64.2271 35.8163 64.2373 35.796C64.156 35.7049 64.1052 35.6036 64.0849 35.4821C64.0544 35.2795 64.0341 34.9453 64.0239 34.844C64.0239 34.7731 64.0239 34.7225 64.0239 34.7225C64.0239 34.6415 64.0443 34.5503 64.1052 34.4896C64.1662 34.4187 64.2474 34.3883 64.3389 34.3782C64.5217 34.3782 64.6741 34.5098 64.6843 34.682V34.7731C64.6843 34.8947 64.7148 35.1782 64.7351 35.3504C64.8976 35.4922 64.9484 35.715 64.8773 35.9176C64.8468 35.9986 64.8163 36.0796 64.7859 36.1505C64.8468 36.2214 64.8773 36.3125 64.8671 36.4037C64.8671 36.4037 64.8062 37.1835 64.41 37.4367C64.5014 37.7304 64.4913 38.0443 64.3897 38.3279C64.2779 38.652 63.9935 38.895 63.6582 38.9457V38.9558ZM63.8208 38.3785C63.8817 38.4292 63.9223 38.5001 63.9325 38.5811C63.9325 38.6013 63.9325 38.6317 63.9325 38.652C64.0646 38.5608 64.1662 38.4292 64.2271 38.2671C64.3185 38.0038 64.3185 37.7101 64.2271 37.4367V37.3354L64.2779 37.3151C64.5827 37.1936 64.6944 36.586 64.7046 36.3935C64.7046 36.3429 64.6944 36.2923 64.664 36.2619C64.664 36.2619 64.6538 36.2518 64.6436 36.2416L64.5827 36.191L64.6132 36.1201C64.6538 36.029 64.6944 35.9378 64.7249 35.8467C64.7757 35.715 64.7249 35.5631 64.6233 35.4719C64.603 35.4517 64.5827 35.4314 64.5725 35.4112V35.3909C64.542 35.2188 64.5217 34.8947 64.5116 34.7731V34.6719C64.5116 34.5909 64.4303 34.5301 64.349 34.5402C64.3084 34.5402 64.2779 34.5605 64.2576 34.5909C64.2373 34.6212 64.217 34.6516 64.2271 34.6921C64.2271 34.7023 64.2271 34.7529 64.2271 34.8137C64.2373 35.0162 64.2576 35.2795 64.2881 35.4314C64.3084 35.5226 64.349 35.6137 64.4201 35.6846L64.4608 35.7251V35.7859C64.4201 35.8467 64.3897 35.9175 64.3693 35.9783L64.349 36.029L63.323 36.0593C63.323 36.0593 63.3738 36.1606 63.3738 36.2112C63.3738 36.2619 63.3534 36.3125 63.323 36.3632C63.6582 36.3632 63.9833 36.3834 64.3185 36.4239H64.41L64.3897 36.5353C64.3693 36.667 64.2881 36.9404 64.1865 37.0316L64.1662 37.0518H64.0646L64.0239 37.1227C63.8716 37.4164 63.9427 37.5076 63.963 37.5379V37.5582C64.0443 37.7709 64.0341 38.0139 63.9427 38.2165C63.9122 38.2773 63.8716 38.3279 63.8309 38.3684L63.8208 38.3785Z" fill="black"/>
<path d="M62.5811 36.2313C62.5811 36.363 62.7334 36.4744 62.9265 36.4744H62.9366C63.1195 36.4744 63.2617 36.363 63.2617 36.2415C63.2617 36.1199 63.1195 36.0085 62.9366 36.0085H62.9265C62.7334 36.0085 62.5811 36.1098 62.5811 36.2415V36.2313Z" fill="black"/>
<path d="M62.9163 36.5658C62.6624 36.5658 62.4795 36.424 62.4795 36.2315C62.4795 36.0391 62.6725 35.9075 62.9163 35.9075H62.9468C63.1703 35.9075 63.3532 36.0594 63.3532 36.2315C63.3532 36.4037 63.1703 36.5556 62.9367 36.5556H62.9163V36.5658ZM62.9062 36.0898C62.7741 36.0898 62.6725 36.1708 62.6725 36.2417C62.6725 36.3126 62.7741 36.3835 62.9265 36.3835H62.9468C63.089 36.3835 63.1906 36.3024 63.1906 36.2417C63.1906 36.1809 63.0992 36.0999 62.9468 36.0999H62.9163L62.9062 36.0898Z" fill="black"/>
<path d="M63.8415 38.6014C63.8212 38.4697 63.6993 38.3887 63.5774 38.3988C62.7951 38.5001 62.0129 38.5305 61.2306 38.4697H61.2103C61.0783 38.4494 60.9563 38.5406 60.9462 38.6722C60.9259 38.8039 61.0173 38.9254 61.1494 38.9356H61.1798L61.4948 38.9558C61.6776 38.9558 61.8503 38.9659 62.0129 38.9659C62.5615 38.9659 63.1202 38.9254 63.6587 38.8545C63.7907 38.8343 63.872 38.7128 63.8517 38.5912L63.8415 38.6014Z" fill="black"/>
<path d="M61.9923 39.0666C61.8399 39.0666 61.6672 39.0666 61.464 39.0564C61.3523 39.0564 61.2507 39.0564 61.1491 39.0362C60.9662 39.0261 60.8341 38.864 60.8443 38.6919C60.8545 38.5096 61.017 38.3779 61.1897 38.388L61.21 38.4792V38.388C61.464 38.4083 61.718 38.4184 61.9821 38.4184C62.5104 38.4184 63.0285 38.388 63.5466 38.3171H63.6076C63.7904 38.3171 63.9327 38.4589 63.9428 38.6412C63.9428 38.8033 63.8311 38.9349 63.6685 38.9653C63.1098 39.0362 62.551 39.0767 61.9923 39.0767V39.0666ZM61.1795 38.5703C61.0983 38.5703 61.0272 38.621 61.0272 38.702C61.0272 38.7425 61.0272 38.7729 61.0576 38.8033C61.078 38.8336 61.1186 38.8539 61.1592 38.8539C61.2608 38.8539 61.3624 38.864 61.4538 38.8741C61.6672 38.8843 61.8399 38.8843 61.9923 38.8843C62.5307 38.8843 63.0793 38.8438 63.6076 38.7729H63.638C63.7193 38.7526 63.76 38.6716 63.7295 38.5906C63.7092 38.5298 63.6482 38.4792 63.5771 38.4893C63.0488 38.5602 62.5104 38.5906 61.972 38.6007C61.7078 38.6007 61.4437 38.6007 61.1999 38.5703L61.1795 38.4792V38.5703Z" fill="black"/>
<path d="M62.6319 25.9114L62.2154 25.7595C61.0979 27.0963 55.6425 33.4564 52.6963 33.9527C52.6354 34.1248 52.5846 34.297 52.5439 34.4692C53.6106 34.378 54.972 33.5476 56.3638 32.4234C56.4857 32.3221 56.6177 32.2107 56.7498 32.1094C59.4115 29.8713 62.0528 26.7419 62.6827 25.9823L62.7437 25.9114H62.7132C62.7132 25.9114 62.6522 25.9114 62.6319 25.9114Z" fill="black"/>
<path d="M52.4326 34.5803L52.4733 34.4587C52.524 34.2764 52.5748 34.1043 52.6358 33.9321L52.6561 33.8815H52.7069C55.6226 33.3751 61.0983 26.9847 62.165 25.7086L62.2056 25.658L62.673 25.8301C62.673 25.8301 62.7136 25.8301 62.7339 25.8301H62.7441L62.9676 25.7997L62.7644 26.0529C62.0329 26.934 59.4627 29.9723 56.8213 32.1902C56.6994 32.3016 56.5674 32.4029 56.4353 32.5041C54.8403 33.7903 53.54 34.4891 52.5647 34.5701H52.4326V34.5803ZM52.7882 34.0435C52.7577 34.1549 52.7171 34.2663 52.6866 34.3777C53.6111 34.2461 54.8302 33.5675 56.3235 32.3725C56.4556 32.2712 56.5775 32.1598 56.7096 32.0585C59.3306 29.8507 61.972 26.7315 62.5815 26.0023L62.2666 25.8909C61.1085 27.2682 55.7445 33.4865 52.7983 34.0638L52.7882 34.0435Z" fill="black"/>
<path d="M53.0421 22.1946C52.971 22.3162 52.8186 22.3567 52.7068 22.2858L52.402 22.1136C51.4776 22.6301 50.6547 23.3087 49.9537 24.0986L50.2077 24.2201L48.8972 26.276L48.7448 26.195C48.3283 27.1976 48.0133 28.2509 47.8203 29.3142L47.9422 29.3548L47.8 31.4208H47.5663C47.5054 32.2816 47.5663 33.1424 47.7187 33.9931C48.5721 34.1552 49.4051 34.3881 50.2077 34.6919C49.5473 34.4286 48.8261 34.1653 48.2165 33.9324C47.8406 32.2715 48.0336 28.5344 49.6591 25.4253C50.7156 23.3998 53.2148 22.2351 53.743 22.0022L56.6689 23.4403C56.7908 23.3694 56.9228 23.2884 57.0447 23.2175L57.2987 23.653L57.2174 23.6935L58.9242 24.5341C57.6543 25.6177 52.849 30.0333 51.8738 35.2895C51.6198 35.1983 51.2134 35.0464 50.7258 34.8641V34.8945C51.2642 35.1274 51.7925 35.3907 52.3106 35.6844V35.654C52.3716 35.2591 52.463 34.8641 52.5646 34.4793C52.6154 34.3071 52.6662 34.1349 52.717 33.9628C54.2713 29.2332 58.7108 25.3544 59.422 24.7569L59.2086 24.686C59.0766 24.6353 59.0156 24.4936 59.0562 24.3619C59.0969 24.2303 59.2493 24.1695 59.3813 24.21H59.4016L53.7532 21.4553L53.6516 21.4958C53.6516 21.4958 53.3367 21.6174 52.9202 21.83L52.9506 21.8503C53.0725 21.9212 53.1132 22.0731 53.0421 22.1845V22.1946Z" fill="black"/>
<path d="M52.3614 35.8258L52.2497 35.765C51.7417 35.4713 51.2135 35.208 50.675 34.9852L50.6344 34.965V34.8941L50.5938 34.7422L50.736 34.7827L51.7824 35.1675C52.778 30.1038 57.2175 25.8705 58.7413 24.5539L56.994 23.7032L57.1464 23.6222L56.994 23.3386C56.933 23.3791 56.8619 23.4196 56.801 23.4601L56.6689 23.5412L53.7431 22.1031C53.1742 22.3563 50.7563 23.5108 49.7404 25.4755C48.1556 28.534 47.9422 32.2002 48.2978 33.8813C48.8972 34.1041 49.5982 34.3674 50.2382 34.6105L50.2991 34.6308V34.8232L50.1772 34.7928C49.3747 34.489 48.5416 34.256 47.6984 34.094H47.6375V34.0231C47.4648 33.1724 47.414 32.3014 47.4749 31.4305V31.3393H47.7086L47.8305 29.4354L47.7086 29.3948V29.3138C47.9219 28.2403 48.2369 27.1871 48.6635 26.1743L48.7042 26.0832L48.8667 26.1642L50.0858 24.2602L49.8217 24.1286L49.8928 24.0374C50.675 23.1158 51.6706 22.4373 52.3716 22.0322L52.4224 22.0018L52.7678 22.2043C52.8491 22.2449 52.9405 22.2145 52.9811 22.1436C53.0015 22.1031 53.0116 22.0626 52.9913 22.022C52.9811 21.9815 52.9507 21.9512 52.9202 21.9208L52.7373 21.8195L52.8897 21.7385C53.2758 21.5461 53.5501 21.4245 53.6313 21.3941L53.7736 21.3435L59.4525 24.1286L59.3814 24.3007C59.3814 24.3007 59.3306 24.2805 59.3102 24.2805C59.2391 24.2805 59.1883 24.321 59.1579 24.3817C59.1477 24.4223 59.1477 24.4628 59.1579 24.5033C59.1782 24.5438 59.2087 24.5742 59.2493 24.5843L59.615 24.716L59.4931 24.8172C58.6499 25.5262 54.3425 29.3138 52.8186 33.9826C52.7678 34.1548 52.7069 34.3269 52.6662 34.4991C52.5545 34.8839 52.4732 35.2688 52.4122 35.6638L52.3919 35.8157L52.3614 35.8258ZM51.9246 35.3701C52.0262 35.4207 52.1176 35.4815 52.2192 35.5321C52.2802 35.1675 52.3716 34.8029 52.4732 34.4485C52.524 34.2662 52.5748 34.094 52.6357 33.9218C54.119 29.405 58.1623 25.7084 59.2493 24.7767L59.1883 24.7565C59.1071 24.7261 59.036 24.6653 58.9953 24.5843H58.975C57.573 25.7996 52.9202 30.124 51.9551 35.2992L51.9348 35.3701H51.9246ZM47.7797 33.9117L48.1149 33.9826V33.9522C47.7289 32.2812 47.9321 28.534 49.5372 25.4148L48.9175 26.3971L48.7854 26.3262C48.3994 27.2681 48.1048 28.2504 47.9118 29.2531L48.0235 29.2834L47.8711 31.5014H47.6375C47.5867 32.3014 47.6375 33.1116 47.7797 33.9016V33.9117ZM50.0858 24.0577L50.3296 24.1792L50.0655 24.5843C50.8477 23.5716 51.9348 22.8424 52.7272 22.3866C52.6967 22.3866 52.6662 22.3664 52.6459 22.3563L52.3919 22.2145C51.5284 22.7006 50.7462 23.3285 50.0858 24.0577ZM57.38 23.683L58.9344 24.4425C58.9344 24.3311 58.9852 24.2197 59.0766 24.1589L57.1159 23.1968L57.38 23.6728V23.683ZM53.7228 21.8904L56.6384 23.3184L56.6892 23.288C56.7806 23.2373 56.8721 23.1766 56.9635 23.1259L53.7228 21.5359L53.6618 21.5663C53.6009 21.5967 53.3774 21.6777 53.0726 21.8398C53.1031 21.8803 53.1335 21.9208 53.1437 21.9714C53.164 22.0322 53.164 22.1031 53.1437 22.1638C53.3977 22.0423 53.5805 21.9512 53.6821 21.9005L53.7228 21.8803V21.8904Z" fill="black"/>
<path d="M59.0556 24.3618C59.0049 24.4935 59.076 24.6353 59.1979 24.6859L59.4112 24.7669L62.2151 25.7695L62.6215 25.9214C62.6215 25.9214 62.6824 25.9316 62.7129 25.9316H62.7434C62.8755 25.9214 62.977 25.7999 62.9669 25.6581C62.9669 25.567 62.8958 25.486 62.8043 25.4556L59.3909 24.2302H59.3706C59.2487 24.1795 59.1064 24.2504 59.0556 24.3719V24.3618Z" fill="black"/>
<path d="M46.6819 31.4409H47.7892L47.9315 29.3647L47.8095 29.3242L46.814 29.0204C46.753 27.8355 47.1289 26.681 47.8705 25.7594L48.7442 26.205L48.8966 26.286L50.2172 24.2301L49.9633 24.1086L49.1912 23.7237C49.821 21.9413 51.2027 21.6679 51.5379 21.6273L52.4116 22.1236L52.7164 22.2958C52.8383 22.3666 52.9907 22.3261 53.0618 22.2046C53.1329 22.0831 53.0923 21.9312 52.9704 21.8603L52.9399 21.84L51.67 21.1108H51.5989C51.5989 21.1108 49.4248 21.2526 48.6629 23.7642L48.602 23.9668L49.5163 24.4225L48.7442 25.6277L47.7892 25.1314L47.6673 25.2631C46.7022 26.3467 46.2247 27.7848 46.3568 29.2331L46.3771 29.3951L47.4438 29.7192L47.3625 30.9244H46.2755L46.2451 31.1573C46.0927 32.4334 46.3162 33.3448 46.4686 33.8006C46.6616 33.8208 46.8444 33.8512 47.0375 33.8715C46.9663 33.7195 46.5905 32.8486 46.7124 31.4307L46.6819 31.4409Z" fill="black"/>
<path d="M47.1606 33.9929L46.9878 33.9727C46.7948 33.9423 46.612 33.9221 46.4189 33.9018H46.358L46.3377 33.841C46.1853 33.3954 45.9516 32.4637 46.104 31.1573L46.1446 30.8636H47.2317L47.3028 29.8002L46.2462 29.4761L46.2259 29.2533C46.0837 27.7848 46.5713 26.3163 47.5568 25.2124L47.7396 25.0301L48.6743 25.5162L49.3448 24.463L48.4508 24.0174L48.532 23.7439C49.3244 21.1614 51.5391 21.0095 51.5594 21.0095H51.661L52.9919 21.7691C53.1544 21.8602 53.2154 22.0729 53.1138 22.2349C53.0122 22.397 52.809 22.4476 52.6465 22.3565L51.4985 21.6982C51.0921 21.759 49.8832 22.0729 49.2838 23.6528L50.3302 24.1693L48.9181 26.3872L47.892 25.8505C47.2114 26.7315 46.8558 27.8152 46.8964 28.9292L48.0342 29.2735L47.8818 31.4915H46.7644C46.6628 32.8384 47.0183 33.6587 47.0793 33.8107L47.1504 33.9626L47.1606 33.9929ZM46.5002 33.7195C46.6221 33.7296 46.7339 33.7499 46.8558 33.76C46.7339 33.4157 46.4799 32.6055 46.5916 31.4206V31.3395H47.7091L47.8311 29.4153L46.7136 29.071V29.0102C46.6526 27.8051 47.0386 26.6201 47.7904 25.6783L47.8412 25.6175L48.8571 26.1442L50.0762 24.2402L49.0705 23.7338L49.1009 23.6629C49.741 21.8704 51.1124 21.5564 51.529 21.5058H51.5594L52.7684 22.1944C52.8496 22.2349 52.9411 22.2046 52.9817 22.1337C53.002 22.0932 53.0122 22.0527 52.9919 22.0121C52.9817 21.9716 52.9512 21.9412 52.9207 21.9109L51.6305 21.1817H51.5798C51.5798 21.1817 49.4667 21.3336 48.7251 23.7743L48.6844 23.8959L49.619 24.3617L48.7454 25.7289L47.7803 25.2327L47.699 25.3137C46.744 26.3771 46.2869 27.7848 46.4189 29.2026V29.3039L47.506 29.6381L47.4145 31.0053H46.3174L46.297 31.1573C46.1751 32.008 46.2462 32.8789 46.5002 33.7094V33.7195Z" fill="black"/>
<path d="M57.1975 23.6933L57.2788 23.6528L57.0248 23.2173C56.9029 23.2882 56.7708 23.3591 56.6489 23.4401C50.8989 26.853 50.1573 33.0409 50.1979 34.6917C50.3605 34.7626 50.523 34.8335 50.6754 34.8943H50.6957C50.6957 34.8943 50.6957 34.8943 50.6957 34.9044V34.874C50.5433 34.0537 50.97 27.1771 57.1772 23.7034L57.1975 23.6933Z" fill="black"/>
<path d="M50.7059 34.986H50.6754L50.6449 34.9657C50.4926 34.9049 50.33 34.8442 50.1675 34.7733L50.1065 34.753V34.6923C50.1065 34.6011 50.0151 27.2587 56.6083 23.3495L56.6997 23.2887C56.7912 23.228 56.8826 23.1773 56.9842 23.1267L57.0655 23.0862L57.4007 23.6837L57.2483 23.7749C51.1123 27.2081 50.6449 34.0036 50.8075 34.8543L50.7364 34.8847H50.8075L50.8278 34.9758H50.7161L50.7059 34.986ZM50.2894 34.6315C50.391 34.672 50.4926 34.7125 50.6043 34.753C50.5129 33.4466 51.1935 26.9549 57.1467 23.6128L56.9944 23.3292C56.9334 23.3698 56.8623 23.4103 56.8013 23.4508L56.7099 23.5014C50.4824 27.1979 50.2995 33.9935 50.2995 34.6214L50.2894 34.6315Z" fill="black"/>
<path d="M47.6066 37.4465V34.4792C47.1088 34.388 46.6008 34.3171 46.0929 34.2766V37.1832C46.6008 37.2338 47.1088 37.325 47.6066 37.4465Z" fill="black"/>
<path d="M47.6981 37.5678L47.5864 37.5374C47.0987 37.4158 46.5908 37.3348 46.093 37.2741H46.0117V34.175H46.1133C46.6213 34.2257 47.1292 34.2966 47.6372 34.3877H47.7083V37.5576L47.6981 37.5678ZM46.1844 37.112C46.6314 37.1627 47.0784 37.2335 47.5153 37.3348V34.5599C47.0784 34.4789 46.6314 34.4181 46.1844 34.3776V37.1019V37.112Z" fill="black"/>
<path d="M43.798 37.1832V34.2766C43.29 34.3171 42.7923 34.3779 42.2843 34.469V37.4263C42.7821 37.3047 43.29 37.2237 43.798 37.1731V37.1832Z" fill="black"/>
<path d="M42.1914 37.5476V34.398H42.2625C42.7705 34.2866 43.2784 34.2258 43.7864 34.1853H43.888V37.2742H43.8067C43.2987 37.3349 42.801 37.416 42.3133 37.5274L42.1914 37.5476ZM42.3743 34.5499V37.3147C42.8111 37.2134 43.2581 37.1425 43.7051 37.0919V34.3676C43.2581 34.4081 42.8111 34.4587 42.3743 34.5398V34.5499Z" fill="black"/>
<path d="M42.2843 59.7476V62.7149C42.7821 62.8061 43.29 62.8668 43.798 62.9073V60.0007C43.29 59.9501 42.7821 59.8691 42.2843 59.7476Z" fill="black"/>
<path d="M43.888 63.0084H43.7864C43.2784 62.9578 42.7705 62.897 42.2625 62.8059H42.1914V59.636L42.3032 59.6664C42.7908 59.7778 43.2987 59.8689 43.7965 59.9196H43.8778V63.0186L43.888 63.0084ZM42.3844 62.6337C42.8213 62.7147 43.2683 62.7654 43.7153 62.8059V60.0715C43.2683 60.0208 42.8213 59.9499 42.3844 59.8588V62.6337Z" fill="black"/>
<path d="M46.0929 59.9905V62.8971C46.6008 62.8566 47.1088 62.7857 47.6066 62.6945V59.7373C47.1088 59.8588 46.6008 59.9399 46.0929 59.9905Z" fill="black"/>
<path d="M46.0117 62.9985V59.9097H46.093C46.6009 59.8489 47.0987 59.7578 47.5864 59.6464L47.6981 59.616V62.7757H47.627C47.1292 62.8871 46.6213 62.958 46.1032 62.9985H46.0117ZM46.1946 60.0818V62.8162C46.6416 62.7757 47.0886 62.715 47.5254 62.634V59.859C47.0886 59.9603 46.6416 60.0312 46.1946 60.0818Z" fill="black"/>
<path d="M56.3747 47.5844H59.2903C59.2497 47.0781 59.1887 46.5818 59.0973 46.0754H56.1309C56.2426 46.5717 56.3239 47.0781 56.3645 47.5844H56.3747Z" fill="black"/>
<path d="M59.3811 47.6753H56.2826V47.5943C56.2318 47.098 56.1505 46.5917 56.0388 46.1055L56.0184 45.9941H59.1779V46.065C59.2795 46.5714 59.3405 47.0677 59.3811 47.5842V47.6753ZM56.4553 47.493H59.1881C59.1576 47.0474 59.0966 46.6018 59.0255 46.1663H56.2521C56.3435 46.6018 56.4146 47.0474 56.4553 47.493Z" fill="black"/>
<path d="M33.4954 49.8835H30.5696C30.6102 50.3899 30.6915 50.8963 30.7829 51.3925H33.7595C33.6376 50.8963 33.5462 50.3899 33.4852 49.8835H33.4954Z" fill="black"/>
<path d="M33.8828 51.483H30.7132V51.4121C30.6014 50.9058 30.5303 50.3994 30.4795 49.893V49.7917H33.578V49.8728C33.639 50.3791 33.7304 50.8754 33.8625 51.3615L33.8929 51.483H33.8828ZM30.8655 51.2906H33.6491C33.5475 50.8551 33.4663 50.4095 33.4155 49.9639H30.6725C30.7132 50.4197 30.7843 50.8653 30.8655 51.2906Z" fill="black"/>
<path d="M56.0689 51.3925H59.0455C59.1471 50.8963 59.2182 50.3899 59.2588 49.8835H56.333C56.2721 50.3899 56.1806 50.8963 56.0587 51.3925H56.0689Z" fill="black"/>
<path d="M59.1169 51.4832H55.9473L55.9777 51.3718C56.0997 50.8856 56.1911 50.3793 56.252 49.883V49.802H59.3607V49.9033C59.3099 50.4097 59.2388 50.916 59.1372 51.4224V51.4933L59.1169 51.4832ZM56.1708 51.2907H58.9544C59.0356 50.8553 59.0966 50.4198 59.1474 49.964H56.4044C56.3536 50.4097 56.2724 50.8553 56.1708 51.2907Z" fill="black"/>
<path d="M33.6991 46.0857H30.7327C30.6412 46.5819 30.5803 47.0883 30.5498 47.5947H33.4655C33.5061 47.0883 33.5874 46.5819 33.6991 46.0857Z" fill="black"/>
<path d="M33.5458 47.6754H30.4473V47.5741C30.4879 47.0678 30.5489 46.5614 30.6403 46.055V45.9841H33.8099L33.7896 46.0955C33.6779 46.5817 33.5966 47.088 33.5559 47.5843V47.6754H33.5458ZM30.6403 47.4931H33.3731C33.4137 47.0475 33.4848 46.612 33.5763 46.1664H30.8028C30.7317 46.6019 30.6708 47.0475 30.6403 47.4931Z" fill="black"/>
<path d="M35.9652 41.4062L33.9029 39.3503C33.5778 39.7352 33.2628 40.1403 32.9784 40.5656L35.0813 42.662C35.3455 42.2265 35.6401 41.8113 35.9652 41.4163V41.4062Z" fill="black"/>
<path d="M35.1016 42.804L32.8564 40.5658L32.8971 40.5051C33.1815 40.0797 33.4965 39.6746 33.8317 39.2898L33.8927 39.2087L36.0769 41.3963L36.0261 41.457C35.7111 41.852 35.4165 42.2672 35.1524 42.7027L35.0914 42.804H35.1016ZM33.1003 40.5456L35.0711 42.5103C35.3048 42.1255 35.5689 41.7609 35.8432 41.4165L33.913 39.4923C33.6184 39.8468 33.3441 40.2012 33.1003 40.5557V40.5456Z" fill="black"/>
<path d="M38.8183 38.8746L36.7255 36.7883C36.309 37.082 35.9026 37.3859 35.5166 37.7201L37.5789 39.7759C37.9751 39.4519 38.3916 39.148 38.8183 38.8847V38.8746Z" fill="black"/>
<path d="M37.5807 39.8975L35.3965 37.7201L35.4676 37.6594C35.8536 37.3252 36.26 37.0112 36.6765 36.7175L36.7375 36.677L38.9725 38.905L38.8709 38.9658C38.4442 39.2393 38.0277 39.533 37.6416 39.857L37.5807 39.9077V39.8975ZM35.6606 37.7303L37.5908 39.6545C37.9363 39.3709 38.302 39.1076 38.6779 38.8645L36.7172 36.9099C36.3616 37.1631 36.006 37.4366 35.6606 37.7303Z" fill="black"/>
<path d="M53.7627 55.899L55.825 57.9549C56.1602 57.57 56.465 57.1751 56.7596 56.7598L54.6669 54.6736C54.3926 55.1091 54.0979 55.5142 53.7729 55.9091L53.7627 55.899Z" fill="black"/>
<path d="M55.8248 58.0866L53.6406 55.9092L53.6914 55.8484C54.0165 55.4636 54.3111 55.0484 54.5753 54.623L54.6362 54.5217L56.8712 56.7498L56.8306 56.8105C56.536 57.2258 56.2312 57.6309 55.8959 58.0157L55.835 58.0866H55.8248ZM53.8844 55.8889L55.8147 57.8132C56.1093 57.4688 56.3836 57.1144 56.6376 56.7599L54.6769 54.8053C54.433 55.18 54.1689 55.5446 53.8844 55.8889Z" fill="black"/>
<path d="M50.8683 58.3899L52.9712 60.4863C53.3877 60.2027 53.7941 59.8989 54.1801 59.5647L52.1179 57.5088C51.7216 57.8329 51.3051 58.1266 50.8683 58.3899Z" fill="black"/>
<path d="M52.961 60.608L50.7158 58.3698L50.8174 58.3091C51.2543 58.0457 51.6708 57.752 52.067 57.4381L52.1279 57.3875L54.3223 59.575L54.241 59.6358C53.855 59.97 53.4385 60.2738 53.0219 60.5574L52.961 60.5979V60.608ZM51.0104 58.4103L52.9813 60.3751C53.3369 60.1219 53.6924 59.8586 54.048 59.5649L52.1178 57.6305C51.7622 57.9141 51.3965 58.1673 51.0206 58.4103H51.0104Z" fill="black"/>
<path d="M35.1924 54.7032L33.0996 56.7895C33.3942 57.2047 33.699 57.5997 34.0342 57.9845L36.0965 55.9287C35.7714 55.5438 35.4667 55.1286 35.1924 54.6931V54.7032Z" fill="black"/>
<path d="M34.0345 58.1269L33.9736 58.056C33.6383 57.6711 33.3234 57.266 33.0288 56.8508L32.9882 56.7901L35.2232 54.562L35.2841 54.6633C35.5584 55.0886 35.853 55.4937 36.1781 55.8887L36.2289 55.9495L34.0447 58.1269H34.0345ZM33.2218 56.8103C33.4758 57.1648 33.7501 57.5192 34.0447 57.8636L35.9749 55.9393C35.6905 55.595 35.4263 55.2304 35.1825 54.8557L33.2218 56.8103Z" fill="black"/>
<path d="M37.743 57.5397L35.6807 59.5955C36.0667 59.9196 36.4731 60.2234 36.8998 60.507L39.0027 58.4106C38.5658 58.1473 38.1392 57.8536 37.743 57.5295V57.5397Z" fill="black"/>
<path d="M36.9096 60.6384L36.8486 60.5979C36.4219 60.3143 36.0156 60.0105 35.6194 59.6763L35.5381 59.6155L37.7324 57.428L37.7934 57.4786C38.1896 57.7926 38.6061 58.0863 39.043 58.3496L39.1446 58.4103L36.9096 60.6485V60.6384ZM35.8124 59.5953C36.1578 59.8788 36.5235 60.1523 36.8791 60.3953L38.8499 58.4306C38.4639 58.1977 38.0982 57.9344 37.7426 57.6609L35.8022 59.5953H35.8124Z" fill="black"/>
<path d="M54.7692 42.6928L56.8721 40.5964C56.5877 40.171 56.2829 39.7659 55.9578 39.3811L53.8955 41.437C54.2206 41.832 54.5051 42.2573 54.7692 42.6928Z" fill="black"/>
<path d="M54.7481 42.845L54.6872 42.7437C54.423 42.3083 54.1284 41.893 53.8135 41.4981L53.7627 41.4373L55.9571 39.2498L56.018 39.3308C56.3431 39.7257 56.658 40.1308 56.9425 40.5562L56.9831 40.617L54.738 42.845H54.7481ZM54.0065 41.4474C54.2808 41.8019 54.5449 42.1665 54.7786 42.5513L56.7495 40.5866C56.4955 40.222 56.2314 39.8675 55.9469 39.5131L54.0065 41.4474Z" fill="black"/>
<path d="M52.28 39.7964L54.3423 37.7406C53.9563 37.4064 53.5601 37.0924 53.1436 36.8088L51.0508 38.8951C51.4876 39.1685 51.894 39.4622 52.2902 39.7964H52.28Z" fill="black"/>
<path d="M52.2902 39.9174L52.2293 39.8668C51.8432 39.5427 51.4267 39.249 51 38.9756L50.8984 38.9148L53.1334 36.6868L53.1944 36.7273C53.6109 37.021 54.0173 37.3349 54.4033 37.6691L54.4744 37.7299L52.2801 39.9073L52.2902 39.9174ZM51.1931 38.8743C51.5689 39.1174 51.9347 39.3807 52.2801 39.6642L54.2103 37.74C53.8649 37.4463 53.5195 37.1729 53.1538 36.9197L51.1931 38.8743Z" fill="black"/>
<path d="M59.8286 48.5869C59.8286 43.2497 56.9536 38.3176 52.2906 35.6743C51.7826 35.3806 51.2543 35.1173 50.7057 34.8844H50.6753C50.5127 34.8034 50.3603 34.7527 50.1978 34.6818C49.3851 34.378 48.552 34.1451 47.7088 33.983C47.4752 33.9425 47.2415 33.902 46.9977 33.8615C46.8047 33.8311 46.6218 33.8109 46.4288 33.7906C46.0529 33.7501 45.677 33.7299 45.2909 33.7197C45.169 33.7197 45.037 33.7197 44.9151 33.7197H44.7627C36.5338 33.8007 29.9304 40.5051 30.0015 48.7084C30.0117 50.3288 30.2962 51.9289 30.8346 53.4582C31.2003 54.5114 31.688 55.5242 32.2873 56.4762C36.6659 63.4236 45.87 65.5301 52.8391 61.1652C57.1771 58.451 59.8184 53.7012 59.8184 48.5869H59.8286ZM30.7838 51.3922C30.6822 50.8959 30.6111 50.3896 30.5705 49.8832C30.5298 49.4578 30.5095 49.0223 30.5095 48.5869C30.5095 48.2527 30.5298 47.9184 30.5501 47.5842C30.7635 44.5561 31.9318 41.6698 33.9026 39.3405C34.4004 38.7531 34.9389 38.2062 35.5179 37.71C37.8342 35.7148 40.7397 34.5097 43.7976 34.2666C44.1735 34.2362 44.5493 34.216 44.9151 34.216C45.3113 34.216 45.7075 34.2362 46.0935 34.2666C48.6231 34.4692 51.0613 35.3401 53.1338 36.7985C53.5503 37.0922 53.9566 37.396 54.3325 37.7302C55.2976 38.5708 56.151 39.5228 56.8621 40.5862C57.9796 42.2369 58.7314 44.1105 59.0768 46.0651C59.1682 46.5614 59.2292 47.0677 59.2597 47.5741C59.28 47.9083 59.3003 48.2425 59.3003 48.5767C59.3003 49.0122 59.28 49.4477 59.2394 49.873C59.1987 50.3794 59.1276 50.8858 59.026 51.382C58.64 53.3063 57.8679 55.1292 56.7402 56.7496C56.4456 57.1648 56.1408 57.5699 55.8056 57.9446C53.3471 60.8107 49.8524 62.583 46.0834 62.8869C45.6973 62.9172 45.3011 62.9375 44.9049 62.9375C44.529 62.9375 44.1531 62.9172 43.7874 62.8869C41.3188 62.6944 38.9415 61.8741 36.8894 60.4968C35.4062 59.4942 34.116 58.2383 33.0899 56.7699C31.9521 55.1495 31.1597 53.3063 30.7736 51.3719L30.7838 51.3922Z" fill="black"/>
<path d="M44.9141 63.5449C36.6345 63.5449 29.9193 56.8506 29.9092 48.5866C29.9092 40.4238 36.5735 33.7194 44.7617 33.6384H45.29C45.7167 33.6384 46.0926 33.6688 46.438 33.7093C46.631 33.7296 46.824 33.76 47.0069 33.7802C47.2406 33.8106 47.4844 33.8511 47.718 33.9017C48.5714 34.0638 49.4146 34.2967 50.2273 34.6107C50.3899 34.6714 50.5524 34.7322 50.7048 34.8031H50.7556C56.2923 37.183 59.8886 42.5911 59.9089 48.5967C59.8988 56.8506 53.1836 63.5449 44.904 63.555L44.9141 63.5449ZM44.9141 33.8207H44.7719C36.6751 33.9017 30.1022 40.5251 30.1022 48.5967C30.1327 56.7291 36.7767 63.3018 44.9344 63.2714C53.0922 63.241 59.6854 56.6177 59.6549 48.4853C59.6346 42.6114 56.1094 37.3046 50.6845 34.9955H50.6743L50.6438 34.9753C50.4915 34.9145 50.3289 34.8537 50.1664 34.7828C49.3638 34.479 48.5308 34.2461 47.6876 34.084C47.4539 34.0435 47.2101 34.003 46.9866 33.9625C46.7936 33.9321 46.6107 33.9119 46.4177 33.8916C46.0824 33.8612 45.7167 33.8308 45.29 33.8207H45.1579C45.0767 33.8207 44.9954 33.8207 44.9141 33.8207ZM44.9141 63.0486C44.5687 63.0486 44.203 63.0284 43.7865 62.998C43.2785 62.9575 42.7706 62.8967 42.2626 62.7954C39.8143 62.3397 37.5183 61.2662 35.6186 59.666C34.6331 58.8356 33.7595 57.8937 33.028 56.8405C31.88 55.2099 31.0876 53.3566 30.7016 51.402C30.6 50.8956 30.5289 50.3893 30.4882 49.8829C30.4476 49.4272 30.4273 48.9917 30.4273 48.5765C30.4273 48.2726 30.4375 47.9587 30.4679 47.5637C30.6711 44.5153 31.8597 41.6088 33.8509 39.2693C34.6839 38.2869 35.6389 37.4261 36.6954 36.6868C38.7984 35.2284 41.2569 34.3575 43.8169 34.1651C44.2436 34.1347 44.5992 34.1144 44.9446 34.1144C45.3103 34.1144 45.6964 34.1347 46.1332 34.1651C46.6412 34.2056 47.1491 34.2765 47.6571 34.3676C49.6584 34.7423 51.5582 35.5424 53.2243 36.7071C54.7075 37.7401 55.9774 39.0262 56.9831 40.515C58.3952 42.6114 59.2283 45.0318 59.401 47.5536C59.4314 47.9384 59.4416 48.2625 59.4416 48.5663C59.4416 48.9816 59.4213 49.4069 59.3806 49.8728C59.34 50.3791 59.2587 50.8855 59.1673 51.3919C58.7813 53.3262 57.999 55.1694 56.8612 56.7898C56.1297 57.8431 55.2561 58.7951 54.2706 59.6255C52.3709 61.2257 50.0953 62.3093 47.6469 62.7752C47.1491 62.8663 46.6412 62.9372 46.1231 62.9777C45.6761 63.0182 45.29 63.0284 44.9243 63.0284L44.9141 63.0486ZM44.9141 34.3271C44.5789 34.3271 44.2233 34.3372 43.7966 34.3777C43.2887 34.4182 42.7909 34.479 42.2931 34.5702C40.3121 34.9347 38.4225 35.7146 36.7666 36.8691C36.35 37.1527 35.9538 37.4666 35.5678 37.7907C34.9887 38.2869 34.4503 38.8338 33.9525 39.4111C33.6274 39.7959 33.3226 40.201 33.0382 40.6163C31.9105 42.267 31.1587 44.1406 30.8032 46.1054C30.7117 46.6016 30.6508 47.0978 30.6203 47.5941C30.5898 47.9789 30.5797 48.2929 30.5797 48.5866C30.5797 48.9917 30.6 49.417 30.6406 49.8728C30.854 52.3439 31.7277 54.7137 33.1499 56.7493C33.8814 57.7823 34.7449 58.7242 35.71 59.5445C36.0961 59.8686 36.5024 60.1724 36.9189 60.456C38.5342 61.5396 40.3527 62.2789 42.2728 62.6334C42.7706 62.7245 43.2684 62.7853 43.7763 62.8258C44.1928 62.8562 44.5484 62.8764 44.8938 62.8764C45.2595 62.8764 45.6456 62.8562 46.0723 62.8258C46.5802 62.7853 47.078 62.7144 47.5758 62.6233C49.9835 62.1675 52.2388 61.1041 54.1081 59.5243C54.6973 59.028 55.2357 58.4912 55.7335 57.914C56.0586 57.5291 56.3736 57.1342 56.658 56.7189C58.0701 54.7036 58.9336 52.3439 59.147 49.893C59.1876 49.4373 59.2079 49.0221 59.2079 48.6068C59.2079 48.303 59.1978 47.9891 59.1673 47.6143C59.1368 47.1181 59.0657 46.6219 58.9844 46.1256C58.639 44.171 57.8873 42.3177 56.7799 40.677C56.0688 39.6238 55.2256 38.6718 54.2605 37.8413C53.8744 37.5071 53.4782 37.2033 53.0617 36.9096C51.4159 35.7551 49.5467 34.9753 47.5656 34.6005C47.0679 34.5094 46.5701 34.4385 46.0621 34.398C45.6253 34.3474 45.2392 34.3271 44.8837 34.3271H44.9141Z" fill="black"/>
<path d="M44.6095 45.5488C44.7111 45.5488 44.8127 45.5387 44.9143 45.5387C44.9752 45.5387 45.0362 45.5387 45.1073 45.5387V37.6292H44.9143C44.8127 37.6292 44.7111 37.6292 44.6095 37.6292V45.5387V45.5488Z" fill="black"/>
<path d="M44.5195 45.6501V37.5481H44.7024C44.8141 37.5481 44.9259 37.5481 45.0376 37.5481H45.2103V45.6399H45.0681C44.9157 45.6197 44.7735 45.6197 44.6211 45.6399H44.5195V45.6501ZM44.7024 37.7304V45.4475C44.804 45.4475 44.9157 45.4475 45.0173 45.4475V37.7304H44.7024Z" fill="black"/>
<path d="M45.1073 51.6454C45.0463 51.6454 44.9854 51.6454 44.9143 51.6454C44.8127 51.6454 44.7111 51.6454 44.6095 51.6353V59.5448C44.7111 59.5448 44.8127 59.5448 44.9143 59.5448C44.9752 59.5448 45.0362 59.5448 45.1073 59.5448V51.6353V51.6454Z" fill="black"/>
<path d="M44.9157 59.6457C44.8446 59.6457 44.7735 59.6457 44.7024 59.6457H44.5195V51.5437H44.6211C44.7735 51.564 44.9259 51.5741 45.0681 51.564H45.2002V59.6558H44.9157V59.6457ZM44.7024 59.4634C44.804 59.4634 44.9056 59.4634 45.0173 59.4634V51.7463C44.9157 51.7463 44.804 51.7463 44.7024 51.7463V59.4634Z" fill="black"/>
<path d="M41.9083 49.2148C41.8778 49.0527 41.8575 48.8805 41.8473 48.7185H33.9131C33.9131 48.8907 33.9131 49.0527 33.9334 49.2148H41.9083Z" fill="black"/>
<path d="M42.0191 49.3056H33.8512V49.2145C33.8512 49.0423 33.8411 48.8803 33.8411 48.7081V48.6169H41.948V48.7081C41.948 48.8701 41.9683 49.0322 41.9988 49.1942L42.0191 49.3056ZM34.0239 49.1233H41.8058C41.7855 49.022 41.7753 48.9208 41.7753 48.8094H34.0239C34.0239 48.9106 34.0239 49.022 34.0239 49.1233Z" fill="black"/>
<path d="M47.9819 48.7087C47.9819 48.8708 47.9615 49.0429 47.9209 49.205H55.8856C55.8856 49.0429 55.8958 48.8708 55.8958 48.7087H47.9717H47.9819Z" fill="black"/>
<path d="M55.9784 49.3056H47.8105L47.8309 49.1942C47.8613 49.0322 47.8817 48.8701 47.8817 48.7081V48.6169H55.9886V48.7081C55.9886 48.8803 55.9886 49.0423 55.9784 49.2145V49.3056ZM48.0239 49.1233H55.7956C55.7956 49.022 55.7956 48.9106 55.7956 48.8094H48.0544C48.0544 48.9208 48.034 49.022 48.0137 49.1233H48.0239Z" fill="black"/>
<path d="M42.3957 46.8553C42.4871 46.7136 42.5989 46.592 42.7208 46.4705L37.113 40.8801C36.9911 41.0017 36.8793 41.1232 36.7676 41.2447L42.3957 46.8553Z" fill="black"/>
<path d="M42.4061 46.9969L36.6357 41.2445L36.6967 41.1838C36.8084 41.0622 36.9304 40.9306 37.0421 40.8091L37.1031 40.7483L42.8328 46.4602L42.7718 46.521C42.6601 46.6324 42.5585 46.764 42.4569 46.8957L42.3959 46.9969H42.4061ZM36.8897 41.2445L42.3756 46.7134C42.4366 46.6222 42.5077 46.5412 42.5788 46.4602L37.1031 41.0015C37.0319 41.0825 36.9608 41.1534 36.8897 41.2344V41.2445Z" fill="black"/>
<path d="M47.0484 50.7843C46.9265 50.9058 46.7944 51.0071 46.6624 51.0982L52.2905 56.7089C52.4124 56.5975 52.5445 56.4861 52.6562 56.3645L47.0484 50.7742V50.7843Z" fill="black"/>
<path d="M52.2901 56.841L46.5198 51.0886L46.6112 51.0278C46.7433 50.9366 46.8652 50.8252 46.9871 50.7138L47.048 50.6531L52.7778 56.365L52.7168 56.4257C52.5949 56.5473 52.473 56.6587 52.3511 56.7701L52.3003 56.8308L52.2901 56.841ZM46.8144 51.1088L52.3003 56.5878C52.3816 56.5169 52.4527 56.446 52.5339 56.365L47.0582 50.9063C46.9769 50.9772 46.8957 51.048 46.8144 51.1088Z" fill="black"/>
<path d="M43.1074 51.0577C42.9753 50.9564 42.8432 50.845 42.7213 50.7336L37.1135 56.324C37.2354 56.4455 37.3573 56.5569 37.4793 56.6683L43.0972 51.0678L43.1074 51.0577Z" fill="black"/>
<path d="M37.4876 56.7897L37.4267 56.7289C37.3048 56.6175 37.1727 56.496 37.061 56.3846L37 56.3238L42.7297 50.6018L42.7907 50.6626C42.9024 50.774 43.0345 50.8854 43.1666 50.9765L43.2478 51.0373L37.4876 56.7796V56.7897ZM37.254 56.3137C37.3251 56.3846 37.4064 56.4555 37.4876 56.5365L42.9735 51.0677C42.8923 51.0069 42.811 50.936 42.7297 50.8651L37.254 56.3238V56.3137Z" fill="black"/>
<path d="M47.0591 46.4096C47.181 46.5311 47.2928 46.6526 47.3842 46.7944L53.0022 41.1939C52.8904 41.0724 52.7685 40.9407 52.6568 40.8293L47.049 46.4197L47.0591 46.4096Z" fill="black"/>
<path d="M47.3831 46.9258L47.3222 46.8346C47.2307 46.703 47.119 46.5814 47.0072 46.4599L46.9463 46.3992L52.676 40.6873L52.737 40.748C52.8589 40.8695 52.9706 40.9911 53.0925 41.1126L53.1535 41.1734L47.3933 46.9157L47.3831 46.9258ZM47.1901 46.4093C47.2612 46.4903 47.3323 46.5713 47.3933 46.6625L52.8792 41.1835C52.8081 41.1025 52.737 41.0316 52.6557 40.9506L47.1799 46.4093H47.1901Z" fill="black"/>
<path d="M37.7432 57.5394C39.4804 58.9269 41.5833 59.7776 43.798 60.0004C44.1739 60.0308 44.5498 60.051 44.9155 60.051C45.3117 60.051 45.7079 60.0308 46.094 59.9903C48.2985 59.7675 50.3912 58.9066 52.1183 57.509C52.7177 57.0229 53.2663 56.4862 53.7641 55.8988C54.0891 55.5038 54.3838 55.0886 54.6581 54.6531C55.7959 52.8301 56.4054 50.7236 56.4054 48.5766C56.4054 48.2424 56.3851 47.9082 56.3546 47.574C56.1616 45.3257 55.2981 43.1888 53.886 41.4266C52.291 39.4416 50.0865 38.0339 47.6077 37.4364C47.1099 37.3149 46.6019 37.2237 46.094 37.1731C45.6978 37.1326 45.3015 37.1123 44.9155 37.1123C44.5396 37.1123 44.1637 37.1326 43.798 37.1731C42.0303 37.3452 40.3338 37.9225 38.8201 38.8644C37.733 39.5429 36.7578 40.3936 35.9552 41.3962C35.6301 41.8013 35.3457 42.2166 35.0714 42.652C34.157 44.1509 33.6085 45.8422 33.4561 47.5841C33.4256 47.9183 33.4053 48.2525 33.4053 48.5867C33.4053 50.754 34.025 52.8707 35.1831 54.7037C35.4574 55.1291 35.752 55.5443 36.0873 55.9393C36.5851 56.5267 37.1337 57.0634 37.7432 57.5496V57.5394ZM33.9132 48.5867C33.9132 45.8726 34.9291 43.2496 36.7578 41.2342C36.8695 41.1127 36.9813 40.981 37.1032 40.8696C39.0944 38.8644 41.7764 37.7098 44.6006 37.6288C44.7022 37.6288 44.8038 37.6288 44.9053 37.6288H45.0984C47.9327 37.6794 50.6452 38.8238 52.6567 40.819C52.7786 40.9405 52.8904 41.062 53.0021 41.1836C54.8714 43.1989 55.8975 45.8422 55.8975 48.5867V48.7083C55.8975 48.8804 55.8975 49.0425 55.8873 49.2045C55.7349 51.9085 54.5869 54.4607 52.6466 56.3646C52.5246 56.4862 52.4027 56.5976 52.2808 56.709C50.31 58.4914 47.76 59.494 45.0984 59.5447C45.0374 59.5447 44.9765 59.5447 44.9053 59.5447C44.8038 59.5447 44.7022 59.5447 44.6006 59.5447C41.9491 59.4738 39.4194 58.4509 37.4791 56.6583C37.3572 56.5469 37.2251 56.4355 37.1133 56.314C35.2136 54.41 34.0758 51.8782 33.9234 49.2045C33.9234 49.0425 33.9132 48.8703 33.9031 48.7083C33.9031 48.6678 33.9031 48.6272 33.9031 48.5867H33.9132Z" fill="black"/>
<path d="M44.9147 60.1425C44.549 60.1425 44.163 60.1222 43.7871 60.0817C43.2791 60.0311 42.761 59.9501 42.2632 59.8286C40.587 59.4336 39.0225 58.674 37.6815 57.6005C36.6656 56.8004 35.8021 55.8383 35.1112 54.7446C34.1766 53.2761 33.5874 51.6152 33.3944 49.8834C33.3436 49.4479 33.3232 49.0124 33.3232 48.5769C33.3232 48.263 33.3436 47.9288 33.374 47.5642C33.5264 45.802 34.0852 44.0905 35.0096 42.5815C35.2738 42.146 35.5786 41.7206 35.9036 41.3257C36.7164 40.323 37.6916 39.4622 38.7787 38.7735C40.2924 37.8317 42.0092 37.2443 43.7871 37.062C44.5592 36.981 45.3414 36.981 46.1135 37.062C46.6316 37.1126 47.1396 37.2038 47.6374 37.3253C48.8666 37.619 50.0349 38.1152 51.1016 38.7938C52.6356 39.766 53.9157 41.0725 54.8605 42.622C55.7646 44.1208 56.3132 45.8121 56.4656 47.554C56.4961 47.9186 56.5164 48.2528 56.5164 48.5668C56.5164 49.0023 56.4859 49.4378 56.4453 49.8732C56.2523 51.5848 55.6732 53.2356 54.7487 54.6939C54.4744 55.1294 54.1697 55.5446 53.8446 55.9396C52.2496 57.8638 50.0756 59.2209 47.6374 59.7982C47.1396 59.9197 46.6316 60.0108 46.1135 60.0615C45.7173 60.1121 45.3109 60.1324 44.9249 60.1324L44.9147 60.1425ZM44.9147 37.2139C44.549 37.2139 44.1833 37.2342 43.8074 37.2645C42.06 37.4367 40.3635 38.014 38.8701 38.9457C38.4434 39.2191 38.0269 39.5128 37.6408 39.8369C36.6656 40.6471 35.8224 41.6193 35.162 42.703C34.2579 44.1917 33.7093 45.8628 33.5569 47.5946C33.5264 47.949 33.5061 48.2731 33.5061 48.5871C33.5061 49.0124 33.5366 49.4479 33.5772 49.8732C33.7702 51.5747 34.3493 53.2052 35.2636 54.6534C35.9443 55.7269 36.7976 56.6789 37.7932 57.4688C38.1894 57.7828 38.606 58.0765 39.0428 58.3398C41.1559 59.6057 43.6245 60.1526 46.083 59.8994C46.591 59.8488 47.0888 59.7577 47.5764 59.6463C48.7142 59.3728 49.8114 58.9272 50.8172 58.3196C52.341 57.398 53.6312 56.132 54.576 54.623C55.4802 53.1849 56.0491 51.5645 56.2421 49.8834C56.2929 49.458 56.3132 49.0327 56.3132 48.5972C56.3132 48.2832 56.3031 47.9591 56.2624 47.6047C56.2218 47.1084 56.1405 46.6021 56.0288 46.1159C55.7646 44.931 55.3075 43.7968 54.6776 42.7536C53.7531 41.2244 52.4934 39.9382 50.9797 38.9862C49.9333 38.3178 48.7752 37.8317 47.5663 37.5481C47.0786 37.4266 46.5707 37.3456 46.0729 37.2848C45.6767 37.2443 45.2906 37.224 44.8944 37.2139H44.9147ZM44.9147 59.6463C44.8436 59.6463 44.7725 59.6463 44.7014 59.6463H44.61C41.9381 59.5754 39.3882 58.5424 37.4275 56.7397C37.3056 56.6283 37.1735 56.5067 37.0618 56.3953C35.1417 54.4812 34.0039 51.9291 33.8515 49.2251C33.8515 49.0529 33.8414 48.8909 33.8414 48.7187V48.5972C33.8414 45.8526 34.8573 43.2195 36.7062 41.1839C36.818 41.0623 36.9399 40.9307 37.0516 40.8092C39.053 38.7837 41.7654 37.619 44.6201 37.538H44.7116C44.8233 37.538 44.9351 37.538 45.0468 37.538H45.1281C47.9929 37.5886 50.7257 38.733 52.7474 40.7585C52.8693 40.88 52.981 41.0016 53.103 41.1231C54.9824 43.1587 56.0288 45.8223 56.0288 48.5871V48.7086C56.0288 48.8807 56.0288 49.0428 56.0186 49.215C55.8662 51.9392 54.6979 54.5218 52.7474 56.4358C52.6255 56.5574 52.5036 56.6688 52.3817 56.7802C50.3905 58.5727 47.8202 59.5855 45.1484 59.6361H44.9554L44.9147 59.6463ZM44.9147 37.7304H44.61C41.8061 37.8013 39.1444 38.9558 37.1735 40.9408C37.0516 41.0623 36.9399 41.1737 36.8281 41.3054C35.0096 43.3005 34.0039 45.9033 34.0039 48.5972V48.7086C34.0039 48.8706 34.0039 49.0428 34.0242 49.2048C34.1664 51.8684 35.2941 54.38 37.1837 56.2738C37.2954 56.3953 37.4173 56.5067 37.5393 56.6181C39.4695 58.3904 41.9788 59.4032 44.61 59.4741H44.7014C44.803 59.4741 44.9147 59.4741 45.0163 59.4741H45.0976C47.7288 59.4235 50.2584 58.431 52.2191 56.6688C52.341 56.5574 52.4731 56.446 52.5848 56.3244C54.5049 54.4306 55.6427 51.8987 55.7951 49.215C55.7951 49.0529 55.8053 48.8807 55.8154 48.7187V48.6073C55.8154 45.883 54.7894 43.26 52.9404 41.2548C52.8287 41.1332 52.7169 41.0117 52.595 40.8902C50.6038 38.9052 47.9117 37.7709 45.0976 37.7304H44.9046H44.9147Z" fill="black"/>
<path d="M42.7206 50.7342C42.8425 50.8557 42.9644 50.957 43.1067 51.0583C43.5435 51.3824 44.0616 51.5849 44.6102 51.6356C44.7118 51.6356 44.8134 51.6457 44.915 51.6457C44.9759 51.6457 45.0369 51.6457 45.108 51.6457C45.6668 51.6153 46.195 51.4229 46.6522 51.1089C47.3024 50.6633 47.7494 49.9848 47.9119 49.2151C47.9424 49.0531 47.9627 48.8809 47.9729 48.7188V48.5973C47.9729 47.9492 47.7697 47.3213 47.3836 46.7946C47.2821 46.663 47.1703 46.5313 47.0586 46.4098C46.5303 45.8933 45.8395 45.5895 45.108 45.5388C45.0471 45.5388 44.9861 45.5388 44.915 45.5388C44.8134 45.5388 44.7118 45.5388 44.6102 45.5489C43.8889 45.6198 43.2184 45.9439 42.7105 46.4705C42.5886 46.5921 42.487 46.7237 42.3854 46.8554C42.0298 47.3618 41.8368 47.9694 41.8368 48.5973V48.7188C41.8571 49.4784 42.172 50.2076 42.7105 50.7443H42.7308L42.7206 50.7342ZM44.915 46.0249C46.3373 46.0249 47.4852 47.1693 47.4852 48.5872C47.4852 50.005 46.3373 51.1494 44.915 51.1494C43.4927 51.1494 42.3447 50.005 42.3447 48.5872C42.3447 47.1693 43.4927 46.0249 44.915 46.0249Z" fill="black"/>
<path d="M44.9149 51.7466C44.8133 51.7466 44.7015 51.7466 44.5999 51.7264C44.0412 51.6757 43.5028 51.463 43.0456 51.1288C42.9034 51.0276 42.7713 50.9162 42.6494 50.7946C42.2227 50.3591 41.9281 49.8123 41.8062 49.2249C41.7757 49.0527 41.7554 48.8805 41.7452 48.7084V48.5868C41.7452 46.9664 42.9745 45.6094 44.5898 45.4473C44.7523 45.4271 44.9047 45.4271 45.0673 45.4473H45.1079C45.8597 45.498 46.581 45.8119 47.1194 46.3385C47.2413 46.4601 47.353 46.5917 47.4546 46.7335C47.8508 47.2703 48.0642 47.9286 48.0642 48.597V48.7185C48.0642 48.8907 48.0439 49.0628 48.0032 49.235C47.7188 50.6225 46.5302 51.6555 45.1079 51.7466H45.0774C45.0165 51.7466 44.9555 51.7466 44.9047 51.7466H44.9149ZM44.9149 45.6296C44.8133 45.6296 44.7218 45.6296 44.6203 45.6397C43.9193 45.7106 43.2691 46.0246 42.7815 46.531C42.6697 46.6424 42.5681 46.774 42.4665 46.9057C42.1211 47.4019 41.9383 47.9893 41.9383 48.597C41.9383 48.6172 41.9383 48.6375 41.9383 48.6577V48.7084C41.9383 48.8704 41.9586 49.0324 41.9891 49.1945C42.2532 50.4604 43.3199 51.4225 44.6101 51.5542C44.7625 51.5744 44.9149 51.5744 45.0571 51.5542H45.0977C45.6362 51.5238 46.1543 51.3415 46.6013 51.0377C46.7333 50.9465 46.8553 50.8351 46.9772 50.7237C47.5359 50.1971 47.861 49.4679 47.8813 48.7084V48.597C47.8813 47.7969 47.5562 47.0373 46.9873 46.4803C46.4794 45.9841 45.8089 45.6803 45.0876 45.6397H45.0469C45.0469 45.6397 44.9657 45.6397 44.9149 45.6397V45.6296ZM44.9149 51.2504C43.4418 51.2504 42.2532 50.0654 42.2532 48.597C42.2532 47.1285 43.4418 45.9436 44.9149 45.9436C46.3879 45.9436 47.5765 47.1285 47.5765 48.597C47.5765 50.0654 46.3879 51.2504 44.9149 51.2504ZM44.9149 46.1259C43.5434 46.1259 42.4361 47.2298 42.4361 48.597C42.4361 49.9642 43.5434 51.0681 44.9149 51.0681C46.2863 51.0681 47.3937 49.9642 47.3937 48.597C47.3937 47.2298 46.2863 46.1259 44.9149 46.1259Z" fill="black"/>
<path d="M59.8697 30.418C60.6215 30.0331 62.6431 29.2331 63.3949 29.9724L62.9885 30.5699C62.633 30.3674 61.7796 30.0838 60.5199 30.9244L60.4386 30.9851V31.0864C60.4386 31.3497 60.5605 31.5928 60.7637 31.7548C60.9974 31.9371 61.3225 32.0283 61.739 32.0283C62.125 32.0283 62.5111 31.9574 62.887 31.8561C62.9987 31.8257 63.0597 31.7143 63.0292 31.613C62.9987 31.5016 62.887 31.4409 62.7854 31.4712C61.7085 31.7447 61.231 31.613 61.0278 31.4409C60.9364 31.3801 60.8755 31.289 60.845 31.1877C62.1555 30.3572 62.8666 30.9649 62.8971 30.9851L63.0698 31.1472L63.8825 29.9521L63.8013 29.8407C62.8057 28.4533 59.7986 29.9926 59.6767 30.0534C59.5751 30.104 59.5446 30.2256 59.5954 30.3268C59.6462 30.4281 59.7681 30.4585 59.8697 30.4079V30.418Z" fill="black"/>
<path d="M61.7391 32.0889C61.3124 32.0889 60.9772 31.9876 60.7435 31.8053C60.5302 31.6331 60.3981 31.3698 60.3981 31.0964V30.9748L60.4997 30.904C61.0686 30.5191 61.6172 30.3267 62.1353 30.3267C62.4299 30.3267 62.7144 30.3875 62.9684 30.5292L63.3341 29.9925C63.1411 29.8102 62.8464 29.7292 62.4502 29.7292C61.5562 29.7292 60.4184 30.195 59.8902 30.4786C59.8597 30.4989 59.819 30.509 59.7784 30.509C59.687 30.509 59.6057 30.4583 59.5651 30.3773C59.5346 30.3166 59.5244 30.2558 59.5448 30.195C59.5651 30.1343 59.6057 30.0836 59.6667 30.0532C59.7276 30.0229 61.2108 29.2532 62.4604 29.2532C63.1004 29.2532 63.5677 29.4557 63.8522 29.8507L63.9538 29.9925L63.0903 31.2584L62.8769 31.066C62.6636 30.9141 62.4096 30.8331 62.1455 30.8432C61.7086 30.8634 61.2718 31.0052 60.9061 31.2483C60.9365 31.3293 60.9873 31.4002 61.0585 31.4508C61.3429 31.6736 61.9524 31.6838 62.7753 31.4711C62.9074 31.4407 63.0395 31.5217 63.0699 31.6534C63.0801 31.7142 63.0699 31.7749 63.0395 31.8357C63.009 31.8964 62.948 31.937 62.8871 31.9471C62.5112 32.0484 62.115 32.1091 61.7188 32.1192L61.7391 32.0889ZM60.4895 31.0154V31.0964C60.4895 31.3394 60.6013 31.5825 60.8045 31.7344C61.2007 32.0484 61.9017 32.0889 62.8871 31.8357C62.9277 31.8357 62.9582 31.8053 62.9785 31.7648C62.9988 31.7243 63.009 31.6838 62.9988 31.6433C62.9785 31.5622 62.8972 31.5116 62.8058 31.5319C61.9423 31.7547 61.3226 31.7445 61.0077 31.5015C60.9162 31.4306 60.8451 31.3293 60.8146 31.2179V31.1875L60.835 31.1673C61.3023 30.8736 61.7391 30.7217 62.1455 30.7217C62.4299 30.7115 62.7144 30.8027 62.9379 30.9748L63.0699 31.0964L63.8319 29.9722L63.7709 29.8811C63.5068 29.5064 63.0598 29.3241 62.4502 29.3241C61.2312 29.3241 59.7581 30.0836 59.6971 30.114C59.6565 30.1343 59.6362 30.1646 59.6159 30.2052C59.6057 30.2457 59.6159 30.2862 59.626 30.3166C59.6565 30.3672 59.7073 30.3976 59.7581 30.3976C59.7581 30.3976 59.8089 30.3976 59.8292 30.3773C60.3676 30.0938 61.5258 29.6279 62.4401 29.6279C62.8769 29.6279 63.202 29.7393 63.4154 29.952L63.4458 29.9824L62.9988 30.6508L62.9582 30.6305C62.7042 30.4887 62.4198 30.4178 62.1252 30.4178C61.6274 30.4178 61.0991 30.6103 60.5403 30.985L60.4692 31.0255L60.4895 31.0154Z" fill="black"/>
<path d="M40.7295 27.4204C40.7295 27.5116 40.7803 27.5926 40.8514 27.6331C40.892 27.6534 40.9327 27.6736 40.9733 27.6736C41.1155 27.6736 41.2273 27.5622 41.2273 27.4204C41.2273 27.3394 41.1867 27.2685 41.1257 27.228C41.0851 27.1976 41.0343 27.1774 40.9733 27.1672C40.8412 27.1672 40.7295 27.2786 40.7295 27.4103V27.4204Z" fill="black"/>
<path d="M40.9731 27.7646C40.9121 27.7646 40.8512 27.7444 40.8004 27.7039C40.6277 27.6228 40.5566 27.4203 40.6277 27.2583C40.709 27.0861 40.9121 27.0152 41.0747 27.0861C41.1052 27.1063 41.1356 27.1266 41.1661 27.1469C41.2474 27.2076 41.3083 27.3089 41.3083 27.4203C41.3083 27.6127 41.156 27.7646 40.9629 27.7646H40.9731ZM40.9731 27.2583C40.8817 27.2583 40.8105 27.3292 40.8105 27.4203C40.8105 27.4811 40.841 27.5317 40.8918 27.552C40.9629 27.6026 41.0645 27.5823 41.1153 27.5114C41.1661 27.4406 41.1458 27.3393 41.0747 27.2886C41.0442 27.2684 41.0137 27.2583 40.9731 27.2481V27.2583Z" fill="black"/>
<path d="M63.4447 34.1248C63.4447 33.9931 63.3431 33.8918 63.2111 33.8918C63.079 33.8918 62.9774 33.9931 62.9774 34.1248C62.9774 34.3172 63.0485 34.5096 63.1908 34.6413C63.3533 34.7729 63.5565 34.8438 63.7597 34.8438H63.8003C63.9324 34.8438 64.0238 34.7223 64.0238 34.5906C64.0238 34.459 63.9019 34.3678 63.7698 34.3678H63.7495C63.6682 34.3678 63.587 34.3375 63.5159 34.2969C63.4651 34.2463 63.4447 34.1855 63.4549 34.1146L63.4447 34.1248Z" fill="black"/>
<path d="M63.7491 34.9348C63.5155 34.9348 63.292 34.8538 63.1193 34.712C62.9567 34.5601 62.8755 34.3474 62.8856 34.1246C62.8856 33.9423 63.038 33.8005 63.2107 33.8005C63.3936 33.8005 63.5358 33.9423 63.5358 34.1246C63.5358 34.2056 63.5561 34.2259 63.5663 34.236C63.6171 34.2664 63.678 34.2867 63.739 34.2867L63.7593 34.3778V34.2867C63.9523 34.2867 64.0945 34.4386 64.0945 34.6209C64.0945 34.7829 63.9726 34.9146 63.8101 34.9348H63.7491ZM63.2107 33.9828C63.1294 33.9828 63.0685 34.0436 63.0685 34.1246C63.0685 34.2968 63.1294 34.4588 63.2513 34.5804C63.3936 34.7019 63.5866 34.7626 63.7695 34.7626H63.7898C63.871 34.7626 63.9218 34.6918 63.9218 34.6107C63.9218 34.5297 63.8507 34.4791 63.7796 34.4791H63.7491C63.6374 34.4791 63.5358 34.4487 63.4444 34.3778C63.3834 34.317 63.3428 34.2259 63.3529 34.1347C63.3529 34.0537 63.292 33.993 63.2107 33.993V33.9828Z" fill="black"/>
<path d="M78.3781 29.9012C78.114 30.9444 77.6365 31.7141 76.9457 32.2204C76.2549 32.7268 75.3202 32.98 74.1621 32.98C72.4554 32.98 71.1042 32.5141 70.1086 31.5723C69.113 30.6304 68.6152 29.3544 68.6152 27.7542C68.6152 26.1439 69.113 24.8679 70.1086 23.926C71.1042 22.9842 72.4554 22.5183 74.1621 22.5183C74.792 22.5183 75.4218 22.5892 76.0415 22.731C76.7425 22.893 77.4333 23.1158 78.1038 23.3893V25.8705H77.2403C77.0676 25.0198 76.7425 24.3919 76.2752 23.9665C75.8079 23.5412 75.1983 23.3386 74.4262 23.3386C73.4408 23.3386 72.7093 23.7032 72.2319 24.4223C71.7544 25.1413 71.5106 26.2553 71.5106 27.7542C71.5106 29.2531 71.7544 30.3671 72.2319 31.0862C72.7093 31.8052 73.451 32.1698 74.4465 32.1698C75.117 32.1698 75.6656 31.9774 76.0923 31.6128C76.519 31.2482 76.8339 30.6709 77.0269 29.9114H78.3781V29.9012Z" fill="black"/>
<path d="M77.2612 40.5459C77.058 39.6547 76.7228 39.0065 76.2453 38.6116C75.7678 38.2065 75.0973 38.0141 74.2439 38.0141C73.1976 38.0141 72.4255 38.3685 71.9277 39.0774C71.4299 39.7864 71.1962 40.9105 71.1962 42.4296C71.1962 43.9488 71.4299 45.0628 71.9074 45.7717C72.3848 46.4806 73.1061 46.8452 74.1017 46.8452C74.4573 46.8452 74.8129 46.8047 75.1583 46.7136C75.4732 46.6427 75.778 46.511 76.0523 46.3388V43.5639H74.8332V42.7537H78.4803V46.6224C77.7488 46.9667 76.9869 47.2301 76.2046 47.4124C75.4427 47.5845 74.6605 47.6655 73.8884 47.6655C72.1512 47.6655 70.7899 47.1997 69.7943 46.2679C68.7987 45.3362 68.626 44.0602 68.626 42.4398C68.626 40.8194 68.7987 39.5332 69.7943 38.6015C70.7899 37.6697 72.1512 37.2039 73.8884 37.2039C74.6097 37.2039 75.3208 37.2748 76.0218 37.4165C76.7431 37.5684 77.4542 37.7913 78.1349 38.0748V40.5561H77.2713L77.2612 40.5459Z" fill="black"/>
<path d="M108.745 47.2194V46.3991H109.771V37.9426H108.745V37.1223H112.656L115.552 43.6039L118.457 37.1223H122.368V37.9426H121.332V46.3991H122.368V47.2194H117.685V46.3991H118.711V38.7022L115.572 45.7408H113.855L110.726 38.7022V46.3991H111.752V47.2194H108.755H108.745Z" fill="black"/>
<path d="M86.4657 27.8559V31.5929H87.248V32.4436H83.9767V31.4916C83.6821 31.8562 83.3062 32.16 82.8796 32.3626C82.4427 32.555 81.9754 32.6461 81.4979 32.6461C80.736 32.6461 80.1468 32.4436 79.7404 32.0284C79.334 31.6131 79.1309 31.0359 79.1309 30.2662C79.1309 29.4256 79.4255 28.8078 80.0147 28.3825C80.6039 27.9673 81.4878 27.7546 82.6764 27.7647H83.9869V27.3292C83.9869 26.7216 83.8447 26.2861 83.5602 25.9924C83.2758 25.6987 82.8288 25.5569 82.2294 25.5569C81.7316 25.5569 81.3455 25.6582 81.0814 25.8607C80.8173 26.0633 80.6242 26.3975 80.5023 26.8532H79.7099V25.2531C80.1569 25.0911 80.6242 24.9695 81.0916 24.8986C81.5894 24.8176 82.0973 24.7771 82.6053 24.7771C83.9463 24.7771 84.9215 25.0303 85.5412 25.5265C86.1609 26.0228 86.4759 26.8026 86.4759 27.866L86.4657 27.8559ZM83.9767 30.094V28.6053H83.0421C82.5748 28.6053 82.2192 28.7268 81.9754 28.98C81.7316 29.2332 81.5995 29.5978 81.5995 30.0636C81.5995 30.5295 81.6909 30.884 81.8636 31.127C82.0364 31.3701 82.3208 31.4815 82.6865 31.4815C83.0319 31.5017 83.3773 31.36 83.6212 31.1068C83.865 30.8333 83.9869 30.4687 83.9767 30.1042V30.094Z" fill="black"/>
<path d="M88.477 32.2208V30.1345H89.2694C89.3303 30.6915 89.5437 31.1169 89.8891 31.4106C90.2446 31.7043 90.7221 31.8461 91.3215 31.8461C91.8295 31.8461 92.2155 31.7549 92.4898 31.5828C92.7539 31.4207 92.9063 31.1372 92.8962 30.8232C92.9165 30.57 92.8149 30.3168 92.6422 30.1244C92.4695 29.9624 92.1342 29.8206 91.6466 29.6991L90.6205 29.4459C89.8484 29.2534 89.2897 28.98 88.9341 28.6255C88.5786 28.2711 88.416 27.785 88.416 27.1773C88.416 26.3671 88.7005 25.7696 89.2592 25.3746C89.818 24.9796 90.6917 24.7771 91.8599 24.7771C92.3374 24.7771 92.8047 24.8176 93.2721 24.8885C93.8308 24.9695 94.3794 25.0911 94.928 25.2227V27.0963H94.1356C94.0949 26.5899 93.9121 26.2051 93.587 25.9418C93.2619 25.6784 92.8047 25.5569 92.2053 25.5569C91.7076 25.5569 91.3114 25.6379 91.0574 25.8C90.8034 25.9418 90.6612 26.2152 90.6713 26.5089C90.6612 26.7317 90.7424 26.9444 90.8948 27.1064C91.0472 27.2583 91.3114 27.3799 91.7076 27.471L92.7235 27.7343C93.7089 27.9875 94.3794 28.2913 94.7553 28.6559C95.1312 29.0205 95.314 29.5269 95.314 30.175C95.314 31.0156 95.0093 31.6334 94.4099 32.0385C93.8105 32.4436 92.8657 32.636 91.5958 32.636C91.098 32.636 90.6104 32.5955 90.1227 32.5347C89.564 32.4537 89.0154 32.3525 88.4668 32.2208H88.477Z" fill="black"/>
<path d="M99.5599 31.5827H100.342V32.4334H96.2988V31.5827H97.0709V25.5973H96.2988V24.7466H99.5599V31.5827ZM97.3452 22.9946C97.3452 22.468 97.7617 22.0325 98.2799 22.0325C98.29 22.0325 98.3002 22.0325 98.3205 22.0325C98.5745 22.0325 98.8183 22.1236 98.991 22.3059C99.1738 22.4882 99.2754 22.7414 99.2653 22.9946C99.2653 23.5212 98.8386 23.9364 98.3205 23.9466C98.0665 23.9466 97.8125 23.8554 97.6297 23.6731C97.4468 23.501 97.3452 23.2579 97.3452 23.0047V22.9946Z" fill="black"/>
<path d="M101.633 32.4336V31.5829H102.405V25.5975H101.633V24.7468H104.894V26.033C105.148 25.6279 105.503 25.3038 105.93 25.0709C106.387 24.8582 106.885 24.757 107.383 24.7772C108.226 24.7772 108.856 25.0304 109.293 25.5266C109.719 26.0229 109.933 26.7521 109.933 27.704V31.593H110.715V32.4437H106.814V31.593H107.433V27.6332C107.433 27.0053 107.352 26.5596 107.179 26.3166C107.017 26.0634 106.732 25.9419 106.336 25.9419C105.828 25.9419 105.463 26.1242 105.229 26.4888C104.995 26.8533 104.873 27.4407 104.873 28.2408V31.593H105.493V32.4437H101.612L101.633 32.4336Z" fill="black"/>
<path d="M115.745 32.6361C114.424 32.6361 113.388 32.2817 112.646 31.5829C111.905 30.8841 111.529 29.922 111.519 28.6966C111.519 27.461 111.894 26.4989 112.636 25.8102C113.388 25.1216 114.414 24.7671 115.735 24.7671C117.055 24.7671 118.091 25.1114 118.833 25.8102C119.575 26.509 119.951 27.4711 119.951 28.6966C119.951 29.922 119.575 30.8841 118.833 31.5829C118.081 32.2817 117.055 32.6361 115.735 32.626L115.745 32.6361ZM115.745 31.8462C116.263 31.8462 116.639 31.6234 116.852 31.1778C117.065 30.7322 117.177 29.9118 117.177 28.7067C117.177 27.5116 117.076 26.6812 116.862 26.2356C116.649 25.79 116.283 25.5672 115.755 25.5672C115.227 25.5672 114.851 25.79 114.637 26.2457C114.424 26.7014 114.312 27.5116 114.312 28.7067C114.312 29.9017 114.424 30.7119 114.637 31.1677C114.851 31.6234 115.227 31.8462 115.755 31.8462H115.745Z" fill="black"/>
<path d="M94.7458 42.6216V46.3485H95.528V47.1992H92.2568V46.2472C91.9622 46.6118 91.5863 46.9157 91.1596 47.1182C90.7228 47.3106 90.2555 47.4018 89.778 47.4018C89.0161 47.4018 88.4268 47.1992 88.0103 46.7941C87.5938 46.389 87.3906 45.8016 87.3906 45.0319C87.3906 44.1914 87.6852 43.5635 88.2745 43.1482C88.8637 42.733 89.7475 42.5203 90.9361 42.5305H92.2467V42.0849C92.2467 41.4873 92.1044 40.7784 91.82 40.4948C91.5355 40.2113 91.0885 40.0594 90.4891 40.0594C89.9913 40.0594 89.6053 40.1606 89.3412 40.3632C89.0669 40.5657 88.884 40.8999 88.7621 41.3557H87.9697V39.7555C88.4167 39.5935 88.884 39.472 89.3615 39.4011C89.8593 39.32 90.3672 39.2795 90.8752 39.2795C92.206 39.2795 93.1915 39.5327 93.8112 40.029C94.4309 40.5252 94.7458 41.5582 94.7458 42.6216ZM92.2568 44.8598V43.371H91.3222C90.8549 43.371 90.4993 43.4926 90.2555 43.7458C90.0117 43.9989 89.8796 44.3635 89.8796 44.8294C89.8796 45.2953 89.971 45.6598 90.1539 45.8928C90.3368 46.1257 90.611 46.2472 90.9768 46.2472C91.3222 46.2574 91.6676 46.1257 91.9114 45.8725C92.1552 45.5991 92.2771 45.2345 92.267 44.8699L92.2568 44.8598Z" fill="black"/>
<path d="M130.8 42.6216V46.3485H131.582V47.1992H128.311V46.2472C128.017 46.6118 127.641 46.9157 127.214 47.1182C126.777 47.3106 126.31 47.4018 125.832 47.4018C125.07 47.4018 124.481 47.1992 124.075 46.7941C123.668 46.389 123.455 45.8016 123.455 45.0319C123.455 44.1914 123.75 43.5635 124.339 43.1482C124.928 42.733 125.812 42.5203 127.001 42.5305H128.311V42.0849C128.311 41.4873 128.169 40.7784 127.884 40.4948C127.6 40.2113 127.153 40.0594 126.554 40.0594C126.056 40.0594 125.67 40.1606 125.406 40.3632C125.141 40.5657 124.948 40.8999 124.837 41.3557H124.044V39.7555C124.491 39.5935 124.959 39.472 125.426 39.4011C125.924 39.32 126.432 39.2795 126.94 39.2795C128.27 39.2795 129.256 39.5327 129.876 40.029C130.505 40.5252 130.81 41.5582 130.81 42.6216H130.8ZM128.311 44.8598V43.371H127.376C126.909 43.371 126.554 43.4926 126.31 43.7458C126.066 43.9989 125.934 44.3635 125.934 44.8294C125.934 45.2953 126.025 45.6598 126.208 45.8928C126.391 46.1257 126.665 46.2472 127.041 46.2472C127.387 46.2574 127.732 46.1257 127.966 45.8725C128.21 45.5991 128.331 45.2345 128.311 44.8699V44.8598Z" fill="black"/>
<path d="M96.7772 47.1992V46.3485H97.5492V40.3632H96.7772V39.5125H100.038V40.7986C100.292 40.3935 100.648 40.0695 101.064 39.8365C101.521 39.6239 102.019 39.5226 102.527 39.5428C103.37 39.5428 104 39.796 104.427 40.2923C104.854 40.7885 105.067 41.5076 105.067 42.4697V46.3586H105.849V47.1992H101.958V46.3485H102.578V42.3887C102.578 41.7506 102.497 41.3151 102.334 41.0721C102.172 40.829 101.887 40.6974 101.491 40.6974C100.983 40.6974 100.617 40.8797 100.384 41.2442C100.15 41.6088 100.028 42.1962 100.028 42.9963V46.3485H100.648V47.1992H96.7568H96.7772Z" fill="black"/>
<path d="M140.521 46.3487H141.293V47.1994H138.032V46.2474C137.839 46.612 137.545 46.9158 137.179 47.1184C136.762 47.3209 136.315 47.4121 135.848 47.4019C134.791 47.4019 133.958 47.0475 133.349 46.3487C132.739 45.6499 132.435 44.6878 132.435 43.4624C132.435 42.2369 132.739 41.2748 133.349 40.576C133.958 39.8772 134.791 39.5329 135.848 39.5329C136.305 39.5228 136.762 39.6139 137.179 39.8165C137.545 40.0089 137.839 40.3127 138.032 40.6874V37.1226H137.25V36.282H140.521V46.3487ZM138.032 43.8472V43.0978C138.032 42.2268 137.92 41.5989 137.697 41.2141C137.473 40.8292 137.118 40.6368 136.62 40.6368C136.102 40.6368 135.746 40.8393 135.533 41.2546C135.32 41.6698 135.218 42.399 135.218 43.4725C135.218 44.546 135.32 45.2853 135.533 45.7005C135.746 46.1158 136.102 46.3183 136.62 46.3183C137.138 46.3183 137.473 46.1259 137.697 45.7309C137.92 45.3359 138.032 44.708 138.032 43.8472Z" fill="black"/>
<path d="M149.513 39.4312V41.6491H148.72C148.69 41.2541 148.588 40.9604 148.395 40.7579C148.172 40.5553 147.877 40.4439 147.582 40.4642C147.054 40.4642 146.566 40.7275 146.292 41.1832C145.977 41.6592 145.825 42.5504 145.825 43.4011V46.3482H146.902V47.199H142.564V46.3482H143.336V40.3629H142.483V39.5122H145.825V40.8389C146.028 40.373 146.363 39.9679 146.79 39.6844C147.237 39.4211 147.745 39.2894 148.263 39.3096C148.405 39.3096 148.588 39.3096 148.791 39.34C148.995 39.3704 149.238 39.3907 149.513 39.4211V39.4312Z" fill="black"/>
<path d="M163.228 46.3487H164V47.1994H160.739V46.2474C160.546 46.612 160.252 46.9158 159.886 47.1184C159.469 47.3209 159.022 47.4121 158.555 47.4019C157.499 47.4019 156.655 47.0475 156.056 46.3487C155.457 45.6499 155.142 44.6878 155.142 43.4624C155.142 42.2369 155.446 41.2748 156.056 40.576C156.665 39.8772 157.499 39.5329 158.555 39.5329C159.012 39.5228 159.469 39.6139 159.886 39.8165C160.252 40.019 160.546 40.3127 160.739 40.6874V37.1226H159.957V36.282H163.228V46.3487ZM160.739 43.8371V43.0978C160.739 42.2268 160.628 41.5989 160.404 41.2141C160.181 40.8292 159.815 40.6368 159.327 40.6368C158.809 40.6368 158.443 40.8393 158.24 41.2546C158.027 41.6698 157.925 42.4091 157.925 43.4725C157.925 44.546 158.027 45.2853 158.24 45.7005C158.453 46.1158 158.809 46.3183 159.327 46.3183C159.815 46.3183 160.181 46.1259 160.404 45.7309C160.628 45.3359 160.739 44.708 160.739 43.8472V43.8371Z" fill="black"/>
<path d="M153.749 46.3483H154.531V47.199H150.488V46.3483H151.26V40.3629H150.488V39.5122H153.759V46.3584L153.749 46.3483Z" fill="black"/>
<path d="M151.504 37.4363C151.504 37.1832 151.605 36.93 151.788 36.7477C151.971 36.5654 152.215 36.4641 152.479 36.4641C152.733 36.4641 152.977 36.5654 153.15 36.7477C153.526 37.1224 153.526 37.73 153.15 38.1048C152.977 38.2871 152.733 38.3883 152.479 38.3782C152.225 38.3782 151.971 38.2871 151.788 38.1048C151.605 37.9326 151.504 37.6794 151.504 37.4262V37.4363Z" fill="black"/>
<path d="M86.8615 39.4314V41.6493H86.0691C86.0386 41.2544 85.9269 40.9607 85.744 40.7581C85.5205 40.5556 85.2259 40.4442 84.9313 40.4644C84.403 40.4644 83.9154 40.7277 83.6411 41.1835C83.3262 41.6595 83.1738 42.5608 83.1738 43.4014V46.3485H84.2405V47.1992H79.9026V46.3485H80.6747V40.3632H79.8213V39.5124H83.1636V40.8391C83.3668 40.3733 83.7021 39.9682 84.1287 39.6846C84.5757 39.4213 85.0837 39.2896 85.6018 39.3099C85.744 39.3099 85.9269 39.3099 86.1301 39.3403C86.3333 39.3707 86.5771 39.3909 86.8514 39.4213L86.8615 39.4314Z" fill="black"/>
<path d="M74.223 51.8479C72.4757 51.8479 71.1042 52.3239 70.1086 53.2759C69.113 54.2279 68.6152 55.5343 68.6152 57.1952C68.6152 58.8561 69.113 60.1626 70.1086 61.1145C71.1042 62.0564 72.4757 62.5324 74.2332 62.5324C75.9907 62.5324 77.352 62.0564 78.3476 61.1145C79.3534 60.1727 79.8512 58.8662 79.841 57.1952C79.841 55.5242 79.3432 54.2177 78.3476 53.2759C77.352 52.334 75.9806 51.858 74.223 51.858V51.8479ZM76.2041 60.5879C75.7672 61.3272 75.1069 61.7019 74.223 61.7019C73.3392 61.7019 72.6789 61.3272 72.242 60.5879C71.8052 59.8385 71.5918 58.7143 71.5918 57.2053C71.5918 55.6963 71.8052 54.5621 72.242 53.8126C72.6789 53.0632 73.3392 52.6986 74.223 52.6986C75.1069 52.6986 75.7672 53.0733 76.2041 53.8126C76.6307 54.5519 76.8542 55.6862 76.8542 57.2155C76.8542 58.7447 76.6409 59.8689 76.2041 60.598V60.5879Z" fill="#CA2D60"/>
<path d="M89.442 57.6613C89.442 56.7195 89.2287 56.0106 88.802 55.5244C88.3753 55.0383 87.7454 54.7953 86.9124 54.7953C86.4146 54.775 85.9168 54.8763 85.4698 55.089C85.0533 55.3118 84.7079 55.6358 84.4539 56.0308V54.9978H80.9287V55.8283H81.9853V61.4895H80.9287V62.32H85.3581V61.4895H84.4539V58.1981C84.4539 57.4082 84.5657 56.841 84.7993 56.4764C85.033 56.1118 85.3987 55.9397 85.8965 55.9397C86.2927 55.9397 86.567 56.0612 86.7295 56.3043C86.8921 56.5473 86.9734 56.9727 86.9734 57.6006V61.4997H86.0692V62.3301H90.4986V61.4997H89.442V57.6715V57.6613Z" fill="#CA2D60"/>
<path d="M94.8365 51.5945H91.3113V52.4249H92.3678V61.489H91.3113V62.3296H95.893V61.489H94.8365V51.5945Z" fill="#CA2D60"/>
<path d="M100.263 54.9978H96.7373V55.8283H97.7938V61.4895H96.7373V62.3301H101.319V61.4895H100.263V54.9978Z" fill="#CA2D60"/>
<path d="M98.9108 54.228C99.2664 54.228 99.6017 54.0963 99.8455 53.8431C100.099 53.6001 100.242 53.2659 100.232 52.9114C100.232 52.1822 99.6525 51.5948 98.9312 51.5847C98.9312 51.5847 98.921 51.5847 98.9108 51.5847C98.5553 51.5847 98.2099 51.7164 97.9559 51.9696C97.7019 52.2126 97.5597 52.557 97.5698 52.9114C97.5698 53.2659 97.7019 53.6001 97.9559 53.8431C98.2099 54.0963 98.5553 54.228 98.9108 54.228Z" fill="#CA2D60"/>
<path d="M110.664 57.6613C110.664 56.7195 110.451 56.0106 110.024 55.5244C109.598 55.0383 108.968 54.7953 108.135 54.7953C107.637 54.775 107.139 54.8763 106.692 55.089C106.276 55.3118 105.93 55.6358 105.676 56.0308V54.9978H102.161V55.8283H103.218V61.4895H102.161V62.32H106.59V61.4895H105.686V58.1981C105.686 57.4082 105.798 56.841 106.032 56.4764C106.265 56.1118 106.631 55.9397 107.129 55.9397C107.525 55.9397 107.799 56.0612 107.962 56.3043C108.125 56.5473 108.206 56.9727 108.206 57.6006V61.4997H107.302V62.3301H111.731V61.4997H110.674V57.6715L110.664 57.6613Z" fill="#CA2D60"/>
<path d="M118.517 61.3269C118.182 61.6105 117.756 61.7523 117.217 61.7523C116.577 61.7523 116.11 61.5396 115.825 61.1243C115.541 60.7091 115.388 60.0205 115.388 59.0685V59.0077H120.498C120.458 57.6304 120.112 56.5771 119.452 55.8682C118.802 55.1491 117.857 54.7947 116.628 54.7947C115.378 54.7947 114.403 55.139 113.702 55.8176C113.001 56.4961 112.646 57.4481 112.646 58.6634C112.646 59.8787 112.991 60.861 113.672 61.5294C114.352 62.1979 115.338 62.5321 116.628 62.5321C117.695 62.5321 118.528 62.3396 119.127 61.9447C119.726 61.5497 120.112 60.9421 120.316 60.1116H119.157C119.066 60.6382 118.853 61.0433 118.517 61.3269ZM115.388 58.0659C115.388 57.1746 115.48 56.5265 115.663 56.1518C115.907 55.6454 116.516 55.4327 117.024 55.6758C117.237 55.777 117.4 55.9492 117.502 56.1619C117.684 56.5467 117.776 57.2253 117.776 58.1975H115.388V58.076V58.0659Z" fill="#CA2D60"/>
</svg>
