<svg width="188" height="84" viewBox="0 0 188 84" fill="none" xmlns="http://www.w3.org/2000/svg">
<path d="M49.8604 14.8899V47.2299C74.4504 52.5299 92.8304 58.5799 115.5 67.9099C117.27 48.6599 124.3 29.7099 134.64 14.8599L49.8704 14.8999L49.8604 14.8899Z" fill="#FFD200"/>
<path d="M66.96 32.23H64.1L65.34 26.63C65.38 26.33 65.45 26.03 65.45 25.73C65.45 24.83 64.74 24.64 64.36 24.64C63.91 24.64 63.5 24.87 63.19 25.17C62.74 25.62 62.48 26.37 62.33 27.16L61.2 32.24H58.34L60.52 22.73H63.38L63.12 23.9C63.61 23.37 64.44 22.51 65.9 22.51C67.36 22.51 68.53 23.37 68.53 24.99C68.53 25.33 68.45 25.7 68.42 26.04L66.95 32.24L66.96 32.23ZM75.08 20.01L74.48 22.64H76.13L75.75 24.37H74.1L73.2 28.35C73.16 28.61 73.09 28.99 73.09 29.18C73.09 29.97 73.65 30.01 74.18 30.04H74.74L74.25 32.26C73.72 32.34 73.16 32.41 72.6 32.41C72.11 32.41 71.66 32.37 71.25 32.18C70.57 31.92 70.05 31.35 70.05 30.3C70.05 29.96 70.13 29.62 70.16 29.28L71.25 24.39H69.97L70.35 22.66H71.63L72.23 20.03H75.09V19.99L75.08 20.01ZM85.46 29.75C84.82 30.77 83.77 32.53 80.76 32.53C77.41 32.53 76.1 30.12 76.1 27.94C76.1 25.76 77.72 22.38 81.51 22.38C83.73 22.38 85.91 23.58 85.91 26.74C85.91 27.15 85.87 27.57 85.83 27.98H78.88C78.88 28.73 78.88 29.15 79.18 29.56C79.52 30.05 80.08 30.31 80.72 30.31C82.22 30.31 82.79 29.37 83.05 28.88L85.46 29.74V29.75ZM83.35 26.18C83.35 25.84 83.35 25.05 82.52 24.64C82.22 24.49 81.88 24.38 81.5 24.38C80.07 24.38 79.55 25.51 79.24 26.18H83.34H83.35ZM91.4 24.11C91.55 23.92 91.7 23.73 91.89 23.58C92.42 23.05 93.28 22.56 94.26 22.56H94.79L94.23 25.04C93.4 25.08 92.46 25.12 91.79 25.64C90.96 26.2 90.77 27.11 90.59 27.9L89.61 32.22H86.75L88.93 22.71H91.75L91.41 24.1L91.4 24.11ZM73.39 36.82L68.16 46.33H65.34L65.26 40.47L62.33 46.33H59.47L58.87 36.82H61.5L61.65 43.02L64.66 36.82H67.33L67.48 43.02L70.41 36.82H73.38H73.39ZM82.22 43.89C81.58 44.91 80.53 46.67 77.52 46.67C74.17 46.67 72.86 44.26 72.86 42.08C72.86 39.9 74.48 36.52 78.27 36.52C80.49 36.52 82.67 37.72 82.67 40.88C82.67 41.29 82.63 41.71 82.59 42.12H75.64C75.64 42.87 75.64 43.29 75.94 43.7C76.28 44.19 76.84 44.45 77.48 44.45C78.98 44.45 79.55 43.51 79.81 43.02L82.22 43.88V43.89ZM80.11 40.32C80.11 39.98 80.11 39.19 79.28 38.78C78.98 38.63 78.64 38.52 78.26 38.52C76.83 38.52 76.31 39.65 76 40.32H80.1H80.11ZM89.09 34.15L88.49 36.78H90.14L89.76 38.51H88.11L87.21 42.49C87.17 42.75 87.1 43.13 87.1 43.32C87.1 44.11 87.66 44.15 88.19 44.18H88.75L88.26 46.4C87.73 46.48 87.17 46.55 86.61 46.55C86.12 46.55 85.67 46.51 85.26 46.32C84.58 46.06 84.09 45.49 84.09 44.44C84.09 44.1 84.17 43.76 84.2 43.42L85.29 38.53H84.01L84.39 36.8H85.67L86.27 34.17H89.09V34.13V34.15ZM95.86 34.15L95.26 36.78H96.91L96.53 38.51H94.88L93.98 42.49C93.94 42.75 93.87 43.13 93.87 43.32C93.87 44.11 94.43 44.15 94.96 44.18H95.52L95.03 46.4C94.5 46.48 93.94 46.55 93.38 46.55C92.89 46.55 92.44 46.51 92.03 46.32C91.35 46.06 90.86 45.49 90.86 44.44C90.86 44.1 90.94 43.76 90.97 43.42L92.06 38.53H90.78L91.16 36.8H92.44L93.04 34.17H95.86V34.13V34.15ZM106.24 43.89C105.6 44.91 104.55 46.67 101.54 46.67C98.19 46.67 96.88 44.26 96.88 42.08C96.88 39.9 98.5 36.52 102.29 36.52C104.51 36.52 106.69 37.72 106.69 40.88C106.69 41.29 106.65 41.71 106.61 42.12H99.66C99.66 42.87 99.66 43.29 99.96 43.7C100.3 44.19 100.86 44.45 101.5 44.45C103 44.45 103.57 43.51 103.83 43.02L106.24 43.88V43.89ZM104.13 40.32C104.13 39.98 104.13 39.19 103.3 38.78C103 38.63 102.66 38.52 102.28 38.52C100.85 38.52 100.33 39.65 100.02 40.32H104.12H104.13ZM116.08 46.37H113.22L114.46 40.77C114.5 40.47 114.57 40.17 114.57 39.87C114.57 38.97 113.86 38.78 113.48 38.78C113.03 38.78 112.62 39.01 112.31 39.31C111.86 39.76 111.6 40.51 111.45 41.3L110.28 46.38H107.42L109.6 36.87H112.46L112.2 38.04C112.69 37.51 113.52 36.65 114.98 36.65C116.44 36.65 117.61 37.51 117.61 39.13C117.61 39.47 117.53 39.84 117.5 40.18L116.07 46.38L116.08 46.37ZM55.2 22.71L53.02 32.26H55.88L58.06 22.71H55.2ZM134.63 12.04H47V49.52L49.26 50.01C72.49 55.01 90.76 60.8 114.41 70.54L117.98 72.01L118.32 68.14C120.01 49.61 126.67 31.26 136.97 16.49L140.09 12.02L134.64 12.06L134.63 12.04ZM115.49 67.94C92.83 58.58 74.44 52.56 49.86 47.23V14.89H56.97L55.54 21.17H58.43L59.86 14.89H134.67C124.26 29.74 117.26 48.65 115.5 67.94H115.49Z" fill="black"/>
</svg>
