<svg width="188" height="84" viewBox="0 0 188 84" fill="none" xmlns="http://www.w3.org/2000/svg">
	<path d="M132.51 41.04c1.64.88 2.38 2.83 1.72 4.57-.8 2.69-2.8 4.31-6.52 4.31h-6.8l2.33-16.68h6.69c3.18 0 5.25 1.91 4.71 5.09a4.072 4.072 0 01-2.1 2.7l-.03.01zm-4.37 5.18c2.55 0 2.97-3.42.48-3.42h-2.45l-.48 3.42h2.45zm.9-6.45c2.05 0 2.54-2.97.43-2.97h-2.45l-.43 2.97h2.45zM141.26 39.7h6.75l-.52 3.74h-6.75l-.36 2.5h7.35l-.54 3.98h-11.61l2.33-16.68h11.61l-.56 3.99h-7.35l-.35 2.47zM158.94 37.08l-1.76 12.84h-4.27l1.77-12.84h-4.5l.56-3.86H164l-.57 3.86h-4.49zM51.38 44.18c0 1.05.85 1.9 1.9 1.9h.15c1.06 0 2.16-.62 2.31-1.6l1.6-11.28h4.14l-1.55 11.26c-.52 3.63-3.67 5.68-7.04 5.68-2.87 0-5.6-1.6-5.6-5.14l4.09-.83v.01zM62.82 38.72c.57-3.84 4.24-5.72 7.7-5.72s6.66 1.9 6.12 5.72l-.83 5.68c-.54 3.81-4.1 5.73-7.7 5.73-3.6 0-6.64-1.91-6.1-5.73l.8-5.68h.01zm3.41 5.68c-.16 1.2 1.08 1.81 2.36 1.81 1.28 0 2.85-.61 3.04-1.93l.83-5.6c.18-1.25-.99-1.88-2.36-1.88-1.37 0-2.85.64-3.04 1.88l-.83 5.72zM88.37 33.24h5.25l-7.75 8.19 5.4 8.47h-5.3l-3.48-5.95-.17.19-.8 5.76h-4.24l2.33-16.66h4.24l-.87 6.16 5.39-6.16zM97.98 39.68h6.76l-.52 3.75h-6.76l-.35 2.49h7.35l-.55 3.98h-11.6l2.33-16.66h11.6l-.56 3.97h-7.35l-.35 2.47zM111.89 44.61h-.76l-.7 5.3h-4.31l2.36-16.71h6.66c3.44 0 5.89 1.84 5.42 5.75-.43 3.09-1.74 4.12-4.02 5.2l4 5.73h-5.25l-3.39-5.27h-.01zm2.23-3.63a2.14 2.14 0 002.17-1.93c.2-.82-.31-1.65-1.14-1.85-.16-.04-.32-.05-.49-.04h-2.47l-.55 3.81h2.47l.01.01z" fill="#DA291C"/>
	<path d="M37.92 33.06h-1.18l-3.97 17.08h8.31V36.21c0-1.74-1.42-3.15-3.16-3.16v.01z" fill="#002D72"/>
	<path d="M27.16 33.06c-1.74.01-3.16 1.42-3.16 3.16v10.76c0 1.74 1.42 3.15 3.16 3.16h5.6l2.56-17.08h-8.16z" fill="#DA291C"/>
	<path d="M35.37 33.06l-2.56 17.08 3.97-17.08h-1.41z" fill="#fff"/>
</svg>