<svg width="188" height="84" viewBox="0 0 188 84" fill="none" xmlns="http://www.w3.org/2000/svg">
<path d="M54.15 37.53H58.87V53.25C58.87 55.61 57.85 56.55 55.31 56.55C54.6 56.55 53.84 56.51 52.99 56.42V53.79H53.93C55.18 53.79 55.44 53.48 55.44 52.23V40.51H54.19V37.53H54.15Z" fill="black"/>
<path d="M68.3997 49.2798C67.0197 49.2798 66.3997 48.4798 66.3997 46.8298V37.5298H61.6396V40.5098H63.0196V47.5498C63.0196 50.4398 64.5296 52.0898 67.2096 52.0898H70.2796V48.5298C69.6996 48.9798 69.0796 49.2898 68.4096 49.2898" fill="black"/>
<path d="M70.2197 48.53V52.09H70.2597V48.48L70.2197 48.52" fill="black"/>
<path d="M74.9897 49.0598V37.5298H70.2197V40.5098H71.5597V44.4798V50.1298V52.1298H76.2797V49.0598H74.9897Z" fill="black"/>
<path d="M84.56 49.2799C83.89 49.2799 81.53 49.0999 81.18 45.4499C81.18 45.2699 81.14 45.1399 81.14 44.9599C81.14 44.2899 81.23 43.6699 81.36 43.0499C81.81 41.3099 82.96 40.2899 84.48 40.2899C86.13 40.2899 87.2 41.2699 87.42 43.0499H82.66C82.53 43.6699 82.44 44.2999 82.44 44.9599C82.44 45.1399 82.44 45.3199 82.48 45.4499H91.25C91.21 44.0299 91.16 42.1999 89.87 40.2399C88.67 38.4599 86.71 37.3899 84.48 37.3899C80.56 37.3899 77.67 40.5099 77.67 44.7399C77.67 48.9699 80.56 52.0899 84.44 52.0899C87.82 52.0899 90.36 50.2199 90.99 47.1899H87.34C86.89 48.6099 85.96 49.2799 84.58 49.2799" fill="black"/>
<path d="M102.95 37.5298H98.9396C95.4696 37.5298 93.0596 40.3398 93.0596 44.3898C93.0596 48.4398 95.4196 51.1998 98.7196 51.1998C100.01 51.1998 100.95 50.7998 101.66 50.3498V47.6298C101.13 48.0798 100.5 48.3398 99.7496 48.3398C97.7496 48.3398 96.6796 46.9198 96.6796 44.4198C96.6796 41.9198 97.9696 40.4098 99.9796 40.4098C101.58 40.4098 102.74 41.7898 102.96 43.7898V50.9998V51.3598C102.96 52.9198 101.67 53.9898 99.6196 53.9898C97.9696 53.9898 97.0796 53.4598 96.5896 52.1598H93.2096C93.6096 53.8498 94.0096 54.4798 94.8996 55.2298C96.0096 56.2098 97.6196 56.6498 99.6596 56.6498C103.85 56.6498 106.38 54.6498 106.38 51.3098V40.5098H107.67V37.5298H102.95Z" fill="black"/>
<path d="M119.29 37.53V44.34C119.29 46.7 117.95 48.35 116.08 48.35C114.08 48.35 113.01 46.93 113.01 44.43C113.01 41.93 114.3 40.42 116.31 40.42C116.93 40.42 117.51 40.64 118 41.04V37.52H115.28C111.81 37.52 109.4 40.33 109.4 44.38C109.4 48.43 111.76 51.19 115.06 51.19C117.55 51.19 118.76 49.77 119.29 49.14V51.37C119.29 52.93 118 54 115.99 54C114.34 54 113.45 53.47 112.96 52.17H109.58C109.98 53.86 110.38 54.49 111.27 55.24C112.38 56.22 113.99 56.66 116.03 56.66C120.22 56.66 122.75 54.66 122.75 51.32V40.51H124.04V37.53H119.28H119.29Z" fill="black"/>
<path d="M125.79 37.53H130.51V49.06H131.72V52.18H125.7V49.06H127.13V40.51H125.79V37.53Z" fill="#3FAE2A"/>
<path d="M137.99 43.8998V39.5798V37.5298H133.27V40.5098H134.56V49.0598H133.27V52.1798H139.28V49.0598H137.99V43.8898V43.8998Z" fill="#3FAE2A"/>
<path d="M146.63 49.0599V41.6199C146.63 39.2199 144.76 37.4299 142.31 37.4299C141.2 37.4299 139.99 37.4699 139.33 37.4699V41.0799C139.86 40.6299 140.49 40.3199 141.2 40.3199C142.49 40.3199 143.25 41.1199 143.25 42.4099V52.1599H147.88V49.0399H146.63V49.0599Z" fill="#3FAE2A"/>
<path d="M156.3 40.4198C156.3 40.4198 156.34 40.4198 156.3 40.4198H164V37.5298H155.27C151.8 37.5298 149.39 40.3398 149.39 44.3898C149.39 48.4398 151.75 51.1998 155.05 51.1998C157.54 51.1998 158.75 49.7798 159.28 49.1498V51.3798C159.28 52.9398 157.99 54.0098 155.98 54.0098C154.33 54.0098 153.44 53.4798 152.95 52.1798H149.57C149.97 53.8698 150.37 54.4998 151.26 55.2498C152.37 56.2298 153.98 56.6698 156.02 56.6698C160.21 56.6698 162.74 54.6698 162.74 51.3298V41.7198H158.55C159 42.3898 159.26 43.2798 159.26 44.2998C159.26 46.6598 157.88 48.3098 156.01 48.3098C154.01 48.3098 152.94 46.8898 152.94 44.3898C152.98 41.9898 154.28 40.4298 156.28 40.4298" fill="#3FAE2A"/>
<path fill-rule="evenodd" clip-rule="evenodd" d="M46.58 51.82C47.07 51.42 47.56 51.02 48.05 50.66V51.77C48.05 51.77 48.01 51.81 47.96 51.81H46.58V51.82ZM43.6 49.82C44.98 48.8 46.45 47.82 48.01 47.1V48.08C46.01 49.06 44.18 50.53 42.35 51.78H40.66C41.68 51.16 42.66 50.53 43.6 49.82ZM36.65 51.82C40.26 48.75 44.22 46.08 48 43.23V44.3C44.66 46.79 41.23 49.2 37.98 51.83H36.64L36.65 51.82ZM45.02 40.69C46.04 40.07 47.02 39.4 48 38.73V39.75C47.11 40.37 46.17 41 45.24 41.58C41.23 44.12 37.58 47.19 34.06 50.4C36.91 48.31 39.67 46.13 42.61 44.17C44.35 43.01 46.13 41.9 48.04 41.1V42.08C45.59 43.06 43.32 44.66 41.23 46.22C38.69 48.09 36.2 50 33.62 51.83H32.11C31.84 51.83 31.62 51.79 31.35 51.79C35.58 47.74 39.99 43.77 45.02 40.7V40.69ZM28.19 50.04C33.85 43.67 40.52 38.82 47.92 34.94C47.96 35.25 47.96 35.56 48.01 35.92C41.86 39.17 36.21 43.09 31.27 48.03C35.05 45.4 38.66 42.51 42.58 40.1C44.36 39.03 46.19 38.01 48.06 37.03V38.01C46.1 38.99 44.23 40.1 42.4 41.26C37.68 44.33 33.36 47.94 28.55 50.92C28.06 51.1 27.97 50.25 28.19 50.03V50.04ZM46.09 30.58L46.62 31.25C41.1 34.14 35.71 37.35 30.81 41.18C33.48 39.31 36.11 37.44 39 35.88C41.63 34.46 44.3 33.16 47.06 32.01C47.15 32.23 47.28 32.41 47.37 32.63C47.41 32.67 47.41 32.76 47.46 32.81C47.55 33.03 47.64 33.26 47.68 33.48C41.27 36.86 35.03 40.56 29.65 45.28C33.21 42.83 36.69 40.25 40.34 37.89C42.7 36.38 45.15 34.91 47.73 33.93C47.82 34.24 47.86 34.51 47.91 34.82C44.79 36.02 41.85 37.89 39.14 39.76C34.73 42.7 30.46 45.91 25.96 48.75C25.56 49.02 25.38 48.17 25.65 47.9C31.17 42.07 38.03 37.66 45.11 33.83C42.93 34.81 40.79 35.88 38.7 37.04C34.2 39.58 30.19 42.87 25.74 45.55C25.34 45.82 25.16 44.97 25.43 44.7C31.21 39.04 38.12 34.72 45.28 30.89C45.01 31.02 44.79 31.11 44.52 31.25C37.27 34.81 30.63 39.49 24.04 44.16V42.82C25.6 41.48 27.16 40.15 28.76 38.9C27.16 39.84 25.6 40.81 24.04 41.88C24.04 41.7 24 36.14 24 36.14C24 31.12 27.3 28 32.55 28H39.45C41.45 28 43.15 28.45 44.48 29.2C44.66 29.29 44.84 29.42 45.01 29.56C45.41 29.92 45.77 30.23 46.08 30.58H46.09ZM30.63 38.55C32.1 37.57 33.57 36.59 35.08 35.66C34.68 35.84 34.23 36.06 33.83 36.28C32.72 36.99 31.65 37.75 30.62 38.55H30.63Z" fill="#3FAE2A"/>
</svg>
