<svg width="188" height="84" viewBox="0 0 188 84" fill="none" xmlns="http://www.w3.org/2000/svg">
<path d="M127.97 54.2599C127.97 54.0999 127.91 53.9499 127.8 53.8299C127.68 53.7099 127.52 53.6499 127.35 53.6499C127.14 53.6499 126.93 53.7199 126.76 53.8599C126.55 54.0299 126.4 54.2499 126.32 54.5099H127.92C127.95 54.4299 127.96 54.3499 127.96 54.2599H127.97Z" fill="#FF8300"/>
<path d="M107.1 38.52H105C104.94 38.52 104.89 38.56 104.88 38.62L104.36 40.59C104.34 40.66 104.38 40.73 104.45 40.75C104.46 40.75 104.47 40.75 104.48 40.75H106.76C107.41 40.75 107.9 40.63 108.24 40.38C108.55 40.18 108.74 39.83 108.74 39.46C108.74 38.84 108.2 38.53 107.11 38.53L107.1 38.52Z" fill="#FF8300"/>
<path d="M105.72 44.0098H103.53C103.47 44.0098 103.42 44.0498 103.4 44.1098L102.83 46.2098C102.81 46.2798 102.86 46.3498 102.93 46.3698C102.93 46.3698 102.95 46.3698 102.96 46.3698H105.36C105.89 46.3998 106.41 46.2698 106.87 45.9998C107.22 45.7898 107.43 45.4198 107.43 45.0098C107.43 44.3498 106.87 44.0098 105.73 44.0098H105.72Z" fill="#FF8300"/>
<path d="M164 22.06H143.02L140.73 24.37H131.01L138.34 17H117.98L101.11 33.94L100.36 34.69L89.03 46.06L93.15 49.26L81.91 60.54H100.07L93.06 67.58H115.24L121.54 61.25L121.8 60.99H133.35L163.09 31.13H154.97L164 22.06ZM110.91 49.05C109.67 49.94 107.76 50.39 105.19 50.39H96.71C96.64 50.39 96.58 50.33 96.58 50.26C96.58 50.25 96.58 50.24 96.58 50.23L100.78 34.6C100.8 34.54 100.85 34.5 100.91 34.5H107.84C111.87 34.5 113.89 35.74 113.9 38.22C113.9 38.91 113.73 39.58 113.4 40.18C112.83 41.17 111.89 41.88 110.58 42.3C110.51 42.32 110.48 42.39 110.5 42.46C110.51 42.5 110.54 42.52 110.58 42.54C111.15 42.74 111.66 43.08 112.05 43.54C112.53 44.1 112.78 44.81 112.76 45.55C112.76 46.99 112.14 48.16 110.9 49.05H110.91ZM112.33 50.39C112.26 50.39 112.21 50.33 112.21 50.27C112.21 50.26 112.21 50.25 112.21 50.24L116.41 34.6C116.42 34.55 116.47 34.51 116.53 34.51H129.83C129.9 34.51 129.95 34.57 129.95 34.63C129.95 34.64 129.95 34.65 129.95 34.66L128.84 38.77C128.82 38.82 128.77 38.86 128.72 38.86H120.58C120.52 38.86 120.47 38.9 120.46 38.95L120.09 40.31C120.07 40.38 120.11 40.44 120.18 40.46C120.18 40.46 120.2 40.46 120.21 40.46H127.65C127.72 40.46 127.78 40.52 127.77 40.59C127.77 40.6 127.77 40.61 127.77 40.62L126.82 44.21C126.81 44.26 126.76 44.3 126.7 44.3H119.12C119.06 44.3 119.02 44.34 119 44.39L118.59 45.87C118.57 45.94 118.61 46 118.68 46.02C118.69 46.02 118.7 46.02 118.71 46.02H126.83C126.9 46.02 126.95 46.08 126.95 46.14C126.95 46.15 126.95 46.16 126.95 46.17L125.86 50.28C125.84 50.33 125.8 50.37 125.74 50.37H112.33V50.39ZM123.17 57.84H120.75L121.4 55.45H123.81L123.17 57.84ZM126.84 57.98C126.1 58.02 125.37 57.77 124.8 57.29C124.29 56.83 124.02 56.17 124.05 55.48C124.05 54.58 124.38 53.72 125 53.07C125.64 52.37 126.55 51.99 127.5 52.03C127.91 52.02 128.31 52.09 128.69 52.24C129 52.36 129.26 52.56 129.47 52.82C129.65 53.05 129.79 53.32 129.88 53.6C129.97 53.89 130.01 54.19 130.01 54.49C130.01 54.85 129.95 55.21 129.84 55.55H126.19C126.19 55.76 126.28 55.96 126.43 56.11C126.6 56.25 126.82 56.33 127.04 56.31C127.46 56.29 127.86 56.13 128.19 55.85L129.28 57.04C128.62 57.65 127.75 57.99 126.85 57.98H126.84ZM132.73 53.95C132.95 54.05 133.18 54.15 133.41 54.22C133.85 54.36 134.26 54.58 134.61 54.87C134.9 55.15 135.05 55.54 135.02 55.93C135.02 56.47 134.79 56.99 134.39 57.35C133.97 57.76 133.32 57.97 132.44 57.96C131.35 57.99 130.28 57.66 129.4 57.01L130.44 55.66C130.74 55.89 131.07 56.07 131.42 56.2C131.75 56.34 132.11 56.42 132.48 56.44C132.7 56.44 132.81 56.37 132.81 56.24C132.8 56.14 132.73 56.05 132.64 56C132.41 55.88 132.17 55.78 131.93 55.7C131.5 55.56 131.11 55.34 130.77 55.05C130.5 54.79 130.36 54.43 130.38 54.06C130.38 53.49 130.64 52.94 131.09 52.6C131.56 52.22 132.21 52.02 133.04 52.02C134.15 52.02 135.04 52.28 135.72 52.8L134.68 54.15C134.42 53.98 134.13 53.84 133.84 53.73C133.56 53.62 133.26 53.55 132.96 53.55C132.72 53.55 132.59 53.61 132.59 53.74C132.59 53.83 132.65 53.9 132.73 53.94V53.95ZM145.2 34.68L144.06 38.93C144.04 38.98 144 39.02 143.94 39.02H139.45C139.39 39.02 139.34 39.06 139.33 39.11L136.31 50.32C136.3 50.37 136.25 50.41 136.19 50.41H131.14C131.07 50.41 131.02 50.36 131.02 50.29C131.02 50.28 131.02 50.27 131.02 50.26L134 39.18C134.02 39.11 133.98 39.05 133.91 39.03C133.9 39.03 133.89 39.03 133.88 39.03H129.53C129.46 39.03 129.41 38.97 129.41 38.91C129.41 38.9 129.41 38.89 129.41 38.88L130.55 34.63C130.56 34.58 130.61 34.54 130.67 34.54H145.08C145.15 34.54 145.2 34.6 145.2 34.67V34.69V34.68Z" fill="#FF8300"/>
<path d="M36.54 41.8C36.54 41.8 36.54 41.73 36.56 41.7L43.59 34.64C43.59 34.64 43.63 34.55 43.59 34.51C43.57 34.49 43.55 34.48 43.52 34.48H37.32C37.32 34.48 37.27 34.49 37.25 34.51L32.25 39.9C32.25 39.9 32.16 39.94 32.12 39.9C32.09 39.88 32.08 39.84 32.09 39.81L33.5 34.59C33.5 34.59 33.48 34.49 33.43 34.48H33.41H28.31C28.31 34.48 28.23 34.51 28.22 34.55L24 50.26C23.99 50.31 24.02 50.36 24.07 50.38H29.21C29.21 50.38 29.29 50.35 29.3 50.31L30.05 47.52C30.05 47.52 30.06 47.49 30.07 47.48L32.17 45.38C32.17 45.38 32.26 45.34 32.3 45.38C32.3 45.38 32.32 45.4 32.32 45.41L34.15 50.32C34.15 50.32 34.2 50.38 34.24 50.38H39.7C39.75 50.38 39.79 50.33 39.79 50.28C39.79 50.27 39.79 50.26 39.79 50.25L36.55 41.8H36.54Z" fill="#1D1D1B"/>
<path d="M50.6003 34.4902H45.5203C45.5203 34.4902 45.4303 34.5202 45.4203 34.5702L41.2103 50.2202C41.1903 50.2802 41.2303 50.3402 41.2903 50.3502C41.2903 50.3502 41.3103 50.3502 41.3203 50.3502H46.4003C46.4003 50.3502 46.4903 50.3202 46.5003 50.2702L50.7103 34.6202C50.7303 34.5602 50.6903 34.5002 50.6403 34.4902C50.6403 34.4902 50.6203 34.4902 50.6103 34.4902" fill="#1D1D1B"/>
<path d="M61.7103 45.0502C64.7503 44.0602 66.0103 41.9502 66.0103 39.5102C66.0103 38.2602 65.6503 37.0802 64.7603 36.1902C63.7003 35.1302 61.8403 34.4902 58.9103 34.4902H52.8103C52.7603 34.4902 52.7103 34.5302 52.7003 34.5802L48.5003 50.2302C48.4803 50.2902 48.5203 50.3602 48.5803 50.3802C48.5803 50.3802 48.6003 50.3802 48.6103 50.3802H53.6703C53.7203 50.3802 53.7703 50.3402 53.7803 50.2902L54.9703 45.9302C54.9803 45.8802 55.0303 45.8402 55.0803 45.8402H56.2203C56.2203 45.8402 56.3103 45.8702 56.3303 45.9202L58.0403 50.3102C58.0403 50.3102 58.1003 50.3902 58.1503 50.3902H63.6103C63.6803 50.3902 63.7303 50.3402 63.7303 50.2702C63.7303 50.2502 63.7303 50.2402 63.7303 50.2302L61.6503 45.2302C61.6303 45.1702 61.6503 45.1002 61.7203 45.0802L61.7103 45.0502ZM57.9303 42.0802H56.1603C56.0903 42.0802 56.0403 42.0202 56.0403 41.9602V41.9402L56.8203 39.0702C56.8303 39.0202 56.8803 38.9802 56.9303 38.9802H58.7203C59.4703 38.9802 59.9903 39.1402 60.2903 39.4402C60.5103 39.6602 60.6303 39.9602 60.6203 40.2802C60.6203 41.2802 59.6903 42.0902 57.9203 42.0902" fill="#1D1D1B"/>
<path d="M83.9 41.3699C83.9 37.3099 80.68 34.1799 76.01 34.1799C70.86 34.1899 66.69 38.3599 66.67 43.4999C66.67 47.5599 69.89 50.6899 74.57 50.6899C79.72 50.6799 83.89 46.5099 83.91 41.3699H83.9ZM74.93 46.0199C73.03 46.0199 72.01 44.7099 72.01 43.0299C72.01 41.0299 73.43 38.8599 75.66 38.8599C77.56 38.8599 78.59 40.1799 78.59 41.8599C78.59 43.8499 77.17 46.0299 74.94 46.0299" fill="#1D1D1B"/>
<path d="M96.87 45.83H89.94C89.88 45.83 89.82 45.78 89.82 45.71C89.82 45.7 89.82 45.69 89.82 45.68L89.9 45.39L92.78 34.64C92.8 34.58 92.76 34.51 92.7 34.49C92.7 34.49 92.68 34.49 92.67 34.49H87.61C87.56 34.49 87.51 34.53 87.5 34.58L83.3 50.23C83.28 50.29 83.32 50.36 83.38 50.38C83.38 50.38 83.4 50.38 83.41 50.38H95.72C95.77 50.38 95.82 50.34 95.83 50.29L96.51 47.73L96.98 45.99C97 45.93 96.96 45.86 96.89 45.84C96.89 45.84 96.87 45.84 96.86 45.84" fill="#1D1D1B"/>
</svg>
