<svg width="188" height="84" viewBox="0 0 188 84" fill="none" xmlns="http://www.w3.org/2000/svg">
<path d="M41.5137 59.141C32.3622 59.141 24.8975 51.6972 24.8975 42.5357C24.8975 33.3741 32.3622 26.002 41.5137 26.002C50.6652 26.002 58.13 33.4457 58.13 42.5715C58.13 51.6972 50.7011 59.141 41.5137 59.141ZM69.8295 43.7883V39.0643H72.0546V31.8353H60.355V39.0285H62.293V46.186H60.355V53.3793H77.2943V52.1267C78.6939 53.0572 80.4166 53.5582 82.3545 53.5582C84.436 53.5582 86.2663 53.093 87.7737 52.2341L88.7785 51.6257C90.2499 52.8782 92.1879 53.594 94.3412 53.594C97.607 53.594 100.335 51.9478 101.698 49.3711L103.421 53.3793H108.23L109.845 49.55C111.245 52.0193 113.972 53.5224 117.31 53.5224C119.032 53.5224 120.54 53.2361 121.867 52.6277C121.832 52.8424 121.832 53.0572 121.832 53.2719C121.832 54.4171 122.298 55.4907 123.124 56.3496C124.416 57.6379 126.712 58.4253 129.189 58.4253C131.773 58.4253 133.854 57.5306 135.218 55.8128C135.936 54.9181 136.402 53.8803 136.618 52.6993C137.587 53.2719 138.735 53.594 140.027 53.594C140.565 53.594 141.139 53.5224 141.714 53.415H150.399V53.0214C151.439 53.3793 152.588 53.5582 153.7 53.5582C157.792 53.5582 160.77 51.0531 160.77 47.6175C160.77 46.4365 160.447 45.4345 159.765 44.6114C160.232 43.9672 160.483 43.1799 160.483 42.321C160.483 41.1758 160.017 40.1022 159.191 39.2433C157.827 37.8833 155.495 37.275 153.772 37.275C150.865 37.275 148.82 38.4917 147.743 40.1379C147.635 39.959 147.528 39.8159 147.384 39.6727C146.487 38.5633 144.764 37.275 141.57 37.275C140.278 37.275 139.237 37.4897 138.412 37.8118V37.4539H130.265C129.727 37.3107 129.153 37.275 128.614 37.275C126.389 37.275 124.38 38.2412 122.944 39.8874C121.544 38.2054 119.391 37.275 116.879 37.275H116.628V31.8353H95.0231V37.275C94.8077 37.275 94.6283 37.2392 94.413 37.2392C91.9008 37.2392 89.604 38.277 88.0966 39.9948C86.697 38.2412 84.5078 37.2392 81.9239 37.2392C77.9762 37.2392 74.7821 39.959 74.0643 43.7167H69.9372L69.8295 43.7883Z" fill="url(#paint0_linear_6315_587617)"/>
<path opacity="0.27" d="M41.5137 27.2905C33.08 27.2905 26.1895 34.1617 26.1895 42.5717C26.1895 50.9817 33.08 57.8887 41.5496 57.8887C50.0192 57.8887 56.9098 51.0175 56.9098 42.5717C56.9098 34.1259 49.9834 27.2905 41.5137 27.2905Z" fill="#030303"/>
<path d="M41.8721 47.9754C41.6926 47.8323 41.4414 47.868 41.262 48.0112C40.616 48.5838 39.6829 49.1564 38.7498 49.3711C38.5704 49.4069 38.4986 49.6574 38.6063 49.8721C38.7857 50.2658 39.2163 50.8026 39.6111 51.1605C40.0059 51.5184 40.3289 51.6257 40.616 51.8404C40.9031 52.0552 41.3338 52.6278 41.5132 52.8783C41.5491 52.9498 41.6567 52.9498 41.6926 52.8783C41.8362 52.6278 42.1592 52.0909 42.5181 51.8047C42.9128 51.4826 43.9536 50.91 44.2048 50.23C44.3125 49.9437 44.4919 49.55 44.6355 49.2995C44.8149 48.9417 44.7072 48.7269 44.456 48.7269C43.487 48.6912 42.5181 48.4049 41.8721 47.9754Z" fill="#F7F4F1"/>
<path d="M41.5137 28.2925C33.6183 28.2925 27.1943 34.6984 27.1943 42.5716C27.1943 50.4806 33.6183 56.8508 41.5137 56.8508C49.4092 56.8508 55.8331 50.4448 55.8331 42.5716C55.869 34.6984 49.445 28.2925 41.5137 28.2925ZM51.06 33.6964L49.3015 35.4499V35.3426C49.3015 34.6984 48.9067 34.3047 48.4043 33.8753L48.3684 33.8395L49.8398 32.587C50.2705 32.909 50.6652 33.3027 51.06 33.6964ZM34.7309 31.4776L35.664 30.9407C35.7357 30.905 35.8434 30.8334 35.9152 30.7976L37.7814 33.2311L37.4584 30.225C37.9608 30.0461 38.4991 29.9029 39.0733 29.7955L40.3294 33.4101L40.6883 29.5808C40.9754 29.5808 41.2266 29.545 41.5137 29.545C41.8008 29.545 42.0521 29.545 42.3392 29.5808L42.6981 33.2669L43.9541 29.7955C44.4925 29.9029 45.0308 30.0461 45.5691 30.1892L45.2461 33.3385L47.0764 30.7976C47.5789 31.0481 48.0454 31.2986 48.5119 31.5849L47.6147 33.3027C47.1123 33.0522 46.574 32.9448 46.3587 33.3027C45.9998 33.8753 45.6409 34.269 45.5332 34.269C45.1385 34.2332 44.4207 33.8753 43.6311 33.8753C42.088 33.8753 41.6214 34.9489 41.6214 34.9489C41.6214 34.9489 40.8319 33.8753 39.4322 33.8753C38.0326 33.8753 37.6019 34.3047 37.6019 34.3047C37.6019 34.3047 37.243 33.4459 36.9918 33.1953C36.8124 33.0164 36.1305 33.1238 35.4845 33.4816L35.4486 33.3743L34.5155 31.6207C34.5514 31.5849 34.6591 31.5491 34.7309 31.4776ZM45.0308 36.7383C43.99 36.953 43.3799 37.454 43.1646 37.5972C42.9134 37.7403 42.8057 37.3109 42.9134 37.0962C43.021 36.8814 43.2723 36.8814 43.5235 36.6309C44.1336 36.0583 44.4207 35.9868 45.0308 35.951C45.4614 35.9152 45.8562 35.9868 46.1074 36.0583C46.3587 36.1299 46.5381 36.4162 46.7175 36.7741C46.7893 36.953 46.9688 37.454 46.9329 37.8835C46.9329 38.0266 46.8252 38.0624 46.7893 37.9908C46.7534 37.9193 46.4304 36.452 45.0308 36.7383ZM46.6099 38.5992C46.4663 38.7066 46.1792 38.5992 46.1792 38.5992C46.1792 38.5992 45.7486 39.2076 45.5691 39.315C45.4256 39.4223 43.7747 39.816 43.7747 39.816C43.7747 39.816 43.5953 40.1381 43.4158 40.0665C43.1646 39.9949 43.4158 38.635 43.5594 38.2771C43.667 37.9193 44.6001 37.7403 45.1743 37.7045C45.7486 37.7045 46.3228 38.0982 46.6458 38.3487C46.7175 38.3845 46.7175 38.4919 46.6099 38.5992ZM39.5758 38.0982C39.1451 38.0266 38.9298 37.5614 38.4632 37.0604C37.7455 36.3446 36.9559 36.9172 36.4894 37.0604C36.1664 37.1319 35.987 36.5951 36.3817 36.1299C36.8124 35.6289 38.0326 35.6289 38.4991 35.9152C38.7145 36.0583 39.3246 37.0962 39.827 37.2751C40.8678 37.6688 40.3294 38.2056 39.5758 38.0982ZM39.7193 40.1739C39.5399 40.2454 39.504 40.0307 39.3963 39.9591C39.3604 39.9234 39.1451 39.9949 39.0016 39.8876C38.8221 39.7802 38.7862 39.5655 38.5709 39.4223C37.9967 39.0645 37.6378 39.1718 37.4943 39.1003C37.3507 39.0287 37.1354 38.814 37.1354 38.814C37.1354 38.814 36.8483 38.9213 36.7406 38.814C36.6329 38.7066 36.6329 38.635 36.7047 38.5634C37.0277 38.3129 37.566 37.9193 38.1044 37.9551C38.6427 37.9551 39.504 38.1698 39.6117 38.4919C39.6834 38.7066 39.7911 39.315 39.7911 39.7444C39.7911 39.9591 39.8988 40.1023 39.7193 40.1739ZM33.1518 32.6227L34.5873 33.9469L34.695 34.0542C34.2643 34.4837 33.8695 34.9847 33.7619 35.3784L31.9675 33.7322L33.1518 32.6227ZM54.4694 44.2178C54.3976 44.7546 54.29 45.2915 54.1823 45.8283L47.7583 44.6115L53.6799 47.3671C53.4645 47.8681 53.2492 48.3692 52.998 48.8344L47.1123 46.0788L52.1367 50.1943C51.8137 50.6238 51.4548 51.0532 51.0959 51.4469L46.4304 47.7966L49.8757 52.5921C49.445 52.9499 49.0144 53.272 48.5478 53.5583L45.1743 49.1207L47.1482 54.3456C46.6458 54.5962 46.1433 54.7751 45.605 54.954L43.8106 51.4111L44.0618 55.3477C43.5235 55.4551 42.9493 55.5266 42.3751 55.5624L41.5855 53.3436L40.796 55.5624C40.2218 55.5266 39.6834 55.4551 39.1092 55.3477L39.2169 51.6258L37.566 54.954C37.0277 54.7751 36.5253 54.5962 36.0228 54.3456L37.7096 49.5859L34.6232 53.5941C34.1567 53.3078 33.726 52.9857 33.2953 52.6279L37.1354 47.3313L32.111 51.5185C31.7163 51.1248 31.3933 50.6953 31.0703 50.2659L36.0946 46.0788L30.1731 48.8702C29.9218 48.405 29.6706 47.9039 29.4553 47.4029L35.4127 44.6115L28.9529 45.8641C28.8093 45.3272 28.7016 44.7904 28.6299 44.2536L35.0897 43.0011L28.4863 42.6432V41.999L28.5222 41.7127C28.5222 41.498 28.5581 41.2475 28.594 41.0328L34.8026 41.3549L28.8811 39.4223C29.0246 38.8855 29.1682 38.3845 29.3835 37.8477L34.2643 38.9571L30.0654 36.3446L30.9267 34.9489L35.2692 36.9172C35.1974 37.1319 35.0539 37.5614 35.0897 38.3487C35.1256 39.4939 34.9821 40.2454 35.4486 40.7107C35.9511 41.2117 36.5971 41.6054 36.9559 42.0706C37.0277 42.178 37.0995 42.2495 37.1354 42.3569C37.243 42.4643 37.2789 42.5358 37.3148 42.6074L37.4225 42.8221C37.6737 42.3927 38.212 42.1422 38.3197 42.2137C38.3915 42.2853 37.9967 42.6432 37.6019 43.6095C37.5301 43.8242 37.3866 44.1821 37.2789 44.4683C37.1354 44.8978 37.0636 45.3272 37.1354 45.8998C37.243 46.8303 37.889 48.0113 38.1402 48.3334C38.3197 48.5481 38.8939 48.4407 39.3246 48.3334C39.7552 48.226 40.5089 47.7966 40.796 47.4387C41.119 47.0808 41.3343 46.8303 41.2266 46.2577C41.1549 45.8641 40.7601 45.3272 40.4371 45.1125C40.1141 44.9336 39.5758 44.5399 39.4322 44.3252C39.3604 44.2178 39.2528 44.0389 39.1451 43.8958C39.0733 43.7526 39.0016 43.6452 39.0375 43.5737C39.1451 43.5021 39.181 43.5379 39.2887 43.6452C39.3963 43.7526 39.4681 43.8958 39.504 43.86C39.5399 43.8242 39.504 43.8242 39.504 43.7168C39.5399 43.6452 39.6117 43.5379 39.7911 43.4305C40.15 43.2516 40.8319 43.681 41.5496 43.681C42.2674 43.681 43.2005 43.0369 43.4876 43.2874C43.667 43.4305 43.7029 43.5737 43.7029 43.681C43.7029 43.681 43.7029 43.7168 43.7388 43.7168C43.8465 43.7168 43.9541 43.5737 44.0618 43.4663C44.1336 43.3947 44.2054 43.3589 44.2771 43.3947C44.3489 43.4305 44.313 43.5737 44.2771 43.7168C44.2412 43.86 44.1695 44.0031 44.0977 44.0389C43.8824 44.2178 43.4517 44.2178 42.8057 44.7904C42.1956 45.3272 41.8726 45.8283 41.8367 46.1861C41.8008 46.4367 41.9444 46.9735 42.1956 47.2598C42.4468 47.5461 42.7698 47.7608 43.3799 47.8681C43.9183 47.9397 44.959 47.725 45.2461 47.4745C45.6409 47.1166 45.8562 46.7229 45.9998 46.1146C46.1433 45.4704 46.0357 44.5041 45.928 44.1463C45.605 43.1442 45.1026 42.5716 45.2461 42.4643C45.3538 42.3569 45.6768 42.679 45.8921 42.8579C45.928 42.7148 45.9639 42.3211 46.0357 42.1064C46.1433 41.6412 46.3587 41.3906 46.8252 41.1401C47.3635 40.818 48.189 40.3528 48.2607 39.816C48.3325 39.2792 48.4043 38.2414 48.2966 37.8835C48.2248 37.6688 48.1531 37.3109 48.0813 37.0604L52.0649 34.9131C52.3879 35.3426 52.675 35.8078 52.9621 36.3088L48.9067 38.8497L53.6799 37.7761C53.8952 38.2771 54.0746 38.814 54.1823 39.3508L47.9377 41.3549L54.4694 40.9254C54.5412 41.4622 54.5771 41.999 54.5771 42.5358V42.5716L48.0454 43.0369L54.4694 44.2178Z" fill="#F7F4F1"/>
<path opacity="0.27" d="M157.899 44.6118C158.725 44.2181 159.227 43.3592 159.227 42.3572C159.227 41.534 158.904 40.8183 158.294 40.1741C157.181 39.0647 155.172 38.5637 153.772 38.5637C150.973 38.5637 148.138 40.1383 148.138 43.1803C148.138 44.5044 148.64 45.3991 149.43 46.0432C148.568 46.3295 147.922 47.0811 147.779 48.0116H147.492V43.9318C147.492 42.5361 147.097 41.2835 146.379 40.4962C145.661 39.6015 144.262 38.5637 141.534 38.5637C139.417 38.5637 137.945 39.2079 137.084 40.1026V38.7784H130.768V39.0289C130.122 38.7784 129.404 38.5995 128.543 38.5995C125.995 38.5995 123.877 40.1383 122.872 42.3929C121.939 40.0668 119.75 38.5995 116.843 38.5995C115.156 38.5995 113.685 39.1721 112.536 40.1026L113.505 37.8122H115.3V33.1598H106.543V37.8122H107.979L105.825 43.3234L103.672 37.8122H105V33.1598H96.2432V37.8122H98.1453L99.2578 40.4246C98.0018 39.2794 96.315 38.5995 94.3412 38.5995C91.3983 38.5995 88.9938 40.1741 87.9172 42.5719C87.0558 40.1383 84.7949 38.5995 81.8162 38.5995C78.0838 38.5995 75.2845 41.3551 75.0692 45.077H71.0856V47.4747H68.4657V37.7764H70.6908V33.124H61.5752V37.7764H63.5132V47.4747H61.5752V52.1271H75.9664V48.942C77.1507 50.9819 79.4475 52.2702 82.2827 52.2702C84.1489 52.2702 85.7639 51.8766 87.0558 51.125L87.7736 50.6956L87.4865 49.9083C87.4147 49.7293 86.9123 48.2621 86.697 47.7968L86.5175 47.3674H87.4865C88.276 50.3019 90.8959 52.306 94.2694 52.306C98.2889 52.306 101.303 49.3357 101.303 45.4349V45.3991L104.175 52.1271H107.297L110.024 45.7569C110.168 49.622 113.111 52.2702 117.238 52.2702C119.104 52.2702 120.719 51.8766 122.011 51.125L122.729 50.6956L122.442 49.9083C122.37 49.7293 121.867 48.2621 121.652 47.7968L121.473 47.3674H122.406C122.836 48.8347 123.698 50.0156 124.846 50.803C123.77 51.0893 122.98 52.0913 122.98 53.2723C122.98 54.0954 123.303 54.8111 123.913 55.4553C124.954 56.4931 126.964 57.1731 129.045 57.1731C131.234 57.1731 132.957 56.4216 134.069 55.0259C134.931 53.9165 135.361 52.5923 135.361 51.0177V49.1567C135.792 51.0535 137.551 52.3418 139.919 52.3418C140.852 52.3418 141.785 52.1271 142.683 51.6976V52.1271H148.999V51.0177C150.076 51.7692 151.906 52.2702 153.557 52.2702C156.966 52.2702 159.335 50.3735 159.335 47.6179C159.514 46.1506 158.832 45.2559 157.899 44.6118ZM81.8162 42.8582C82.4263 42.8582 82.8928 43.0371 83.1799 43.395H80.5242C80.9548 42.9655 81.4573 42.8582 81.8162 42.8582ZM82.7493 47.8684C81.8162 47.8684 81.2061 47.6537 80.8113 47.3674H85.1897C84.3283 47.6895 83.5029 47.8684 82.7493 47.8684ZM116.807 42.8582C117.417 42.8582 117.884 43.0371 118.171 43.395H115.515C115.946 42.9655 116.484 42.8582 116.807 42.8582ZM117.74 47.8684C116.807 47.8684 116.197 47.6537 115.802 47.3674H120.181C119.319 47.6895 118.53 47.8684 117.74 47.8684ZM127.143 45.2559C127.143 43.7886 127.825 43.0371 129.153 43.0371C129.691 43.0371 130.194 43.1803 130.66 43.4308V46.9021C130.158 47.2958 129.655 47.4747 129.153 47.4747C127.861 47.439 127.143 46.6516 127.143 45.2559ZM130.373 52.2702C130.014 52.7355 129.368 52.8428 128.902 52.8428C128.65 52.8428 128.435 52.8071 128.256 52.7713C128.22 52.3776 128.076 52.0197 127.861 51.7334C128.076 51.7692 128.256 51.7692 128.471 51.7692C129.368 51.7692 130.086 51.5903 130.696 51.304C130.624 51.7692 130.552 52.1271 130.373 52.2702ZM135.541 47.1527V42.9297H136.151C136.259 43.7171 136.725 44.3255 137.335 44.6833C136.402 45.2559 135.792 46.1148 135.541 47.1527ZM142.754 47.6895C142.144 48.0473 141.534 48.2263 140.96 48.2263C140.278 48.2263 140.278 47.9758 140.278 47.8326C140.278 47.2958 140.996 47.1884 141.462 47.1884C141.893 47.1884 142.36 47.2242 142.79 47.26V47.6895H142.754ZM140.96 43.7529H140.852C141.032 43.4666 141.139 43.1445 141.175 42.7866C142.108 42.7866 142.467 43.0371 142.647 43.2518C142.718 43.3234 142.79 43.5381 142.826 43.8602C142.216 43.7886 141.57 43.7529 140.96 43.7529ZM153.736 42.6792C153.916 42.6792 154.095 42.6792 154.275 42.715C154.31 42.9297 154.346 43.1087 154.382 43.2876C153.7 43.1087 153.234 42.9297 152.947 42.8224C153.126 42.7508 153.377 42.6792 153.736 42.6792ZM153.808 48.1905C153.485 48.1905 153.126 48.1547 152.803 48.0831C152.767 47.8326 152.731 47.6179 152.66 47.4032C152.875 47.4747 153.126 47.5463 153.341 47.5821C154.059 47.7968 154.454 47.94 154.669 48.0116C154.49 48.1189 154.203 48.1905 153.808 48.1905Z" fill="#030303"/>
<path d="M114.043 44.4327C114.33 42.6076 115.587 41.856 116.807 41.856C118.458 41.856 119.462 42.8581 119.534 44.4327H114.043ZM116.878 39.5656C113.397 39.5656 111.136 42.2139 111.136 45.4348C111.136 48.9061 113.72 51.2323 117.345 51.2323C118.996 51.2323 120.467 50.9102 121.616 50.2303C121.616 50.2303 121.077 48.6556 120.862 48.1904C119.821 48.6198 118.781 48.8704 117.704 48.8704C115.802 48.8704 114.402 48.083 114.007 46.3652H122.154C122.262 45.9716 122.298 45.399 122.298 44.9695C122.369 41.9992 120.467 39.5656 116.878 39.5656ZM94.3766 39.5656C90.6801 39.5656 88.3473 42.3213 88.3473 45.4348C88.3473 48.5841 90.6442 51.3039 94.3766 51.3039C98.0731 51.3039 100.406 48.5483 100.406 45.4348C100.406 42.2855 98.1448 39.5656 94.3766 39.5656ZM93.2999 42.6076C93.4076 42.1423 93.7665 41.6055 94.1612 41.2834C94.2689 41.2119 94.4125 41.2834 94.4125 41.3908C94.4125 41.8918 94.8431 42.3213 94.8072 42.9297C94.7713 43.3949 94.5201 43.8601 94.0536 43.8601C93.3717 43.7886 93.1564 43.1802 93.2999 42.6076ZM91.1466 42.0708C91.1825 41.9276 91.3978 41.9276 91.4337 42.0708C91.7208 42.6434 92.3668 42.7507 92.5463 43.216C92.6898 43.6096 92.7257 44.1464 92.1515 44.4685C91.5773 44.7906 91.1825 44.218 91.039 43.6812C90.9313 43.216 91.0031 42.5718 91.1466 42.0708ZM95.5968 49.4787C94.9867 49.4072 94.233 48.763 93.5153 48.763C92.9769 48.763 92.0797 49.0135 91.5773 48.9061C91.0749 48.7988 90.8954 47.9757 90.8954 47.2957C90.8954 46.58 91.6491 45.9358 92.2951 45.3632C92.8334 44.898 93.8024 44.3254 94.233 44.3254C94.8072 44.3254 95.4173 44.7906 95.7403 46.1863C95.9915 47.3315 96.7811 47.2599 96.7811 47.8325C96.7811 48.763 96.2069 49.5861 95.5968 49.4787ZM96.0633 44.3969C95.5968 44.2538 95.4532 43.7886 95.5968 43.3233C95.7403 42.8581 96.2428 42.5718 96.494 42.035C96.5658 41.8918 96.7452 41.8918 96.7811 42.035C96.9605 42.4644 97.1759 43.037 97.14 43.4665C97.1041 44.0033 96.7452 44.6117 96.0633 44.3969ZM98.2884 46.401C98.0372 46.9378 97.463 47.0094 97.1041 46.8305C96.6016 46.5442 96.5658 45.9 96.9605 45.4348C97.2476 45.0769 97.8936 45.0053 98.1089 44.5043C98.1807 44.3611 98.3602 44.3611 98.3961 44.5043C98.6473 45.1127 98.5037 45.9716 98.2884 46.401ZM72.1976 48.4767H67.5322V36.7742H69.7572V34.126H62.6514V36.7742H64.6252V48.4767H62.6514V51.0892H74.9969V46.0789H72.1976V48.4767ZM81.8875 39.5656C78.4063 39.5656 76.1453 42.2139 76.1453 45.4348C76.1453 48.9061 78.7293 51.2323 82.354 51.2323C84.0049 51.2323 85.4763 50.9102 86.6247 50.2303C86.6247 50.2303 86.0864 48.6556 85.8711 48.1904C84.8303 48.6198 83.7895 48.8704 82.7129 48.8704C80.8108 48.8704 79.4112 48.083 79.0164 46.3652H87.163C87.2707 45.9716 87.3066 45.399 87.3066 44.9695C87.3784 41.9992 85.4763 39.5656 81.8875 39.5656ZM79.0523 44.4327C79.3394 42.6076 80.5955 41.856 81.8157 41.856C83.4665 41.856 84.4714 42.8581 84.5432 44.4327H79.0523ZM131.844 40.7824H131.808C131.09 40.1382 130.014 39.5656 128.614 39.5656C125.635 39.5656 123.302 42.0708 123.302 45.2916C123.302 48.6198 125.599 50.8029 128.47 50.8029C129.978 50.8029 130.839 50.2303 131.736 49.3356V50.9818C131.736 51.8407 131.557 52.4849 131.198 52.9143C130.695 53.5943 129.87 53.8806 128.901 53.8806C128.219 53.8806 127.681 53.7374 127.214 53.5943C127.25 53.4869 127.25 53.308 127.25 53.1648C127.25 52.3059 126.568 51.6975 125.707 51.6975C124.774 51.6975 124.2 52.4849 124.2 53.2364C124.2 53.7732 124.379 54.2385 124.846 54.7037C125.635 55.491 127.322 56.0994 129.26 56.0994C131.09 56.0994 132.562 55.5268 133.495 54.3458C134.177 53.4869 134.571 52.3417 134.571 50.946V41.8918H136.186V39.7446H131.844V40.7824ZM131.664 47.3315C130.947 48.0115 130.121 48.4409 129.152 48.4409C127.394 48.4409 126.138 47.3315 126.138 45.2558C126.138 43.1086 127.394 41.9992 129.152 41.9992C130.157 41.9992 130.983 42.3213 131.664 42.8581V47.3315ZM154.238 44.2538C152.48 43.7528 151.87 43.4665 151.87 42.7865C151.87 42.2139 152.516 41.6413 153.772 41.6413C154.346 41.6413 154.884 41.7487 155.387 41.9276C155.351 42.0708 155.351 42.2139 155.351 42.4286C155.351 43.2875 155.997 43.8243 156.858 43.8243C157.683 43.8243 158.258 43.1802 158.258 42.3213C158.258 41.7845 158.078 41.3192 157.612 40.854C156.822 40.0667 155.171 39.5299 153.807 39.5299C150.649 39.5299 149.178 41.355 149.178 43.1086C149.178 45.0411 150.506 45.7569 153.592 46.58C155.351 47.081 155.817 47.3673 155.817 47.9399C155.817 48.763 154.884 49.1567 153.772 49.1567C152.982 49.1567 152.264 49.0135 151.726 48.8346C151.762 48.6914 151.762 48.5483 151.762 48.3335C151.762 47.3673 151.044 46.8305 150.255 46.8305C149.393 46.8305 148.747 47.5104 148.747 48.3335C148.747 48.9061 148.927 49.4072 149.393 49.8366C150.111 50.5524 152.013 51.1965 153.736 51.1965C156.32 51.1965 158.509 49.944 158.509 47.5462C158.509 45.6853 156.966 45.0053 154.238 44.2538ZM146.522 43.9317C146.522 42.8223 146.235 41.7845 145.661 41.1045C144.871 40.1382 143.508 39.5656 141.641 39.5656C138.591 39.5656 137.155 41.0687 137.155 42.4644C137.155 43.3949 137.801 43.9675 138.663 43.9675C139.524 43.9675 140.17 43.3233 140.17 42.5002C140.17 42.3571 140.134 42.1065 140.062 41.9276C140.314 41.8203 140.708 41.7487 141.175 41.7487C142.18 41.7487 142.933 41.9992 143.4 42.5718C143.687 42.8939 143.831 43.4307 143.831 44.1106V45.0411C143.185 44.898 142.144 44.7548 140.959 44.7548C138.304 44.7548 136.438 46.0789 136.438 48.1546C136.438 50.3018 138.196 51.3039 140.098 51.3039C141.605 51.3039 142.969 50.6239 143.902 49.8366V51.0892H148.173V48.9777H146.522V43.9317ZM143.795 48.262C142.933 48.9061 141.964 49.264 140.959 49.264C139.955 49.264 139.273 48.763 139.273 47.8683C139.273 46.8663 140.098 46.2221 141.462 46.2221C142.323 46.2221 143.149 46.3295 143.795 46.4726V48.262ZM107.619 36.7742H109.486L105.861 46.0789L102.2 36.7742H103.995V34.126H97.3194V36.7742H98.8626L104.964 51.0892H106.758L112.859 36.7742H114.33V34.126H107.619V36.7742Z" fill="#F7F4F1"/>
<defs>
<linearGradient id="paint0_linear_6315_587617" x1="70.3876" y1="43.74" x2="81.872" y2="23.721" gradientUnits="userSpaceOnUse">
<stop stop-color="#500800"/>
<stop offset="1" stop-color="#962E15"/>
</linearGradient>
</defs>
</svg>
