<svg width="188" height="84" viewBox="0 0 188 84" fill="none" xmlns="http://www.w3.org/2000/svg">
<path d="M24 25.2916C24.1068 25.2738 24.2146 25.2621 24.3227 25.2566C26.3096 25.2566 28.2964 25.2566 30.2833 25.2566C30.356 25.2566 30.4287 25.2682 30.5282 25.2763C31.3416 28.4435 32.155 31.613 32.9931 34.8765C33.0506 34.7058 33.084 34.6234 33.1065 34.5373C33.8698 31.5517 34.6318 28.5659 35.3926 25.5798C35.4406 25.3901 35.469 25.2493 35.7248 25.25C37.7354 25.2602 39.746 25.2558 41.758 25.258C41.8208 25.2631 41.883 25.2734 41.9441 25.2887V41.2125H37.9099V29.4745L37.827 29.4621C37.6681 30.0866 37.5086 30.7109 37.3487 31.335C36.5341 34.5331 35.7207 37.7313 34.9085 40.9294C34.8504 41.1585 34.7631 41.2431 34.5225 41.2395C33.5296 41.2264 32.5359 41.2205 31.5423 41.2395C31.2399 41.2461 31.1279 41.149 31.056 40.8615C30.1178 37.1318 29.1728 33.4039 28.2211 29.678C28.2006 29.5818 28.152 29.4939 28.0815 29.4256V41.2344H27.6294C26.5638 41.2344 25.4981 41.2344 24.431 41.2344C24.2857 41.2344 24.1439 41.2118 24 41.1994V25.2916Z" fill="#D70007"/>
<path d="M164 41.1976C163.553 41.21 163.106 41.2304 162.66 41.2326C161.667 41.2385 160.673 41.2224 159.68 41.2421C159.398 41.248 159.244 41.1422 159.098 40.9204C157.278 38.2266 155.452 35.5363 153.62 32.8494C153.569 32.7728 153.508 32.7035 153.402 32.5626V41.2086H148.768V25.2548H149.177C150.448 25.2548 151.721 25.2621 152.992 25.2497C153.103 25.239 153.215 25.2609 153.315 25.3126C153.414 25.3644 153.497 25.4439 153.552 25.5416C155.389 28.2684 157.233 30.9903 159.084 33.7074C159.143 33.7942 159.209 33.8767 159.328 34.0386V25.2964C159.397 25.2786 159.467 25.2657 159.537 25.2577C160.943 25.2577 162.348 25.2577 163.753 25.2577C163.837 25.2633 163.921 25.275 164.003 25.2928L164 41.1976Z" fill="#D70007"/>
<path d="M138.995 25C139.551 25.1065 140.113 25.1839 140.66 25.3247C143.626 26.0893 145.577 28.3219 145.966 31.3805C146.166 32.9477 146.153 34.5112 145.763 36.05C145.059 38.8262 143.298 40.5736 140.534 41.2339C138.555 41.7128 136.484 41.6457 134.54 41.0398C132.223 40.3226 130.75 38.7051 130.04 36.4141C129.397 34.3688 129.395 32.1749 130.034 30.1285C130.916 27.253 132.953 25.6778 135.857 25.1488L136.669 25.0029L138.995 25ZM134.479 33.0557C134.545 33.7999 134.567 34.3106 134.64 34.8133C134.907 36.657 135.948 37.6807 137.648 37.7996C139.142 37.9047 140.363 37.1794 140.779 35.8472C141.279 34.242 141.33 32.5953 140.875 30.9668C140.483 29.5601 139.349 28.7568 137.833 28.7334C136.406 28.7115 135.251 29.5156 134.853 30.9223C134.634 31.6847 134.573 32.4902 134.479 33.0557Z" fill="#D70007"/>
<path d="M130.781 59.0003C130.463 58.8981 130.144 58.8025 129.828 58.6931C127.662 57.9401 126.266 56.47 125.718 54.2213C125.714 54.1691 125.714 54.1166 125.718 54.0644L128.567 56.6363L128.616 56.5925L126.122 53.7412C127.333 54.0476 128.342 54.5598 129.175 55.3807C130.181 56.3744 130.798 57.5695 130.928 59.0003H130.781Z" fill="#52606B"/>
<path d="M57.0742 58.9997C57.2305 57.4814 57.8978 56.2214 59.0187 55.2057C59.8132 54.4856 60.7538 54.0333 61.8914 53.7305L59.3276 56.6562L59.3683 56.6956L62.3253 54.0274C61.9103 55.8515 61.0111 57.229 59.4526 58.0987C58.8711 58.4255 58.206 58.6138 57.5794 58.864C57.4595 58.9115 57.3381 58.9545 57.216 58.9997H57.0742Z" fill="#52606B"/>
<path d="M116.68 41.2114H111.758V25.2832H116.665V30.8232H122.01V25.2869H126.943V41.2085H122.031V34.7959H116.68V41.2114Z" fill="#D70007"/>
<path d="M96.3983 41.2148H91.2453C91.0273 40.4852 90.7859 39.7497 90.586 39.0026C90.501 38.6859 90.3556 38.5955 90.0329 38.5991C88.4468 38.6176 86.8602 38.6176 85.2732 38.5991C84.9701 38.5991 84.8516 38.6983 84.7774 38.9785C84.6008 39.6468 84.4009 40.3086 84.1894 40.9667C84.1559 41.0732 84.0164 41.2213 83.9255 41.2221C82.3511 41.2359 80.7766 41.2294 79.2007 41.2257C79.1796 41.2257 79.1593 41.2067 79.1055 41.1805C79.2065 40.9047 79.3068 40.6238 79.4115 40.3451C81.2486 35.4391 83.0833 30.5322 84.9155 25.6244C85.0217 25.3406 85.1561 25.2435 85.46 25.2472C87.0097 25.264 88.5602 25.2581 90.1121 25.2508C90.3302 25.2508 90.4552 25.2873 90.5424 25.5222C92.4731 30.7044 94.4095 35.8847 96.3518 41.063C96.3641 41.0958 96.3729 41.1309 96.3983 41.2148ZM87.7323 29.5833L87.6545 29.5694C87.0962 31.4146 86.5387 33.2591 85.9739 35.1269H89.4267C88.8568 33.2634 88.2949 31.4204 87.7323 29.5833Z" fill="#D70007"/>
<path d="M43.4551 41.2336C43.8447 40.1888 44.2081 39.2024 44.5796 38.2181C46.1526 34.0161 47.7249 29.814 49.2964 25.6119C49.396 25.3426 49.5145 25.2471 49.8118 25.2471C51.3739 25.2646 52.9374 25.2595 54.4981 25.2514C54.7227 25.2514 54.8346 25.3105 54.9189 25.5375C56.8389 30.6832 58.764 35.8272 60.6941 40.9695C60.7188 41.0359 60.7348 41.1052 60.7668 41.2023C60.6705 41.2178 60.5735 41.2283 60.4761 41.2336C58.9627 41.2336 57.4485 41.2336 55.9351 41.2395C55.7054 41.2395 55.5979 41.1789 55.5332 40.9411C55.3456 40.2516 55.113 39.5738 54.9204 38.885C54.8586 38.6661 54.7525 38.6034 54.5373 38.6041C52.8785 38.6114 51.2195 38.6114 49.5603 38.6041C49.3378 38.6041 49.2404 38.6771 49.1823 38.8916C48.9889 39.5927 48.7854 40.2917 48.5644 40.9848C48.5317 41.087 48.3834 41.2234 48.2875 41.2242C46.6956 41.238 45.1102 41.2336 43.4551 41.2336ZM52.1051 29.6021L52.0143 29.5978L50.3424 35.118H53.7915L52.1051 29.6021Z" fill="#D70007"/>
<path d="M109.469 29.2319H104.484V41.2048H99.567V29.2319H94.5703V25.2847H109.472L109.469 29.2319Z" fill="#D70007"/>
<path d="M77.5977 47.6784H78.9526C80.418 47.6828 81.8834 47.6595 83.3467 47.701C84.3265 47.7288 85.1399 48.1344 85.5673 49.0778C86.098 50.2496 85.6349 51.3761 84.3563 52.0474C84.4959 52.1035 84.6129 52.1517 84.7314 52.1977C85.7294 52.5851 86.2092 53.3213 86.1852 54.4325C86.1641 55.4999 85.5354 56.4615 84.5991 56.7286C84.042 56.8934 83.4663 56.9864 82.8858 57.0051C81.1325 57.0401 79.3778 57.0182 77.5977 57.0182V47.6784ZM80.5118 54.9986C80.9995 54.9986 81.4676 55.0103 81.9343 54.9943C82.1988 54.9922 82.4619 54.9574 82.7179 54.8907C83.0748 54.7871 83.2994 54.4295 83.2994 54.0523C83.306 53.8744 83.2538 53.6993 83.151 53.5541C83.0482 53.409 82.9006 53.302 82.731 53.2498C82.0041 53.0404 81.2598 53.1483 80.5118 53.1308V54.9986ZM80.5016 51.3703C81.1333 51.3345 81.7373 51.3331 82.3268 51.2572C82.7215 51.2068 82.9084 50.8924 82.92 50.4619C82.9294 50.0716 82.7339 49.7235 82.3639 49.6754C81.7526 49.5959 81.1282 49.5944 80.5016 49.5601V51.3703Z" fill="#02114B"/>
<path d="M97.7499 47.7041V49.6901H92.9749V51.1493H97.4039V53.0668H92.9698V54.8908H97.8894V57.0103H90.0898V47.7041H97.7499Z" fill="#02114B"/>
<path d="M107.521 57.0191H104.627V50.0206H101.691V47.7041H110.414V50.0024H107.521V57.0191Z" fill="#02114B"/>
<path d="M121.346 52.2089C121.572 52.0024 121.751 51.8214 121.95 51.6682C121.992 51.6412 122.039 51.6237 122.088 51.6171C122.137 51.6106 122.187 51.6151 122.234 51.6303C124.323 52.608 126.57 52.7174 128.817 52.9224C134.226 53.4156 139.362 52.3533 144.358 50.3688C144.503 50.3013 144.662 50.267 144.822 50.2681C144.369 50.5008 143.922 50.7504 143.459 50.9627C140.507 52.3168 137.404 53.1158 134.18 53.4631C132.022 53.6951 129.861 53.8169 127.692 53.671C125.668 53.5353 123.672 53.2551 121.79 52.4307C121.65 52.3752 121.519 52.2979 121.346 52.2089Z" fill="#52606B"/>
<path d="M43.2069 50.2354C44.4499 50.6636 45.6856 51.1109 46.9366 51.5144C49.528 52.3447 52.1753 52.9444 54.9012 52.9969C57.7317 53.0546 60.571 52.9969 63.3572 52.4235C64.1204 52.2666 64.8589 51.9689 65.5902 51.6873C65.862 51.5829 66.0314 51.5924 66.2168 51.8018C66.336 51.9368 66.4784 52.0506 66.6805 52.2396C66.1761 52.4424 65.7312 52.6482 65.2689 52.8021C63.4517 53.4077 61.5675 53.6499 59.6638 53.7054C55.2392 53.8316 50.8945 53.3661 46.7054 51.8383C45.6151 51.4414 44.5778 50.9161 43.5173 50.4462C43.4045 50.3898 43.2951 50.3269 43.1895 50.258L43.2069 50.2354Z" fill="#52606B"/>
<path d="M145.387 50.2249L148.725 48.4789C148.715 48.4512 148.703 48.4242 148.691 48.3972L145.174 49.7529C146.576 47.5494 149.252 46.4557 152.007 46.9132C150.933 49.0444 148.132 50.5365 145.387 50.2249Z" fill="#52606B"/>
<path d="M35.9941 46.9152C38.696 46.4592 41.3993 47.5098 42.827 49.7541L39.3197 48.3992L39.2812 48.4795L42.566 50.2021C40.1818 50.5851 37.1514 49.1989 35.9941 46.9152Z" fill="#52606B"/>
<path d="M140.119 51.1098C140.991 50.1511 141.809 49.2471 142.629 48.3431L142.578 48.2884C141.689 49.091 140.802 49.8935 139.875 50.7282C140.318 48.2519 142.419 46.2228 145.146 45.7632C144.995 47.7455 143.185 50.3561 140.119 51.1098Z" fill="#52606B"/>
<path d="M45.433 48.4059L47.8804 51.1054C45.0455 50.4116 43.0909 48.0308 42.8438 45.769C45.5718 46.1784 47.7401 48.3293 48.113 50.7136L45.4918 48.3475L45.433 48.4059Z" fill="#52606B"/>
<path d="M51.124 56.096C52.2202 55.6086 53.3171 55.1205 54.435 54.6243C53.7976 56.5746 50.0824 58.2928 47.9141 57.669C48.6119 55.6392 51.9352 53.8064 54.2337 54.2325L51.0928 56.0259L51.124 56.096Z" fill="#52606B"/>
<path d="M136.923 56.0321L133.797 54.2467C135.998 53.9279 138.951 55.1952 140.098 57.6533C138.17 58.396 134.402 56.6712 133.547 54.6144L136.891 56.0992C136.901 56.0766 136.912 56.0547 136.923 56.0321Z" fill="#52606B"/>
<path d="M133.737 52.052L135.943 49.6494L133.316 51.7427C133.516 49.6421 136.505 47.1658 138.883 47.1074C138.781 49.1766 135.921 51.8951 133.737 52.052Z" fill="#52606B"/>
<path d="M52.02 49.6097L54.2625 52.0371C51.818 51.6592 49.6162 49.609 49.1016 47.1414C51.0642 46.8058 54.2763 49.4346 54.7205 51.765L52.02 49.6097Z" fill="#52606B"/>
<path d="M126.26 52.1218L129.168 50.3021L129.132 50.2292L125.934 51.8387C126.554 49.8396 130.089 47.99 132.395 48.4343C131.419 50.7939 128.916 52.1707 126.26 52.1218Z" fill="#52606B"/>
<path d="M55.6094 48.4442C57.8133 47.9488 61.33 49.7794 62.0838 51.8471L58.876 50.2383L58.8382 50.3025L61.6731 52.0791C59.7178 52.5796 56.241 50.482 55.6094 48.4442Z" fill="#52606B"/>
<path d="M140.201 53.112L143.706 53.7687L143.726 53.6913L140.363 52.6815C142.48 52.0023 145.676 52.5196 147.106 54.6085C144.785 55.4555 141.764 55.1002 140.201 53.112Z" fill="#52606B"/>
<path d="M47.6411 52.6814L45.9154 53.1965C45.3577 53.3499 44.8113 53.5418 44.2799 53.7707L47.7777 53.114C46.4809 54.841 43.758 55.5458 40.9238 54.6433C41.3919 53.0527 45.581 51.8014 47.6411 52.6814Z" fill="#52606B"/>
<path d="M77.9364 41.0047C77.1709 39.5156 76.4419 38.0068 75.6256 36.5461C75.06 35.5341 74.36 34.6053 73.1541 34.2573C73.1301 34.2507 73.1156 34.2128 73.0814 34.1719C73.1934 34.1362 73.2828 34.1055 73.3722 34.0793C75.6256 33.4226 76.7886 31.8474 76.7566 29.5126C76.7254 27.4493 75.4845 25.8828 73.4754 25.518C72.4934 25.3392 71.4801 25.2794 70.4791 25.2662C67.9234 25.2327 65.3676 25.2546 62.8111 25.2546H62.4062V41.2112H67.3368V34.7906C68.1633 34.7002 68.8633 34.8636 69.351 35.5531C69.5443 35.8322 69.7206 36.1229 69.8787 36.4235C70.6943 37.9272 71.5099 39.431 72.3095 40.9427C72.4309 41.1733 72.5704 41.2419 72.8183 41.2397C74.4298 41.2302 76.0406 41.2353 77.6521 41.2353H78.0323C77.9851 41.1135 77.9654 41.0573 77.9364 41.0047ZM71.6124 30.8296C71.5222 30.9948 71.3992 31.1397 71.2509 31.2552C71.1026 31.3707 70.9322 31.4543 70.7503 31.5008C69.6454 31.8211 68.518 31.7044 67.3651 31.7197V28.575C68.4104 28.575 69.4419 28.5021 70.4602 28.5933C71.6124 28.6954 72.1619 29.8417 71.6124 30.8296Z" fill="#D70007"/>
</svg>
