<svg width="188" height="84" viewBox="0 0 188 84" fill="none" xmlns="http://www.w3.org/2000/svg">
<path d="M59.0446 55.4631V51.5138C59.9969 51.1497 60.8746 51.3457 61.6215 51.3177C62.2937 51.5885 61.9203 52.2234 62.2004 52.5595C62.8819 52.5221 63.1433 51.9339 63.6102 51.6725C66.2524 50.1973 69.6602 51.0096 71.1634 53.6518C72.732 56.4155 72.7506 59.3191 71.2288 62.1014C69.5856 65.1078 66.2524 65.8734 63.3021 64.0621C63.0687 63.9127 62.8539 63.7446 62.4338 63.8473V69.7667C61.3414 70.1868 60.3331 69.8694 59.2407 70.0094C58.8672 68.2915 59.2033 66.6483 59.0166 65.0424C59.2313 61.8493 59.2033 58.6469 59.0259 55.4538L59.0446 55.4631ZM68.8573 58.068C68.8106 57.5825 68.8013 57.1717 68.7266 56.7609C68.3905 54.9776 67.0927 53.8479 65.4681 53.9133C63.965 53.9786 62.7419 55.127 62.4431 56.7983C62.2657 57.8253 62.275 58.8616 62.6298 59.8513C63.1527 61.3265 64.3197 62.1668 65.7202 62.1014C67.0647 62.0454 68.2971 61.037 68.6612 59.6272C68.8013 59.1044 68.8013 58.5442 68.8573 58.068Z" fill="#232321"/>
<path d="M98.3232 58.6844H89.5562C89.7243 62.1203 92.5345 62.8952 97.0441 60.8598C97.5949 61.4761 97.8937 62.2323 98.1831 62.9606C95.4942 65.4908 91.2741 65.7615 88.5105 63.6328C85.8403 61.5788 85.028 57.3306 86.7272 54.2589C88.2304 51.5327 91.4515 50.3002 94.5606 51.2619C97.3615 52.1209 98.7433 54.7164 98.3232 58.6751V58.6844ZM89.5095 56.2663C91.3581 56.3316 93.1788 56.4437 95.0181 56.2103C94.5699 54.2683 93.823 53.5307 92.3852 53.5587C90.9007 53.5867 89.995 54.4083 89.5002 56.2663H89.5095Z" fill="#252523"/>
<path d="M129.992 64.6131C127.963 64.7874 126.809 64.3797 126.529 63.39C125.231 64.4637 123.896 65.2854 122.122 65.0239C119.797 64.6785 118.238 62.9325 118.359 60.6358C118.434 59.31 119.003 58.283 120.18 57.5921C121.524 56.7984 122.99 56.4903 124.503 56.3503C125.175 56.2849 125.856 56.2756 126.547 56.2383C126.043 53.6334 124.419 53.2973 120.609 54.9592C119.909 54.455 119.722 53.6147 119.302 52.9331C121.431 50.8324 125.446 50.3002 127.854 51.8221C129.236 52.6904 129.946 54.0162 129.964 55.6314C130.011 58.5911 129.974 61.5414 129.974 64.6131H129.992ZM126.687 58.7778C125.184 58.6097 123.998 58.6938 123.242 58.9739C121.991 59.4407 121.44 60.365 121.832 61.2987C122.262 62.3257 123.504 62.7552 124.624 62.223C126.006 61.5694 126.538 60.3837 126.697 58.7778H126.687Z" fill="#252523"/>
<path d="M58.3346 64.6039C57.3169 64.9214 56.2992 64.6786 55.3656 64.7253C54.9174 64.3425 55.1508 63.8664 54.9828 63.5116C54.6373 63.3622 54.5066 63.6516 54.3106 63.801C52.0604 65.5563 49.8944 65.4442 48.0271 63.689C46.3932 62.1578 46.4492 58.3298 49.1381 57.2654C50.4359 56.7519 51.7523 56.4251 53.1341 56.3224C53.7317 56.2758 54.3386 56.2384 54.9454 56.2011C54.3946 53.5682 52.9848 53.2787 48.9514 54.9406C48.3258 54.3991 48.0644 53.6055 47.6349 52.7185C49.8757 51.122 52.2939 50.5151 54.9921 51.2714C57.1022 51.8689 58.1292 53.3721 58.4093 55.4635C58.3813 58.5072 58.3626 61.5509 58.3346 64.5946V64.6039ZM54.9828 58.7033C53.8251 58.3671 52.7514 58.6659 51.715 58.9553C50.4172 59.3101 49.8477 60.2811 50.2118 61.2241C50.632 62.3352 52.0138 62.8113 53.1528 62.1671C54.4599 61.4295 55.0668 60.2811 54.9828 58.7033Z" fill="#252523"/>
<path d="M72.8351 51.4114C73.9928 51.2247 74.9451 51.2807 76.0188 51.3741C76.3456 53.2694 76.0935 55.1834 76.1682 57.088C76.2056 58.0497 76.1215 59.03 76.2242 59.9824C76.4203 61.859 77.7087 62.5966 79.4547 61.8683C81.0512 61.2054 81.6768 59.8236 81.8262 58.2644C81.9755 56.7613 81.8915 55.2301 81.9102 53.7175C81.9102 52.9706 81.9102 52.233 81.9102 51.4021H85.178V64.5479C84.2163 64.884 83.2266 64.744 82.3117 64.6693C81.7421 64.1931 82.2183 63.5302 81.7608 63.0354C80.5564 64.1838 79.2399 65.0894 77.4473 65.0708C74.6557 65.0428 72.9751 63.6516 72.8631 60.86C72.7417 57.7696 72.8351 54.6792 72.8351 51.4301V51.4114Z" fill="#232321"/>
<path d="M130.907 63.11C131.309 62.1576 131.757 61.4854 132.364 60.8319C132.98 61.1306 133.587 61.4387 134.194 61.7188C134.894 62.0456 135.632 62.1857 136.406 62.0549C136.985 61.9616 137.508 61.7095 137.602 61.0933C137.676 60.5891 137.349 60.1876 136.883 59.9542C135.837 59.4407 134.791 58.9272 133.746 58.4044C131.888 57.4707 131.103 56.2196 131.281 54.5204C131.458 52.8678 132.532 51.7474 134.511 51.2246C136.771 50.6177 138.834 51.0192 140.851 52.5037L139.628 54.9312C138.451 54.4177 137.405 53.8761 136.201 53.9695C135.575 54.0162 134.894 54.1189 134.763 54.8752C134.651 55.5474 135.23 55.7995 135.734 56.0329C136.724 56.509 137.723 56.9665 138.713 57.4427C140.281 58.199 141.205 59.4034 141.093 61.196C140.972 62.9606 139.945 64.137 138.311 64.6692C135.622 65.5468 133.185 64.9866 130.917 63.11H130.907Z" fill="#252523"/>
<path d="M100.349 60.8039C101.47 61.2707 102.375 61.9709 103.496 62.0643C104.327 62.1297 105.279 62.2044 105.606 61.2334C105.923 60.2624 104.98 59.9823 104.345 59.6368C103.44 59.1513 102.487 58.7592 101.563 58.2924C100.163 57.5828 99.3037 56.4904 99.341 54.8658C99.3784 53.1573 100.321 52.0089 101.862 51.4393C104.345 50.5244 106.67 50.8418 108.892 52.4757L107.744 54.8845C106.596 54.5111 105.559 53.9042 104.383 53.9602C103.757 53.9882 103.038 54.0722 102.833 54.7538C102.609 55.5194 103.318 55.8088 103.86 56.0796C104.84 56.5744 105.849 57.0039 106.838 57.4801C108.341 58.199 109.228 59.3847 109.172 61.056C109.107 62.8019 108.136 64.0437 106.493 64.6225C103.729 65.6122 101.255 64.94 98.9583 63.138C99.285 62.1857 99.8826 61.5415 100.349 60.8039Z" fill="#252523"/>
<path d="M111.152 54.3806C110.639 54.0631 110.069 54.3806 109.687 53.8764V51.5423C110.116 51.0755 110.686 51.4489 111.236 51.0194C111.507 50.1045 111.19 48.9934 111.395 47.8263C112.329 47.4436 113.356 47.6863 114.429 47.6583C114.915 48.7693 114.429 49.9738 114.728 51.0661C115.606 51.5236 116.53 51.0941 117.501 51.4209C117.604 52.2519 117.632 53.1108 117.501 53.9418C116.614 54.4646 115.662 53.9418 114.654 54.4179C114.654 56.1079 114.626 57.8818 114.654 59.6557C114.672 60.7481 115.279 61.4483 116.325 61.7378C116.773 61.8592 117.249 61.9245 117.781 62.0365C117.949 62.9329 117.931 63.8012 117.781 64.6414C113.823 65.407 111.348 63.465 111.255 59.6184C111.208 57.8444 111.395 56.0612 111.143 54.3713L111.152 54.3806Z" fill="#232321"/>
<path d="M38 38.4244H39.6526V20.6196H38V14H48.0835C49.5119 17.3612 50.1842 21.0864 51.8461 24.3449L55.6834 14H65.5334V20.6196H63.8809V38.4244H65.5334V45.2587H54.9738V38.4244H56.8411V27.6593H56.6824L51.7994 40.4971C49.9321 36.3797 48.6623 31.9355 47.0097 27.6967L46.907 38.4244H48.5596V45.2587H38V38.4244ZM66.5604 38.4244H67.7555L71.8262 14H83.1234V14.1867L87.0635 38.415H88.2959V45.2494H78.5672V38.415H79.809V35.7261H75.0473V38.415H76.2891V45.2494H66.5604V38.415V38.4244ZM77.4562 22.3375L75.8783 31.7954H78.9874C78.6419 28.6303 78.1097 25.4559 77.4655 22.3375H77.4562ZM89.3322 38.4244H90.9848V20.6196H89.3322V14H105.382L108.584 17.2211V27.1552L105.933 29.7787L108.584 32.2622V38.4244H110.237V45.2587H100.919V32.8411H98.6407V38.4337H99.8825V45.268H89.3229V38.4337L89.3322 38.4244ZM100.919 20.8717L98.6407 20.7316V28.0795H100.919V20.8717ZM111.264 41.8322V17.2024L114.485 14H125.044L128.247 17.2211V26.8284H121.207V20.8343H118.724V38.4244H121.207V32.421H128.247V42.0563L125.026 45.2587H114.681L111.273 41.8322H111.264ZM129.274 38.4244C129.694 38.4244 130.114 38.443 130.516 38.3403C131.795 30.2456 133.177 22.1695 134.446 14.0747L145.716 14.1027L149.646 38.4244H151V45.2587H141.066V38.4244H142.513V35.7354H137.751V38.4244H138.993V45.2587H129.265V38.4244H129.274ZM140.17 22.2722L138.424 31.8048H141.748L140.17 22.2722Z" fill="#E20123"/>
</svg>
