<svg width="188" height="84" xmlns="http://www.w3.org/2000/svg"><g class="layer"><path d="M85.32 32.69l-7.95 16.84-1.9-16.84H68.2l3.2 23.77h2.29l-4.57 9.62h6.77l4.81-9.62 11.89-23.77h-7.27zm44.97 8.06l-.19 1.02h-6.26l.18-1.02c.3-1.66 1.34-3.03 3.83-3.03 2.48 0 2.73 1.36 2.44 3.03zm-1.5-8.54c-8.06 0-11.19 4.39-12.11 9.51l-1 5.57c-1.05 5.86 1.25 9.66 9.11 9.66 3.38 0 7.05-.73 9.38-1.51l-.1-5.27c-2.26.63-5.31 1.02-7.55 1.02-3.28 0-4.25-.73-3.76-3.46l.12-.68h13.04l.89-4.98c.93-5.18.03-9.86-8.03-9.86m14.56-5.23l-1.03 5.71h-3.28l-1.02 5.66h3.28l-2.24 12.5c-.8 4.39 1.59 6.1 6.21 6.1 1.64 0 3.65-.34 5.33-.88l.12-5.31c-1 .29-2.03.44-3.07.43-.89 0-1.43-.34-1.25-1.31l2.07-11.52h5.12L155 32.7h-5.53l1.21-6.69-7.34.97zm-36.86 6.8l.62 4.12-3.11-2.54-4.03 2.54 2.11-4.12-3.12-2.54h4.41l2.11-4.12.62 4.12h4.42l-4.03 2.54zm.81 11.94l-.36 2.01c-.42 2.34-2.35 2.83-4.69 2.83h-4.63l1.36-7.57h5.67c1.99 0 2.97.92 2.64 2.73h.01zm.72-21.77H94.93l-5.85 32.51h14.13c6.62 0 10.18-3.17 11-7.76l.57-3.17c.55-3.03-1.17-5.37-3.8-6.01 2.85-1.12 4.19-2.78 4.61-5.12l.6-3.32c.79-4.39-1.26-7.13-8.17-7.13M50.7 34.06l-2.21 12.3c-.45 2.54-2.38 4.1-6.11 4.1-3.73 0-5.09-1.56-4.64-4.1l2.21-12.3c.46-2.54 2.38-4.1 6.12-4.1 3.73 0 5.09 1.56 4.63 4.1zm-3.47-10.6c-9.35 0-13.74 5.03-14.62 9.96l-2.45 13.57c-.88 4.93 1.69 9.96 11.05 9.96 9.35 0 13.74-5.03 14.62-9.96l2.44-13.57c.89-4.93-1.69-9.96-11.04-9.96m14.95-.49l-6.02 33.49h7.17L69.52 22l-7.34.97z" fill="red" id="svg_1"/></g></svg>