<svg width="188" height="84" viewBox="0 0 188 84" fill="none" xmlns="http://www.w3.org/2000/svg">
<path d="M54.2783 55.3419C57.1472 55.4404 59.7545 55.6402 62.377 55.5984C68.9515 55.5328 74.8294 51.6382 76.7096 45.9364C78.4407 40.6491 77.0138 35.7614 73.7859 31.4583C67.7802 23.4334 59.5233 19.5298 49.4074 20.0129C43.3836 20.3111 38.2937 22.7326 35.5647 28.4493C33.7393 32.2724 33.9097 36.2505 35.6894 39.9841C38.9235 46.7684 42.4191 53.4364 45.8083 60.1551C45.8778 60.28 45.9172 60.4188 45.9235 60.561C45.9298 60.7031 45.9029 60.8448 45.8448 60.9752C43.989 59.669 42.0571 58.4523 40.2925 57.0358C35.446 53.159 31.7496 48.4056 29.9485 42.4533C26.5532 31.2018 32.5376 21.2386 44.2598 18.7992C56.1858 16.3091 66.5907 19.8549 75.7877 27.1909C81.1788 31.4911 85.003 36.9125 86.4117 43.7505C88.4074 53.4423 83.065 61.5805 73.8741 64.5924C69.5752 66 65.1638 66.2744 60.6946 65.7853C60.1926 65.7286 59.4776 65.4871 59.286 65.1173C57.5792 61.9086 55.9668 58.664 54.2783 55.3419Z" fill="#EF4149"/>
<path d="M65.5624 36.4888C65.243 32.6508 62.9065 30.122 59.8489 28.0852C65.0209 29.7224 68.8056 35.5405 68.0876 40.783C67.7408 43.3178 66.2287 45.0325 63.9713 46.1508C56.3289 49.8993 46.2161 44.958 44.6493 36.7482C43.9252 32.961 46.2009 29.624 50.0829 28.4431C55.6504 26.7492 61.5526 30.0803 64.1843 34.2254C64.6589 34.962 65.103 35.7284 65.5624 36.4888Z" fill="#28B045"/>
<path d="M98.9582 50.9555C98.9156 51.8739 98.8548 52.6404 98.8517 53.4097C98.8517 55.9922 98.8122 58.5747 98.8517 61.1632C98.873 62.1891 98.5231 62.5737 97.4522 62.5499C93.9444 62.4694 94.3186 62.9286 94.3095 59.5678C94.2953 53.1105 94.2953 46.6553 94.3095 40.202C94.3095 33.3998 98.5232 29.3561 105.499 29.2427C110.857 29.1592 114.946 31.1632 116.99 36.1016C118.886 40.6851 118.435 45.2358 115.147 49.1364C112.022 52.8431 107.763 53.6095 103.154 52.6612C101.812 52.3809 100.565 51.6235 98.9582 50.9555ZM98.8456 41.5052C98.5414 44.1234 99.0799 46.4077 101.724 47.6781C104.529 49.026 107.407 49.3093 110.096 47.4813C112.679 45.7248 113.443 43.0857 113.175 40.1423C112.764 35.8123 109.676 33.373 105.016 33.6056C101.06 33.7994 98.8487 36.373 98.8456 40.7626V41.5052Z" fill="#28B045"/>
<path d="M138.835 50.8061C137.825 51.3459 137.159 51.7842 136.432 52.0795C128.978 55.1033 120.046 50.7763 119.884 41.83C119.793 36.7604 121.406 32.651 126.203 30.4174C130.426 28.4493 134.804 28.658 138.878 31.0139C142.082 32.8658 143.417 35.8926 143.508 39.4174C143.612 43.3389 143.508 47.2663 143.554 51.1908C143.554 52.2823 143.235 52.7803 142.088 52.658C141.633 52.6088 141.174 52.6088 140.719 52.658C139.541 52.7952 138.692 52.5506 138.835 50.8061ZM138.902 41.5944C138.902 41.2455 138.902 40.8995 138.902 40.5506C138.902 35.1441 134.317 32.1113 129.115 33.99C124.834 35.5586 123.8 40.494 125.111 44.1471C126.346 47.6093 129.644 49.2405 133.402 48.5457C137.469 47.8061 138.902 45.99 138.902 41.5944Z" fill="#28B045"/>
<path d="M148.275 43.315C148.275 40.7355 148.229 38.153 148.296 35.5615C148.326 34.3299 147.861 33.7722 146.62 33.9392C145.235 34.1211 144.794 33.5009 144.952 32.2335C145.003 31.7885 145.003 31.3395 144.952 30.8945C144.864 29.9253 145.284 29.472 146.267 29.6092C147.91 29.8388 148.308 29.1023 148.311 27.5784C148.311 22.1301 151.849 18.9899 157.438 19.2285C158.47 19.2703 158.959 19.6251 158.877 20.645C158.847 20.9913 158.847 21.3395 158.877 21.6858C159.02 22.9561 158.616 23.475 157.152 23.5794C153.97 23.7792 152.78 25.312 152.96 28.3687C153.012 29.2454 153.346 29.6331 154.241 29.6182C155.404 29.5539 156.57 29.5718 157.73 29.6718C157.982 29.7393 158.214 29.8665 158.404 30.0423C158.593 30.2181 158.736 30.4371 158.82 30.6798C159.273 33.7454 159.06 33.9601 155.89 33.9601C152.586 33.9601 152.984 33.808 152.975 36.8766C152.96 41.5913 152.942 46.309 152.993 51.0237C152.993 52.1867 152.75 52.7355 151.411 52.6937C147.73 52.5804 148.32 53.0814 148.278 49.5864C148.256 47.4869 148.275 45.3995 148.275 43.315Z" fill="#28B045"/>
</svg>
