<svg width="188" height="84" viewBox="0 0 188 84" fill="none" xmlns="http://www.w3.org/2000/svg">
<path d="M140.395 51.3117C140.619 50.9602 140.535 50.6756 140.536 50.4082C140.542 45.694 140.542 40.9808 140.536 36.2687C140.536 34.9763 140.729 34.7866 142.028 34.785C144.21 34.785 144.21 34.785 144.21 36.9327C144.21 43.7951 144.21 50.658 144.21 57.5215C144.21 58.8682 143.987 59.0844 142.613 59.0859C141.96 59.0859 141.304 59.0548 140.654 59.0953C139.974 59.1357 139.605 58.8542 139.359 58.2337C137.812 54.338 136.24 50.4579 134.678 46.57C134.139 45.231 133.601 43.892 132.951 42.5562C132.938 42.8159 132.916 43.0756 132.916 43.3337C132.916 48.1029 132.916 52.8679 132.916 57.6288C132.916 58.834 132.662 59.0844 131.455 59.0891C129.242 59.0968 129.242 59.0968 129.242 56.9118V36.3138C129.242 34.9654 129.423 34.7866 130.77 34.785C131.371 34.8118 131.973 34.8081 132.574 34.7742C133.419 34.6855 133.844 35.037 134.144 35.8083C135.871 40.1628 137.628 44.5001 139.379 48.8421C139.702 49.643 140.034 50.4408 140.395 51.3117Z" fill="#0090EA"/>
<path d="M57.9147 50.5368C58.202 50.5368 58.4909 50.5275 58.7782 50.5368C59.4644 50.5648 59.8554 50.9007 59.8302 51.6068C59.7674 53.3952 60.5619 54.6502 62.2373 55.3049C64.0021 55.9939 66.0794 55.5646 67.2617 54.3252C67.6373 53.9383 67.914 53.468 68.0688 52.9537C68.2237 52.4393 68.2521 51.8958 68.1518 51.3683C68.0514 50.8409 67.8252 50.3448 67.4921 49.9216C67.1589 49.4983 66.7284 49.16 66.2364 48.935C65.0415 48.3814 63.743 48.1854 62.4775 47.8759C59.9653 47.2539 57.91 46.0548 57.0354 43.4748C55.6631 39.4205 58.0811 35.4269 62.3739 34.6757C65.4372 34.1392 68.0813 34.8966 70.0534 37.3988C70.9955 38.5854 71.3472 39.9695 71.2985 41.4733C71.275 42.1856 70.9233 42.5246 70.2481 42.5619C69.7001 42.5884 69.149 42.5837 68.5995 42.5619C67.9102 42.5355 67.4894 42.1825 67.5318 41.4625C67.6056 40.2183 66.921 39.0457 65.7465 38.5978C64.1842 38.0022 62.6251 38.0442 61.3234 39.181C59.959 40.3723 60.2809 42.705 61.8777 43.6474C62.7899 44.1855 63.8231 44.3846 64.8405 44.6085C66.1983 44.8817 67.5053 45.3607 68.7157 46.0284C73.01 48.4933 72.9739 54.8368 69.2903 57.619C65.745 60.2985 60.5509 59.8693 57.72 56.6081C56.445 55.1401 55.941 53.4185 56.0368 51.5026C56.0666 50.9007 56.4073 50.613 56.971 50.5555C57.2848 50.5391 57.5993 50.5391 57.9131 50.5555L57.9147 50.5368Z" fill="#0090EA"/>
<path d="M78.4844 48.4688C78.4844 45.4145 78.4624 42.3586 78.5001 39.3042C78.5095 38.6386 78.307 38.48 77.6695 38.5064C76.4683 38.5562 75.264 38.5298 74.0582 38.5173C73.2276 38.5173 72.9481 38.2187 72.9371 37.3852C72.9371 36.8937 72.9292 36.4008 72.9371 35.9093C72.9512 35.0742 73.2197 34.7974 74.066 34.7927C75.8968 34.7834 77.726 34.7927 79.5615 34.7927C81.9157 34.7927 84.2709 34.7927 86.6271 34.7927C87.5551 34.7927 87.8456 35.082 87.8597 35.9871C87.8597 36.4536 87.8597 36.9202 87.8597 37.3867C87.844 38.2016 87.5457 38.5127 86.7214 38.5204C85.5186 38.5329 84.3143 38.5655 83.11 38.508C82.4254 38.4738 82.303 38.7164 82.3061 39.3384C82.3297 45.346 82.3218 51.3521 82.3171 57.3581C82.3171 57.7189 82.3673 58.1279 82.2213 58.4311C81.6419 59.6208 80.5146 58.9241 79.6369 59.0796C79.0858 59.1761 78.6587 58.9117 78.5378 58.33C78.4966 58.0756 78.4813 57.8177 78.4922 57.5602C78.487 54.5256 78.4844 51.4951 78.4844 48.4688Z" fill="#0091EA"/>
<path d="M160.917 59.3703C159.256 59.3485 158.116 58.5103 157.951 57.1806C157.909 56.8416 157.857 56.4311 158.361 56.4373C158.73 56.4373 159.316 56.1387 159.349 56.9163C159.374 57.5274 159.774 57.8742 160.339 57.9489C161.055 58.0438 161.828 58.1806 162.381 57.5259C162.761 57.078 162.632 56.5539 162.067 56.3206C161.627 56.1604 161.174 56.0366 160.713 55.9505C160.226 55.8569 159.751 55.7055 159.3 55.4995C158.32 54.9988 157.901 53.9133 158.372 52.9382C158.901 51.8387 159.909 51.5074 161.041 51.523C162.14 51.537 163.112 51.9071 163.591 52.991C163.737 53.3223 164.062 53.8619 163.488 54.0392C163.086 54.1652 162.437 54.3627 162.28 53.5276C162.181 52.991 161.672 52.8666 161.181 52.8449C160.65 52.8231 160.109 52.8324 159.787 53.3456C159.501 53.8013 159.699 54.1761 160.148 54.3487C160.615 54.5093 161.096 54.6284 161.585 54.7048C163.312 55.0423 164.111 55.8339 163.993 57.1324C163.875 58.431 162.772 59.3097 161.151 59.3688C161.074 59.3719 160.991 59.3688 160.917 59.3703Z" fill="#0091EA"/>
<path d="M118.231 21.2858C118.702 21.2858 119.173 21.2858 119.644 21.2858C119.897 21.2858 120.115 21.3496 120.211 21.5968C120.25 21.6933 120.259 21.7994 120.236 21.901C120.214 22.0026 120.16 22.095 120.084 22.166C118.722 23.5548 117.432 25.0213 115.978 26.3059C115.252 26.9466 114.174 26.6169 113.263 26.4925C112.914 26.4458 112.933 26.0259 113.145 25.7242C114.087 24.3899 115.027 23.0571 115.964 21.7259C116.067 21.5761 116.209 21.4557 116.374 21.3766C116.539 21.2975 116.723 21.2625 116.906 21.2749C117.344 21.292 117.788 21.2858 118.231 21.2858Z" fill="#0091EA"/>
<path d="M148.827 58.3968C149.045 59.1744 148.547 59.2646 147.819 59.2288C146.825 59.1806 146.823 59.2164 146.826 58.1635C146.826 57.2165 146.826 57.2165 147.938 57.2196C148.827 57.2227 148.827 57.2227 148.827 58.3968Z" fill="#0291EA"/>
<path d="M125.235 40.4254C122.82 34.3152 118.207 30.6108 111.732 29.2283C111.377 29.1536 111.079 29.1459 111.145 28.6389C111.292 27.5114 111.396 26.3761 111.507 25.244C111.653 23.7759 111.835 22.3109 111.916 20.8382C111.978 19.6936 111.507 18.7636 110.413 18.2458C109.919 18.0313 109.373 17.9629 108.841 18.0487C108.309 18.1345 107.813 18.3709 107.414 18.7294C106.709 19.3733 106.539 20.2286 106.445 21.1197C106.187 23.5634 105.921 26.0065 105.649 28.4492C105.624 28.67 105.795 29.0355 105.393 29.0712C105.04 29.1054 105.041 28.7415 104.943 28.5254C104.157 26.8147 103.39 25.0791 102.606 23.3607C102.061 22.1865 101.146 21.5645 100.058 21.622C98.9697 21.6796 97.9005 22.51 97.533 23.6437C97.2895 24.4155 97.3542 25.2504 97.7136 25.9765C98.3526 27.3621 98.9556 28.7664 99.637 30.1334C99.9181 30.6964 99.8239 30.911 99.2743 31.2391C93.2811 34.7631 90.2884 40.0398 90.0215 46.8809C90.0733 47.7005 90.0937 48.4983 90.2021 49.2992C91.543 59.3144 100.984 66.3375 111.021 64.7683C122.561 62.9783 129.495 51.1949 125.235 40.4254ZM112.529 36.3385C112.529 35.2779 112.529 34.2172 112.529 33.1566C112.529 32.5221 112.713 32.026 113.472 31.9809C114.186 31.9389 114.745 32.3744 114.765 33.1271C114.823 35.3758 114.836 37.6262 114.853 39.8765C114.853 40.3586 114.652 40.7411 114.128 40.8376C113.564 40.9402 113.029 40.9262 112.699 40.3352C112.535 40.0101 112.46 39.6483 112.481 39.2855C112.481 38.3026 112.481 37.3213 112.481 36.3385H112.529ZM110.623 38.7956C110.644 39.7816 110.284 40.2932 109.427 40.3788C108.57 40.4643 107.94 39.9464 107.849 39.0227C107.801 38.3275 107.792 37.6302 107.822 36.9341C107.844 35.2048 107.877 33.477 107.909 31.7477C107.926 30.8146 108.223 30.5035 109.152 30.4382C109.973 30.3807 110.408 30.6979 110.465 31.5984C110.534 32.7818 110.482 33.9715 110.482 35.1581H110.617C110.617 36.3711 110.598 37.5826 110.623 38.7956ZM107.662 22.3421C107.72 21.8024 107.758 21.2534 107.83 20.7231C107.945 19.8631 108.667 19.2255 109.408 19.3095C110.193 19.3981 110.683 20.1073 110.59 21.0311C110.342 23.4991 110.086 25.9671 109.855 28.4367C109.816 28.8566 109.747 29.0914 109.227 29.0946C108.348 29.0946 107.562 29.4289 106.806 30.1676C107.112 27.4119 107.387 24.8801 107.662 22.3421ZM98.9933 25.5706C98.6792 24.8878 98.5866 24.2362 99.0514 23.594C99.1709 23.4076 99.3351 23.2533 99.5293 23.1447C99.7235 23.0362 99.9417 22.9769 100.165 22.9719C100.706 22.9719 101.055 23.2658 101.264 23.7121C102.363 26.0853 103.427 28.4678 104.517 30.8425C104.647 31.1287 104.559 31.2531 104.299 31.362C103.985 31.491 103.68 31.6372 103.382 31.7943C102.148 32.449 102.149 32.4521 101.549 31.1442C100.697 29.2843 99.8584 27.4212 98.9933 25.5706ZM101.663 59.2537C101.414 59.9069 101.14 60.0018 100.502 59.613C91.5665 54.1699 90.8003 41.6462 99.0325 35.2779C99.2555 35.1052 99.4879 34.9451 99.7705 34.7398C99.8694 35.1814 99.6339 35.3618 99.5271 35.5827C97.979 38.7925 97.3964 42.1143 98.4155 45.5917C98.7829 46.8467 99.5334 47.9104 100.3 48.9664C102.622 52.1436 103.058 55.582 101.666 59.2537H101.663ZM114.816 46.8576C114.739 48.3552 113.91 49.4034 112.572 50.0799C111.941 50.3905 111.281 50.6395 110.601 50.8232C110.19 50.9399 109.973 51.2136 110.082 51.6335C110.19 52.0534 110.517 52.1809 110.94 52.0907C111.731 51.9151 112.494 51.6336 113.208 51.254C113.589 51.0549 113.723 51.1405 113.753 51.537C113.965 54.4312 114.101 57.3222 113.674 60.2117C113.614 60.6176 113.483 60.8338 113.059 60.9722C109.81 62.0557 106.285 62.0069 103.068 60.8338C102.631 60.6783 102.484 60.5896 102.718 60.0562C104.497 55.9786 104.189 51.9694 101.526 48.4438C98.4484 44.3662 98.775 40.2839 100.819 36.0508C101.79 34.0431 103.589 32.9405 105.676 32.2702C106.393 32.0416 106.461 32.1924 106.579 32.9327C106.791 34.3323 106.048 35.2001 105.008 35.8999C103.92 36.6293 103.366 37.6712 103.062 38.8858C102.733 40.1937 103.19 41.1035 104.435 41.6447C104.749 41.78 105.063 41.9013 105.36 42.063C105.631 42.1978 105.857 42.4075 106.01 42.6666C106.163 42.9258 106.238 43.2233 106.224 43.5233C106.224 43.8857 106.213 44.2496 106.233 44.6119C106.233 44.6905 106.249 44.7683 106.28 44.8407C106.31 44.9131 106.356 44.9786 106.413 45.0332C106.47 45.0878 106.537 45.1305 106.612 45.1585C106.686 45.1866 106.765 45.1996 106.844 45.1967C107.204 45.2169 107.422 45.0209 107.51 44.6695C107.965 42.8406 107.163 41.2948 105.381 40.5809C104.223 40.1144 104.112 39.8034 104.522 38.6401C104.87 37.6433 105.602 37.0492 106.473 36.5375C106.473 37.2265 106.464 37.8703 106.473 38.5141C106.492 39.7412 106.787 40.8827 108.012 41.4301C109.194 41.9557 110.355 41.7738 111.39 40.8764C112.069 42.1019 113.126 42.4845 114.443 42.2045C114.773 42.1346 114.861 42.2045 114.858 42.5156C114.845 43.9588 114.893 45.4113 114.819 46.8576H114.816ZM123.181 48.2572C122.69 54.5852 118.221 58.7359 115.098 60.0298C115.451 56.7639 115.349 53.5105 114.968 50.2665C114.935 49.985 115.078 49.8373 115.21 49.6444C115.831 48.8043 116.167 47.7902 116.167 46.7487C116.153 42.9417 116.167 39.1362 116.167 35.3292V34.2919C121.192 37.7786 123.641 42.3585 123.184 48.251L123.181 48.2572Z" fill="#0090EA"/>
<path d="M54.7509 57.4621C53.6874 53.6768 52.6208 49.8926 51.551 46.1094C50.5869 42.699 49.593 39.2932 48.6682 35.8718C48.4437 35.0445 48.0307 34.693 47.1766 34.7708C46.6542 34.8153 46.1289 34.8153 45.6064 34.7708C44.8214 34.7101 44.4304 35.0383 44.2184 35.7987C42.9419 40.4113 41.6261 45.0115 40.3245 49.6179C39.5719 52.2803 38.8219 54.9443 38.0745 57.6098C37.7605 58.742 38.0132 59.0701 39.216 59.0795C39.6336 59.0795 40.0544 59.0561 40.4721 59.0795C41.1975 59.1277 41.5712 58.7964 41.7549 58.1137C42.1694 56.5912 42.6514 55.0874 43.0644 53.5649C43.2057 53.047 43.4648 52.8433 43.9986 52.8495C45.6206 52.8697 47.2425 52.8651 48.866 52.8495C49.3873 52.8495 49.6637 53.033 49.8081 53.5602C50.1567 54.8852 50.5649 56.1947 50.9512 57.5088C51.4097 59.0639 51.4112 59.0639 53.0253 59.0639H53.4964C54.8938 59.0826 55.1246 58.7964 54.7509 57.4621ZM48.0763 49.2462C46.9536 49.2275 45.831 49.2338 44.7083 49.2462C44.4037 49.2462 44.2891 49.1809 44.3676 48.8527C45.0302 46.0535 45.686 43.2505 46.335 40.444L46.5297 40.4549C47.1776 43.2137 47.8277 45.9726 48.4798 48.7314C48.5646 49.0907 48.4939 49.2555 48.0763 49.2462Z" fill="#0090EA"/>
<path d="M31.1132 34.7834C29.229 34.7741 27.3448 34.7834 25.4607 34.7834C24.2187 34.7834 23.9941 35.0027 23.9941 36.2266C23.9941 39.7973 23.9941 43.3684 23.9941 46.9401V56.7236C23.9941 59.0999 23.9941 59.0999 26.42 59.0844C27.5521 59.0844 27.7797 58.8526 27.7813 57.7049C27.7813 55.2462 27.8049 52.7875 27.7672 50.3288C27.7578 49.7067 27.9509 49.5295 28.5601 49.5637C29.419 49.6134 30.2873 49.5854 31.1461 49.5746C33.1296 49.5692 35.0299 48.7846 36.43 47.393C37.83 46.0013 38.6154 44.1164 38.6137 42.1518C38.6231 38.0866 35.285 34.8083 31.1132 34.7834ZM31.2231 45.8251C30.3344 45.8375 29.4441 45.7877 28.5538 45.8406C27.9352 45.8764 27.8033 45.6369 27.8253 45.0817C27.8661 44.1004 27.8363 43.116 27.8363 42.1269C27.8363 41.1192 27.852 40.1052 27.8363 39.1006C27.8269 38.6838 27.932 38.4894 28.4 38.5065C29.3923 38.5407 30.3862 38.4941 31.3832 38.5423C31.866 38.5527 32.342 38.6572 32.7841 38.8498C33.2261 39.0424 33.6255 39.3194 33.9594 39.6649C34.2934 40.0104 34.5554 40.4177 34.7304 40.8634C34.9055 41.3092 34.9901 41.7848 34.9796 42.263C34.9691 42.7412 34.8636 43.2126 34.6691 43.6504C34.4747 44.0883 34.195 44.4838 33.8462 44.8146C33.4974 45.1454 33.0862 45.4049 32.6361 45.5782C32.186 45.7516 31.7059 45.8355 31.2231 45.8251Z" fill="#0090EA"/>
<path d="M155.673 56.7808C155.395 56.8057 155.359 57.0918 155.224 57.2785C154.753 57.9238 154.087 58.0763 153.34 57.9207C152.592 57.7652 152.219 57.2209 152.084 56.4978C152.013 56.0981 152.093 55.8524 152.591 55.8757C153.189 55.9068 153.792 55.8835 154.393 55.8835H155.263C157.012 55.8835 157.012 55.8835 156.818 54.1199C156.634 52.445 155.546 51.5026 153.806 51.5088C152.128 51.5166 150.834 52.5974 150.693 54.1868C150.621 55.0147 150.621 55.8472 150.693 56.6751C150.815 58.0934 151.887 59.14 153.323 59.3499C154.72 59.5537 156.133 58.8678 156.584 57.7326C156.689 57.4666 156.937 57.1338 156.645 56.871C156.383 56.6237 156.001 56.7528 155.673 56.7808ZM152.253 53.8416C152.589 53.1557 153.186 52.8758 153.916 52.9085C154.646 52.9411 155.197 53.2833 155.444 54.0204C155.601 54.487 155.472 54.7078 154.952 54.6845C154.563 54.6673 154.167 54.6845 153.779 54.6845C153.44 54.6845 153.101 54.6845 152.762 54.6845C152.055 54.6705 151.939 54.4838 152.253 53.8416Z" fill="#0191EA"/>
</svg>
