<svg width="188" height="84" viewBox="0 0 188 84" fill="none" xmlns="http://www.w3.org/2000/svg">
<path d="M39.7271 32.7617C40.4662 34.6603 40.9856 36.6385 41.6748 38.557C43.7007 38.5918 45.73 38.5204 47.7559 38.5935C46.1828 39.8846 44.4581 40.9849 42.8501 42.2313C43.471 44.1481 44.1518 46.0483 44.6895 47.99C43.0132 46.8764 41.4101 45.6516 39.7837 44.465C38.0824 45.6168 36.461 46.8814 34.773 48.0547C35.2891 46.2673 35.9083 44.5115 36.4826 42.7407C36.5259 42.5565 36.6325 42.3673 36.5792 42.1748C34.9894 40.9517 33.2898 39.8647 31.7383 38.5918C33.7609 38.5321 35.7851 38.5719 37.8077 38.5702C38.5036 36.6534 39.0662 34.6901 39.7271 32.7617Z" fill="white"/>
<path d="M33.2452 31.8855C35.4227 29.7546 37.5418 27.5656 39.7691 25.4878C42.4892 28.158 45.2027 30.8333 47.8862 33.5384C50.2766 36.0576 52.4208 38.8789 53.7708 42.0952C54.4966 43.9091 54.9744 45.8972 54.6814 47.8539C54.2902 50.4727 52.2676 52.7612 49.7073 53.4715C46.9672 54.3046 43.7711 53.2475 42.1164 50.9075C41.845 50.5938 41.6536 50.0429 41.1475 50.1142C40.743 50.0429 40.4167 50.4312 40.5233 50.8179C40.7946 52.962 41.552 55.0797 42.8372 56.8322C43.7344 58.0553 44.9663 58.9979 46.3397 59.6335C41.9765 59.6385 37.6134 59.6535 33.2519 59.6252C34.1542 59.1058 35.0747 58.593 35.8039 57.8346C37.6683 55.9294 38.6472 53.3189 39.0051 50.7183C39.1016 50.0229 37.9863 49.8952 37.7233 50.4578C36.8493 51.7522 35.6124 52.8293 34.1192 53.3454C32.2797 53.9926 30.1722 53.8599 28.4543 52.9322C26.2935 51.802 24.8236 49.4886 24.7321 47.054C24.6688 44.6907 25.4612 42.3872 26.5632 40.3211C28.2712 37.143 30.6667 34.3914 33.2452 31.8855ZM39.7275 32.7617C39.0667 34.6901 38.504 36.6534 37.8082 38.5702C35.7856 38.5719 33.7613 38.532 31.7387 38.5918C33.2902 39.8647 34.9898 40.9517 36.5796 42.1748C36.6329 42.3673 36.5263 42.5565 36.4831 42.7407C35.9087 44.5115 35.2895 46.2673 34.7734 48.0547C36.4614 46.8814 38.0828 45.6168 39.7841 44.465C41.4105 45.6516 43.0136 46.8764 44.69 47.99C44.1523 46.0483 43.4714 44.148 42.8505 42.2312C44.4586 40.9849 46.1832 39.8846 47.7563 38.5935C45.7304 38.5204 43.7011 38.5918 41.6752 38.5569C40.986 36.6385 40.4667 34.6603 39.7275 32.7617Z" fill="#D70A0A"/>
<path d="M72.5183 29.4242C73.9116 29.2566 75.3965 29.2549 76.685 29.8856C78.1199 30.5145 79.1471 31.9252 79.3518 33.4669C79.4567 34.622 79.4584 35.8484 78.8907 36.8956C78.1399 38.449 76.4536 39.3601 74.7756 39.5127C73.0959 39.6986 71.2564 39.3999 69.9463 38.2647C68.1984 36.7595 67.9254 34.0478 68.8676 32.0314C69.5368 30.6041 71.0001 29.7047 72.5183 29.4242ZM73.001 31.3974C71.9506 31.6381 71.1316 32.5624 70.9635 33.6146C70.7937 34.6037 70.8736 35.719 71.5095 36.5388C72.7131 38.1187 75.5913 37.9727 76.5085 36.1687C77.0962 34.9672 77.0362 33.4155 76.2472 32.3185C75.5081 31.3393 74.1347 31.1153 73.001 31.3974Z" fill="black"/>
<path d="M114.107 30.1859C115.282 29.308 116.818 29.2931 118.222 29.3478C119.139 29.3362 120.043 29.4922 120.943 29.6482C120.962 30.3303 120.958 31.0107 120.95 31.6928C119.463 31.3858 117.93 31.1783 116.412 31.331C115.849 31.3957 115.119 31.7608 115.247 32.4379C115.327 33.1233 116.162 33.2345 116.72 33.2229C118.11 33.3822 119.713 33.1549 120.84 34.1622C122.087 35.4019 121.872 37.7984 120.382 38.7642C119.407 39.4098 118.2 39.5476 117.056 39.5559C115.798 39.5476 114.539 39.443 113.301 39.219C113.302 38.5253 113.302 37.8316 113.302 37.1379C114.814 37.3802 116.35 37.6457 117.885 37.4913C118.455 37.4183 119.204 37.2258 119.332 36.5719C119.475 35.9861 118.907 35.5447 118.38 35.4833C116.918 35.236 115.275 35.5629 113.97 34.7016C112.472 33.6677 112.685 31.1916 114.107 30.1859Z" fill="black"/>
<path d="M154.699 31.4687C155.16 30.1692 156.567 29.5253 157.857 29.3809C159.431 29.2797 161.023 29.3361 162.574 29.6465C162.593 30.3269 162.586 31.009 162.584 31.6894C161.089 31.384 159.555 31.1865 158.03 31.3243C157.454 31.389 156.681 31.7525 156.795 32.4462C156.928 33.1465 157.768 33.2345 158.353 33.2262C159.6 33.3606 160.953 33.2029 162.07 33.885C163.718 34.8924 163.648 37.6224 162.097 38.6911C161.201 39.3168 160.086 39.5126 159.015 39.5475C157.627 39.5807 156.239 39.4612 154.87 39.2305C154.852 38.5318 154.854 37.8331 154.867 37.1345C156.445 37.3967 158.061 37.6755 159.663 37.4597C160.257 37.3933 161.003 36.9868 160.888 36.2864C160.848 35.7238 160.224 35.5147 159.751 35.4417C158.318 35.2807 156.721 35.518 155.466 34.66C154.449 33.963 154.361 32.5507 154.699 31.4687Z" fill="black"/>
<path d="M58.0865 29.4527C59.9327 29.4444 61.7772 29.4477 63.6216 29.4477C64.6387 29.451 65.7657 29.6501 66.4732 30.4467C67.2906 31.3164 67.3472 32.6324 67.0908 33.7344C66.7612 35.0786 65.4311 35.9731 64.0877 36.0461C62.8958 36.1009 61.7022 36.0428 60.5103 36.081C60.4953 37.1863 60.5137 38.2915 60.4987 39.3968C59.6946 39.3985 58.8889 39.3952 58.0849 39.4001C58.0799 36.0843 58.0766 32.7685 58.0865 29.4527ZM60.507 31.3346C60.5003 32.259 60.507 33.1834 60.5037 34.1078C61.6123 34.0547 62.7477 34.2322 63.838 33.9999C65.0466 33.7111 65.0483 31.6815 63.833 31.4027C62.7343 31.245 61.614 31.3678 60.507 31.3346Z" fill="black"/>
<path d="M81.0098 29.4991C81.7972 29.4227 82.5896 29.4244 83.3769 29.4891C83.3869 31.0524 83.352 32.6158 83.3953 34.1774C84.8718 32.6755 86.1986 31.0342 87.6535 29.5157C88.6224 29.3647 89.6162 29.4808 90.595 29.4559C89.3399 30.8998 87.9781 32.2457 86.6863 33.6563C88.108 35.5897 89.6145 37.4617 91.0312 39.3984C90.0607 39.4001 89.0918 39.3951 88.1213 39.3984C87.0892 38.0475 86.0987 36.6635 85.0733 35.3059C84.5905 35.8038 84.1427 36.3349 83.6832 36.8543C83.5517 37.0236 83.362 37.1962 83.3919 37.4318C83.3753 38.0857 83.3936 38.7413 83.3919 39.3951C82.5979 39.3984 81.8038 39.3984 81.0098 39.3968C81.0181 36.0975 81.0181 32.7983 81.0098 29.4991Z" fill="black"/>
<path d="M92.443 29.4523C95.0849 29.4705 97.73 29.3909 100.37 29.4938C100.382 30.1377 100.38 30.7816 100.374 31.4255C98.5208 31.4438 96.6696 31.4089 94.8185 31.4438C94.8235 32.0976 94.8185 32.7515 94.8218 33.4054C96.4765 33.4137 98.1312 33.4054 99.7859 33.4087C99.7876 34.0277 99.7876 34.6451 99.7876 35.2641C98.1312 35.2807 96.4749 35.2342 94.8202 35.289C94.8218 36.001 94.8202 36.7113 94.8218 37.4216C96.6713 37.4448 98.5224 37.3967 100.374 37.4481C100.38 38.097 100.379 38.7476 100.379 39.3981C97.7284 39.3965 95.0782 39.3965 92.4297 39.3981C92.443 36.0823 92.4164 32.7665 92.443 29.4523Z" fill="black"/>
<path d="M102.203 29.4625C104.048 29.4293 105.892 29.4559 107.737 29.4476C108.766 29.441 109.894 29.6202 110.643 30.3869C111.582 31.4059 111.632 33.0223 111.018 34.2172C110.618 34.9856 109.843 35.4602 109.03 35.6909C109.897 37.0086 111.013 38.1487 111.907 39.4498C111.019 39.4482 110.132 39.4864 109.247 39.4366C109.014 39.4233 108.889 39.2225 108.766 39.0582C107.966 37.9795 107.162 36.9041 106.35 35.8353C105.769 35.8287 105.19 35.832 104.61 35.832C104.599 37.0202 104.615 38.2068 104.602 39.3951C103.801 39.3984 103.001 39.3967 102.2 39.3967C102.198 36.0842 102.193 32.7734 102.203 29.4625ZM104.609 31.3229C104.605 32.1909 104.604 33.0588 104.609 33.9284C105.721 33.9849 106.849 34.0446 107.951 33.8587C108.709 33.7509 109.173 32.853 108.862 32.1676C108.684 31.6283 108.103 31.3412 107.564 31.3296C106.578 31.3047 105.594 31.3262 104.609 31.3229Z" fill="black"/>
<path d="M122.445 29.4475C125.47 29.4508 128.494 29.4442 131.521 29.4508C131.534 30.1379 131.527 30.825 131.519 31.512C130.414 31.517 129.308 31.5137 128.203 31.5137C128.178 34.1424 128.2 36.7712 128.191 39.3983C127.397 39.3967 126.603 39.3933 125.811 39.4016C125.794 36.7729 125.804 34.1441 125.806 31.517C124.682 31.512 123.56 31.517 122.438 31.5137C122.423 30.825 122.418 30.1362 122.445 29.4475Z" fill="black"/>
<path d="M134.938 29.5104C136.075 29.3992 137.226 29.4374 138.366 29.4822C139.713 32.808 141.121 36.1105 142.448 39.4446C141.59 39.4546 140.731 39.4911 139.879 39.4081C139.611 38.7227 139.346 38.039 139.085 37.3519C137.474 37.3303 135.861 37.3453 134.249 37.3453C133.981 38.024 133.715 38.7045 133.457 39.3882C132.596 39.4065 131.736 39.3948 130.875 39.3965C132.227 36.1006 133.603 32.8146 134.938 29.5104ZM135.008 35.4102C136.109 35.4301 137.209 35.4052 138.309 35.4268C137.805 34.0145 137.247 32.6221 136.681 31.233C136.029 32.5839 135.559 34.0162 135.008 35.4102Z" fill="black"/>
<path d="M143.795 29.4493C145.703 29.4493 147.611 29.4427 149.52 29.451C150.6 29.4576 151.816 29.7513 152.455 30.6973C153.256 31.9088 153.154 33.6895 152.182 34.7815C151.762 35.2744 151.135 35.4818 150.562 35.7324C151.523 36.9755 152.555 38.167 153.472 39.4416C152.515 39.4217 151.533 39.5594 150.59 39.3686C149.68 38.2152 148.817 37.0203 147.937 35.842C147.344 35.8254 146.753 35.8337 146.162 35.8304C146.136 37.0186 146.154 38.2085 146.151 39.3968C145.365 39.3984 144.581 39.3935 143.795 39.4034C143.782 36.0859 143.782 32.7668 143.795 29.4493ZM146.154 31.3213C146.147 32.1926 146.147 33.0638 146.156 33.9351C147 34.0247 147.847 33.9152 148.694 33.9335C149.18 33.9185 149.74 33.9268 150.114 33.5634C150.544 33.2049 150.587 32.5627 150.392 32.0714C150.161 31.5503 149.563 31.3263 149.027 31.323C148.068 31.3097 147.111 31.3213 146.154 31.3213Z" fill="black"/>
<path d="M59.6175 45.8872C60.851 44.9097 62.4757 44.6177 64.0123 44.5496C65.7535 44.5247 67.5014 44.6691 69.2127 44.9994C69.5224 44.996 69.4641 45.3545 69.4791 45.5586C69.4807 46.3453 69.4791 47.1319 69.4724 47.9169C67.5397 47.585 65.587 47.2365 63.6177 47.336C62.9868 47.3991 62.3243 47.5169 61.7982 47.8953C61.2772 48.2654 61.2189 49.0803 61.6351 49.5483C61.9314 49.8603 62.3709 49.9615 62.782 50.0179C64.6831 50.2635 66.7257 49.9681 68.4986 50.8411C69.7488 51.4418 70.4429 52.8442 70.3963 54.1934C70.4862 55.5708 69.9136 57.023 68.7549 57.8212C67.265 58.8601 65.379 59.0327 63.6144 59.056C61.9331 58.9647 60.2434 58.8767 58.587 58.5365C58.5787 57.5441 58.582 56.5533 58.587 55.5609C60.1935 55.8546 61.8149 56.1368 63.4546 56.1152C64.4584 56.1135 65.5354 56.1965 66.4444 55.6887C66.9854 55.3949 67.3383 54.6813 67.052 54.1005C66.8805 53.6524 66.3977 53.4383 65.9666 53.3171C64.0539 52.9238 61.9897 53.3254 60.1635 52.5123C59.1863 52.109 58.4156 51.2294 58.2158 50.1855C57.8479 48.6504 58.3457 46.8747 59.6175 45.8872Z" fill="black"/>
<path d="M135.536 46.2355C136.719 45.0389 138.46 44.6572 140.087 44.5593C141.988 44.4995 143.897 44.6755 145.763 45.0472C145.757 46.0114 145.767 46.9773 145.757 47.9415C143.874 47.5515 141.951 47.271 140.025 47.3308C139.346 47.3839 138.619 47.4951 138.071 47.9282C137.463 48.3946 137.566 49.4915 138.286 49.7986C139.151 50.172 140.122 50.0591 141.039 50.1421C142.517 50.2301 144.142 50.255 145.367 51.2042C146.567 52.1153 146.889 53.7732 146.647 55.1872C146.489 56.3273 145.813 57.3795 144.824 57.9803C143.346 58.8864 141.555 59.0374 139.86 59.054C138.199 58.9661 136.534 58.8632 134.898 58.5462C134.89 57.5504 134.888 56.5547 134.898 55.5606C136.697 55.9041 138.522 56.178 140.36 56.1166C141.352 56.1199 142.575 56.0967 143.243 55.2436C143.782 54.5217 143.236 53.5193 142.409 53.3534C140.518 52.9136 138.485 53.3169 136.648 52.5916C135.647 52.2149 134.81 51.3801 134.555 50.3296C134.227 48.919 134.487 47.2959 135.536 46.2355Z" fill="black"/>
<path d="M93.9738 44.5992C96.3144 44.3802 98.8747 44.8648 100.666 46.4729C101.804 47.467 102.499 48.8892 102.743 50.3646C103.006 52.2349 102.82 54.258 101.753 55.8677C100.628 57.6335 98.6033 58.6492 96.5657 58.9247C94.6297 59.2217 92.5838 58.9794 90.8159 58.1165C89.1679 57.3116 87.8977 55.7814 87.4449 54.0057C86.8739 51.8516 87.127 49.4054 88.4038 47.5383C89.649 45.7277 91.8314 44.7851 93.9738 44.5992ZM93.8173 47.4902C92.5722 47.764 91.5101 48.6984 91.0956 49.9032C90.6261 51.3139 90.6428 52.9436 91.3536 54.2745C92.7186 56.8021 96.8637 56.9481 98.4768 54.6015C99.0494 53.7584 99.2675 52.7162 99.2259 51.7088C99.2525 50.3397 98.7198 48.8826 97.5612 48.0794C96.4792 47.3508 95.0725 47.1699 93.8173 47.4902Z" fill="black"/>
<path d="M72.4894 44.7537C74.9697 44.6973 77.4535 44.7454 79.9338 44.7288C81.3455 44.7371 82.8937 44.8549 84.0073 45.8258C85.2841 46.9012 85.5738 48.7184 85.3291 50.2884C85.1493 51.2659 84.6982 52.2201 83.9308 52.874C82.887 53.7851 81.4587 54.1203 80.0986 54.1187C78.7036 54.117 77.3086 54.1237 75.9136 54.1137C75.8587 55.677 75.907 57.2437 75.887 58.8086C74.7533 58.8186 73.618 58.8136 72.4844 58.812C72.4927 54.1253 72.4827 49.4403 72.4894 44.7537ZM75.8953 47.4157C75.887 48.7251 75.8787 50.0328 75.8986 51.3406C77.1338 51.3306 78.369 51.3538 79.6042 51.3306C80.2784 51.3024 81.0442 51.1646 81.482 50.5971C81.9365 49.9515 81.9681 49.0653 81.6551 48.3533C81.3538 47.7127 80.6064 47.4455 79.9388 47.4223C78.5904 47.4107 77.242 47.4256 75.8953 47.4157Z" fill="black"/>
<path d="M105.175 44.7321C107.749 44.7254 110.321 44.7304 112.894 44.7288C114.181 44.7503 115.566 44.8516 116.635 45.6498C117.712 46.4149 118.253 47.7608 118.208 49.0553C118.261 50.4377 117.71 51.8865 116.58 52.7312C116.112 53.1196 115.529 53.3071 114.963 53.498C114.947 53.5461 114.915 53.6423 114.898 53.6905C116.219 55.4181 117.612 57.0909 118.945 58.8069C117.57 58.787 116.184 58.8766 114.815 58.7671C113.54 57.1092 112.307 55.4164 111.023 53.7635C110.212 53.7685 109.4 53.7635 108.589 53.7652C108.574 55.448 108.596 57.1308 108.578 58.8136C107.444 58.8152 106.31 58.8103 105.178 58.8169C105.163 54.122 105.167 49.427 105.175 44.7321ZM108.591 47.4206C108.584 48.647 108.588 49.8718 108.589 51.0982C109.916 51.0916 111.243 51.1115 112.57 51.0899C113.38 51.0567 114.319 50.7182 114.597 49.8801C114.702 49.2909 114.71 48.6122 114.324 48.116C113.911 47.5949 113.205 47.4123 112.566 47.4173C111.241 47.4189 109.916 47.4156 108.591 47.4206Z" fill="black"/>
<path d="M119.93 44.7521C122.578 44.699 125.228 44.7438 127.877 44.7288C129.52 44.7471 131.165 44.689 132.806 44.7637C132.808 45.7296 132.811 46.6954 132.804 47.6597C131.226 47.6762 129.65 47.6497 128.073 47.6746C128.075 51.3871 128.078 55.1012 128.072 58.8137C126.936 58.8137 125.803 58.8137 124.667 58.8137C124.659 55.1028 124.657 51.392 124.669 47.6829C123.089 47.6431 121.509 47.6746 119.93 47.6663C119.926 46.6954 119.928 45.7229 119.93 44.7521Z" fill="black"/>
</svg>
