<svg width="188" height="84" viewBox="0 0 188 84" fill="none" xmlns="http://www.w3.org/2000/svg">
<path d="M150.568 40.4898C149.729 36.3669 148.921 32.4121 148.108 28.4259C147.398 28.6029 146.848 29.0735 146.239 29.4185C143.241 31.1259 140.26 32.8625 137.461 34.8858C133.901 37.4581 130.902 40.5794 128.257 44.0547C126.967 45.7509 125.634 47.418 124.602 49.289C122.938 52.3004 121.678 55.4688 120.823 58.7984C120.612 59.6185 120.429 60.4543 120.092 61.1825C119.571 61.5029 119.116 61.5186 118.627 61.1198C118.36 60.0487 118.675 58.9351 118.833 57.8596C119.302 54.6688 119.917 51.4983 120.741 48.3725C121.934 43.8508 124.002 39.7481 126.786 36.0039C132.407 28.4394 139.66 22.813 148.099 18.6184C149.192 18.0762 150.313 17.9171 151.489 18.0403C153.137 18.2106 154.268 19.0509 154.794 20.6507C155.223 21.9638 155.4 23.3284 155.665 24.6728C156.111 26.9291 156.486 29.199 156.9 31.462C157.475 34.599 158.052 37.7382 158.648 40.8729C158.772 41.5339 158.892 42.1837 158.883 42.8604C158.847 45.5044 157.333 46.1946 155.534 46.4612C154.538 46.6091 153.519 46.6629 152.499 46.6584C148.237 46.6315 143.978 46.6449 139.717 46.6494C138.773 46.6494 137.841 46.5419 136.942 46.2618C135.598 45.845 134.908 44.9756 134.924 43.6312C134.942 42.2487 135.494 41.4488 136.87 40.9245C137.929 40.5189 139.081 40.5122 140.201 40.501C143.218 40.4719 146.235 40.492 149.251 40.492C149.622 40.492 149.991 40.492 150.566 40.492L150.568 40.4898Z" fill="#9BCA03"/>
<path d="M38.7454 24.4038C38.4195 25.6474 38.4127 26.9515 38.252 28.2331C37.9352 30.7763 37.684 33.3285 37.374 35.8739C37.2246 37.104 36.471 37.8726 35.2987 38.2647C33.7553 38.7823 32.1983 38.8204 30.6436 38.3566C29.4125 37.9913 28.8603 36.9629 29.03 35.6722C29.2518 33.9783 29.4079 32.2753 29.5958 30.5769C29.7994 28.7306 30.0122 26.8865 30.2136 25.0402C30.3018 24.2268 30.3946 23.4112 30.4648 22.5978C30.6888 19.9359 32.2549 18.2598 35.4096 18.2509C40.0851 18.2397 44.7584 18.2486 49.4339 18.2486C51.9595 18.2486 54.4873 18.2038 57.0106 18.2643C58.889 18.3091 60.7492 18.5803 62.4828 19.3578C63.8315 19.9628 64.9042 20.8501 65.3048 22.3446C65.4926 23.0437 65.4519 23.7607 65.3704 24.4576C65.1781 26.1157 64.9563 27.7738 64.6915 29.4229C64.4743 30.7853 63.6958 31.807 62.5303 32.5487C61.3444 33.3038 60.0251 33.7004 58.6514 33.9536C57.8027 34.1105 56.9699 34.3211 56.1597 34.6213C55.6981 34.7916 55.2545 34.9799 55.0033 35.4056C54.9218 35.9456 55.3337 36.1562 55.6324 36.4161C57.2415 37.821 58.8596 39.2148 60.4777 40.6107C61.0751 41.1261 61.6816 41.628 62.1637 42.2576C62.8539 43.1561 62.8471 43.9314 62.1637 44.7963C60.7424 46.5911 57.6737 47.0952 55.7162 45.8696C54.7544 45.2668 53.9238 44.514 53.0955 43.7521C50.6424 41.4913 48.1756 39.2439 45.7428 36.9629C44.5094 35.8067 43.4299 34.5138 42.6967 32.9789C42.011 31.5449 42.3618 30.4649 43.706 29.6873C44.127 29.4431 44.5615 29.4431 45.0141 29.4431C48.067 29.4431 51.1221 29.4319 54.175 29.4521C54.9196 29.4566 55.5872 29.2639 56.2095 28.9053C57.4949 28.1704 57.8932 26.2882 57.0469 25.0827C56.7232 24.6234 56.2797 24.3814 55.7275 24.3276C55.5034 24.3075 55.2749 24.3187 55.0486 24.3187C49.9204 24.3187 44.7946 24.3187 39.6664 24.3231C39.3722 24.3231 39.0667 24.2492 38.7431 24.4083L38.7454 24.4038Z" fill="#010101"/>
<path d="M79.9311 46.5688C76.3871 46.5688 72.8431 46.5733 69.2991 46.5666C68.4731 46.5666 67.6403 46.5755 66.8527 46.2574C65.7846 45.8249 65.2935 45.1886 65.3795 44.0279C65.4836 42.623 65.7076 41.2248 65.8955 39.8266C66.1625 37.8391 66.4431 35.8539 66.7192 33.8664C66.975 32.0268 67.2307 30.1894 67.4909 28.352C67.7557 26.4766 68.0228 24.6034 68.2898 22.7302C68.3735 22.1409 68.4075 21.5403 68.5478 20.9645C68.8239 19.8397 69.5481 19.0666 70.6457 18.67C71.3879 18.4011 72.1597 18.2488 72.9563 18.2488C80.232 18.251 87.5078 18.2488 94.7836 18.2488C95.5825 18.2488 96.3564 18.3855 97.0965 18.6745C97.9926 19.0263 98.4339 19.703 98.4611 20.662C98.5109 22.3873 97.531 23.6892 95.8472 24.0903C95.1887 24.2471 94.5233 24.3233 93.8376 24.321C88.8996 24.3076 83.9616 24.3143 79.0213 24.3121C78.4171 24.3121 77.8264 24.3278 77.238 24.5205C76.3214 24.8185 75.7579 25.4279 75.6199 26.3444C75.2782 28.6209 74.9908 30.9064 74.6762 33.1874C74.4838 34.5856 74.2734 35.9793 74.0878 37.3798C74.0244 37.8593 73.986 38.3455 73.9837 38.8272C73.9792 39.6877 74.3186 40.1694 75.1333 40.3823C75.6742 40.5235 76.2354 40.5795 76.808 40.5772C81.4835 40.5638 86.1568 40.566 90.8323 40.5727C91.4727 40.5727 92.1154 40.5772 92.7514 40.6422C93.7584 40.7453 94.7881 41.0254 95.1615 42.0292C95.5757 43.1473 95.4399 44.3102 94.6093 45.2894C93.9372 46.0826 93.0184 46.3851 92.0272 46.4994C91.4682 46.5643 90.9002 46.5688 90.3367 46.5688C86.8674 46.5755 83.4003 46.5711 79.9311 46.5711V46.5688Z" fill="#010101"/>
<path d="M112.175 24.3141C109.518 24.3141 106.958 24.3141 104.401 24.3141C103.797 24.3141 103.209 24.2648 102.613 24.1281C100.357 23.6195 99.5922 21.3967 101.075 19.5975C101.912 18.5802 103.091 18.3718 104.302 18.2508C104.711 18.2105 105.13 18.2441 105.544 18.2441C113.725 18.2441 121.906 18.2441 130.087 18.2418C130.691 18.2418 131.282 18.2867 131.879 18.4009C134.129 18.8311 134.923 20.6327 133.708 22.5619C133.194 23.3753 132.414 23.8122 131.533 24.0475C130.852 24.2312 130.144 24.3298 129.417 24.3208C127.193 24.2917 124.968 24.3096 122.743 24.3096H121.585C121.214 25.9207 121.089 27.5071 120.847 29.0756C120.557 30.9488 120.295 32.8242 120.03 34.7019C119.765 36.5751 119.509 38.4506 119.254 40.3238C119.138 41.1708 119.057 42.0267 118.767 42.8334C118.113 44.6618 116.792 45.6589 114.836 45.8449C114.119 45.9121 113.406 45.8942 112.693 45.8314C110.539 45.6387 109.418 44.1532 109.756 42.0626C110.156 39.5709 110.484 37.0681 110.846 34.5697C111.197 32.1453 111.586 29.7231 111.885 27.292C112.003 26.3419 112.297 25.4031 112.17 24.3096L112.175 24.3141Z" fill="#010101"/>
<path d="M129.737 54.9266C130.162 55.1529 130.411 54.7989 130.726 54.6241C131.658 54.0975 132.647 53.7794 133.733 53.9295C136.343 54.2947 136.992 55.9147 137.089 57.5056C137.255 60.2236 136.447 62.6749 134.329 64.5235C132.939 65.7357 131.31 66.2533 129.418 65.8096C128.478 65.59 127.969 64.9783 127.517 64.1493C127.268 64.882 127.107 65.5699 126.326 65.8387C125.758 66.0337 125.199 66.0897 124.733 65.6886C124.314 65.3301 124.405 64.8237 124.509 64.333C125.398 60.2012 126.279 56.0671 127.164 51.9353C127.241 51.5723 127.322 51.207 127.442 50.8553C127.632 50.2951 128.012 49.9119 128.589 49.7103C129.895 49.2509 130.796 49.9433 130.547 51.2855C130.321 52.5066 130.011 53.7099 129.734 54.9266H129.737ZM133.876 58.7402C133.776 57.9224 133.69 57.0821 132.862 56.6273C132.018 56.1634 131.192 56.3651 130.409 56.8245C130.017 57.053 129.714 57.3757 129.447 57.7454C128.752 58.7134 128.438 59.8158 128.347 60.972C128.277 61.8458 128.429 62.7219 129.277 63.2171C130.194 63.7527 131.088 63.4972 131.925 62.9595C132.21 62.7757 132.441 62.5382 132.654 62.2693C133.473 61.2296 133.727 60.0085 133.876 58.7425V58.7402Z" fill="#010101"/>
<path d="M85.3511 29.4387C86.5574 29.4387 87.7613 29.4387 88.9675 29.4387C89.8003 29.4387 90.6105 29.6112 91.3822 29.8913C93.2425 30.568 93.6792 32.616 92.2829 34.0321C91.4818 34.8455 90.4317 35.1704 89.3455 35.2891C86.1975 35.6297 83.0428 35.6207 79.8881 35.3272C79.3563 35.2779 78.8516 35.1502 78.3605 34.9799C77.5413 34.6976 76.851 34.2114 76.7085 33.3151C76.5433 32.2709 76.8058 31.3119 77.7019 30.6263C78.8222 29.7681 80.1483 29.5104 81.5107 29.4521C82.7893 29.3961 84.0702 29.4409 85.3511 29.4387Z" fill="#010101"/>
<path d="M141.023 60.7433C140.919 62.8316 142.279 63.9273 144.345 63.4142C145.006 63.2506 145.599 62.9302 146.14 62.5045C146.549 62.1818 146.984 61.8793 147.563 61.9129C148.332 61.96 148.708 62.5336 148.511 63.2932C148.391 63.7593 148.138 64.12 147.773 64.3799C145.522 65.982 143.041 66.4548 140.418 65.5339C138.434 64.8348 137.517 63.1386 137.805 60.8553C138.085 58.637 139.011 56.7011 140.887 55.3522C142.935 53.8801 145.203 53.4902 147.613 54.3125C149.706 55.0273 150.752 57.3487 149.964 59.6431C149.819 60.0666 149.509 60.3915 148.984 60.4677C148.536 60.5327 148.095 60.5999 147.64 60.5999C145.642 60.5932 143.641 60.5954 141.643 60.5999C141.459 60.5999 141.267 60.5618 141.02 60.7433H141.023ZM147.135 58.7312C147.321 56.5375 145.49 55.769 143.967 56.2776C142.736 56.6899 141.971 57.51 141.487 58.7312H147.135Z" fill="#010101"/>
<path d="M156.276 56.4076C155.891 58.6976 155.142 60.9405 154.952 63.1991C155.45 63.6069 155.884 63.4523 156.283 63.5016C156.878 63.5755 157.161 63.943 157.014 64.5054C156.853 65.1194 156.459 65.5496 155.837 65.7512C154.8 66.0851 153.762 66.0627 152.734 65.7356C151.996 65.5003 151.6 64.9312 151.566 64.1335C151.517 62.9638 151.928 61.8681 152.146 60.7433C152.42 59.325 152.743 57.9156 153.051 56.4703C152.596 56.2507 152.057 56.3919 151.664 56.076C151.297 54.7181 151.589 54.4044 153.528 54.1333C153.676 53.5149 153.811 52.8695 153.983 52.2354C154.296 51.0882 154.954 50.6244 156.106 50.7028C157.002 50.7655 157.369 51.2294 157.217 52.1189C157.161 52.4483 157.109 52.7799 157.018 53.1003C156.928 53.4185 156.79 53.7255 156.862 54.1333C157.206 54.2834 157.584 54.1781 157.941 54.2207C158.648 54.3036 158.973 54.5411 158.998 55.0027C159.025 55.5091 158.679 55.9258 158.129 56.1701C157.554 56.4277 156.939 56.2687 156.274 56.4076H156.276Z" fill="#010101"/>
</svg>
