<?xml version="1.0" standalone="no"?>
<!DOCTYPE svg PUBLIC "-//W3C//DTD SVG 20010904//EN"
 "http://www.w3.org/TR/2001/REC-SVG-20010904/DTD/svg10.dtd">
<svg version="1.0" xmlns="http://www.w3.org/2000/svg"
 width="410.000000pt" height="123.000000pt" viewBox="0 0 410.000000 123.000000"
 preserveAspectRatio="xMidYMid meet">

<g transform="translate(0.000000,123.000000) scale(0.100000,-0.100000)"
fill="#000000" stroke="none">
<path d="M180 1003 c-83 -30 -133 -176 -133 -383 0 -139 16 -228 58 -310 35
-70 74 -93 145 -86 138 13 341 113 469 230 137 126 136 196 -5 326 -152 142
-435 259 -534 223z m233 -243 c78 -40 151 -95 168 -128 13 -23 11 -27 -37 -71
-53 -49 -177 -117 -231 -127 -26 -5 -34 -2 -48 20 -26 40 -40 163 -27 242 19
114 51 126 175 64z"/>
<path d="M1128 828 c-75 -20 -115 -104 -82 -173 18 -38 45 -54 146 -90 25 -9
49 -23 52 -32 19 -48 -79 -61 -125 -17 l-28 26 -35 -22 c-42 -25 -43 -29 -15
-64 32 -41 77 -59 144 -59 103 0 155 45 155 133 0 54 -34 89 -115 118 -82 30
-90 36 -90 63 0 20 6 24 37 27 27 2 43 -3 58 -18 23 -23 41 -21 78 8 l23 18
-21 27 c-40 51 -114 73 -182 55z"/>
<path d="M2650 765 l0 -76 -30 16 c-95 49 -204 -31 -204 -150 0 -57 23 -106
66 -138 37 -28 119 -29 148 -2 20 18 20 18 20 -3 0 -19 6 -22 45 -22 l45 0 0
225 0 225 -45 0 -45 0 0 -75z m-20 -155 c27 -27 26 -77 -2 -107 -63 -67 -165
27 -108 100 27 34 80 37 110 7z"/>
<path d="M3130 615 l0 -225 103 0 c120 0 162 15 191 70 25 48 15 104 -25 139
l-29 25 23 24 c16 18 22 36 22 72 0 87 -53 120 -195 120 l-90 0 0 -225z m210
182 c33 -17 53 -60 45 -98 -11 -48 -55 -69 -147 -69 l-78 0 0 90 0 90 78 0
c42 0 88 -6 102 -13z m44 -228 c29 -35 32 -58 12 -98 -21 -39 -56 -51 -151
-51 l-85 0 0 90 0 90 99 0 c99 0 99 0 125 -31z"/>
<path d="M3937 793 c-4 -3 -7 -24 -7 -45 0 -37 -1 -38 -35 -38 -24 0 -35 -5
-35 -15 0 -10 11 -15 35 -15 l35 0 0 -123 c0 -111 2 -126 20 -142 23 -21 91
-26 97 -7 3 8 -6 12 -29 12 -53 0 -58 11 -58 142 l0 118 45 0 c33 0 45 4 45
15 0 11 -12 15 -45 15 l-45 0 0 45 c0 42 -7 54 -23 38z"/>
<path d="M1360 500 l0 -220 45 0 45 0 0 75 0 75 26 -16 c57 -38 139 -17 188
49 29 39 33 131 8 177 -39 71 -120 99 -186 65 -35 -18 -36 -18 -36 0 0 11 -12
15 -45 15 l-45 0 0 -220z m224 108 c48 -69 -22 -157 -94 -118 -22 12 -42 64
-33 88 13 35 36 52 74 52 28 0 42 -6 53 -22z"/>
<path d="M1798 699 c-44 -23 -67 -54 -79 -106 -32 -146 134 -252 269 -171 17
11 32 23 32 28 0 4 -15 17 -33 27 -28 17 -36 18 -62 7 -31 -13 -70 -9 -92 9
-28 21 -8 27 97 27 l110 0 0 41 c0 121 -132 196 -242 138z m135 -81 l22 -23
-37 -3 c-21 -2 -55 -2 -75 0 l-38 3 23 23 c13 13 34 22 52 22 18 0 39 -9 53
-22z"/>
<path d="M2152 703 c-42 -20 -69 -55 -82 -104 -40 -148 130 -260 268 -177 17
11 32 23 32 28 0 4 -15 17 -33 27 -28 17 -36 18 -62 7 -36 -15 -73 -9 -100 17
-19 19 -17 19 98 19 l117 0 0 37 c0 121 -129 200 -238 146z m131 -85 l22 -23
-37 -3 c-21 -2 -55 -2 -75 0 l-38 3 23 23 c13 13 34 22 52 22 18 0 39 -9 53
-22z"/>
<path d="M2822 575 c67 -161 70 -191 18 -202 -28 -5 -30 -9 -30 -49 0 -41 2
-44 26 -44 41 0 92 29 115 66 11 18 47 110 80 204 l59 170 -49 0 -49 0 -22
-72 c-11 -40 -25 -84 -29 -98 -6 -21 -12 -13 -39 63 -18 49 -32 92 -32 98 0 5
-24 9 -54 9 l-54 0 60 -145z"/>
<path d="M3580 702 c-52 -26 -80 -74 -80 -139 0 -88 40 -143 120 -164 56 -14
115 -1 155 37 22 20 25 28 15 34 -9 6 -24 0 -43 -16 -36 -30 -67 -38 -114 -29
-43 8 -103 63 -103 94 0 20 6 21 143 23 l142 3 -3 35 c-11 111 -130 174 -232
122z m148 -28 c24 -17 52 -64 52 -89 0 -13 -19 -15 -125 -15 -106 0 -125 2
-125 15 0 28 30 74 58 89 36 20 112 20 140 0z"/>
</g>
</svg>
