<svg width="188" height="84" viewBox="0 0 188 84" fill="none" xmlns="http://www.w3.org/2000/svg">
<path d="M78.0307 28.0774C77.7525 28.1602 77.4742 28.2454 77.1952 28.3274C71.1013 30.1187 64.9929 31.8716 58.9936 33.9519C56.9313 34.6667 54.8658 35.3839 52.9798 36.4853C52.6378 36.687 52.3236 36.9303 52.0449 37.2095C51.6167 37.6368 51.6336 38.1063 52.1427 38.4352C52.6688 38.7875 53.2397 39.0717 53.841 39.2804C55.3966 39.7882 56.9802 40.2124 58.543 40.7014C59.1296 40.8759 59.6964 41.108 60.2348 41.3943C61.2772 41.97 61.4376 42.8371 60.6005 43.6699C59.9916 44.2684 59.3107 44.793 58.5726 45.2323C56.2649 46.6142 53.7456 47.561 51.2142 48.4695C46.0745 50.3131 40.8233 51.8122 35.536 53.1894C31.8748 54.144 28.1952 55.0314 24.5244 55.9478C24.3545 55.9974 24.1756 56.0105 24 55.986L26.0471 55.1572C31.4194 52.98 36.7989 50.8201 42.1591 48.614C43.843 47.9211 45.4955 47.1462 46.9845 46.0939C47.3412 45.8429 47.6663 45.5518 47.9531 45.2268C48.4687 44.6339 48.4294 44.055 47.8184 43.5543C47.4247 43.2324 46.9581 42.9934 46.5147 42.7317C46.2164 42.5567 45.8956 42.4239 45.6054 42.2411C44.2976 41.4208 44.0306 40.3303 44.7731 38.9859C45.5517 37.5712 46.7913 36.6572 48.2129 35.9393C50.7371 34.6589 53.4393 33.8371 56.1583 33.0692C62.5337 31.2725 69.0125 29.8788 75.4993 28.5235L78.001 28.0024L78.0307 28.0774Z" fill="#D11316"/>
<path d="M160.133 41.5693C159.847 42.0482 159.56 42.5263 159.276 43.0051C158.002 45.1557 156.725 47.3017 155.461 49.4593C155.323 49.6936 155.165 49.803 154.892 49.7718C154.772 49.7647 154.652 49.7647 154.532 49.7718C153.667 49.7718 153.677 49.7718 153.473 48.932C152.891 46.5431 152.303 44.1556 151.709 41.7693C151.691 41.6982 151.661 41.6295 151.6 41.4529C151.346 42.256 151.125 42.9567 150.905 43.6582C150.297 45.5963 149.695 47.536 149.075 49.4702C149.035 49.5913 148.861 49.7561 148.747 49.7585C147.586 49.7772 146.422 49.7671 145.262 49.7632C145.207 49.7528 145.153 49.736 145.102 49.7132C145.203 49.3921 145.3 49.0726 145.406 48.757C146.891 44.3496 148.375 39.9424 149.857 35.5354C149.953 35.2511 150.093 35.1574 150.398 35.1628C151.386 35.1816 152.374 35.1886 153.364 35.1628C153.746 35.1519 153.893 35.2644 153.974 35.6315C154.473 37.8923 154.999 40.1476 155.517 42.4036C155.546 42.5278 155.585 42.6497 155.648 42.8794C155.804 42.6177 155.913 42.4372 156.019 42.2544C157.309 40.0088 158.597 37.7623 159.883 35.5151C160.022 35.2714 160.178 35.1613 160.478 35.1667C161.52 35.1839 162.562 35.1816 163.605 35.1667C163.891 35.1667 164.006 35.2331 164 35.5347C163.961 40.1624 163.93 44.7899 163.909 49.4171C163.909 49.7257 163.784 49.7819 163.508 49.7788C162.465 49.7655 161.423 49.7608 160.38 49.7788C160.043 49.785 159.951 49.6843 159.964 49.3593C160.057 46.9173 160.133 44.4753 160.213 42.0333C160.218 41.8912 160.213 41.749 160.213 41.6068L160.133 41.5693Z" fill="#D11316"/>
<path d="M84.4686 50.2444C83.5064 50.2358 81.8619 49.8624 80.4787 48.7601C78.6345 47.2821 77.9802 45.2979 78.1759 43.0575C78.511 39.2172 80.7818 36.7705 84.3235 35.3511C86.3225 34.5496 88.3952 34.4418 90.4712 35.1168C93.7867 36.1987 95.4882 39.1274 94.8155 42.5724C93.9415 47.0525 89.9427 50.2655 84.4686 50.2444ZM82.3037 42.9442C82.2796 45.2729 84.0982 46.8501 86.4636 46.483C88.5419 46.1588 89.8666 44.9206 90.5706 43.0216C90.9362 42.0341 90.933 41.0584 90.3846 40.1249C89.6389 38.8571 88.2196 38.2384 86.5358 38.4516C84.6314 38.6938 82.2812 40.4288 82.3061 42.9442H82.3037Z" fill="#D11316"/>
<path d="M96.3301 49.7412C96.5506 48.3687 96.7599 47.0492 96.9715 45.7298C97.5248 42.3317 98.0845 38.9335 98.6249 35.5346C98.6738 35.2221 98.8005 35.1596 99.0892 35.1612C100.933 35.1713 102.774 35.1612 104.616 35.169C105.586 35.1744 106.531 35.3182 107.399 35.7783C108.3 36.2556 108.843 36.9844 109.038 37.9656C109.514 40.3139 108.071 42.8457 105.811 43.6151C105.61 43.6831 105.404 43.7362 105.123 43.819L108.816 49.7365C108.621 49.7513 108.495 49.7678 108.376 49.7678C107.013 49.7678 105.65 49.7623 104.291 49.7748C104.024 49.7748 103.891 49.6889 103.776 49.4545C103.002 47.8578 102.213 46.2673 101.427 44.6752C101.366 44.5502 101.296 44.4299 101.172 44.2018C100.994 45.2791 100.833 46.2446 100.675 47.2109C100.558 47.9288 100.435 48.646 100.333 49.3662C100.291 49.6521 100.195 49.7842 99.8581 49.7771C98.8158 49.7529 97.7734 49.7693 96.731 49.7678C96.6211 49.7662 96.5033 49.7521 96.3301 49.7412ZM101.577 41.7473C102.227 41.6731 102.787 41.6528 103.325 41.538C104.3 41.3294 104.849 40.6677 104.929 39.6952C104.987 39.0116 104.696 38.5124 104.021 38.3156C103.582 38.1875 103.106 38.182 102.646 38.1156C102.293 38.0656 102.09 38.1617 102.092 38.5546C102.092 38.7718 102.022 38.9897 101.987 39.2077C101.858 40.0115 101.729 40.8162 101.578 41.7473H101.577Z" fill="#D11316"/>
<path d="M135.822 35.1666C135.709 35.9017 135.605 36.5782 135.502 37.2539C135.155 39.4358 134.799 41.6168 134.468 43.801C134.411 44.2132 134.402 44.6305 134.442 45.0447C134.536 46.1251 135.173 46.7086 136.286 46.7797C137.802 46.8773 138.889 46.2586 139.333 44.8431C139.687 43.7073 139.875 42.5175 140.08 41.3419C140.416 39.4217 140.711 37.4937 141.009 35.5673C141.055 35.2728 141.151 35.151 141.483 35.158C142.511 35.1807 143.539 35.165 144.567 35.1674C144.697 35.1674 144.827 35.1807 145.009 35.1908C144.896 35.8939 144.792 36.5555 144.684 37.2219C144.283 39.6436 143.903 42.0723 143.481 44.4924C143.145 46.4172 142.274 48.0366 140.491 49.0756C139.282 49.7787 137.948 50.0739 136.562 50.1435C135.52 50.2093 134.475 50.0962 133.473 49.8091C131.437 49.2053 130.318 47.8562 130.367 45.7899C130.398 44.4619 130.636 43.1339 130.834 41.8059C131.146 39.7248 131.511 37.65 131.833 35.5697C131.881 35.2619 131.984 35.1557 132.307 35.1603C133.439 35.1767 134.586 35.1666 135.822 35.1666Z" fill="#D11316"/>
<path d="M68.479 44.933C68.2561 46.2883 68.0388 47.5952 67.8263 48.9022C67.6852 49.7677 67.6884 49.7677 66.8048 49.7677H63.7578C63.8596 49.11 63.9486 48.51 64.0457 47.9116C64.7128 43.7932 65.3791 39.6746 66.0446 35.5556C66.0944 35.2486 66.2202 35.1557 66.5362 35.158C68.4189 35.1721 70.3048 35.1291 72.1843 35.1822C72.9828 35.2049 73.7747 35.3321 74.5385 35.5603C75.9192 35.979 76.7154 36.9664 76.8381 38.3663C76.9824 40.0068 76.624 41.5575 75.6193 42.9074C74.5216 44.3822 72.9083 44.8548 71.1339 44.9267C70.2655 44.9627 69.3979 44.933 68.479 44.933ZM68.9978 41.8153C69.5711 41.8153 70.1035 41.8488 70.6303 41.809C72.0672 41.702 72.7079 40.9989 72.6999 39.6037C72.6958 38.8913 72.3992 38.4827 71.6807 38.3749C71.0649 38.282 70.4323 38.2968 69.8076 38.2585C69.5775 38.246 69.5238 38.3788 69.4957 38.571C69.4035 39.2139 69.2921 39.8545 69.1918 40.4958C69.1245 40.931 69.0635 41.3653 68.9978 41.8153Z" fill="#D11316"/>
<path d="M112.819 49.7481C113.433 45.964 114.038 42.2354 114.656 38.4334H111.463C111.497 38.1733 111.517 37.9842 111.543 37.7968C111.664 37.0265 111.79 36.257 111.908 35.486C111.939 35.2829 112.003 35.1626 112.256 35.1626C115.527 35.1699 118.798 35.172 122.069 35.1688C122.153 35.176 122.237 35.1875 122.321 35.2032C122.26 35.611 122.203 36.0032 122.142 36.3945C122.062 36.9085 121.958 37.4194 121.901 37.935C121.863 38.2975 121.733 38.4459 121.329 38.4279C120.543 38.3944 119.754 38.4279 118.966 38.4139C118.686 38.4084 118.576 38.492 118.531 38.7748C117.966 42.3034 117.382 45.8297 116.82 49.3591C116.768 49.6856 116.66 49.7848 116.317 49.777C115.303 49.7543 114.288 49.77 113.27 49.7692C113.149 49.7684 113.018 49.7567 112.819 49.7481Z" fill="#D11316"/>
<path d="M128.547 35.2182C128.382 36.2517 128.227 37.2493 128.066 38.2484C127.463 41.957 126.862 45.665 126.262 49.3725C126.212 49.6803 126.102 49.7818 125.781 49.7771C124.635 49.7592 123.489 49.7701 122.293 49.7701C122.303 49.5975 122.293 49.4576 122.319 49.3272C122.96 45.3754 123.602 41.4234 124.243 37.4711C124.35 36.817 124.457 36.1629 124.564 35.5088C124.594 35.3229 124.624 35.162 124.893 35.1651C126.042 35.176 127.191 35.1698 128.341 35.1729C128.411 35.1824 128.48 35.1975 128.547 35.2182Z" fill="#D11316"/>
</svg>
