<svg width="188" height="84" xmlns="http://www.w3.org/2000/svg"><g class="layer"><path d="M173.97 36.21c1.82-2.04 2.66-4.72 2.48-7.41l2.23 2.48 4.41 4.93c2.52 2.81 2.52 7.37 0 10.18l-10.65 11.89c-2.52 2.81-6.6 2.81-9.12 0-2.52-2.81-2.52-7.37 0-10.18l10.65-11.89z" fill="#ff4200" id="svg_1"/><path d="M173.67 23.01c2.8 3.18 2.8 8.34 0 11.53l-5.07 5.76-5.07-5.76c-2.8-3.18-2.8-8.34 0-11.53 2.8-3.18 7.35-3.18 10.15 0h-.01z" fill="#8f00ff" id="svg_2"/><path d="M33.12 29.1c-5.95 0-10.78 5.14-10.78 11.49s4.86 11.49 10.78 11.49S43.9 46.94 43.9 40.59 39.07 29.1 33.12 29.1zm0 18.38a6.45 6.88 0 01-6.46-6.9c0-3.82 2.93-6.9 6.46-6.9s6.46 3.07 6.46 6.9a6.45 6.88 0 01-6.46 6.9zm76.29-18.38c-2.41 0-4.68.86-6.46 2.3v-6.9c0-1.29-.95-2.3-2.16-2.3h-2.16v29.88h4.31v-2.3c1.79 1.44 4.06 2.3 6.46 2.3 5.95 0 10.78-5.14 10.78-11.49S115.35 29.1 109.4 29.1v.01zm0 18.38a6.45 6.88 0 01-6.46-6.9 6.45 6.88 0 1112.94 0 6.45 6.88 0 01-6.46 6.9h-.01zM89.61 29.1h4.31v21.62c0 6.31-4.68 11.57-10.6 11.69-6.02.12-10.96-5.06-10.96-11.49h2.41c.99 0 1.83.7 2.08 1.72.73 3.03 3.36 5.26 6.46 5.18 3.51-.12 6.28-3.27 6.28-7.05v-3.31c-1.83 1.44-4.1 2.3-6.54 2.3-5.95-.04-10.7-5.34-10.7-11.69v-8.96h2.16c1.21 0 2.16 1.01 2.16 2.3v6.74c0 3.74 2.74 6.94 6.28 7.05 3.66.12 6.65-3.03 6.65-6.9V29.09zM68.49 40.59v11.49h-2.16c-1.21 0-2.16-1.01-2.16-2.3v-9.19a6.45 6.88 0 10-12.94 0v11.49h-4.31V29.09h4.31v2.3c1.79-1.44 4.06-2.3 6.46-2.3 5.95 0 10.78 5.14 10.78 11.49h.01zm-48.7 6.9v4.6c-5.95 0-10.78-5.14-10.78-11.49V24.51h2.16c1.21 0 2.16 1.01 2.16 2.3v2.3h6.46v4.6h-6.46v6.9c0 3.78 2.89 6.9 6.46 6.9v-.01zM151.65 33.7v6.9a6.45 6.88 0 006.46 6.9v4.6c-5.95 0-10.78-5.14-10.78-11.49V24.52h2.16c1.21 0 2.16 1.01 2.16 2.3v2.3h6.46v4.6h-6.46v-.01zm-7.63 8.49c.07-.51.11-1.05.11-1.6 0-6.51-5.05-11.73-11.18-11.49-5.59.23-10.12 5.06-10.34 11.03-.22 6.55 4.68 11.92 10.78 11.92 3.51 0 6.61-1.8 8.55-4.52l-1.32-.82a4.172 4.172 0 00-4.21-.08c-1.06.62-2.3.94-3.62.78-2.78-.27-5.08-2.42-5.73-5.26h16.95v.04h.01zm-10.01-8.45c2.49.27 4.61 2.11 5.4 4.56h-12.17c.95-2.88 3.66-4.91 6.76-4.56h.01z" fill="#000" id="svg_3"/></g></svg>