<svg width="188" height="84" viewBox="0 0 188 84" fill="none" xmlns="http://www.w3.org/2000/svg">
<path d="M116.407 44.9588V48.0653H113.324V36.6611C115.543 36.7843 117.78 36.6885 119.932 37.0808C123.181 37.6693 123.46 41.5969 121.921 43.4672C121.241 44.2883 121.363 44.79 122.371 45.228C122.728 45.3638 123.093 45.475 123.465 45.561V48.1839C121.97 48.5991 119.747 47.632 118.923 45.9396C118.325 44.7307 117.528 44.7809 116.407 44.9588ZM116.461 42.4362C117.569 42.4043 118.761 42.8605 119.45 41.7383C119.574 41.4723 119.632 41.1799 119.62 40.886C119.609 40.5921 119.527 40.3054 119.382 40.0505C118.667 39.1016 117.546 39.3662 116.461 39.4392V42.4362Z" fill="black"/>
<path d="M99.8672 48.0881V36.8618H108.923V39.4711H102.914V41.2365H108.171V43.6906H102.95V45.5153H108.887V48.0972L99.8672 48.0881Z" fill="black"/>
<path d="M140.209 36.8525H143.359C143.359 38.5312 143.359 40.1826 143.359 41.8385C143.337 42.4827 143.363 43.1277 143.436 43.7681C143.643 45.0727 144.448 45.6931 145.686 45.5927C145.957 45.5865 146.223 45.525 146.47 45.4119C146.716 45.2988 146.938 45.1365 147.121 44.9346C147.304 44.7327 147.445 44.4955 147.536 44.237C147.627 43.9786 147.665 43.7043 147.649 43.4305C147.68 41.2591 147.649 39.0832 147.649 36.8525H150.588C150.646 36.9346 150.723 36.9848 150.723 37.035C150.723 39.4162 150.831 41.802 150.637 44.1695C150.421 46.797 148.891 48.1792 146.294 48.4027C144.12 48.5852 142.045 48.3252 140.893 46.1219C140.501 45.3356 140.285 44.4709 140.263 43.5902C140.15 41.4005 140.209 39.1881 140.209 36.8525Z" fill="black"/>
<path d="M136.406 38.1527C135.892 38.878 135.415 39.5622 135.01 40.1461C134.015 39.7953 132.998 39.5074 131.968 39.284C131.724 39.2628 131.479 39.3025 131.253 39.3995C131.028 39.4965 130.83 39.6479 130.676 39.8405C130.401 40.5247 131.085 40.7072 131.608 40.8669C132.634 41.1771 133.691 41.4188 134.691 41.7792C136.131 42.3312 136.869 43.4397 136.847 44.7899C136.854 45.4953 136.64 46.1848 136.236 46.7588C135.831 47.3328 135.257 47.7616 134.596 47.9831C131.828 48.9639 129.317 48.3526 126.891 46.5735L128.443 44.7033C129.672 45.1047 130.734 45.4924 131.819 45.7889C132.213 45.8803 132.625 45.8517 133.003 45.7068C133.147 45.6423 133.276 45.5463 133.379 45.4257C133.483 45.305 133.559 45.1627 133.601 45.0089C133.637 44.8127 133.349 44.4478 133.12 44.3383C132.626 44.1236 132.116 43.9496 131.594 43.8183C130.986 43.6358 130.356 43.4944 129.758 43.28C128.16 42.7098 127.39 41.6925 127.399 40.2328C127.407 39.4793 127.654 38.7483 128.104 38.1485C128.554 37.5486 129.183 37.1117 129.897 36.9028C131.002 36.568 132.169 36.5068 133.302 36.7243C134.434 36.9418 135.499 37.4317 136.406 38.1527Z" fill="black"/>
<path d="M163.662 38.1711L162.311 40.16C161.326 39.8453 160.444 39.5305 159.543 39.2842C159.219 39.193 158.877 39.193 158.553 39.2842C158.31 39.3617 157.964 39.6445 157.959 39.8407C157.97 39.9989 158.016 40.1525 158.094 40.29C158.172 40.4274 158.28 40.5452 158.409 40.6344C158.842 40.8343 159.295 40.9872 159.759 41.0906C160.571 41.3079 161.37 41.5683 162.154 41.8706C162.726 42.0813 163.217 42.4733 163.552 42.9884C163.888 43.5035 164.051 44.1145 164.017 44.7308C164.064 45.3774 163.917 46.0232 163.595 46.5838C163.274 47.1445 162.794 47.594 162.217 47.8738C159.966 49.0599 156.145 48.4076 154.277 46.5053L155.736 44.6807C156.901 45.0821 157.959 45.4653 159.03 45.7937C159.355 45.8917 159.7 45.8917 160.025 45.7937C160.327 45.6888 160.781 45.3923 160.781 45.1779C160.758 44.9941 160.696 44.8175 160.6 44.6601C160.504 44.5027 160.375 44.3681 160.223 44.2655C159.834 44.0636 159.416 43.9237 158.985 43.8504C158.436 43.6908 157.869 43.5813 157.329 43.3943C155.497 42.783 154.718 41.8068 154.745 40.2011C154.781 38.4768 155.745 37.2907 157.527 36.7844C158.586 36.5261 159.69 36.5167 160.753 36.7571C161.816 36.9975 162.811 37.4811 163.662 38.1711Z" fill="black"/>
<path d="M84.6445 36.7934C85.3022 36.8447 85.9628 36.8447 86.6204 36.7934C87.8177 36.5927 88.2407 37.2496 88.5513 38.2623C89.0329 39.8771 89.6405 41.4555 90.2076 43.052C90.3391 43.3358 90.4894 43.6101 90.6577 43.8731C91.3463 41.9436 92.008 40.1782 92.6066 38.3991C93.1107 36.8436 93.0567 36.8299 94.677 36.8299H96.6124C95.7437 38.9921 94.938 40.981 94.1414 42.979C93.5878 44.3475 93.0162 45.7161 92.5076 47.1211C92.233 47.8692 91.8954 48.2797 90.9908 48.2432C89.1544 48.1657 89.1454 48.2432 88.4343 46.4961C87.273 43.6496 86.1163 40.8001 84.9641 37.9475C84.8606 37.61 84.7931 37.2815 84.6445 36.7934Z" fill="black"/>
<path d="M54.1523 53.8632C56.2588 51.7648 58.2031 49.8078 60.1745 47.8691C61.7723 46.2862 61.7724 46.309 60.215 44.7626C58.3697 42.9379 56.5558 41.0722 54.7015 39.2475C54.2514 38.7914 54.3144 38.5086 54.724 38.0934C56.9159 35.9038 59.0943 33.6914 61.2773 31.4881C61.4077 31.3346 61.5694 31.2115 61.7512 31.1273C61.9329 31.043 62.1305 30.9996 62.3304 31C67.1104 31 71.8903 31 76.9403 31C75.8736 32.0948 74.9644 33.0436 74.0418 33.9788C72.6645 35.3473 71.2872 36.7569 69.8829 38.1162C69.4329 38.5724 69.4644 38.8187 69.9099 39.2567C72.0524 41.3642 74.1363 43.5264 76.2877 45.6202C76.8413 46.1631 76.8008 46.4596 76.2877 46.9887C74.0688 49.1646 71.8858 51.3725 69.7119 53.5895C69.5906 53.7253 69.4417 53.8327 69.2754 53.9044C69.109 53.9761 68.9293 54.0103 68.7487 54.0046C64.0678 54.0046 59.3854 54.0046 54.7015 54.0046C54.5157 53.9693 54.3322 53.9221 54.1523 53.8632Z" fill="#06FED7"/>
<path d="M39.0012 53.8907C38.7807 53.6945 38.5916 53.5485 38.4296 53.3843C33.7217 48.6356 29.0273 43.8778 24.2968 39.1519C23.8467 38.6957 23.9548 38.5543 24.3328 38.1802C26.5863 35.948 28.8172 33.693 31.0257 31.4152C31.4352 30.9956 31.5793 31.1917 31.8718 31.4928C33.9827 33.6322 36.1251 35.7397 38.2181 37.8791C38.7987 38.4813 39.1182 38.5816 39.7799 37.8791C41.8593 35.6713 44.0512 33.5638 46.1711 31.3924C46.5087 31.0503 46.6707 31.1142 46.9543 31.3924C49.2137 33.6702 51.4807 35.9389 53.7551 38.1985C54.2637 38.7002 53.8812 38.9329 53.5706 39.2476C49.6458 43.2011 45.721 47.1546 41.7963 51.108C41.0356 51.8744 40.2885 52.6544 39.5458 53.4208C39.3703 53.6033 39.1858 53.7356 39.0012 53.8907Z" fill="#06FED7"/>
<path d="M158.883 48.234C159.022 48.1627 159.177 48.1255 159.333 48.1255C159.489 48.1255 159.643 48.1627 159.783 48.234C159.643 48.3054 159.489 48.3426 159.333 48.3426C159.177 48.3426 159.022 48.3054 158.883 48.234Z" fill="#282828"/>
</svg>
