<svg width="188" height="84" viewBox="0 0 188 84" fill="none" xmlns="http://www.w3.org/2000/svg">
<path d="M139.654 30.5181H133.58V51.9288H139.654V30.5181Z" fill="#00143C"/>
<path d="M153.694 51.9288H164V45.3448H159.868V30.5181H153.694V51.9288Z" fill="#00143C"/>
<path d="M141.845 51.9288H152.2V45.3448H148.018V30.5181H141.845V51.9288Z" fill="#00143C"/>
<path d="M125.266 30.5181V38.0571H122.279V30.5181H116.205V51.9288H122.279V43.4349H125.266V51.9288H131.34V30.5181H125.266Z" fill="#00143C"/>
<path d="M77.67 51.9289C78.8151 51.9289 80.0597 51.2756 81.9516 49.2149C81.4538 50.8735 82.0512 51.9289 83.3954 51.9289C84.9388 51.9289 86.2333 50.3206 87.5775 48.6118L93.3528 41.5251C94.5974 39.9671 95.5434 39.0624 96.4893 39.0624C97.4353 39.0624 97.2361 40.1681 95.9915 41.7764C94.8962 43.1837 88.1252 51.7279 88.1252 51.7279H90.963L97.9331 42.5806C100.024 39.8163 101.468 39.0121 102.215 39.0121C102.613 39.0121 102.713 39.3137 102.713 39.6153C102.713 40.4697 102.065 41.2236 100.124 43.6863L93.7511 51.7279H96.5391L103.509 42.6308C106.148 39.2132 106.994 39.0121 107.592 39.0121C107.99 39.0121 108.09 39.3137 108.09 39.6153C108.09 41.6759 102.265 45.948 102.265 49.818C102.265 50.974 103.111 51.9289 104.704 51.9289C109.185 51.9289 113.815 42.1283 113.815 36.851C113.815 32.4281 111.276 30.2669 108.289 30.2669C104.057 30.2669 102.514 32.6291 102.514 34.338C102.514 35.8458 103.31 36.6499 104.704 36.6499C106.696 36.6499 108.139 34.338 108.139 33.6343C108.139 33.5338 108.09 33.4835 108.04 33.4835C107.293 35.3432 105.999 35.9463 105.053 35.9463C103.957 35.9463 103.36 35.3432 103.36 34.2374C103.36 33.0312 104.654 30.8198 108.04 30.8198C111.176 30.8198 113.018 32.8302 113.018 36.851C113.018 43.7868 108.438 51.0745 105.053 51.0745C104.256 51.0745 104.057 50.6724 104.057 50.2201C104.057 49.0641 105.849 47.3553 107.343 45.0433C108.538 43.234 109.733 41.4749 109.733 39.9168C109.733 38.5598 109.135 38.0069 108.189 38.0069C107.193 38.0069 105.999 38.7608 104.057 40.8718C104.405 39.565 104.505 38.0069 102.862 38.0069C102.016 38.0069 100.522 38.6101 98.3314 41.1231C98.9787 39.1127 98.3812 38.0069 97.037 38.0069C95.6927 38.0069 94.7966 39.0121 93.7511 40.2686L88.6728 46.5511C86.7809 48.8631 85.0882 51.3258 83.9929 51.3258C83.2959 51.3258 82.9474 50.2201 84.1422 48.662L92.357 38.208H89.3201L88.6728 39.1127C88.5235 38.409 87.9758 38.0572 87.3286 38.0572C85.138 38.0572 82.4495 39.6153 80.4082 41.6759C78.7155 43.3847 77.2219 45.8475 76.5249 47.7574C75.4794 49.1646 73.6373 51.2756 72.3428 51.2756C71.4467 51.2756 71.2475 50.1698 72.4424 48.6118L80.6572 38.1577H77.6202C77.6202 38.1577 74.1849 42.9324 71.8947 46.0485C71.2973 46.8527 69.4054 49.2652 68.808 49.8683C67.862 50.8232 67.0156 51.2756 66.468 51.2756C65.5718 51.2756 65.3727 50.1698 66.5676 48.6118C67.6131 47.2548 79.4623 32.1768 79.4623 32.1768H76.4751C76.4751 32.1768 68.8577 42.3293 66.0697 45.9983C65.4723 46.8024 63.5804 49.2149 62.9829 49.818C62.037 50.773 61.1906 51.2253 60.643 51.2253C59.7468 51.2253 59.5477 50.1196 60.7425 48.5615C61.7881 47.2045 73.6373 32.1265 73.6373 32.1265H70.6501C70.6501 32.1265 62.0868 43.4853 59.7966 46.5511L59.7468 46.6014L59.6472 46.7019C58.9004 47.7574 56.4609 51.1248 54.8179 51.1248C53.9218 51.1248 53.7226 50.0191 54.9175 48.461L63.1323 38.0069H60.0953C60.0953 38.0069 56.1622 43.435 53.9218 46.5009C51.6814 49.5667 52.6273 51.7782 54.6188 51.7782C56.3613 51.7782 57.5064 50.4211 58.4523 49.3154C58.2532 50.8232 59.0996 51.7782 60.394 51.7782C62.1366 51.7782 63.3314 50.4211 64.2774 49.3154C64.0782 50.8232 64.9246 51.7782 66.2191 51.7782C68.0114 51.7782 69.2063 50.3709 70.1522 49.2652C69.9033 50.8232 70.7994 51.7782 72.0939 51.7782C73.5875 51.7782 75.0313 50.3709 75.9772 49.2652C76.0768 50.5719 76.3257 51.9289 77.67 51.9289ZM83.495 41.1733C85.3869 39.2634 86.4822 39.0121 86.8805 39.0121C87.2788 39.0121 87.478 39.2634 87.478 39.766C87.478 41.3241 82.3499 47.8579 81.0555 49.1646C80.4082 49.818 79.1636 50.9237 78.1181 50.9237C76.0768 50.9237 79.8108 44.8925 83.495 41.1733ZM66.8663 33.6846C67.165 32.7799 66.7667 32.0763 65.9203 32.0763C65.1238 32.0763 64.1778 32.7799 63.8791 33.6846C63.5804 34.5893 63.9787 35.2929 64.825 35.2929C65.6216 35.2929 66.5178 34.5893 66.8663 33.6846ZM82.2504 35.2929C83.0469 35.2929 83.9929 34.5893 84.2916 33.6846C84.5903 32.7799 84.192 32.0763 83.3457 32.0763C82.5491 32.0763 81.6031 32.7799 81.3044 33.6846C81.0057 34.5893 81.4538 35.2929 82.2504 35.2929ZM37.3926 55.2461C31.9659 55.2461 28.7795 51.9289 28.0327 47.4558C28.3314 47.5563 28.5804 47.5563 28.8791 47.5563C29.5761 47.5563 30.522 47.4055 31.6174 46.9029C32.0654 47.2548 32.6629 47.5061 33.4097 47.5061C39.0356 47.5061 43.1679 36.851 39.633 33.8856C42.6202 32.5286 45.7568 32.026 47.9474 33.3328C47.3499 33.7348 46.8521 34.2374 46.3542 34.6898C42.0725 39.0121 40.0811 47.7574 36.8947 51.2756C36.5462 51.175 36.1479 51.0745 35.6999 51.0745C35.0526 51.0745 34.4552 51.3761 34.4054 51.7782C34.3058 52.13 34.8037 52.4818 35.4011 52.4818C35.899 52.4818 36.3969 52.3813 36.9943 51.9792C37.3428 52.0295 37.6913 52.0295 38.0398 52.0295C39.3343 52.0295 40.5789 51.4766 42.0228 50.0191C45.7568 46.2496 48.9929 38.3085 51.1835 36.8007C49.1422 40.3189 46.9516 48.1594 43.9146 51.3761C43.5661 51.2253 43.2176 51.1248 42.7696 51.1248C42.1223 51.1248 41.5249 51.4263 41.4751 51.8284C41.3755 52.2305 41.8734 52.5321 42.4708 52.5321C42.9687 52.5321 43.4666 52.4315 44.1636 51.9792C44.5121 52.0797 44.9602 52.1802 45.3585 52.1802C46.4538 52.1802 47.7482 51.5771 48.8435 50.4714C52.7767 46.5009 57.8051 38.2582 62.037 33.9861C63.5804 32.4281 66.3186 30.2669 70.0028 30.2669C73.2888 30.2669 75.5292 32.3276 75.5292 32.3276C75.6287 32.227 75.5789 32.1265 75.3798 31.9255C73.5875 30.1161 71.4467 29.3622 69.4552 29.3622C67.4637 29.3622 64.2276 30.0659 60.2447 34.0867C56.0128 38.3588 51.1835 46.9532 47.9972 50.1698C46.6529 51.5269 45.8065 51.8284 45.1095 51.8284C44.9602 51.8284 44.761 51.7782 44.6117 51.7782C45.1593 51.3761 45.7568 50.8232 46.5036 50.0693C51.6814 44.8423 52.8762 35.1924 55.7639 32.2773C55.5647 32.0763 54.1707 32.4281 51.6814 34.8908C47.6486 38.9116 45.4082 45.9983 41.4751 49.9688C40.2304 51.2253 38.936 51.7279 38.1394 51.7279C37.99 51.7279 37.7909 51.7279 37.6415 51.6776C38.1394 51.2756 38.7368 50.773 39.4836 50.0191C42.3713 47.104 45.5078 38.208 48.8933 33.8856C52.6771 33.6846 52.6273 31.8752 51.4324 31.8752C50.7354 31.8752 49.7397 32.3276 48.7937 32.9809C47.8478 32.1265 46.2048 31.5234 43.9644 31.5234C41.5747 31.5234 39.3343 32.1768 37.3428 33.2825C33.0114 33.2825 26.9872 37.9064 26.9872 45.747V46.4003C25.9417 45.6967 24.9957 44.4402 24.9957 42.2288C24.9459 35.7955 34.4054 28.1057 45.6074 28.1057C50.0882 28.1057 54.6188 29.6135 57.4566 31.6742L57.606 31.4731C55.8634 29.714 51.6316 27 44.2632 27C34.6543 27 24 32.7296 24 42.0277C24 44.5407 25.4936 46.2496 26.9872 47.0035C27.6344 52.6326 32.2148 56 36.8947 56H163.851V55.2461H37.3926ZM38.8862 34.1872C42.7198 36.6499 38.4381 46.8527 33.6586 46.8527C33.111 46.8527 32.7127 46.7019 32.3642 46.5009C33.9573 45.4454 35.6003 43.4853 36.6458 39.766L36.4467 39.6655C35.6501 42.1283 33.9573 44.7418 31.9161 46.0485C31.3186 45.3449 31.1693 44.2894 31.1693 43.2842C31.0697 40.2184 34.7539 36.3484 38.8862 34.1872ZM27.8834 45.2946C27.8834 40.3692 32.1152 34.4887 36.1479 33.7851C32.6131 36.1473 30.2233 39.8163 30.2233 43.0329C30.2233 44.3899 30.522 45.5962 31.2191 46.4506C30.5718 46.7522 29.8748 46.9532 29.1778 46.9532C28.8791 46.9532 28.431 46.9029 28.0327 46.7522C27.8834 46.2496 27.8834 45.747 27.8834 45.2946Z" fill="url(#paint0_linear_6315_587644)"/>
<defs>
<linearGradient id="paint0_linear_6315_587644" x1="89.9474" y1="20.2702" x2="96.3735" y2="65.5779" gradientUnits="userSpaceOnUse">
<stop offset="0.01" stop-color="#BCA979"/>
<stop offset="0.71" stop-color="#FCE1A4"/>
</linearGradient>
</defs>
</svg>
