<svg width="188" height="84" xmlns="http://www.w3.org/2000/svg" data-name="Capa 2"><defs><style>.cls-1{fill:#ed27de}.cls-2{fill:#000}</style></defs><g class="layer"><g data-name="Layer 1" id="Layer_1"><g id="svg_1"><g id="svg_2"><path class="cls-1" d="M63.66 46.15h-.61c-.18 1.43-.85 2.63-2.01 3.57-1.16.95-2.88 1.43-5.19 1.43-2.45 0-4.34-.56-5.69-1.67-1.35-1.11-2.02-2.71-2.02-4.77 0-2 .79-3.58 2.39-4.72 1.59-1.14 3.59-1.84 6.02-2.09 2.42-.24 4.86-.11 7.33.4.14-.72.05-1.32-.28-1.83-.32-.5-.82-.88-1.49-1.13-.67-.25-1.44-.4-2.31-.41-1.62 0-3.45.18-5.46.54-2.02.36-3.75.88-5.19 1.58-.27-2.86-.28-5.63-.03-8.31-.18-.02.42-.12 1.8-.29 1.38-.17 2.98-.33 4.77-.48 1.8-.14 3.44-.22 4.94-.22 4.01 0 7.02.55 9.03 1.64 2.01 1.1 3.3 2.47 3.87 4.14.56 1.66.85 3.71.85 6.15 0 2.6-.01 4.4-.03 5.39-.04 2.29-.09 4.04-.12 5.24-2.82.49-6.03.58-9.63.28l-.95-4.45h.02zm-5.4-1.61c.45.33 1.04.5 1.8.5.99 0 1.89-.29 2.69-.85.8-.58 1.27-1.37 1.41-2.39v-.89c-.89-.29-1.85-.41-2.88-.37-1.03.04-1.9.27-2.62.67-.71.41-1.06.99-1.06 1.74 0 .72.22 1.24.67 1.58h-.01z" id="svg_3"/><path class="cls-1" d="M92.68 45.72h-.67c-.2 1.57-.94 2.88-2.2 3.92-1.27 1.04-3.16 1.56-5.69 1.56-2.68 0-4.77-.61-6.25-1.83-1.48-1.22-2.22-2.97-2.22-5.23 0-2.19.87-3.92 2.62-5.18 1.75-1.26 3.94-2.01 6.6-2.28 2.65-.27 5.34-.13 8.04.44.15-.78.06-1.45-.3-2-.35-.55-.9-.96-1.63-1.24-.74-.28-1.58-.43-2.53-.45-1.78 0-3.77.2-6 .58-2.22.4-4.12.97-5.69 1.74-.29-3.14-.3-6.18-.03-9.12-.2-.02.46-.13 1.99-.31 1.52-.19 3.27-.36 5.23-.52 1.97-.15 3.77-.23 5.41-.23 4.4 0 7.7.6 9.91 1.8 2.21 1.2 3.63 2.72 4.25 4.54.62 1.83.94 4.07.94 6.74 0 2.85-.01 4.82-.03 5.92-.05 2.51-.09 4.43-.13 5.75-3.08.54-6.61.64-10.56.31l-1.03-4.87-.04-.02zm-5.93-1.76c.49.37 1.15.56 1.97.56 1.09 0 2.07-.31 2.95-.94.88-.63 1.39-1.5 1.55-2.63v-.97a9.03 9.03 0 00-3.16-.4c-1.14.04-2.09.29-2.86.74s-1.16 1.09-1.16 1.92c0 .78.25 1.36.74 1.74h-.01z" id="svg_4"/><path class="cls-1" d="M113.93 50.89c-2.29-.24-4.3-.5-6.02-.76l-.58-.07c-.34-3.17-.34-6.33 0-9.48 1.52.76 3.38 1.34 5.59 1.74 2.2.4 4.23.54 6.09.42 1.23-.07 2.27-.25 3.13-.55.86-.3 1.48-.74 1.86-1.34.38-.59.5-1.38.32-2.32-4.42.41-7.86.55-10.29.4-2.44-.14-4.31-.74-5.61-1.77-1.29-1.03-1.94-2.72-1.94-5.07 0-2.78 1.16-4.95 3.47-6.52 2.31-1.56 6.23-2.35 11.76-2.35 3.43 0 7.65.37 12.65 1.1l.51.07c.33 3.17.33 6.33 0 9.48-1.52-.76-3.42-1.33-5.67-1.72-2.26-.39-4.34-.51-6.22-.37-1.21.1-2.22.3-3.01.58-.79.3-1.38.73-1.74 1.32-.36.58-.46 1.34-.29 2.27 4.37-.41 7.79-.56 10.26-.42 2.46.13 4.35.72 5.65 1.75 1.31 1.03 1.96 2.74 1.96 5.11 0 2.76-1.16 4.92-3.49 6.5-2.33 1.57-6.27 2.36-11.83 2.36-2.08 0-4.27-.13-6.56-.37h-.01z" id="svg_5"/><path class="cls-1" d="M145.59 50.91c-2.48-.26-4.65-.54-6.5-.83l-.63-.08c-.36-3.43-.36-6.84 0-10.25 1.64.82 3.66 1.45 6.04 1.88 2.38.43 4.57.58 6.58.46 1.34-.08 2.46-.28 3.39-.59.93-.31 1.6-.8 2.01-1.45.42-.65.53-1.48.35-2.51-4.78.45-8.49.59-11.13.43-2.64-.16-4.66-.8-6.05-1.92-1.39-1.12-2.1-2.95-2.1-5.48 0-3 1.25-5.36 3.74-7.04 2.49-1.69 6.73-2.53 12.72-2.53 3.71 0 8.27.4 13.67 1.19l.54.08c.36 3.43.36 6.84 0 10.25-1.64-.82-3.69-1.44-6.13-1.86-2.44-.42-4.68-.56-6.72-.4-1.31.11-2.39.31-3.26.63-.86.31-1.49.79-1.88 1.42-.39.63-.5 1.45-.32 2.45 4.73-.45 8.42-.6 11.09-.46 2.66.14 4.7.78 6.11 1.9 1.41 1.12 2.12 2.96 2.12 5.52 0 2.98-1.26 5.32-3.78 7.02-2.52 1.7-6.79 2.55-12.8 2.55-2.24 0-4.61-.13-7.1-.4h.03z" id="svg_6"/><path class="cls-1" d="M41.02 29.56c-1.74.13-3.54.45-5.17.76v7.88c-.26.14-.55.26-.88.36-.42.13-.82.17-1.21.15-.55-.02-1.02-.2-1.39-.53-.37-.33-.72-1.29-.83-1.71-.14-.51-.3-1.02-.33-2.49-.02-.4-.03-.85-.03-1.38v-1.47c-3.31-.28-8.15.31-10.06.75-.08.62-.08.88-.11 1.62-.03.74 0 1.05 0 1.62 0 3.08.77 4.41 2.32 5.83 1.55 1.42 3.66 2.14 6.32 2.16.98 0 2-.07 3.03-.22 1.02-.14 2.07-.37 3.16-.66-.03.76-.32 1.4-.89 1.91-.57.51-1.34.89-2.29 1.13-.95.24-2.04.37-3.27.37-1.48 0-2.94-.19-4.37-.58-1.43-.39-2.62-.93-3.54-1.61-.28 2.84-.28 5.69 0 8.53 1.85.41 3.71.71 5.55.88 1.84.18 3.74.27 5.68.27 2.91 0 5.37-.35 7.36-1.05 2.01-.7 3.54-1.84 4.61-3.43 1.08-1.58 1.61-3.66 1.61-6.24V29.43c-1.81-.06-3.49.01-5.28.14l.01-.01z" id="svg_7"/></g><g id="svg_8"><path class="cls-2" d="M109.47 64.87a4.537 4.537 0 01-1.73-1.72c-.4-.71-.6-1.48-.61-2.31-.01-.82.17-1.58.55-2.28.38-.7.95-1.28 1.71-1.7.76-.43 1.69-.65 2.78-.65.73 0 1.52.06 2.39.2.87.13 1.47.27 1.8.41.12 1.16.12 2.28.01 3.37-.94-.26-1.78-.43-2.53-.51-.75-.08-1.37-.04-1.82.14-.46.18-.7.52-.71 1.03.01.54.19.92.56 1.12.36.21.92.26 1.65.17.74-.09 1.69-.32 2.86-.68.11 1.14.11 2.29 0 3.44-.79.22-1.51.39-2.13.48-.63.09-1.33.14-2.09.14-1.04 0-1.95-.22-2.7-.65l.01-.02z" id="svg_9"/><path class="cls-2" d="M123.82 63.55h-.24c-.07.57-.33 1.04-.79 1.42-.46.38-1.15.57-2.06.57-.97 0-1.73-.22-2.26-.67-.53-.44-.8-1.07-.8-1.89 0-.79.32-1.42.95-1.87.63-.45 1.42-.73 2.39-.83.95-.1 1.93-.04 2.91.16.06-.29.02-.52-.11-.73-.12-.2-.32-.35-.59-.45-.27-.1-.57-.15-.92-.16-.64 0-1.37.07-2.17.22-.8.14-1.49.35-2.06.63-.11-1.13-.11-2.23-.01-3.3-.08-.01.16-.04.72-.12.55-.07 1.18-.13 1.89-.19.71-.05 1.37-.08 1.96-.08 1.59 0 2.79.22 3.58.65.8.43 1.31.98 1.54 1.65.23.66.33 1.47.33 2.44 0 1.03 0 1.74-.01 2.14-.02.91-.03 1.6-.05 2.08-1.12.2-2.39.23-3.82.11l-.37-1.76v-.01zm-2.15-.64c.17.13.41.2.71.2.39 0 .74-.12 1.07-.34.32-.22.51-.54.56-.94v-.35c-.35-.12-.74-.16-1.15-.14-.41.02-.75.11-1.04.27-.28.16-.42.4-.42.69 0 .29.09.49.27.63v-.01z" id="svg_10"/><path class="cls-2" d="M131.73 65.42c-.76-.08-1.43-.16-2-.25l-.19-.03c-.11-1.05-.11-2.1 0-3.15.51.25 1.13.44 1.85.58.73.13 1.4.18 2.02.14.41-.03.75-.09 1.04-.18.29-.1.5-.24.62-.44s.16-.46.11-.77c-1.47.13-2.61.18-3.42.13-.81-.04-1.43-.24-1.86-.59-.43-.34-.64-.91-.64-1.68 0-.93.38-1.65 1.15-2.17.76-.52 2.07-.78 3.91-.78 1.14 0 2.54.12 4.2.37l.17.03c.11 1.05.11 2.1 0 3.15-.51-.25-1.14-.44-1.88-.58-.75-.13-1.44-.17-2.06-.12-.4.04-.74.1-1 .2-.27.1-.46.24-.58.44-.12.2-.15.45-.1.76 1.45-.13 2.59-.19 3.41-.14.82.04 1.44.24 1.88.58.43.34.65.91.65 1.7 0 .92-.39 1.64-1.16 2.16-.77.52-2.08.78-3.93.78-.69 0-1.41-.04-2.18-.13v-.01z" id="svg_11"/><path class="cls-2" d="M140.84 56.47c-.44-.25-.66-.63-.66-1.14 0-.53.22-.92.65-1.17.43-.25 1.03-.38 1.8-.38.78 0 1.38.13 1.83.38.44.25.66.64.66 1.17 0 .51-.22.89-.67 1.14-.45.25-1.05.38-1.82.38-.75 0-1.36-.13-1.79-.38zm-.49 5.06c0-1.24.03-2.46.09-3.67h4.41c.07 1.2.1 2.42.1 3.67 0 1.24-.03 2.46-.1 3.67-1.47.22-2.94.22-4.41 0a73.4 73.4 0 01-.09-3.67z" id="svg_12"/><path class="cls-2" d="M146.48 60.85c0-1.44.03-2.86.07-4.27 1.29-.22 2.58-.22 3.86 0l.38 2.08h.24c.12-.63.32-1.12.56-1.47.25-.35.54-.59.89-.73.35-.13.77-.2 1.28-.2.97 0 1.71.24 2.22.73.51.49.84 1.12 1 1.91.16.78.25 1.78.25 2.98 0 .23 0 .49-.01.74 0 .26-.01.53-.02.82l-.01 1.76c-1.49.22-2.98.22-4.48 0v-4.27c0-.33-.05-.6-.14-.8-.1-.21-.22-.35-.37-.44-.15-.09-.33-.13-.53-.13-.36 0-.71.15-1.05.46v5.18c-1.37.22-2.73.22-4.09 0-.05-1.47-.07-2.92-.07-4.35l.02.03z" id="svg_13"/><path class="cls-2" d="M160.83 64.95c-.81-.39-1.41-.93-1.82-1.62-.4-.69-.6-1.48-.6-2.39 0-.93.2-1.74.6-2.45.4-.7 1.01-1.25 1.82-1.65.81-.4 1.81-.59 3-.59 1.18 0 2.19.2 3.01.59.81.4 1.42.94 1.82 1.65.4.7.6 1.52.6 2.45 0 .91-.2 1.71-.6 2.39-.4.69-1.01 1.23-1.82 1.62-.81.39-1.81.58-3.01.58-1.18 0-2.19-.2-3-.58zm1.86-3.13c.28.2.67.3 1.16.3.48 0 .85-.1 1.13-.31.28-.21.41-.5.41-.91 0-.4-.14-.7-.42-.91-.28-.21-.66-.31-1.14-.31-.5 0-.88.11-1.16.31-.28.21-.41.51-.41.92 0 .41.14.72.41.92l.01-.01z" id="svg_14"/></g></g></g></g></svg>