<svg width="188" height="84" xmlns="http://www.w3.org/2000/svg"><defs><clipPath id="clip0_301_6735"><path fill="#fff" id="svg_1" transform="translate(.237 .19)" d="M0 0h188v84H0z"/></clipPath></defs><g class="layer"><g clip-path="url(#clip0_301_6735)" id="svg_2"><path d="M33.94 50.33c-1.12-1.76-1.72-3.91-1.72-6.34 0-4.22 1.77-7.5 4.89-9.49 3.22-5.54 6.55-11.54 6.55-11.54h-7.68c-1.22 2.39-3.32 7.55-4.83 10.26-1.66-2.6-4.23-8.22-5.23-10.26H15.23c2.18 3.89 7.52 12.98 10.01 16.95-.04 5.93-.16 10.42-.16 10.42h8.86z" fill="#000" id="svg_3"/><path d="M36.3 52.02c2.24 1.99 5.44 3.05 9.27 3.05 7.79 0 12.63-4.25 12.63-11.08 0-6.84-4.72-10.93-12.63-10.93-3.85 0-7.06 1.01-9.27 2.93-2.19 1.91-3.35 4.68-3.35 8 0 3.32 1.16 6.08 3.36 8.03v.01l-.01-.01zm9.07-13.94c2.69 0 4.24 2.23 4.24 6.1 0 1.41 0 5.71-4 5.71-2.66 0-4.12-2.15-4.12-6.06 0-2.47.4-5.74 3.88-5.74v-.01z" fill="#000" id="svg_4"/><path clip-rule="evenodd" d="M68.19 28.64c-1.5 0-2.56.56-2.56 2.28 0 1.02 1.48 1.77 3.35 2.73 2.75 1.41 6.35 3.24 7.29 7-.07-5.87-.24-11.03-.24-11.03h8.99c-.02.4-.13 1.44-.22 2.36-.07.69-.14 1.32-.15 1.56.68-2.05 2.78-4.59 6.58-4.59 4.61 0 8 2.81 9.06 7.5 1.3-4.72 5.6-7.5 11.91-7.5 7.71 0 12.33 4.07 12.33 10.72 0 6.53-4.62 10.87-12.33 10.87-6.28 0-10.57-2.93-11.9-7.6-1.01 4.75-4.33 7.6-8.97 7.6-3.15 0-5.49-1.75-6.43-4.14.11 5.67.53 14.6.53 14.6s-5.3-.22-9.51 0c0 0 .37-10.01.37-15.72v-.9c-.99 4.02-5.42 6.16-10.58 6.16-3.67 0-6.31-1.1-7.58-1.78.65-1.42 1.01-3.01 1.01-4.69 0-.34-.02-.67-.04-1 .1.06 3.47 2.01 6.5 2.01 1.92 0 2.6-.74 2.6-1.87 0-1.38-1.68-2.23-3.71-3.26-3.14-1.59-7.12-3.61-7.12-8.66 0-4.7 4.78-8.1 10.64-8.1 4.55 0 7.97 2.2 7.97 2.2l-1.73 5s-3.23-1.75-6.05-1.75h-.01zm19.87 16.32c2.52 0 3.5-2.06 3.5-5.27 0-3.18-.98-5.27-3.5-5.27-2.82 0-3.76 2.58-3.76 5.27 0 2.73.94 5.27 3.76 5.27zm20.6-5.46c0-3.21.83-5.11 3.35-5.11 2.82 0 3.68 2.73 3.68 5.45 0 2.69-.64 5.08-3.46 5.08-2.52 0-3.57-2.24-3.57-5.42zM133 35.13c.56-1.79 2.26-6.2 6.17-6.2.67 0 1.43.07 2.26.22l5.7-5.97h2.71l.04 6.42h5.97l-.31 4.16c1.01-3.21 4.69-4.83 8.75-4.83 5.04 0 8.16 2.24 8.16 2.24l-1.57 4.66s-3.88-1.94-6.24-1.94c-.9 0-1.32.6-1.32 1.23 0 .85 1.34 1.3 3.03 1.87 2.9.98 6.85 2.32 6.85 6.64 0 4.03-3.5 6.87-8.76 6.87-3.44 0-6.04-.83-7.8-1.68-1.48.94-3.73 1.68-6.81 1.68-4.96 0-8.91-2.35-8.91-7.99 0-2.04.03-5.7.07-7.08l-.51 2.68c-1.02-.52-2.63-1.16-4.18-1.12-1.8 0-3.12.74-3.12 4.4 0 2.69.15 6.09.34 8.44h-8.98s.3-8.18.3-15.61c0-1.35-.04-2.9-.08-4.51v-.12h8.23c-.02.62-.01 1.75 0 2.86.01 1.09.02 2.14 0 2.67l.01.01zm22.22 8.89l.69-1.54s4.36 2.95 7.37 2.95c.83 0 1.24-.48 1.24-1.09 0-.98-1.35-1.51-3.02-2.16-2.69-1.05-6.23-2.42-6.23-6.58 0-.15.01-.3.02-.45-.61-.01-2.97-.01-5.56-.04a334.2 334.2 0 00-.11 7.02c0 1.9.15 2.87 2.07 2.87 1.45 0 2.49-.57 3.21-.97.1-.05.2-.11.28-.15l.04.12v.02z" fill="#A4FA18" fill-rule="evenodd" id="svg_5"/></g></g></svg>