<svg width="188" height="84" viewBox="0 0 188 84" fill="none" xmlns="http://www.w3.org/2000/svg">
<path d="M93.4696 22.11L86.6896 64.28H24.8096L30.7196 29.76C30.7196 29.76 30.5396 22.29 42.9096 22.01C55.2796 21.74 93.9196 21.69 93.4596 22.1L93.4696 22.11Z" fill="url(#paint0_linear_6315_587648)"/>
<path d="M93.79 21.2399L87.01 63.4099H25.09L31 28.8899C31 28.8899 30.82 21.4199 43.19 21.1399C55.56 20.8699 94.2 20.7699 93.79 21.2299V21.2399Z" stroke="#BA1F2B" stroke-width="1.83" stroke-miterlimit="10"/>
<path d="M102.36 60.4201C100.21 60.2401 98.2397 60.3301 96.2197 59.9201C95.3497 59.7401 94.9797 59.6001 95.1197 58.5901C96.6297 49.9301 98.0997 41.2201 99.5697 32.5601C99.8897 30.7301 100.35 28.8901 100.49 27.0601C100.63 25.5001 101.36 25.2701 102.74 25.3201C106.36 25.4101 106.36 25.3201 105.72 28.9901C105.4 30.6901 105.17 32.3801 104.85 34.0801C104.76 34.4901 104.44 35.0001 105.03 35.1301C105.44 35.2201 105.9 35.1801 106.45 34.9901C109.29 34.0301 112.27 33.7101 115.02 35.1701C118.37 36.9601 119.19 40.0701 118.82 43.6001C118.45 46.5801 118.04 49.5601 117.08 52.4501C115.29 57.6701 111.9 60.2001 106.36 60.4201C104.99 60.4701 103.61 60.4201 102.37 60.4201H102.36ZM105.16 55.5201C107.68 55.7001 110.38 55.4701 111.48 52.2201C112.63 48.8701 113.27 45.4401 113.22 41.9101C113.22 41.0401 112.9 40.4001 112.26 39.8501C110.93 38.8001 105.48 38.9301 104.15 39.9901C103.74 40.3101 103.78 40.7201 103.74 41.1401C103.1 44.7101 102.46 48.3401 101.82 51.9101C101.13 55.5301 101.09 55.5301 105.17 55.5301L105.16 55.5201Z" fill="#252324"/>
<path d="M136.32 49.0601C134.44 49.0601 132.56 49.0101 130.68 49.0601C129.67 49.1101 128.25 48.5601 127.93 50.2101C127.38 52.9101 127.93 54.4701 129.72 55.1601C130.77 55.5701 131.92 55.8001 133.07 55.7601C135.64 55.6201 138.25 55.5801 140.82 55.3501C142.06 55.2601 142.19 55.6701 142.15 56.7701C142.01 58.8801 141 59.7001 138.9 59.9301C134.82 60.3401 130.79 60.9801 126.8 59.4701C124.14 58.4601 122.68 56.3501 122.49 53.7901C122.08 48.2001 122.95 42.7901 126.52 38.1601C129.73 34.0401 137.84 32.8901 142.01 36.0101C144.85 38.1201 145.45 41.1901 145.22 44.4901C144.85 49.0701 144.81 49.0701 140.27 49.0701C138.9 49.1201 137.61 49.1201 136.33 49.0701L136.32 49.0601ZM134.07 45.4901H138.15C138.56 45.4901 139.02 45.5801 139.34 45.2201C140.44 43.9401 139.29 39.9001 137.6 39.2201C133.8 37.7101 129.63 40.0901 128.89 44.1701C128.71 45.1301 128.98 45.5401 129.94 45.5001C131.36 45.5001 132.69 45.5501 134.06 45.5001L134.07 45.4901Z" fill="#252324"/>
<path d="M160.94 39.6201C158.47 38.7001 158.05 40.2601 157.73 42.2801C157.23 46.0401 156.45 49.7501 155.81 53.5101C155.44 55.7101 155.81 56.1701 158.1 56.1201C158.33 56.1201 158.56 56.0301 158.74 56.0701C159.56 56.2101 160.99 55.1501 161.08 56.8001C161.13 58.1301 161.31 59.9601 159.06 60.1001C158.78 60.1001 158.51 60.1901 158.19 60.2401C151.22 60.9701 149.07 58.5401 150.54 51.6201C151.27 48.1401 151.73 44.5601 152.46 41.0301C152.87 39.1501 151.64 39.3301 150.54 39.1501C149.81 39.0101 148.57 39.4701 148.43 38.6501C148.2 37.6001 148.38 36.3101 148.8 35.3001C149.08 34.6101 150.08 34.9301 150.77 35.0301C152.74 35.2101 154.07 34.7601 153.89 32.4201C153.89 32.2401 153.98 32.0101 154.03 31.7801C154.4 30.7701 153.85 29.2601 154.81 28.8001C156.14 28.1601 157.79 28.6201 159.3 28.5701C160.08 28.5701 159.99 29.1201 159.94 29.6201C159.76 30.9001 159.71 32.2301 159.34 33.4201C158.93 34.7501 159.52 34.9301 160.58 34.8901H162.09C165.11 34.9401 165.02 34.8901 164.61 37.8201C164.2 40.4801 162.27 39.0601 160.94 39.6101V39.6201Z" fill="#252324"/>
<path d="M56.0704 58.4998H33.1504L34.2004 53.1398L49.5204 33.1498H38.8804L40.3504 26.0898H62.2104L61.0604 31.5398L45.5204 51.4298H57.5304L56.0604 58.4898L56.0704 58.4998Z" fill="white"/>
<path d="M79.63 58.5001H60.38L67.21 26.1001H86.46L85.04 33.1101H74.45L73.4 38.2001H83.25L81.65 45.2101H71.8L70.52 51.3101H81.11L79.64 58.5101L79.63 58.5001Z" fill="white"/>
<defs>
<linearGradient id="paint0_linear_6315_587648" x1="55.2796" y1="65.44" x2="67.6596" y2="-1.76997" gradientUnits="userSpaceOnUse">
<stop stop-color="#B02128"/>
<stop offset="0.09" stop-color="#B42B32"/>
<stop offset="0.26" stop-color="#BD474D"/>
<stop offset="0.47" stop-color="#CD7478"/>
<stop offset="0.72" stop-color="#E4B2B5"/>
<stop offset="1" stop-color="white"/>
</linearGradient>
</defs>
</svg>
